G75*
%MOIN*%
%OFA0B0*%
%FSLAX24Y24*%
%IPPOS*%
%LPD*%
%AMOC8*
5,1,8,0,0,1.08239X$1,22.5*
%
%ADD10C,0.0000*%
%ADD11C,0.0060*%
%ADD12C,0.0030*%
%ADD13C,0.0080*%
%ADD14C,0.0020*%
%ADD15C,0.0050*%
%ADD16C,0.0020*%
%ADD17C,0.0100*%
%ADD18R,0.0080X0.0010*%
%ADD19R,0.0100X0.0010*%
%ADD20R,0.0140X0.0010*%
%ADD21R,0.0170X0.0010*%
%ADD22R,0.0150X0.0010*%
%ADD23R,0.0200X0.0010*%
%ADD24R,0.0220X0.0010*%
%ADD25R,0.0250X0.0010*%
%ADD26R,0.0300X0.0010*%
%ADD27R,0.0280X0.0010*%
%ADD28R,0.0330X0.0010*%
%ADD29R,0.0340X0.0010*%
%ADD30R,0.0180X0.0010*%
%ADD31R,0.0320X0.0010*%
%ADD32R,0.0360X0.0010*%
%ADD33R,0.0380X0.0010*%
%ADD34R,0.0390X0.0010*%
%ADD35R,0.0400X0.0010*%
%ADD36R,0.0410X0.0010*%
%ADD37R,0.0160X0.0010*%
%ADD38R,0.0130X0.0010*%
%ADD39R,0.0050X0.0010*%
%ADD40R,0.0350X0.0010*%
%ADD41R,0.0470X0.0010*%
%ADD42R,0.0370X0.0010*%
%ADD43R,0.0270X0.0010*%
%ADD44R,0.0460X0.0010*%
%ADD45R,0.0310X0.0010*%
%ADD46R,0.0430X0.0010*%
%ADD47R,0.0290X0.0010*%
%ADD48R,0.0260X0.0010*%
%ADD49R,0.0230X0.0010*%
%ADD50R,0.0240X0.0010*%
%ADD51R,0.0210X0.0010*%
%ADD52R,0.0040X0.0010*%
%ADD53R,0.0440X0.0010*%
%ADD54R,0.0420X0.0010*%
%ADD55R,0.0010X0.0010*%
%ADD56R,0.0030X0.0010*%
%ADD57R,0.0060X0.0010*%
%ADD58R,0.0070X0.0010*%
%ADD59R,0.0090X0.0010*%
%ADD60R,0.0110X0.0010*%
%ADD61R,0.0190X0.0010*%
%ADD62R,0.0450X0.0010*%
%ADD63R,0.0490X0.0010*%
%ADD64R,0.0500X0.0010*%
%ADD65R,0.0520X0.0010*%
%ADD66R,0.0540X0.0010*%
%ADD67R,0.0560X0.0010*%
%ADD68R,0.0570X0.0010*%
%ADD69R,0.0590X0.0010*%
%ADD70R,0.0620X0.0010*%
%ADD71R,0.0630X0.0010*%
%ADD72R,0.0650X0.0010*%
%ADD73R,0.0670X0.0010*%
%ADD74R,0.0690X0.0010*%
%ADD75R,0.0710X0.0010*%
%ADD76R,0.0730X0.0010*%
%ADD77R,0.0750X0.0010*%
%ADD78R,0.0770X0.0010*%
%ADD79R,0.0790X0.0010*%
%ADD80R,0.0810X0.0010*%
%ADD81R,0.0830X0.0010*%
%ADD82R,0.0850X0.0010*%
%ADD83R,0.0870X0.0010*%
%ADD84R,0.0890X0.0010*%
%ADD85R,0.0920X0.0010*%
%ADD86R,0.0510X0.0010*%
%ADD87R,0.0530X0.0010*%
%ADD88R,0.0550X0.0010*%
%ADD89R,0.0580X0.0010*%
%ADD90R,0.0600X0.0010*%
%ADD91R,0.0610X0.0010*%
%ADD92R,0.0640X0.0010*%
%ADD93R,0.0660X0.0010*%
%ADD94R,0.0680X0.0010*%
%ADD95R,0.0700X0.0010*%
%ADD96R,0.0720X0.0010*%
%ADD97R,0.0480X0.0010*%
%ADD98R,0.0740X0.0010*%
%ADD99R,0.0120X0.0010*%
%ADD100R,0.0020X0.0010*%
%ADD101R,0.0760X0.0010*%
%ADD102R,0.0780X0.0010*%
D10*
X003383Y001125D02*
X007351Y001125D01*
X007391Y001101D01*
X008414Y000172D01*
X008450Y000180D02*
X035745Y000168D01*
X035729Y013928D01*
X008647Y013928D01*
X008643Y013932D02*
X007552Y012798D01*
X007556Y012802D02*
X003387Y012802D01*
X003391Y012802D02*
X003403Y001129D01*
X033599Y006180D02*
X033601Y006213D01*
X033607Y006245D01*
X033616Y006276D01*
X033629Y006306D01*
X033646Y006334D01*
X033666Y006360D01*
X033689Y006384D01*
X033714Y006404D01*
X033742Y006422D01*
X033771Y006436D01*
X033802Y006446D01*
X033834Y006453D01*
X033867Y006456D01*
X033900Y006455D01*
X033932Y006450D01*
X033963Y006441D01*
X033994Y006429D01*
X034022Y006413D01*
X034049Y006394D01*
X034073Y006372D01*
X034094Y006347D01*
X034113Y006320D01*
X034128Y006291D01*
X034139Y006261D01*
X034147Y006229D01*
X034151Y006196D01*
X034151Y006164D01*
X034147Y006131D01*
X034139Y006099D01*
X034128Y006069D01*
X034113Y006040D01*
X034094Y006013D01*
X034073Y005988D01*
X034049Y005966D01*
X034022Y005947D01*
X033994Y005931D01*
X033963Y005919D01*
X033932Y005910D01*
X033900Y005905D01*
X033867Y005904D01*
X033834Y005907D01*
X033802Y005914D01*
X033771Y005924D01*
X033742Y005938D01*
X033714Y005956D01*
X033689Y005976D01*
X033666Y006000D01*
X033646Y006026D01*
X033629Y006054D01*
X033616Y006084D01*
X033607Y006115D01*
X033601Y006147D01*
X033599Y006180D01*
X033599Y007951D02*
X033601Y007984D01*
X033607Y008016D01*
X033616Y008047D01*
X033629Y008077D01*
X033646Y008105D01*
X033666Y008131D01*
X033689Y008155D01*
X033714Y008175D01*
X033742Y008193D01*
X033771Y008207D01*
X033802Y008217D01*
X033834Y008224D01*
X033867Y008227D01*
X033900Y008226D01*
X033932Y008221D01*
X033963Y008212D01*
X033994Y008200D01*
X034022Y008184D01*
X034049Y008165D01*
X034073Y008143D01*
X034094Y008118D01*
X034113Y008091D01*
X034128Y008062D01*
X034139Y008032D01*
X034147Y008000D01*
X034151Y007967D01*
X034151Y007935D01*
X034147Y007902D01*
X034139Y007870D01*
X034128Y007840D01*
X034113Y007811D01*
X034094Y007784D01*
X034073Y007759D01*
X034049Y007737D01*
X034022Y007718D01*
X033994Y007702D01*
X033963Y007690D01*
X033932Y007681D01*
X033900Y007676D01*
X033867Y007675D01*
X033834Y007678D01*
X033802Y007685D01*
X033771Y007695D01*
X033742Y007709D01*
X033714Y007727D01*
X033689Y007747D01*
X033666Y007771D01*
X033646Y007797D01*
X033629Y007825D01*
X033616Y007855D01*
X033607Y007886D01*
X033601Y007918D01*
X033599Y007951D01*
D11*
X030271Y012097D02*
X029771Y012097D01*
X029521Y012347D01*
X029271Y012097D01*
X028771Y012097D01*
X028521Y012347D01*
X028271Y012097D01*
X027771Y012097D01*
X027521Y012347D01*
X027271Y012097D01*
X026771Y012097D01*
X026521Y012347D01*
X026271Y012097D01*
X025771Y012097D01*
X025521Y012347D01*
X025271Y012097D01*
X024771Y012097D01*
X024521Y012347D01*
X024521Y012847D01*
X024771Y013097D01*
X025271Y013097D01*
X025521Y012847D01*
X025771Y013097D01*
X026271Y013097D01*
X026521Y012847D01*
X026771Y013097D01*
X027271Y013097D01*
X027521Y012847D01*
X027771Y013097D01*
X028271Y013097D01*
X028521Y012847D01*
X028771Y013097D01*
X029271Y013097D01*
X029521Y012847D01*
X029771Y013097D01*
X030271Y013097D01*
X030521Y012847D01*
X030521Y012347D01*
X030271Y012097D01*
X032986Y012657D02*
X033009Y012715D01*
X033036Y012772D01*
X033066Y012827D01*
X033100Y012880D01*
X033137Y012931D01*
X033177Y012979D01*
X033220Y013025D01*
X033265Y013068D01*
X033314Y013108D01*
X033365Y013144D01*
X033418Y013178D01*
X033473Y013208D01*
X033529Y013235D01*
X033588Y013258D01*
X033647Y013277D01*
X033708Y013293D01*
X033770Y013305D01*
X033832Y013313D01*
X033895Y013317D01*
X033957Y013317D01*
X034020Y013313D01*
X034082Y013305D01*
X034144Y013293D01*
X034205Y013277D01*
X034264Y013258D01*
X034323Y013235D01*
X034379Y013208D01*
X034434Y013178D01*
X034487Y013144D01*
X034538Y013108D01*
X034587Y013068D01*
X034632Y013025D01*
X034675Y012979D01*
X034715Y012931D01*
X034752Y012880D01*
X034786Y012827D01*
X034816Y012772D01*
X034843Y012715D01*
X034866Y012657D01*
X034866Y011977D02*
X034843Y011919D01*
X034816Y011862D01*
X034786Y011807D01*
X034752Y011754D01*
X034715Y011703D01*
X034675Y011655D01*
X034632Y011609D01*
X034587Y011566D01*
X034538Y011526D01*
X034487Y011490D01*
X034434Y011456D01*
X034379Y011426D01*
X034323Y011399D01*
X034264Y011376D01*
X034205Y011357D01*
X034144Y011341D01*
X034082Y011329D01*
X034020Y011321D01*
X033957Y011317D01*
X033895Y011317D01*
X033832Y011321D01*
X033770Y011329D01*
X033708Y011341D01*
X033647Y011357D01*
X033588Y011376D01*
X033529Y011399D01*
X033473Y011426D01*
X033418Y011456D01*
X033365Y011490D01*
X033314Y011526D01*
X033265Y011566D01*
X033220Y011609D01*
X033177Y011655D01*
X033137Y011703D01*
X033100Y011754D01*
X033066Y011807D01*
X033036Y011862D01*
X033009Y011919D01*
X032986Y011977D01*
X021231Y013514D02*
X018021Y013514D01*
X018021Y006564D01*
X021231Y006564D01*
X021231Y013514D01*
X018201Y013144D02*
X018203Y013173D01*
X018209Y013201D01*
X018218Y013228D01*
X018232Y013253D01*
X018248Y013277D01*
X018268Y013297D01*
X018290Y013316D01*
X018314Y013330D01*
X018341Y013342D01*
X018368Y013350D01*
X018397Y013354D01*
X018425Y013354D01*
X018454Y013350D01*
X018481Y013342D01*
X018508Y013330D01*
X018532Y013316D01*
X018554Y013297D01*
X018574Y013277D01*
X018590Y013253D01*
X018604Y013228D01*
X018613Y013201D01*
X018619Y013173D01*
X018621Y013144D01*
X018619Y013115D01*
X018613Y013087D01*
X018604Y013060D01*
X018590Y013035D01*
X018574Y013011D01*
X018554Y012991D01*
X018532Y012972D01*
X018508Y012958D01*
X018481Y012946D01*
X018454Y012938D01*
X018425Y012934D01*
X018397Y012934D01*
X018368Y012938D01*
X018341Y012946D01*
X018314Y012958D01*
X018290Y012972D01*
X018268Y012991D01*
X018248Y013011D01*
X018232Y013035D01*
X018218Y013060D01*
X018209Y013087D01*
X018203Y013115D01*
X018201Y013144D01*
X009096Y005653D02*
X009096Y005333D01*
X008876Y005333D01*
X008196Y005333D02*
X007976Y005333D01*
X007976Y005653D01*
X007822Y004067D02*
X008249Y004067D01*
X008467Y003853D02*
X008467Y003426D01*
X008467Y003640D02*
X008680Y003853D01*
X008787Y003853D01*
X009111Y003853D02*
X009324Y003853D01*
X009431Y003746D01*
X009431Y003426D01*
X009111Y003426D01*
X009004Y003533D01*
X009111Y003640D01*
X009431Y003640D01*
X009649Y003853D02*
X009649Y003426D01*
X010076Y003426D02*
X010076Y003746D01*
X009969Y003853D01*
X009649Y003853D01*
X010293Y003640D02*
X010613Y003853D01*
X010830Y003746D02*
X011044Y003746D01*
X011260Y003853D02*
X011260Y003533D01*
X011367Y003426D01*
X011687Y003426D01*
X011687Y003853D01*
X011905Y003853D02*
X011905Y003426D01*
X011905Y003640D02*
X012118Y003853D01*
X012225Y003853D01*
X012442Y003853D02*
X012655Y003853D01*
X012548Y003960D02*
X012548Y003533D01*
X012655Y003426D01*
X013516Y003533D02*
X013623Y003426D01*
X013836Y003426D01*
X013943Y003533D01*
X013943Y004067D01*
X014160Y003960D02*
X014160Y003853D01*
X014267Y003746D01*
X014481Y003746D01*
X014587Y003640D01*
X014587Y003533D01*
X014481Y003426D01*
X014267Y003426D01*
X014160Y003533D01*
X013516Y003533D02*
X013516Y004067D01*
X014160Y003960D02*
X014267Y004067D01*
X014481Y004067D01*
X014587Y003960D01*
X014805Y004067D02*
X015125Y004067D01*
X015232Y003960D01*
X015232Y003853D01*
X015125Y003746D01*
X014805Y003746D01*
X015125Y003746D02*
X015232Y003640D01*
X015232Y003533D01*
X015125Y003426D01*
X014805Y003426D01*
X014805Y004067D01*
X018188Y005240D02*
X021088Y005240D01*
X021088Y000790D01*
X018188Y000790D01*
X018188Y005240D01*
X018338Y004850D02*
X018340Y004879D01*
X018346Y004907D01*
X018355Y004934D01*
X018369Y004959D01*
X018385Y004983D01*
X018405Y005003D01*
X018427Y005022D01*
X018451Y005036D01*
X018478Y005048D01*
X018505Y005056D01*
X018534Y005060D01*
X018562Y005060D01*
X018591Y005056D01*
X018618Y005048D01*
X018645Y005036D01*
X018669Y005022D01*
X018691Y005003D01*
X018711Y004983D01*
X018727Y004959D01*
X018741Y004934D01*
X018750Y004907D01*
X018756Y004879D01*
X018758Y004850D01*
X018756Y004821D01*
X018750Y004793D01*
X018741Y004766D01*
X018727Y004741D01*
X018711Y004717D01*
X018691Y004697D01*
X018669Y004678D01*
X018645Y004664D01*
X018618Y004652D01*
X018591Y004644D01*
X018562Y004640D01*
X018534Y004640D01*
X018505Y004644D01*
X018478Y004652D01*
X018451Y004664D01*
X018427Y004678D01*
X018405Y004697D01*
X018385Y004717D01*
X018369Y004741D01*
X018355Y004766D01*
X018346Y004793D01*
X018340Y004821D01*
X018338Y004850D01*
X011044Y004067D02*
X010937Y003960D01*
X010937Y003426D01*
X010613Y003426D02*
X010293Y003640D01*
X010293Y003426D02*
X010293Y004067D01*
X008036Y003746D02*
X007822Y003746D01*
X007822Y003426D02*
X007822Y004067D01*
X027213Y002617D02*
X027213Y001979D01*
X027250Y001979D01*
X027567Y001979D02*
X027604Y001979D01*
X027941Y001979D02*
X027978Y001979D01*
X028296Y001979D02*
X028333Y001979D01*
X028333Y002617D01*
X028296Y002617D01*
X027978Y002617D02*
X027567Y002617D01*
X027250Y002617D02*
X027213Y002617D01*
D12*
X026259Y007674D02*
X026259Y008044D01*
X026444Y008044D01*
X026506Y007982D01*
X026506Y007859D01*
X026444Y007797D01*
X026259Y007797D01*
X026138Y007859D02*
X026076Y007797D01*
X025891Y007797D01*
X025769Y007797D02*
X025769Y007982D01*
X025707Y008044D01*
X025522Y008044D01*
X025522Y007797D01*
X025401Y007797D02*
X025216Y007797D01*
X025154Y007859D01*
X025216Y007920D01*
X025401Y007920D01*
X025401Y007982D02*
X025401Y007797D01*
X025401Y007982D02*
X025339Y008044D01*
X025216Y008044D01*
X025033Y008044D02*
X024847Y008044D01*
X024786Y007982D01*
X024786Y007859D01*
X024847Y007797D01*
X025033Y007797D01*
X025033Y008167D01*
X024664Y007982D02*
X024603Y008044D01*
X024479Y008044D01*
X024417Y007982D01*
X024417Y007859D01*
X024479Y007797D01*
X024603Y007797D01*
X024664Y007859D01*
X024664Y007982D01*
X024296Y008044D02*
X024234Y008044D01*
X024110Y007920D01*
X024110Y007797D02*
X024110Y008044D01*
X023989Y008044D02*
X023804Y008044D01*
X023742Y007982D01*
X023742Y007859D01*
X023804Y007797D01*
X023989Y007797D01*
X023989Y007735D02*
X023989Y008044D01*
X023620Y007859D02*
X023620Y007797D01*
X023558Y007797D01*
X023558Y007859D01*
X023620Y007859D01*
X023437Y007859D02*
X023437Y008044D01*
X023437Y007859D02*
X023375Y007797D01*
X023313Y007859D01*
X023251Y007797D01*
X023190Y007859D01*
X023190Y008044D01*
X023068Y008044D02*
X023068Y007859D01*
X023007Y007797D01*
X022945Y007859D01*
X022883Y007797D01*
X022821Y007859D01*
X022821Y008044D01*
X022700Y008044D02*
X022700Y007859D01*
X022638Y007797D01*
X022576Y007859D01*
X022515Y007797D01*
X022453Y007859D01*
X022453Y008044D01*
X023866Y007674D02*
X023927Y007674D01*
X023989Y007735D01*
X025891Y007982D02*
X025952Y008044D01*
X026138Y008044D01*
X026076Y007920D02*
X025952Y007920D01*
X025891Y007982D01*
X026076Y007920D02*
X026138Y007859D01*
X026627Y007859D02*
X026689Y007920D01*
X026874Y007920D01*
X026874Y007982D02*
X026874Y007797D01*
X026689Y007797D01*
X026627Y007859D01*
X026689Y008044D02*
X026812Y008044D01*
X026874Y007982D01*
X026996Y007920D02*
X027119Y008044D01*
X027181Y008044D01*
X027364Y008044D02*
X027488Y008044D01*
X027549Y007982D01*
X027549Y007797D01*
X027364Y007797D01*
X027303Y007859D01*
X027364Y007920D01*
X027549Y007920D01*
X027671Y007859D02*
X027671Y007982D01*
X027733Y008044D01*
X027918Y008044D01*
X028039Y008044D02*
X028101Y008044D01*
X028101Y007797D01*
X028039Y007797D02*
X028163Y007797D01*
X028285Y007797D02*
X028470Y007797D01*
X028532Y007859D01*
X028470Y007920D01*
X028346Y007920D01*
X028285Y007982D01*
X028346Y008044D01*
X028532Y008044D01*
X028653Y007859D02*
X028715Y007859D01*
X028715Y007797D01*
X028653Y007797D01*
X028653Y007859D01*
X028837Y007859D02*
X028899Y007797D01*
X029084Y007797D01*
X029205Y007859D02*
X029267Y007797D01*
X029391Y007797D01*
X029452Y007859D01*
X029452Y007982D01*
X029391Y008044D01*
X029267Y008044D01*
X029205Y007982D01*
X029205Y007859D01*
X029084Y008044D02*
X028899Y008044D01*
X028837Y007982D01*
X028837Y007859D01*
X029574Y007797D02*
X029574Y008044D01*
X029635Y008044D01*
X029697Y007982D01*
X029759Y008044D01*
X029821Y007982D01*
X029821Y007797D01*
X029697Y007797D02*
X029697Y007982D01*
X028101Y008167D02*
X028101Y008229D01*
X027918Y008167D02*
X027918Y007797D01*
X027733Y007797D01*
X027671Y007859D01*
X026996Y007797D02*
X026996Y008044D01*
X009559Y003082D02*
X009497Y003144D01*
X009374Y003144D01*
X009312Y003082D01*
X009312Y002835D01*
X009374Y002773D01*
X009497Y002773D01*
X009559Y002835D01*
X008822Y003020D02*
X008699Y002773D01*
X008575Y003020D01*
X008454Y002959D02*
X008454Y002897D01*
X008207Y002897D01*
X008207Y002835D02*
X008207Y002959D01*
X008269Y003020D01*
X008392Y003020D01*
X008454Y002959D01*
X008269Y002773D02*
X008207Y002835D01*
X008269Y002773D02*
X008392Y002773D01*
X008086Y002773D02*
X007962Y002897D01*
X008024Y002897D02*
X007839Y002897D01*
X007839Y002773D02*
X007839Y003144D01*
X008024Y003144D01*
X008086Y003082D01*
X008086Y002959D01*
X008024Y002897D01*
D13*
X007466Y000896D02*
X005363Y000896D01*
X007466Y000896D02*
X007466Y013022D01*
X005363Y013022D01*
D14*
X015087Y013084D02*
X015087Y013304D01*
X015197Y013304D01*
X015234Y013267D01*
X015234Y013194D01*
X015197Y013157D01*
X015087Y013157D01*
X015160Y013157D02*
X015234Y013084D01*
X015308Y013084D02*
X015455Y013230D01*
X015455Y013267D01*
X015418Y013304D01*
X015344Y013304D01*
X015308Y013267D01*
X015308Y013084D02*
X015455Y013084D01*
X015796Y011544D02*
X015759Y011507D01*
X015759Y011360D01*
X015796Y011324D01*
X015869Y011324D01*
X015906Y011360D01*
X015980Y011360D02*
X015980Y011324D01*
X015980Y011360D02*
X016127Y011507D01*
X016127Y011544D01*
X015980Y011544D01*
X015906Y011507D02*
X015869Y011544D01*
X015796Y011544D01*
X020639Y013611D02*
X020713Y013611D01*
X020676Y013611D02*
X020676Y013831D01*
X020639Y013831D02*
X020713Y013831D01*
X020787Y013794D02*
X020787Y013647D01*
X020823Y013611D01*
X020897Y013611D01*
X020933Y013647D01*
X021008Y013611D02*
X021154Y013611D01*
X021081Y013611D02*
X021081Y013831D01*
X021008Y013757D01*
X020933Y013794D02*
X020897Y013831D01*
X020823Y013831D01*
X020787Y013794D01*
X024531Y013294D02*
X024567Y013257D01*
X024604Y013257D01*
X024641Y013294D01*
X024641Y013477D01*
X024604Y013477D02*
X024678Y013477D01*
X024752Y013477D02*
X024862Y013477D01*
X024898Y013440D01*
X024898Y013367D01*
X024862Y013330D01*
X024752Y013330D01*
X024752Y013257D02*
X024752Y013477D01*
X024973Y013367D02*
X025119Y013367D01*
X025083Y013257D02*
X025083Y013477D01*
X024973Y013367D01*
X030471Y011700D02*
X030471Y011553D01*
X030507Y011517D01*
X030581Y011517D01*
X030617Y011553D01*
X030692Y011517D02*
X030838Y011663D01*
X030838Y011700D01*
X030802Y011737D01*
X030728Y011737D01*
X030692Y011700D01*
X030617Y011700D02*
X030581Y011737D01*
X030507Y011737D01*
X030471Y011700D01*
X030692Y011517D02*
X030838Y011517D01*
X029441Y010901D02*
X029368Y010864D01*
X029295Y010791D01*
X029405Y010791D01*
X029441Y010754D01*
X029441Y010717D01*
X029405Y010681D01*
X029331Y010681D01*
X029295Y010717D01*
X029295Y010791D01*
X029220Y010864D02*
X029184Y010901D01*
X029110Y010901D01*
X029074Y010864D01*
X029074Y010717D01*
X029110Y010681D01*
X029184Y010681D01*
X029220Y010717D01*
X029000Y010681D02*
X028926Y010681D01*
X028963Y010681D02*
X028963Y010901D01*
X028926Y010901D02*
X029000Y010901D01*
X031534Y009933D02*
X031570Y009897D01*
X031607Y009897D01*
X031644Y009933D01*
X031644Y010117D01*
X031680Y010117D02*
X031607Y010117D01*
X031755Y010007D02*
X031865Y010117D01*
X031865Y009897D01*
X031901Y010007D02*
X031755Y010007D01*
X029553Y007501D02*
X029480Y007464D01*
X029406Y007390D01*
X029516Y007390D01*
X029553Y007354D01*
X029553Y007317D01*
X029516Y007280D01*
X029443Y007280D01*
X029406Y007317D01*
X029406Y007390D01*
X029332Y007390D02*
X029295Y007354D01*
X029185Y007354D01*
X029259Y007354D02*
X029332Y007280D01*
X029332Y007390D02*
X029332Y007464D01*
X029295Y007501D01*
X029185Y007501D01*
X029185Y007280D01*
X024484Y005958D02*
X024337Y005958D01*
X024411Y005958D02*
X024411Y006178D01*
X024337Y006104D01*
X024263Y006141D02*
X024226Y006178D01*
X024153Y006178D01*
X024116Y006141D01*
X024116Y005994D01*
X024153Y005958D01*
X024226Y005958D01*
X024263Y005994D01*
X020833Y005550D02*
X020797Y005586D01*
X020723Y005586D01*
X020686Y005550D01*
X020612Y005550D02*
X020576Y005586D01*
X020502Y005586D01*
X020465Y005550D01*
X020465Y005403D01*
X020502Y005366D01*
X020576Y005366D01*
X020612Y005403D01*
X020686Y005366D02*
X020833Y005513D01*
X020833Y005550D01*
X020833Y005366D02*
X020686Y005366D01*
X020392Y005366D02*
X020318Y005366D01*
X020355Y005366D02*
X020355Y005586D01*
X020318Y005586D02*
X020392Y005586D01*
X019173Y005809D02*
X019136Y005773D01*
X019063Y005773D01*
X019026Y005809D01*
X018952Y005809D02*
X018915Y005773D01*
X018842Y005773D01*
X018805Y005809D01*
X018805Y005956D01*
X018842Y005993D01*
X018915Y005993D01*
X018952Y005956D01*
X019026Y005956D02*
X019063Y005993D01*
X019136Y005993D01*
X019173Y005956D01*
X019173Y005919D01*
X019136Y005883D01*
X019173Y005846D01*
X019173Y005809D01*
X019136Y005883D02*
X019100Y005883D01*
X013027Y006561D02*
X012991Y006524D01*
X012917Y006524D01*
X012881Y006561D01*
X013027Y006708D01*
X013027Y006561D01*
X012881Y006561D02*
X012881Y006708D01*
X012917Y006745D01*
X012991Y006745D01*
X013027Y006708D01*
X012806Y006524D02*
X012660Y006524D01*
X012733Y006524D02*
X012733Y006745D01*
X012660Y006671D01*
X012585Y006708D02*
X012549Y006745D01*
X012475Y006745D01*
X012439Y006708D01*
X012439Y006561D01*
X012475Y006524D01*
X012549Y006524D01*
X012585Y006561D01*
X010895Y006550D02*
X010859Y006514D01*
X010895Y006477D01*
X010895Y006440D01*
X010859Y006404D01*
X010785Y006404D01*
X010749Y006440D01*
X010674Y006440D02*
X010638Y006404D01*
X010564Y006404D01*
X010528Y006440D01*
X010528Y006587D01*
X010564Y006624D01*
X010638Y006624D01*
X010674Y006587D01*
X010749Y006587D02*
X010785Y006624D01*
X010859Y006624D01*
X010895Y006587D01*
X010895Y006550D01*
X010859Y006514D02*
X010822Y006514D01*
X010454Y006624D02*
X010380Y006624D01*
X010417Y006624D02*
X010417Y006404D01*
X010380Y006404D02*
X010454Y006404D01*
X009663Y005631D02*
X009627Y005668D01*
X009553Y005668D01*
X009516Y005631D01*
X009442Y005631D02*
X009406Y005668D01*
X009295Y005668D01*
X009295Y005448D01*
X009406Y005448D01*
X009442Y005484D01*
X009442Y005631D01*
X009516Y005448D02*
X009663Y005595D01*
X009663Y005631D01*
X009663Y005448D02*
X009516Y005448D01*
X005322Y006656D02*
X005182Y006750D01*
X005205Y006804D02*
X005182Y006827D01*
X005182Y006874D01*
X005205Y006897D01*
X005228Y006897D01*
X005322Y006804D01*
X005322Y006897D01*
X005322Y006750D02*
X005182Y006656D01*
X015589Y009282D02*
X015625Y009245D01*
X015699Y009245D01*
X015736Y009282D01*
X015810Y009282D02*
X015846Y009245D01*
X015920Y009245D01*
X015957Y009282D01*
X015957Y009318D01*
X015920Y009355D01*
X015810Y009355D01*
X015810Y009282D01*
X015810Y009355D02*
X015883Y009428D01*
X015957Y009465D01*
X015736Y009428D02*
X015699Y009465D01*
X015625Y009465D01*
X015589Y009428D01*
X015589Y009282D01*
X023045Y008779D02*
X023045Y008632D01*
X023082Y008595D01*
X023156Y008595D01*
X023192Y008632D01*
X023266Y008632D02*
X023303Y008595D01*
X023377Y008595D01*
X023413Y008632D01*
X023413Y008705D01*
X023377Y008742D01*
X023340Y008742D01*
X023266Y008705D01*
X023266Y008816D01*
X023413Y008816D01*
X023192Y008779D02*
X023156Y008816D01*
X023082Y008816D01*
X023045Y008779D01*
X029169Y005434D02*
X029280Y005434D01*
X029316Y005397D01*
X029316Y005324D01*
X029280Y005287D01*
X029169Y005287D01*
X029169Y005213D02*
X029169Y005434D01*
X029243Y005287D02*
X029316Y005213D01*
X029390Y005213D02*
X029390Y005250D01*
X029537Y005397D01*
X029537Y005434D01*
X029390Y005434D01*
X029356Y004465D02*
X029283Y004465D01*
X029246Y004428D01*
X029246Y004282D01*
X029283Y004245D01*
X029356Y004245D01*
X029393Y004282D01*
X029467Y004282D02*
X029504Y004245D01*
X029577Y004245D01*
X029614Y004282D01*
X029614Y004428D01*
X029577Y004465D01*
X029504Y004465D01*
X029467Y004428D01*
X029467Y004392D01*
X029504Y004355D01*
X029614Y004355D01*
X029393Y004428D02*
X029356Y004465D01*
X027763Y004178D02*
X027616Y004178D01*
X027689Y004178D02*
X027689Y004398D01*
X027616Y004325D01*
X027542Y004178D02*
X027395Y004178D01*
X027395Y004398D01*
X026283Y004064D02*
X026209Y003990D01*
X026135Y003953D02*
X026098Y003917D01*
X025988Y003917D01*
X025988Y003843D02*
X025988Y004064D01*
X026098Y004064D01*
X026135Y004027D01*
X026135Y003953D01*
X026062Y003917D02*
X026135Y003843D01*
X026209Y003843D02*
X026356Y003843D01*
X026283Y003843D02*
X026283Y004064D01*
X023156Y002737D02*
X023010Y002737D01*
X023010Y002627D01*
X023083Y002663D01*
X023120Y002663D01*
X023156Y002627D01*
X023156Y002553D01*
X023120Y002516D01*
X023046Y002516D01*
X023010Y002553D01*
X022935Y002516D02*
X022862Y002590D01*
X022899Y002590D02*
X022789Y002590D01*
X022789Y002516D02*
X022789Y002737D01*
X022899Y002737D01*
X022935Y002700D01*
X022935Y002627D01*
X022899Y002590D01*
X026828Y002530D02*
X026828Y002383D01*
X026865Y002309D02*
X026828Y002272D01*
X026828Y002199D01*
X026865Y002162D01*
X027011Y002162D01*
X027048Y002199D01*
X027048Y002272D01*
X027011Y002309D01*
X027011Y002383D02*
X027048Y002383D01*
X027011Y002383D02*
X026865Y002530D01*
X026828Y002530D01*
X026828Y002088D02*
X026828Y002014D01*
X026828Y002051D02*
X027048Y002051D01*
X027048Y002014D02*
X027048Y002088D01*
X030271Y002289D02*
X030308Y002253D01*
X030381Y002253D01*
X030418Y002289D01*
X030492Y002289D02*
X030492Y002326D01*
X030529Y002363D01*
X030602Y002363D01*
X030639Y002326D01*
X030639Y002289D01*
X030602Y002253D01*
X030529Y002253D01*
X030492Y002289D01*
X030529Y002363D02*
X030492Y002399D01*
X030492Y002436D01*
X030529Y002473D01*
X030602Y002473D01*
X030639Y002436D01*
X030639Y002399D01*
X030602Y002363D01*
X030418Y002436D02*
X030381Y002473D01*
X030308Y002473D01*
X030271Y002436D01*
X030271Y002289D01*
X015446Y001032D02*
X015299Y001032D01*
X015409Y001142D01*
X015409Y000922D01*
X015225Y000959D02*
X015188Y000922D01*
X015115Y000922D01*
X015078Y000959D01*
X015078Y001105D01*
X015115Y001142D01*
X015188Y001142D01*
X015225Y001105D01*
X014503Y001191D02*
X014503Y001264D01*
X014466Y001301D01*
X014319Y001301D01*
X014283Y001264D01*
X014283Y001191D01*
X014319Y001154D01*
X014466Y001154D01*
X014503Y001191D01*
X014429Y001228D02*
X014503Y001301D01*
X014503Y001375D02*
X014503Y001522D01*
X014503Y001449D02*
X014283Y001449D01*
X014356Y001375D01*
X031437Y013044D02*
X031437Y013264D01*
X031547Y013264D01*
X031584Y013228D01*
X031584Y013154D01*
X031547Y013118D01*
X031437Y013118D01*
X031511Y013118D02*
X031584Y013044D01*
X031658Y013154D02*
X031805Y013154D01*
X031768Y013044D02*
X031768Y013264D01*
X031658Y013154D01*
D15*
X030096Y013347D02*
X030096Y013422D01*
X030021Y013497D01*
X029796Y013497D01*
X029796Y013347D01*
X029871Y013272D01*
X030021Y013272D01*
X030096Y013347D01*
X029946Y013647D02*
X029796Y013497D01*
X029946Y013647D02*
X030096Y013722D01*
X024946Y011922D02*
X024796Y011772D01*
X024946Y011922D02*
X024946Y011472D01*
X024796Y011472D02*
X025096Y011472D01*
X031119Y009428D02*
X031119Y004703D01*
X032930Y004703D01*
X032930Y004191D01*
X033009Y004113D01*
X033127Y004113D01*
X033324Y004310D01*
X033875Y004310D01*
X034072Y004113D01*
X034190Y004113D01*
X034269Y004191D01*
X034269Y004703D01*
X037418Y004703D01*
X037418Y009428D01*
X034269Y009428D01*
X034269Y009940D01*
X034190Y010018D01*
X034072Y010018D01*
X033875Y009821D01*
X033324Y009821D01*
X033127Y010018D01*
X033009Y010018D01*
X032930Y009940D01*
X032930Y009428D01*
X031119Y009428D01*
X032930Y009428D02*
X034269Y009428D01*
X031907Y007262D02*
X031907Y006869D01*
X032930Y004703D02*
X034269Y004703D01*
D16*
X031907Y006869D02*
X031513Y006869D01*
X031513Y007262D02*
X031907Y007262D01*
D17*
X032993Y002932D02*
X033263Y002932D01*
X033313Y002612D01*
X033563Y002512D02*
X033823Y002692D01*
X034013Y002512D01*
X033833Y002252D01*
X033943Y002002D02*
X034243Y001942D01*
X034243Y001682D01*
X033943Y001632D01*
X033843Y001362D02*
X034013Y001122D01*
X033823Y000932D01*
X033583Y001102D01*
X033483Y001042D01*
X033293Y001492D01*
X032973Y001492D02*
X032773Y001042D01*
X032673Y001102D01*
X032433Y000932D01*
X032253Y001122D01*
X032413Y001362D01*
X032313Y001632D02*
X032013Y001682D01*
X032013Y001942D01*
X032313Y002002D01*
X032423Y002252D02*
X032243Y002512D01*
X032433Y002692D01*
X032693Y002512D01*
X032943Y002612D02*
X032993Y002932D01*
X032973Y001502D02*
X032940Y001520D01*
X032910Y001541D01*
X032881Y001565D01*
X032855Y001592D01*
X032833Y001621D01*
X032813Y001653D01*
X032796Y001686D01*
X032783Y001721D01*
X032774Y001757D01*
X032768Y001794D01*
X032766Y001831D01*
X032768Y001868D01*
X032773Y001905D01*
X032783Y001941D01*
X032795Y001976D01*
X032812Y002010D01*
X032831Y002041D01*
X032854Y002071D01*
X032880Y002098D01*
X032908Y002122D01*
X032939Y002143D01*
X032971Y002161D01*
X033005Y002176D01*
X033041Y002187D01*
X033077Y002195D01*
X033114Y002199D01*
X033152Y002199D01*
X033189Y002195D01*
X033225Y002187D01*
X033261Y002176D01*
X033295Y002161D01*
X033327Y002143D01*
X033358Y002122D01*
X033386Y002098D01*
X033412Y002071D01*
X033435Y002041D01*
X033454Y002010D01*
X033471Y001976D01*
X033483Y001941D01*
X033493Y001905D01*
X033498Y001868D01*
X033500Y001831D01*
X033498Y001794D01*
X033492Y001757D01*
X033483Y001721D01*
X033470Y001686D01*
X033453Y001653D01*
X033433Y001621D01*
X033411Y001592D01*
X033385Y001565D01*
X033356Y001541D01*
X033326Y001520D01*
X033293Y001502D01*
X033843Y001362D02*
X033866Y001403D01*
X033887Y001446D01*
X033905Y001491D01*
X033920Y001536D01*
X033933Y001582D01*
X033943Y001629D01*
X033942Y002002D02*
X033927Y002054D01*
X033908Y002105D01*
X033886Y002155D01*
X033861Y002203D01*
X033832Y002250D01*
X033567Y002513D02*
X033520Y002540D01*
X033471Y002563D01*
X033421Y002583D01*
X033370Y002600D01*
X033318Y002614D01*
X032935Y002612D02*
X032885Y002599D01*
X032836Y002582D01*
X032788Y002563D01*
X032741Y002540D01*
X032696Y002515D01*
X032424Y002247D02*
X032397Y002200D01*
X032373Y002153D01*
X032352Y002104D01*
X032334Y002053D01*
X032320Y002002D01*
X032314Y001631D02*
X032327Y001575D01*
X032344Y001520D01*
X032365Y001467D01*
X032389Y001415D01*
X032417Y001365D01*
X034926Y011747D02*
X034926Y011967D01*
X034926Y011748D02*
X034891Y011691D01*
X034853Y011636D01*
X034812Y011583D01*
X034768Y011533D01*
X034721Y011485D01*
X034671Y011441D01*
X034619Y011399D01*
X034564Y011360D01*
X034508Y011325D01*
X034449Y011293D01*
X034389Y011264D01*
X034327Y011239D01*
X034263Y011218D01*
X034199Y011200D01*
X034134Y011186D01*
X034067Y011176D01*
X034001Y011169D01*
X033934Y011167D01*
X033867Y011168D01*
X033801Y011174D01*
X033734Y011183D01*
X033669Y011196D01*
X033604Y011213D01*
X033541Y011233D01*
X033478Y011258D01*
X033417Y011285D01*
X033358Y011317D01*
X033301Y011351D01*
X033246Y011389D01*
X033193Y011430D01*
X033143Y011474D01*
X033095Y011521D01*
X033050Y011571D01*
X033009Y011623D01*
X032970Y011677D01*
X032934Y011734D01*
X032902Y011793D01*
X032873Y011853D01*
X032848Y011915D01*
X032826Y011978D01*
X032826Y012658D02*
X032848Y012721D01*
X032873Y012783D01*
X032902Y012843D01*
X032934Y012902D01*
X032970Y012959D01*
X033009Y013013D01*
X033050Y013065D01*
X033095Y013115D01*
X033143Y013162D01*
X033193Y013206D01*
X033246Y013247D01*
X033301Y013285D01*
X033358Y013319D01*
X033417Y013351D01*
X033478Y013378D01*
X033540Y013403D01*
X033604Y013423D01*
X033669Y013440D01*
X033734Y013453D01*
X033801Y013462D01*
X033867Y013468D01*
X033934Y013469D01*
X034001Y013467D01*
X034068Y013460D01*
X034134Y013450D01*
X034199Y013436D01*
X034263Y013418D01*
X034327Y013397D01*
X034389Y013372D01*
X034449Y013343D01*
X034508Y013311D01*
X034564Y013276D01*
X034619Y013237D01*
X034671Y013195D01*
X034721Y013150D01*
X034768Y013103D01*
X034812Y013053D01*
X034853Y013000D01*
X034891Y012945D01*
X034926Y012888D01*
X034926Y012887D02*
X034926Y012667D01*
D18*
X010953Y012496D03*
X009533Y011586D03*
X009853Y010486D03*
X009853Y010116D03*
D19*
X009863Y010626D03*
X010903Y010616D03*
X010903Y010116D03*
X010943Y012486D03*
D20*
X010913Y012456D03*
X010203Y010586D03*
X010203Y010546D03*
X010203Y010506D03*
X010203Y010466D03*
X010203Y010306D03*
X010203Y010266D03*
X010203Y010226D03*
X010203Y010186D03*
X010203Y010146D03*
X009983Y010246D03*
X009973Y010226D03*
X009963Y010216D03*
X009983Y010356D03*
X009973Y010376D03*
X009743Y010386D03*
X009733Y010376D03*
X009723Y010346D03*
X009723Y010246D03*
X009733Y010226D03*
X009213Y010246D03*
X009213Y010286D03*
X009213Y010206D03*
X009213Y010166D03*
X009213Y010126D03*
X009213Y010406D03*
X009213Y010446D03*
X009213Y010486D03*
X009503Y010456D03*
X009503Y010446D03*
X009503Y010436D03*
X009853Y010656D03*
X010763Y010496D03*
X010773Y010516D03*
X010753Y010276D03*
X010753Y010266D03*
X011053Y010266D03*
X011033Y010476D03*
X011033Y010486D03*
D21*
X011008Y010526D03*
X011028Y010316D03*
X010778Y010226D03*
X009858Y010126D03*
X009528Y010126D03*
X009528Y010136D03*
X009518Y010146D03*
X009518Y010156D03*
X009508Y010166D03*
X009498Y010186D03*
X009488Y010196D03*
X009488Y010206D03*
X009478Y010216D03*
X009478Y010226D03*
X009468Y010236D03*
X009468Y010246D03*
X009458Y010256D03*
X009458Y010266D03*
X009448Y010276D03*
X009438Y010286D03*
X009428Y010296D03*
X009418Y010306D03*
X009488Y010496D03*
X010898Y012426D03*
D22*
X010918Y012446D03*
X009518Y011556D03*
X010198Y010606D03*
X010198Y010596D03*
X010198Y010576D03*
X010198Y010566D03*
X010198Y010556D03*
X010198Y010536D03*
X010198Y010526D03*
X010198Y010516D03*
X010198Y010496D03*
X010198Y010486D03*
X010198Y010476D03*
X010198Y010456D03*
X010198Y010446D03*
X010198Y010316D03*
X010198Y010296D03*
X010198Y010286D03*
X010198Y010276D03*
X010198Y010256D03*
X010198Y010246D03*
X010198Y010236D03*
X010198Y010216D03*
X010198Y010206D03*
X010198Y010196D03*
X010198Y010176D03*
X010198Y010166D03*
X010198Y010156D03*
X010198Y010136D03*
X010198Y010126D03*
X009958Y010206D03*
X009748Y010206D03*
X009738Y010216D03*
X009218Y010226D03*
X009208Y010236D03*
X009208Y010256D03*
X009218Y010266D03*
X009208Y010276D03*
X009208Y010296D03*
X009218Y010306D03*
X009208Y010216D03*
X009208Y010196D03*
X009218Y010186D03*
X009208Y010176D03*
X009208Y010156D03*
X009218Y010146D03*
X009208Y010136D03*
X009208Y010416D03*
X009218Y010426D03*
X009208Y010436D03*
X009208Y010456D03*
X009218Y010466D03*
X009208Y010476D03*
X009208Y010496D03*
X009498Y010476D03*
X009508Y010466D03*
X009498Y010426D03*
X009748Y010396D03*
X009958Y010396D03*
X009968Y010386D03*
X010518Y010446D03*
X010518Y010456D03*
X010518Y010466D03*
X010518Y010476D03*
X010518Y010486D03*
X010518Y010496D03*
X010518Y010506D03*
X010518Y010516D03*
X010518Y010526D03*
X010518Y010536D03*
X010518Y010546D03*
X010518Y010556D03*
X010518Y010566D03*
X010518Y010576D03*
X010518Y010586D03*
X010518Y010596D03*
X010518Y010606D03*
X010768Y010476D03*
X010778Y010466D03*
X010758Y010256D03*
X010518Y010256D03*
X010518Y010266D03*
X010518Y010276D03*
X010518Y010286D03*
X010518Y010296D03*
X010518Y010306D03*
X010518Y010316D03*
X010518Y010246D03*
X010518Y010236D03*
X010518Y010226D03*
X010518Y010216D03*
X010518Y010206D03*
X010518Y010196D03*
X010518Y010186D03*
X010518Y010176D03*
X010518Y010166D03*
X010518Y010156D03*
X010518Y010146D03*
X010518Y010136D03*
X010518Y010126D03*
X011038Y010236D03*
X011048Y010246D03*
X011048Y010256D03*
X011048Y010276D03*
X011048Y010286D03*
X011048Y010296D03*
X011028Y010496D03*
X011028Y010506D03*
X011018Y010516D03*
D23*
X010903Y010606D03*
X011013Y010326D03*
X010903Y010126D03*
X010883Y012406D03*
D24*
X009853Y010706D03*
X009853Y010136D03*
D25*
X009858Y010146D03*
X010898Y010136D03*
X010988Y010336D03*
X010898Y010596D03*
X009848Y010726D03*
X009488Y011506D03*
X010848Y012356D03*
X010858Y012366D03*
D26*
X010823Y012316D03*
X009843Y010756D03*
X009853Y010436D03*
X009853Y010166D03*
X009293Y010606D03*
X010903Y010146D03*
X010953Y010356D03*
D27*
X010903Y010586D03*
X009853Y010446D03*
X009853Y010156D03*
X009483Y011496D03*
X010833Y012326D03*
X010833Y012336D03*
D28*
X010808Y012286D03*
X009838Y010776D03*
X010898Y010566D03*
X010898Y010396D03*
X010918Y010386D03*
X010918Y010376D03*
X010898Y010156D03*
D29*
X010903Y010166D03*
X009853Y010186D03*
X009853Y010196D03*
X009853Y010406D03*
X009853Y010416D03*
X009463Y011466D03*
X010793Y012276D03*
D30*
X009853Y010676D03*
X010793Y010456D03*
X009503Y010176D03*
D31*
X009303Y010326D03*
X009853Y010426D03*
X009853Y010176D03*
X010883Y010406D03*
X009843Y010766D03*
X009473Y011476D03*
X010813Y012296D03*
D32*
X010783Y012256D03*
X009463Y011456D03*
X009313Y010596D03*
X010903Y010546D03*
X010903Y010176D03*
D33*
X010903Y010186D03*
X009333Y010586D03*
X009453Y011446D03*
X010773Y012226D03*
X010773Y012236D03*
D34*
X009838Y010806D03*
X009338Y010366D03*
X009328Y010356D03*
X010898Y010196D03*
D35*
X010903Y010206D03*
X009833Y010816D03*
X010043Y011096D03*
X009343Y010566D03*
X009333Y010576D03*
X010763Y012206D03*
X010763Y012216D03*
D36*
X009448Y011436D03*
X010058Y011116D03*
X009348Y010386D03*
X009338Y010376D03*
X010898Y010216D03*
D37*
X011033Y010226D03*
X011043Y010306D03*
X010763Y010246D03*
X010763Y010236D03*
X009853Y010476D03*
X009503Y010486D03*
X009493Y010416D03*
X009483Y010406D03*
X009853Y010666D03*
X010783Y010526D03*
X009513Y011546D03*
X010903Y012436D03*
D38*
X010928Y012466D03*
X009858Y010646D03*
X009978Y010366D03*
X009988Y010346D03*
X009988Y010336D03*
X009988Y010326D03*
X009988Y010316D03*
X009988Y010306D03*
X009988Y010296D03*
X009988Y010286D03*
X009988Y010276D03*
X009988Y010266D03*
X009988Y010256D03*
X009978Y010236D03*
X009728Y010236D03*
X009718Y010256D03*
X009718Y010266D03*
X009718Y010276D03*
X009718Y010286D03*
X009718Y010296D03*
X009718Y010306D03*
X009718Y010316D03*
X009718Y010326D03*
X009718Y010336D03*
X009728Y010356D03*
X009728Y010366D03*
X010768Y010486D03*
X010768Y010506D03*
D39*
X010798Y010286D03*
X010968Y012516D03*
D40*
X010798Y012266D03*
X009838Y010786D03*
X009308Y010336D03*
X009308Y010316D03*
X010898Y010556D03*
D41*
X010358Y010436D03*
X010358Y010416D03*
X010358Y010406D03*
X010358Y010396D03*
X010358Y010376D03*
X010358Y010366D03*
X010358Y010346D03*
X010358Y010336D03*
X010358Y010326D03*
X009828Y010856D03*
X010148Y011256D03*
X010158Y011266D03*
X009438Y011406D03*
X010728Y012136D03*
D42*
X010788Y012246D03*
X009838Y010796D03*
X009328Y010346D03*
X010898Y010536D03*
D43*
X010968Y010346D03*
X009848Y010736D03*
X010848Y012346D03*
D44*
X010733Y012146D03*
X010143Y011246D03*
X010133Y011236D03*
X010133Y011226D03*
X010363Y010426D03*
X010363Y010386D03*
X010363Y010356D03*
D45*
X010868Y010416D03*
X010938Y010366D03*
X010898Y010576D03*
X010818Y012306D03*
D46*
X010748Y012176D03*
X010078Y011146D03*
X009358Y010526D03*
X009348Y010536D03*
X009358Y010506D03*
X009348Y010396D03*
D47*
X009848Y010746D03*
X010858Y010426D03*
X009478Y011486D03*
D48*
X010833Y010436D03*
D49*
X010818Y010446D03*
X009848Y010716D03*
X010868Y012386D03*
D50*
X010863Y012376D03*
X009493Y011516D03*
X009853Y010456D03*
D51*
X009858Y010466D03*
X009848Y010696D03*
X009498Y011526D03*
X010878Y012396D03*
D52*
X009863Y010586D03*
X010983Y010466D03*
D53*
X009833Y010836D03*
X010093Y011166D03*
X010093Y011176D03*
X010103Y011186D03*
X009353Y010516D03*
X010743Y012166D03*
D54*
X010753Y012186D03*
X010753Y012196D03*
X009443Y011426D03*
X010063Y011126D03*
X010073Y011136D03*
X010083Y011156D03*
X010053Y011106D03*
X009833Y010826D03*
X009353Y010546D03*
X009343Y010556D03*
D55*
X009868Y010566D03*
X010988Y012536D03*
D56*
X010978Y012526D03*
X009548Y011606D03*
X009868Y010576D03*
D57*
X009863Y010596D03*
X009543Y011596D03*
X010963Y012506D03*
D58*
X009868Y010606D03*
D59*
X009858Y010616D03*
D60*
X009858Y010636D03*
X009528Y011576D03*
X010938Y012476D03*
D61*
X010888Y012416D03*
X009508Y011536D03*
X009858Y010686D03*
D62*
X009828Y010846D03*
X010108Y011196D03*
X010118Y011206D03*
X010118Y011216D03*
X009438Y011416D03*
X010738Y012156D03*
D63*
X010718Y012116D03*
X009428Y011396D03*
X010188Y011316D03*
X010188Y011306D03*
X009828Y010866D03*
D64*
X009823Y010876D03*
X010203Y011326D03*
X010203Y011336D03*
X010213Y011346D03*
X010713Y012106D03*
D65*
X010703Y012076D03*
X010243Y011386D03*
X010233Y011376D03*
X009563Y011106D03*
X009423Y011386D03*
X009823Y010886D03*
D66*
X009823Y010896D03*
X009543Y011126D03*
X009413Y011376D03*
X010273Y011426D03*
X010283Y011436D03*
X010693Y012056D03*
D67*
X010683Y012036D03*
X010323Y011486D03*
X010313Y011476D03*
X010303Y011466D03*
X009523Y011146D03*
X009413Y011366D03*
X009823Y010906D03*
D68*
X009818Y010916D03*
X009508Y011156D03*
X010328Y011496D03*
X010338Y011506D03*
X010678Y012016D03*
X010688Y012026D03*
D69*
X010678Y012006D03*
X010368Y011546D03*
X010358Y011536D03*
X009488Y011176D03*
X009818Y010926D03*
D70*
X009813Y010936D03*
X009463Y011206D03*
X009393Y011336D03*
X010403Y011586D03*
X010413Y011596D03*
X010423Y011606D03*
D71*
X010428Y011616D03*
X010658Y011956D03*
X010668Y011966D03*
X009818Y010946D03*
D72*
X009808Y010956D03*
X009438Y011226D03*
X009388Y011326D03*
X010458Y011646D03*
X010658Y011936D03*
D73*
X010648Y011916D03*
X010488Y011676D03*
X010478Y011666D03*
X009378Y011316D03*
X009808Y010966D03*
D74*
X009808Y010976D03*
X009378Y011306D03*
X010508Y011696D03*
X010518Y011706D03*
X010648Y011896D03*
D75*
X010638Y011876D03*
X010538Y011726D03*
X010528Y011716D03*
X009368Y011296D03*
X009808Y010986D03*
D76*
X009798Y010996D03*
X009368Y011276D03*
X010638Y011856D03*
D77*
X010578Y011756D03*
X009808Y011006D03*
D78*
X009798Y011016D03*
X010628Y011816D03*
D79*
X010628Y011806D03*
X010628Y011796D03*
X009798Y011026D03*
D80*
X009798Y011036D03*
X010628Y011786D03*
D81*
X009798Y011046D03*
D82*
X009788Y011056D03*
D83*
X009788Y011066D03*
D84*
X009788Y011076D03*
D85*
X009783Y011086D03*
D86*
X009568Y011096D03*
X010218Y011356D03*
X010228Y011366D03*
X010708Y012086D03*
X010708Y012096D03*
D87*
X010698Y012066D03*
X010268Y011416D03*
X010258Y011406D03*
X010248Y011396D03*
X009548Y011116D03*
D88*
X009528Y011136D03*
X010288Y011446D03*
X010298Y011456D03*
X010688Y012046D03*
D89*
X010353Y011526D03*
X010343Y011516D03*
X009403Y011356D03*
X009503Y011166D03*
D90*
X009483Y011186D03*
X009403Y011346D03*
X010373Y011556D03*
X010393Y011576D03*
X010673Y011986D03*
X010673Y011996D03*
D91*
X010668Y011976D03*
X010388Y011566D03*
X009468Y011196D03*
D92*
X009443Y011216D03*
X010443Y011626D03*
X010443Y011636D03*
X010663Y011946D03*
D93*
X010653Y011926D03*
X010463Y011656D03*
X009423Y011236D03*
D94*
X009413Y011246D03*
X010493Y011686D03*
X010653Y011906D03*
D95*
X010643Y011886D03*
X009393Y011256D03*
D96*
X009383Y011266D03*
X010553Y011736D03*
X010643Y011866D03*
D97*
X010723Y012126D03*
X010173Y011296D03*
X010173Y011286D03*
X010163Y011276D03*
D98*
X010563Y011746D03*
X010633Y011846D03*
X009363Y011286D03*
D99*
X009523Y011566D03*
D100*
X009553Y011616D03*
D101*
X010593Y011766D03*
X010633Y011826D03*
X010633Y011836D03*
D102*
X010603Y011776D03*
M02*
