G75*
%MOIN*%
%OFA0B0*%
%FSLAX24Y24*%
%IPPOS*%
%LPD*%
%AMOC8*
5,1,8,0,0,1.08239X$1,22.5*
%
%ADD10R,0.0740X0.0740*%
%ADD11C,0.0740*%
%ADD12C,0.2000*%
%ADD13R,0.0866X0.0236*%
%ADD14C,0.0560*%
%ADD15R,0.0512X0.0591*%
%ADD16R,0.0394X0.0551*%
%ADD17R,0.0500X0.0300*%
%ADD18R,0.0591X0.0512*%
%ADD19R,0.2378X0.1339*%
%ADD20R,0.1181X0.0276*%
%ADD21R,0.0787X0.2165*%
%ADD22R,0.0450X0.0300*%
%ADD23R,0.0217X0.0472*%
%ADD24R,0.0394X0.0394*%
%ADD25C,0.0480*%
%ADD26C,0.0320*%
%ADD27C,0.0240*%
%ADD28C,0.0120*%
%ADD29R,0.0356X0.0356*%
%ADD30C,0.0100*%
%ADD31C,0.0160*%
%ADD32C,0.0360*%
D10*
X006922Y004778D03*
D11*
X005804Y005325D03*
X006922Y005869D03*
X005804Y006416D03*
X006922Y006959D03*
X005804Y007503D03*
X006922Y008050D03*
X005804Y008593D03*
X006922Y009140D03*
D12*
X006363Y011880D03*
X006363Y002038D03*
D13*
X009304Y006993D03*
X009304Y007493D03*
X009304Y007993D03*
X009304Y008493D03*
X011351Y008493D03*
X011351Y007993D03*
X011351Y007493D03*
X011351Y006993D03*
X027777Y008843D03*
X027777Y009343D03*
X027777Y009843D03*
X027777Y010343D03*
X029824Y010343D03*
X029824Y009843D03*
X029824Y009343D03*
X029824Y008843D03*
D14*
X030021Y012317D02*
X030021Y012877D01*
X029021Y012877D02*
X029021Y012317D01*
X028021Y012317D02*
X028021Y012877D01*
X027021Y012877D02*
X027021Y012317D01*
X026021Y012317D02*
X026021Y012877D01*
X025021Y012877D02*
X025021Y012317D01*
D15*
X030351Y011148D03*
X031099Y011148D03*
X031316Y012629D03*
X032064Y012629D03*
X023351Y009314D03*
X022603Y009314D03*
X016623Y010814D03*
X015875Y010814D03*
X015690Y008758D03*
X016438Y008758D03*
X017678Y005924D03*
X018426Y005924D03*
X024013Y005605D03*
X024761Y005605D03*
X028926Y005999D03*
X029674Y005999D03*
X029702Y006794D03*
X028954Y006794D03*
X029040Y003786D03*
X029788Y003786D03*
X023403Y002006D03*
X022655Y002006D03*
X014655Y000924D03*
X013907Y000924D03*
X015934Y013195D03*
X016682Y013195D03*
D16*
X008910Y006026D03*
X008162Y006026D03*
X008536Y005160D03*
D17*
X017601Y006794D03*
X017601Y007294D03*
X017601Y007794D03*
X017601Y008294D03*
X017601Y008794D03*
X017601Y009294D03*
X017601Y009794D03*
X017601Y010294D03*
X017601Y010794D03*
X017601Y011294D03*
X017601Y011794D03*
X017601Y012294D03*
X017601Y012794D03*
X017601Y013294D03*
X021651Y013294D03*
X021651Y012794D03*
X021651Y012294D03*
X021651Y011794D03*
X021651Y011294D03*
X021651Y010794D03*
X021651Y010294D03*
X021651Y009794D03*
X021651Y009294D03*
X021651Y008794D03*
X021651Y008294D03*
X021651Y007794D03*
X021651Y007294D03*
X021651Y006794D03*
D18*
X025560Y004373D03*
X025560Y003625D03*
X029800Y002841D03*
X029800Y002093D03*
X012769Y007215D03*
X012769Y007963D03*
D19*
X033647Y009743D03*
X033647Y004388D03*
D20*
X031119Y006327D03*
X031119Y006819D03*
X031119Y007312D03*
X031119Y007804D03*
D21*
X016013Y006518D03*
X016013Y002778D03*
D22*
X017758Y003010D03*
X017758Y002510D03*
X017758Y002010D03*
X017758Y001510D03*
X017758Y001010D03*
X021528Y001010D03*
X021528Y001510D03*
X021528Y002010D03*
X021528Y002510D03*
X021528Y003010D03*
X021528Y003510D03*
X021528Y004010D03*
X021528Y004510D03*
X021528Y005010D03*
X017758Y005010D03*
X017758Y004510D03*
X017758Y004010D03*
X017758Y003510D03*
D23*
X027399Y002810D03*
X028147Y002810D03*
X028147Y001786D03*
X027773Y001786D03*
X027399Y001786D03*
D24*
X027379Y003798D03*
X028166Y003798D03*
D25*
X032926Y012077D02*
X032926Y012557D01*
X033926Y012557D02*
X033926Y012077D01*
X034926Y012077D02*
X034926Y012557D01*
D26*
X032381Y007804D02*
X031895Y007804D01*
X031119Y007804D01*
X032381Y007804D02*
X032666Y007518D01*
X032666Y006038D01*
X031899Y005294D01*
X031887Y005278D02*
X031564Y005022D01*
X025745Y005022D01*
X025706Y005034D02*
X026647Y004432D01*
X026635Y002412D01*
X026918Y001786D01*
X027068Y001786D02*
X026847Y002006D01*
X023403Y002006D01*
X027068Y001786D02*
X027399Y001786D01*
X025560Y004373D02*
X025109Y004815D01*
X025073Y004851D01*
X024915Y005004D01*
X024946Y004975D01*
X024915Y005004D02*
X025109Y004815D01*
X024879Y005026D02*
X023303Y005014D01*
X021528Y005010D01*
X024879Y005026D02*
X025659Y005026D01*
X016438Y008758D02*
X016438Y009302D01*
X016485Y009455D01*
X013647Y007703D02*
X013387Y007963D01*
X012769Y007963D01*
X012739Y007993D01*
X011351Y007993D01*
D27*
X006979Y007993D02*
X006922Y008050D01*
X005814Y007493D02*
X005804Y007503D01*
X016560Y010877D02*
X016560Y011491D01*
X016338Y011713D01*
X015934Y012117D01*
X015934Y013195D01*
X016651Y010786D02*
X017593Y010786D01*
X017601Y010794D02*
X017609Y010786D01*
X020206Y010786D01*
X020485Y010506D01*
X020485Y009566D01*
X020844Y009286D01*
X021096Y009286D01*
X021568Y009278D01*
X021639Y009286D02*
X021651Y009294D01*
X021639Y009286D02*
X022603Y009314D01*
X022615Y009282D01*
X022615Y009735D01*
X022796Y009916D01*
X023237Y009916D01*
X029824Y009843D02*
X029824Y010343D01*
X029824Y010621D01*
X030351Y011148D01*
X030410Y011089D01*
X030410Y010613D01*
X030647Y010377D01*
X031855Y010377D01*
X030351Y011148D02*
X030351Y011195D01*
X030552Y011841D01*
X030977Y012290D01*
X031316Y012629D01*
X032064Y012810D02*
X032655Y013400D01*
X033690Y013400D01*
X033840Y013251D02*
X033840Y012404D01*
X033926Y012317D01*
X030068Y012550D02*
X030021Y012597D01*
X028096Y012672D02*
X028021Y012597D01*
X025383Y005601D02*
X024765Y005601D01*
X024761Y005605D01*
X024013Y005605D02*
X021772Y005593D01*
X021528Y005010D01*
X024879Y005026D02*
X024946Y004975D01*
X025659Y005026D02*
X025745Y005022D01*
X025706Y005034D02*
X025659Y005026D01*
X027379Y003798D02*
X027399Y003778D01*
X027399Y002810D01*
X028147Y002810D02*
X028147Y003778D01*
X028166Y003798D01*
X029029Y003798D01*
X029040Y003786D01*
X029788Y003786D02*
X029800Y003774D01*
X029800Y002841D01*
X028147Y002144D02*
X028005Y002286D01*
X027403Y002286D01*
X027371Y002254D01*
X027371Y001814D01*
X027399Y001786D01*
X027068Y001786D02*
X026918Y001786D01*
X028147Y001786D02*
X028147Y002144D01*
X028147Y001786D02*
X028525Y001408D01*
X029454Y001408D01*
X029812Y001766D01*
X029800Y002093D01*
X025560Y003625D02*
X025489Y003554D01*
X025430Y003530D01*
X031887Y005278D02*
X031899Y005294D01*
D28*
X003662Y001385D02*
X003651Y012542D01*
X005452Y012542D01*
X005320Y012313D01*
X005243Y012028D01*
X005243Y011733D01*
X005320Y011448D01*
X005467Y011193D01*
X005676Y010984D01*
X005931Y010837D01*
X003653Y010837D01*
X003653Y010955D02*
X005726Y010955D01*
X005586Y011074D02*
X003653Y011074D01*
X003652Y011192D02*
X005467Y011192D01*
X005399Y011311D02*
X003652Y011311D01*
X003652Y011429D02*
X005330Y011429D01*
X005293Y011548D02*
X003652Y011548D01*
X003652Y011666D02*
X005261Y011666D01*
X005243Y011785D02*
X003652Y011785D01*
X003652Y011903D02*
X005243Y011903D01*
X005243Y012022D02*
X003652Y012022D01*
X003651Y012140D02*
X005273Y012140D01*
X005305Y012259D02*
X003651Y012259D01*
X003651Y012377D02*
X005357Y012377D01*
X005425Y012496D02*
X003651Y012496D01*
X007275Y012542D02*
X007407Y012313D01*
X007483Y012028D01*
X007483Y011733D01*
X007407Y011448D01*
X007259Y011193D01*
X007051Y010984D01*
X006796Y010837D01*
X012601Y010837D01*
X012601Y010955D02*
X007001Y010955D01*
X007141Y011074D02*
X012601Y011074D01*
X012601Y011192D02*
X007259Y011192D01*
X007328Y011311D02*
X012601Y011311D01*
X012601Y011429D02*
X007396Y011429D01*
X007434Y011548D02*
X012601Y011548D01*
X012601Y011561D02*
X012601Y008848D01*
X012553Y008848D01*
X012482Y008778D01*
X012482Y008339D01*
X012424Y008339D01*
X012357Y008273D01*
X011852Y008273D01*
X011904Y008325D01*
X011904Y008660D01*
X011834Y008731D01*
X011732Y008731D01*
X011732Y009187D01*
X011662Y009257D01*
X011206Y009257D01*
X011136Y009187D01*
X011136Y008731D01*
X011137Y008731D01*
X010869Y008731D01*
X010798Y008660D01*
X010798Y008325D01*
X010869Y008255D01*
X011252Y008255D01*
X011195Y008231D01*
X010869Y008231D01*
X010798Y008160D01*
X010798Y007825D01*
X010869Y007755D01*
X011195Y007755D01*
X011204Y007751D01*
X010900Y007751D01*
X010864Y007741D01*
X010832Y007723D01*
X010806Y007697D01*
X010788Y007665D01*
X010778Y007629D01*
X010778Y007493D01*
X011351Y007493D01*
X011351Y007493D01*
X010778Y007493D01*
X010778Y007356D01*
X010788Y007321D01*
X010806Y007289D01*
X010832Y007263D01*
X010864Y007244D01*
X010900Y007235D01*
X011351Y007235D01*
X011351Y007493D01*
X011351Y007493D01*
X011924Y007493D01*
X011924Y007629D01*
X011915Y007665D01*
X011897Y007697D01*
X011881Y007713D01*
X012353Y007713D01*
X012353Y007658D01*
X012413Y007598D01*
X012388Y007583D01*
X012361Y007557D01*
X012343Y007525D01*
X012333Y007489D01*
X012333Y007275D01*
X012709Y007275D01*
X012709Y007155D01*
X012829Y007155D01*
X012829Y007275D01*
X013204Y007275D01*
X013204Y007489D01*
X013194Y007525D01*
X013176Y007557D01*
X013150Y007583D01*
X013124Y007598D01*
X013184Y007658D01*
X013184Y007683D01*
X013271Y007683D01*
X013349Y007605D01*
X013349Y007475D01*
X013419Y007405D01*
X013875Y007405D01*
X013945Y007475D01*
X013945Y007931D01*
X013875Y008001D01*
X013745Y008001D01*
X013545Y008201D01*
X013443Y008243D01*
X013184Y008243D01*
X013184Y008269D01*
X013114Y008339D01*
X013079Y008339D01*
X013079Y008778D01*
X013008Y008848D01*
X012961Y008848D01*
X012961Y011412D01*
X013666Y012118D01*
X013979Y012118D01*
X013979Y012086D01*
X014049Y012015D01*
X014400Y012015D01*
X014126Y011742D01*
X014126Y008601D01*
X014226Y008502D01*
X015126Y007601D01*
X015126Y004715D01*
X014589Y003732D01*
X014559Y003732D01*
X014449Y003686D01*
X014365Y003602D01*
X014319Y003491D01*
X014319Y003372D01*
X014365Y003262D01*
X014449Y003177D01*
X014559Y003132D01*
X014679Y003132D01*
X014789Y003177D01*
X014873Y003262D01*
X014919Y003372D01*
X014919Y003491D01*
X014887Y003568D01*
X015434Y004569D01*
X015466Y004601D01*
X015466Y004628D01*
X015479Y004652D01*
X015466Y004696D01*
X015466Y007742D01*
X014466Y008742D01*
X014466Y011601D01*
X015645Y012780D01*
X015694Y012780D01*
X015694Y012069D01*
X015731Y011981D01*
X016134Y011577D01*
X016320Y011391D01*
X016320Y011229D01*
X016317Y011229D01*
X016258Y011169D01*
X016243Y011195D01*
X016217Y011221D01*
X016185Y011239D01*
X016149Y011249D01*
X015935Y011249D01*
X015935Y010874D01*
X015815Y010874D01*
X015815Y011249D01*
X015601Y011249D01*
X015565Y011239D01*
X015533Y011221D01*
X015507Y011195D01*
X015489Y011163D01*
X015479Y011127D01*
X015479Y010874D01*
X015815Y010874D01*
X015815Y010754D01*
X015479Y010754D01*
X015479Y010500D01*
X015489Y010464D01*
X015507Y010432D01*
X015533Y010406D01*
X015565Y010388D01*
X015601Y010378D01*
X015815Y010378D01*
X015815Y010754D01*
X015935Y010754D01*
X015935Y010378D01*
X016149Y010378D01*
X016185Y010388D01*
X016217Y010406D01*
X016243Y010432D01*
X016258Y010458D01*
X016317Y010398D01*
X016929Y010398D01*
X016999Y010469D01*
X016999Y010546D01*
X017279Y010546D01*
X017281Y010544D01*
X017231Y010494D01*
X017231Y010094D01*
X017267Y010057D01*
X017265Y010056D01*
X017239Y010030D01*
X017220Y009998D01*
X017211Y009962D01*
X017211Y009809D01*
X017586Y009809D01*
X017586Y009779D01*
X017211Y009779D01*
X017211Y009625D01*
X017220Y009590D01*
X017239Y009558D01*
X017265Y009532D01*
X017267Y009530D01*
X017231Y009494D01*
X017231Y009094D01*
X017281Y009044D01*
X017231Y008994D01*
X017231Y008594D01*
X017281Y008544D01*
X017231Y008494D01*
X017231Y008094D01*
X017281Y008044D01*
X017231Y007994D01*
X017231Y007842D01*
X017051Y007842D01*
X016966Y007926D01*
X016856Y007972D01*
X016737Y007972D01*
X016626Y007926D01*
X016542Y007842D01*
X016496Y007731D01*
X016496Y007681D01*
X016456Y007721D01*
X015890Y007721D01*
X015890Y008343D01*
X015996Y008343D01*
X016055Y008403D01*
X016070Y008377D01*
X016096Y008351D01*
X016128Y008333D01*
X016164Y008323D01*
X016378Y008323D01*
X016378Y008698D01*
X016498Y008698D01*
X016498Y008323D01*
X016712Y008323D01*
X016748Y008333D01*
X016780Y008351D01*
X016806Y008377D01*
X016824Y008409D01*
X016834Y008445D01*
X016834Y008698D01*
X016498Y008698D01*
X016498Y008818D01*
X016834Y008818D01*
X016834Y009072D01*
X016824Y009108D01*
X016806Y009140D01*
X016780Y009166D01*
X016748Y009184D01*
X016712Y009194D01*
X016498Y009194D01*
X016498Y008818D01*
X016378Y008818D01*
X016378Y009194D01*
X016164Y009194D01*
X016128Y009184D01*
X016096Y009166D01*
X016070Y009140D01*
X016055Y009114D01*
X015996Y009174D01*
X015384Y009174D01*
X015314Y009103D01*
X015314Y008413D01*
X015384Y008343D01*
X015490Y008343D01*
X015490Y006758D01*
X015499Y006749D01*
X015499Y005386D01*
X015569Y005316D01*
X016116Y005316D01*
X016116Y004550D01*
X016233Y004432D01*
X016730Y003935D01*
X016730Y002357D01*
X016847Y002240D01*
X016847Y002240D01*
X017159Y001928D01*
X017159Y001928D01*
X017276Y001810D01*
X017413Y001810D01*
X017463Y001760D01*
X017413Y001710D01*
X016738Y001710D01*
X016710Y001726D01*
X016658Y001710D01*
X016603Y001710D01*
X016586Y001693D01*
X016527Y001695D01*
X016527Y003910D01*
X016456Y003981D01*
X015569Y003981D01*
X015499Y003910D01*
X015499Y001646D01*
X015569Y001575D01*
X016043Y001575D01*
X016051Y001535D01*
X015030Y001240D01*
X015030Y001269D01*
X014960Y001339D01*
X014349Y001339D01*
X014289Y001279D01*
X014274Y001305D01*
X014248Y001331D01*
X014216Y001350D01*
X014181Y001359D01*
X013967Y001359D01*
X013967Y000984D01*
X013847Y000984D01*
X013847Y001359D01*
X013632Y001359D01*
X013597Y001350D01*
X013565Y001331D01*
X013539Y001305D01*
X013520Y001273D01*
X013511Y001237D01*
X013511Y000984D01*
X013847Y000984D01*
X013847Y000864D01*
X013967Y000864D01*
X013967Y000489D01*
X014181Y000489D01*
X014216Y000498D01*
X014248Y000516D01*
X014274Y000543D01*
X014289Y000568D01*
X014349Y000509D01*
X014960Y000509D01*
X015030Y000579D01*
X015030Y000824D01*
X016714Y001310D01*
X017413Y001310D01*
X017449Y001274D01*
X017447Y001272D01*
X017421Y001246D01*
X017402Y001214D01*
X017393Y001179D01*
X017393Y001025D01*
X017743Y001025D01*
X017743Y000995D01*
X017773Y000995D01*
X017773Y000720D01*
X018001Y000720D01*
X018037Y000730D01*
X018069Y000748D01*
X018095Y000774D01*
X018113Y000806D01*
X018123Y000842D01*
X018123Y000995D01*
X017773Y000995D01*
X017773Y001025D01*
X018123Y001025D01*
X018123Y001179D01*
X018113Y001214D01*
X018095Y001246D01*
X018069Y001272D01*
X018066Y001274D01*
X018103Y001311D01*
X018103Y001710D01*
X018052Y001760D01*
X018103Y001811D01*
X018103Y002210D01*
X018052Y002260D01*
X018103Y002311D01*
X018103Y002710D01*
X018052Y002760D01*
X018103Y002811D01*
X018103Y003210D01*
X018052Y003260D01*
X018103Y003311D01*
X018103Y003710D01*
X018052Y003760D01*
X018103Y003811D01*
X018103Y003830D01*
X018654Y003830D01*
X018930Y004106D01*
X018971Y004147D01*
X018971Y003082D01*
X019076Y002976D01*
X020222Y001830D01*
X021183Y001830D01*
X021183Y001811D01*
X021233Y001760D01*
X021183Y001710D01*
X021183Y001311D01*
X021233Y001260D01*
X021183Y001210D01*
X021183Y000811D01*
X021253Y000740D01*
X021802Y000740D01*
X021873Y000811D01*
X021873Y001210D01*
X021822Y001260D01*
X021873Y001311D01*
X021873Y001710D01*
X021822Y001760D01*
X021872Y001810D01*
X022279Y001810D01*
X022279Y001661D01*
X022349Y001591D01*
X022960Y001591D01*
X023029Y001660D01*
X023097Y001591D01*
X023708Y001591D01*
X023779Y001661D01*
X023779Y001726D01*
X026638Y001726D01*
X026686Y001620D01*
X026768Y001544D01*
X026872Y001504D01*
X026983Y001508D01*
X026995Y001513D01*
X027012Y001506D01*
X027170Y001506D01*
X027170Y001500D01*
X027241Y001430D01*
X027557Y001430D01*
X027572Y001445D01*
X027578Y001438D01*
X027610Y001419D01*
X027646Y001410D01*
X027773Y001410D01*
X027899Y001410D01*
X027935Y001419D01*
X027967Y001438D01*
X027974Y001445D01*
X027989Y001430D01*
X028164Y001430D01*
X028389Y001205D01*
X028477Y001168D01*
X029502Y001168D01*
X029590Y001205D01*
X029657Y001272D01*
X029951Y001566D01*
X029955Y001568D01*
X029985Y001600D01*
X030016Y001630D01*
X030017Y001634D01*
X030020Y001638D01*
X030035Y001678D01*
X030051Y001717D01*
X030145Y001717D01*
X030216Y001787D01*
X030216Y002399D01*
X030156Y002458D01*
X030181Y002473D01*
X030208Y002499D01*
X030226Y002531D01*
X030236Y002567D01*
X030236Y002781D01*
X029860Y002781D01*
X029860Y002901D01*
X029740Y002901D01*
X029740Y002781D01*
X029365Y002781D01*
X029365Y002567D01*
X029375Y002531D01*
X029393Y002499D01*
X029419Y002473D01*
X029445Y002458D01*
X029385Y002399D01*
X029385Y001787D01*
X029439Y001733D01*
X029354Y001648D01*
X028624Y001648D01*
X028387Y001885D01*
X028387Y002192D01*
X028350Y002280D01*
X028208Y002422D01*
X028177Y002453D01*
X028305Y002453D01*
X028375Y002524D01*
X028375Y002734D01*
X028387Y002762D01*
X028387Y003481D01*
X028413Y003481D01*
X028483Y003551D01*
X028483Y003558D01*
X028626Y003558D01*
X028626Y003426D01*
X028542Y003342D01*
X028496Y003231D01*
X028496Y003112D01*
X028542Y003002D01*
X028626Y002917D01*
X028737Y002872D01*
X028856Y002872D01*
X028966Y002917D01*
X029051Y003002D01*
X029096Y003112D01*
X029096Y003231D01*
X029051Y003342D01*
X029022Y003371D01*
X029346Y003371D01*
X029406Y003430D01*
X029420Y003405D01*
X029447Y003379D01*
X029478Y003360D01*
X029514Y003351D01*
X029728Y003351D01*
X029728Y003726D01*
X029848Y003726D01*
X029848Y003351D01*
X030063Y003351D01*
X030098Y003360D01*
X030130Y003379D01*
X030156Y003405D01*
X030175Y003437D01*
X030184Y003472D01*
X030184Y003726D01*
X029848Y003726D01*
X029848Y003846D01*
X029728Y003846D01*
X029728Y004221D01*
X029514Y004221D01*
X029478Y004212D01*
X029447Y004193D01*
X029420Y004167D01*
X029406Y004142D01*
X029346Y004201D01*
X028735Y004201D01*
X028664Y004131D01*
X028664Y004038D01*
X028483Y004038D01*
X028483Y004044D01*
X028413Y004115D01*
X027920Y004115D01*
X027850Y004044D01*
X027850Y003551D01*
X027907Y003494D01*
X027907Y002762D01*
X027918Y002734D01*
X027918Y002526D01*
X027627Y002526D01*
X027627Y002734D01*
X027639Y002762D01*
X027639Y003494D01*
X027696Y003551D01*
X027696Y004044D01*
X027626Y004115D01*
X027132Y004115D01*
X027062Y004044D01*
X027062Y003551D01*
X027132Y003481D01*
X027159Y003481D01*
X027159Y002762D01*
X027170Y002734D01*
X027170Y002524D01*
X027236Y002458D01*
X027168Y002390D01*
X027131Y002302D01*
X027131Y002119D01*
X027029Y002221D01*
X026915Y002472D01*
X026927Y004406D01*
X026932Y004437D01*
X026927Y004461D01*
X026927Y004486D01*
X026915Y004515D01*
X026908Y004546D01*
X026894Y004566D01*
X026885Y004589D01*
X026863Y004611D01*
X026845Y004637D01*
X026824Y004651D01*
X026807Y004668D01*
X026777Y004680D01*
X026681Y004742D01*
X031548Y004742D01*
X031587Y004738D01*
X031603Y004742D01*
X031620Y004742D01*
X031656Y004757D01*
X031694Y004768D01*
X031707Y004778D01*
X031723Y004785D01*
X031751Y004813D01*
X032104Y005093D01*
X032117Y005115D01*
X032823Y005800D01*
X032825Y005801D01*
X032863Y005838D01*
X032901Y005876D01*
X032902Y005878D01*
X032904Y005879D01*
X032924Y005929D01*
X032945Y005978D01*
X032946Y005980D01*
X032946Y005982D01*
X032946Y006036D01*
X032947Y006089D01*
X032946Y006091D01*
X032946Y007574D01*
X032904Y007677D01*
X032825Y007756D01*
X033376Y007756D01*
X033339Y007845D02*
X033421Y007648D01*
X033572Y007497D01*
X033769Y007416D01*
X033982Y007416D01*
X034178Y007497D01*
X034329Y007648D01*
X034411Y007845D01*
X034411Y008058D01*
X034329Y008255D01*
X034178Y008405D01*
X033982Y008487D01*
X033769Y008487D01*
X033572Y008405D01*
X033421Y008255D01*
X033339Y008058D01*
X033339Y007845D01*
X033339Y007874D02*
X032706Y007874D01*
X032588Y007993D02*
X033339Y007993D01*
X033362Y008111D02*
X031691Y008111D01*
X031693Y008113D02*
X031693Y008569D01*
X031623Y008639D01*
X031167Y008639D01*
X031097Y008569D01*
X031097Y008521D01*
X030221Y008521D01*
X030104Y008404D01*
X029694Y007994D01*
X022020Y007994D01*
X021970Y008044D01*
X022021Y008094D01*
X022021Y008114D01*
X029556Y008114D01*
X029661Y008219D01*
X030004Y008562D01*
X030004Y008605D01*
X030307Y008605D01*
X030377Y008675D01*
X030377Y009011D01*
X030307Y009081D01*
X029341Y009081D01*
X029271Y009011D01*
X029271Y008675D01*
X029341Y008605D01*
X029538Y008605D01*
X029407Y008474D01*
X022021Y008474D01*
X022021Y008494D01*
X021984Y008530D01*
X021987Y008532D01*
X022013Y008558D01*
X022031Y008590D01*
X022041Y008625D01*
X022041Y008779D01*
X021666Y008779D01*
X021666Y008809D01*
X022041Y008809D01*
X022041Y008962D01*
X022031Y008998D01*
X022013Y009030D01*
X021987Y009056D01*
X022227Y009063D01*
X022227Y008969D01*
X022298Y008898D01*
X022909Y008898D01*
X022969Y008958D01*
X022983Y008932D01*
X023010Y008906D01*
X023041Y008888D01*
X023077Y008878D01*
X023291Y008878D01*
X023291Y009254D01*
X023411Y009254D01*
X023411Y009374D01*
X023747Y009374D01*
X023747Y009627D01*
X023738Y009663D01*
X023719Y009695D01*
X023693Y009721D01*
X023661Y009739D01*
X023626Y009749D01*
X023535Y009749D01*
X023535Y010144D01*
X023475Y010204D01*
X026297Y010204D01*
X026838Y009663D01*
X027236Y009663D01*
X027294Y009605D01*
X028259Y009605D01*
X028330Y009675D01*
X028330Y010011D01*
X028259Y010081D01*
X027294Y010081D01*
X027236Y010023D01*
X026987Y010023D01*
X026551Y010459D01*
X026446Y010564D01*
X022996Y010564D01*
X022996Y010616D01*
X022926Y010686D01*
X022470Y010686D01*
X022400Y010616D01*
X022400Y010288D01*
X022049Y009990D01*
X022021Y009990D01*
X022021Y009994D01*
X021970Y010044D01*
X022021Y010094D01*
X022021Y010494D01*
X021970Y010544D01*
X022021Y010594D01*
X022021Y010994D01*
X021970Y011044D01*
X022021Y011094D01*
X022021Y011494D01*
X021970Y011544D01*
X022021Y011594D01*
X022021Y011606D01*
X023627Y011606D01*
X024340Y010893D01*
X026206Y010893D01*
X026936Y010163D01*
X027236Y010163D01*
X027294Y010105D01*
X028259Y010105D01*
X028330Y010175D01*
X028330Y010511D01*
X028259Y010581D01*
X027294Y010581D01*
X027236Y010523D01*
X027085Y010523D01*
X026461Y011148D01*
X026392Y011216D01*
X029658Y011216D01*
X029670Y011207D01*
X029731Y011216D01*
X029792Y011216D01*
X029803Y011227D01*
X029818Y011229D01*
X029854Y011278D01*
X029898Y011322D01*
X029898Y011337D01*
X029976Y011442D01*
X029976Y011112D01*
X029620Y010757D01*
X029584Y010668D01*
X029584Y010581D01*
X029341Y010581D01*
X029271Y010511D01*
X029271Y010175D01*
X029341Y010105D01*
X029584Y010105D01*
X029584Y010081D01*
X029341Y010081D01*
X029271Y010011D01*
X029271Y009675D01*
X029341Y009605D01*
X029772Y009605D01*
X029776Y009603D01*
X029872Y009603D01*
X029876Y009605D01*
X030307Y009605D01*
X030377Y009675D01*
X030377Y010011D01*
X030307Y010081D01*
X030064Y010081D01*
X030064Y010105D01*
X030307Y010105D01*
X030377Y010175D01*
X030377Y010307D01*
X030511Y010173D01*
X030599Y010137D01*
X031569Y010137D01*
X031628Y010078D01*
X032083Y010078D01*
X032153Y010149D01*
X032153Y010604D01*
X032083Y010675D01*
X031628Y010675D01*
X031569Y010617D01*
X030746Y010617D01*
X030650Y010712D01*
X030650Y010733D01*
X030657Y010733D01*
X030717Y010793D01*
X030732Y010767D01*
X030758Y010741D01*
X030790Y010722D01*
X030825Y010713D01*
X031039Y010713D01*
X031039Y011088D01*
X031159Y011088D01*
X031159Y010713D01*
X031374Y010713D01*
X031409Y010722D01*
X031441Y010741D01*
X031467Y010767D01*
X031486Y010799D01*
X031495Y010834D01*
X031495Y011088D01*
X031159Y011088D01*
X031159Y011208D01*
X031039Y011208D01*
X031039Y011583D01*
X030825Y011583D01*
X030790Y011574D01*
X030758Y011555D01*
X030732Y011529D01*
X030717Y011504D01*
X030703Y011518D01*
X030765Y011717D01*
X031149Y012123D01*
X031240Y012213D01*
X031622Y012213D01*
X031690Y012282D01*
X031758Y012213D01*
X032370Y012213D01*
X032440Y012284D01*
X032440Y012846D01*
X032754Y013160D01*
X033600Y013160D01*
X033600Y012710D01*
X033566Y012629D01*
X033566Y012006D01*
X033621Y011874D01*
X033722Y011772D01*
X033855Y011717D01*
X033998Y011717D01*
X034130Y011772D01*
X034231Y011874D01*
X034286Y012006D01*
X034286Y012629D01*
X034231Y012761D01*
X034130Y012863D01*
X034080Y012884D01*
X034080Y013298D01*
X034043Y013386D01*
X033976Y013454D01*
X033918Y013478D01*
X033893Y013536D01*
X033826Y013604D01*
X033738Y013640D01*
X032607Y013640D01*
X032519Y013604D01*
X032451Y013536D01*
X031959Y013044D01*
X031758Y013044D01*
X031690Y012975D01*
X031622Y013044D01*
X031010Y013044D01*
X030940Y012973D01*
X030940Y012592D01*
X030839Y012491D01*
X030836Y012490D01*
X030805Y012457D01*
X030774Y012426D01*
X030773Y012423D01*
X030405Y012035D01*
X030398Y012031D01*
X030373Y012001D01*
X030345Y011972D01*
X030342Y011964D01*
X030337Y011958D01*
X030325Y011920D01*
X030311Y011882D01*
X030311Y011874D01*
X030215Y011563D01*
X030066Y011563D01*
X030205Y011751D01*
X030248Y011794D01*
X030248Y011809D01*
X030257Y011821D01*
X030248Y011882D01*
X030248Y011979D01*
X030360Y012090D01*
X030421Y012237D01*
X030421Y012957D01*
X030360Y013104D01*
X030247Y013216D01*
X030100Y013277D01*
X029941Y013277D01*
X029794Y013216D01*
X029682Y013104D01*
X029621Y012957D01*
X029621Y012237D01*
X029682Y012090D01*
X029794Y011978D01*
X029888Y011939D01*
X029888Y011928D01*
X029627Y011576D01*
X024762Y011576D01*
X024499Y011913D01*
X024465Y011968D01*
X024454Y011971D01*
X024447Y011979D01*
X024435Y011981D01*
X024102Y012372D01*
X024102Y012381D01*
X024054Y012428D01*
X024011Y012479D01*
X024002Y012480D01*
X023996Y012486D01*
X023929Y012486D01*
X023862Y012491D01*
X023856Y012485D01*
X022958Y012481D01*
X022988Y012511D01*
X022988Y012967D01*
X022918Y013037D01*
X022462Y013037D01*
X022392Y012967D01*
X022392Y012939D01*
X022021Y012939D01*
X022021Y012994D01*
X021970Y013044D01*
X022021Y013094D01*
X022021Y013114D01*
X023951Y013114D01*
X024018Y013109D01*
X024024Y013114D01*
X024032Y013114D01*
X024080Y013162D01*
X024304Y013354D01*
X027772Y013354D01*
X027886Y013254D01*
X027794Y013216D01*
X027682Y013104D01*
X027621Y012957D01*
X027621Y012237D01*
X027682Y012090D01*
X027794Y011978D01*
X027941Y011917D01*
X028100Y011917D01*
X028247Y011978D01*
X028360Y012090D01*
X028421Y012237D01*
X028421Y012957D01*
X028360Y013104D01*
X028276Y013188D01*
X028276Y013242D01*
X028280Y013247D01*
X028276Y013316D01*
X028276Y013384D01*
X028271Y013389D01*
X028270Y013396D01*
X028219Y013441D01*
X028170Y013490D01*
X028163Y013490D01*
X027963Y013665D01*
X027960Y013668D01*
X035470Y013668D01*
X035485Y000428D01*
X008506Y000440D01*
X007584Y001276D01*
X007569Y001297D01*
X007547Y001311D01*
X007527Y001328D01*
X007509Y001335D01*
X007499Y001345D01*
X007469Y001357D01*
X007441Y001374D01*
X007421Y001377D01*
X007403Y001385D01*
X007371Y001385D01*
X007339Y001389D01*
X007319Y001385D01*
X007279Y001385D01*
X007407Y001606D01*
X007483Y001891D01*
X007483Y002185D01*
X007407Y002470D01*
X007259Y002726D01*
X007051Y002934D01*
X006796Y003082D01*
X006511Y003158D01*
X006216Y003158D01*
X005931Y003082D01*
X005676Y002934D01*
X005467Y002726D01*
X005320Y002470D01*
X005243Y002185D01*
X005243Y001891D01*
X005320Y001606D01*
X005447Y001385D01*
X003662Y001385D01*
X003662Y001475D02*
X005395Y001475D01*
X005326Y001594D02*
X003662Y001594D01*
X003662Y001712D02*
X005291Y001712D01*
X005259Y001831D02*
X003662Y001831D01*
X003662Y001949D02*
X005243Y001949D01*
X005243Y002068D02*
X003662Y002068D01*
X003662Y002186D02*
X005243Y002186D01*
X005275Y002305D02*
X003661Y002305D01*
X003661Y002423D02*
X005307Y002423D01*
X005361Y002542D02*
X003661Y002542D01*
X003661Y002660D02*
X005429Y002660D01*
X005520Y002779D02*
X003661Y002779D01*
X003661Y002897D02*
X005639Y002897D01*
X005817Y003016D02*
X003661Y003016D01*
X003661Y003134D02*
X006128Y003134D01*
X006599Y003134D02*
X014553Y003134D01*
X014685Y003134D02*
X015499Y003134D01*
X015499Y003016D02*
X006910Y003016D01*
X007088Y002897D02*
X015499Y002897D01*
X015499Y002779D02*
X007206Y002779D01*
X007297Y002660D02*
X015499Y002660D01*
X015499Y002542D02*
X007366Y002542D01*
X007419Y002423D02*
X015499Y002423D01*
X015499Y002305D02*
X007451Y002305D01*
X007483Y002186D02*
X015499Y002186D01*
X015499Y002068D02*
X007483Y002068D01*
X007483Y001949D02*
X015499Y001949D01*
X015499Y001831D02*
X007467Y001831D01*
X007435Y001712D02*
X015499Y001712D01*
X015551Y001594D02*
X007400Y001594D01*
X007332Y001475D02*
X015844Y001475D01*
X016257Y001522D02*
X016686Y001510D01*
X016664Y001712D02*
X016527Y001712D01*
X016527Y001831D02*
X017256Y001831D01*
X017138Y001949D02*
X016527Y001949D01*
X016527Y002068D02*
X017019Y002068D01*
X016901Y002186D02*
X016527Y002186D01*
X016527Y002305D02*
X016782Y002305D01*
X016730Y002423D02*
X016527Y002423D01*
X016527Y002542D02*
X016730Y002542D01*
X016730Y002660D02*
X016527Y002660D01*
X016527Y002779D02*
X016730Y002779D01*
X016730Y002897D02*
X016527Y002897D01*
X016527Y003016D02*
X016730Y003016D01*
X016730Y003134D02*
X016527Y003134D01*
X016527Y003253D02*
X016730Y003253D01*
X016730Y003371D02*
X016527Y003371D01*
X016527Y003490D02*
X016730Y003490D01*
X016730Y003608D02*
X016527Y003608D01*
X016527Y003727D02*
X016730Y003727D01*
X016730Y003845D02*
X016527Y003845D01*
X016473Y003964D02*
X016702Y003964D01*
X016583Y004082D02*
X015168Y004082D01*
X015103Y003964D02*
X015552Y003964D01*
X015499Y003845D02*
X015039Y003845D01*
X014974Y003727D02*
X015499Y003727D01*
X015499Y003608D02*
X014909Y003608D01*
X014919Y003490D02*
X015499Y003490D01*
X015499Y003371D02*
X014919Y003371D01*
X014865Y003253D02*
X015499Y003253D01*
X014548Y003727D02*
X003660Y003727D01*
X003660Y003845D02*
X014651Y003845D01*
X014716Y003964D02*
X003660Y003964D01*
X003660Y004082D02*
X014781Y004082D01*
X014845Y004201D02*
X003659Y004201D01*
X003659Y004319D02*
X006471Y004319D01*
X006503Y004288D02*
X007342Y004288D01*
X007412Y004358D01*
X007412Y005198D01*
X007342Y005268D01*
X006503Y005268D01*
X006432Y005198D01*
X006432Y004358D01*
X006503Y004288D01*
X006432Y004438D02*
X003659Y004438D01*
X003659Y004556D02*
X006432Y004556D01*
X006432Y004675D02*
X003659Y004675D01*
X003659Y004793D02*
X006432Y004793D01*
X006432Y004912D02*
X006084Y004912D01*
X006082Y004910D02*
X006220Y005048D01*
X006294Y005228D01*
X006294Y005423D01*
X006220Y005603D01*
X006082Y005741D01*
X005902Y005815D01*
X005707Y005815D01*
X005527Y005741D01*
X005389Y005603D01*
X005314Y005423D01*
X005314Y005228D01*
X005389Y005048D01*
X005527Y004910D01*
X005707Y004835D01*
X005902Y004835D01*
X006082Y004910D01*
X006202Y005030D02*
X006432Y005030D01*
X006432Y005149D02*
X006261Y005149D01*
X006294Y005267D02*
X006502Y005267D01*
X006645Y005453D02*
X006825Y005379D01*
X007020Y005379D01*
X007200Y005453D01*
X007338Y005591D01*
X007412Y005771D01*
X007412Y005966D01*
X007338Y006146D01*
X007226Y006258D01*
X007592Y006258D01*
X007846Y006016D01*
X007846Y005701D01*
X007916Y005631D01*
X008409Y005631D01*
X008479Y005701D01*
X008479Y006351D01*
X008409Y006422D01*
X007941Y006422D01*
X007744Y006609D01*
X007595Y006606D01*
X007588Y006598D01*
X007282Y006598D01*
X007311Y006627D01*
X007358Y006692D01*
X007395Y006763D01*
X007420Y006840D01*
X007432Y006919D01*
X007432Y006919D01*
X006962Y006919D01*
X006962Y006999D01*
X007432Y006999D01*
X007432Y006999D01*
X007420Y007079D01*
X007395Y007155D01*
X007358Y007227D01*
X007311Y007291D01*
X007280Y007323D01*
X008753Y007323D01*
X008821Y007255D01*
X009787Y007255D01*
X009791Y007258D01*
X009791Y007241D01*
X009756Y007251D01*
X009304Y007251D01*
X008853Y007251D01*
X008817Y007241D01*
X008785Y007223D01*
X008759Y007197D01*
X008741Y007165D01*
X008731Y007129D01*
X008731Y006993D01*
X009304Y006993D01*
X009304Y007251D01*
X009304Y006993D01*
X009304Y006993D01*
X009304Y006993D01*
X008731Y006993D01*
X008731Y006856D01*
X008741Y006821D01*
X008759Y006789D01*
X008785Y006763D01*
X008817Y006744D01*
X008853Y006735D01*
X009304Y006735D01*
X009304Y006993D01*
X009304Y006993D01*
X009304Y006735D01*
X009756Y006735D01*
X009791Y006744D01*
X009800Y006749D01*
X009792Y006339D01*
X009227Y006255D01*
X009227Y006351D01*
X009157Y006422D01*
X008664Y006422D01*
X008594Y006351D01*
X008594Y005701D01*
X008664Y005631D01*
X009157Y005631D01*
X009227Y005701D01*
X009227Y005891D01*
X009981Y006003D01*
X010041Y006002D01*
X010053Y006014D01*
X010070Y006017D01*
X010105Y006064D01*
X010148Y006106D01*
X010148Y006123D01*
X010159Y006136D01*
X010150Y006195D01*
X010160Y006772D01*
X010163Y006775D01*
X010161Y006846D01*
X010163Y006916D01*
X010160Y006920D01*
X010146Y007457D01*
X010154Y007517D01*
X010144Y007530D01*
X010144Y007546D01*
X010100Y007588D01*
X010063Y007636D01*
X010047Y007638D01*
X010036Y007649D01*
X009975Y007647D01*
X009873Y007661D01*
X009863Y007671D01*
X009847Y007671D01*
X009787Y007731D01*
X008821Y007731D01*
X008753Y007663D01*
X007228Y007663D01*
X007338Y007772D01*
X007346Y007793D01*
X008783Y007793D01*
X008821Y007755D01*
X009787Y007755D01*
X009857Y007825D01*
X009857Y008160D01*
X009787Y008231D01*
X008821Y008231D01*
X008783Y008193D01*
X007393Y008193D01*
X007338Y008327D01*
X007200Y008465D01*
X007020Y008540D01*
X006825Y008540D01*
X006645Y008465D01*
X006507Y008327D01*
X006466Y008230D01*
X006162Y008230D01*
X006193Y008261D01*
X006240Y008326D01*
X006277Y008397D01*
X006302Y008474D01*
X006314Y008553D01*
X005844Y008553D01*
X005844Y008633D01*
X005764Y008633D01*
X005764Y008553D01*
X005294Y008553D01*
X005307Y008474D01*
X005332Y008397D01*
X005368Y008326D01*
X005415Y008261D01*
X005446Y008230D01*
X003655Y008230D01*
X003655Y008348D02*
X005356Y008348D01*
X005309Y008467D02*
X003655Y008467D01*
X003655Y008585D02*
X005764Y008585D01*
X005764Y008633D02*
X005294Y008633D01*
X005294Y008633D01*
X005307Y008712D01*
X005332Y008789D01*
X005368Y008860D01*
X005415Y008925D01*
X005472Y008982D01*
X005537Y009029D01*
X005608Y009066D01*
X005685Y009091D01*
X005764Y009103D01*
X005764Y009103D01*
X005764Y008633D01*
X005764Y008704D02*
X005844Y008704D01*
X005844Y008633D02*
X005844Y009103D01*
X005844Y009103D01*
X005924Y009091D01*
X006000Y009066D01*
X006071Y009029D01*
X006136Y008982D01*
X006193Y008925D01*
X006240Y008860D01*
X006277Y008789D01*
X006302Y008712D01*
X006314Y008633D01*
X006314Y008633D01*
X005844Y008633D01*
X005844Y008585D02*
X008751Y008585D01*
X008751Y008660D02*
X008751Y008325D01*
X008821Y008255D01*
X009787Y008255D01*
X009857Y008325D01*
X009857Y008660D01*
X009787Y008731D01*
X008821Y008731D01*
X008751Y008660D01*
X008794Y008704D02*
X007149Y008704D01*
X007200Y008725D02*
X007338Y008863D01*
X007412Y009043D01*
X007412Y009238D01*
X007338Y009418D01*
X007200Y009556D01*
X007020Y009630D01*
X006825Y009630D01*
X006645Y009556D01*
X006507Y009418D01*
X006432Y009238D01*
X006432Y009043D01*
X006507Y008863D01*
X006645Y008725D01*
X006825Y008650D01*
X007020Y008650D01*
X007200Y008725D01*
X007297Y008822D02*
X011136Y008822D01*
X011136Y008941D02*
X007370Y008941D01*
X007412Y009059D02*
X011136Y009059D01*
X011136Y009178D02*
X007412Y009178D01*
X007388Y009296D02*
X012601Y009296D01*
X012601Y009178D02*
X011732Y009178D01*
X011732Y009059D02*
X012601Y009059D01*
X012601Y008941D02*
X011732Y008941D01*
X011732Y008822D02*
X012527Y008822D01*
X012482Y008704D02*
X011861Y008704D01*
X011904Y008585D02*
X012482Y008585D01*
X012482Y008467D02*
X011904Y008467D01*
X011904Y008348D02*
X012482Y008348D01*
X012781Y008550D02*
X012781Y011487D01*
X013592Y012298D01*
X014261Y012298D01*
X014277Y012314D01*
X014575Y012259D02*
X014643Y012259D01*
X014575Y012191D02*
X014575Y012541D01*
X014504Y012612D01*
X014049Y012612D01*
X013979Y012541D01*
X013979Y012478D01*
X013517Y012478D01*
X013412Y012372D01*
X012601Y011561D01*
X012706Y011666D02*
X007465Y011666D01*
X007483Y011785D02*
X012824Y011785D01*
X012943Y011903D02*
X007483Y011903D01*
X007483Y012022D02*
X013061Y012022D01*
X013180Y012140D02*
X007453Y012140D01*
X007421Y012259D02*
X013298Y012259D01*
X013417Y012377D02*
X007370Y012377D01*
X007301Y012496D02*
X013979Y012496D01*
X014575Y012496D02*
X014880Y012496D01*
X014998Y012614D02*
X007736Y012614D01*
X007738Y012616D02*
X007777Y012654D01*
X007778Y012657D01*
X008750Y013668D01*
X024116Y013668D01*
X024115Y013666D01*
X023891Y013474D01*
X022021Y013474D01*
X022021Y013494D01*
X021950Y013564D01*
X021351Y013564D01*
X021281Y013494D01*
X021281Y013094D01*
X021331Y013044D01*
X021281Y012994D01*
X021281Y012594D01*
X021331Y012544D01*
X021281Y012494D01*
X021281Y012094D01*
X021331Y012044D01*
X021281Y011994D01*
X021281Y011594D01*
X021331Y011544D01*
X021281Y011494D01*
X021281Y011094D01*
X021331Y011044D01*
X021281Y010994D01*
X021281Y010966D01*
X021095Y010966D01*
X020858Y011203D01*
X020858Y011404D01*
X020788Y011474D01*
X020332Y011474D01*
X020262Y011404D01*
X020262Y011022D01*
X020253Y011026D01*
X017938Y011026D01*
X017920Y011044D01*
X017971Y011094D01*
X017971Y011494D01*
X017920Y011544D01*
X017971Y011594D01*
X017971Y011994D01*
X017920Y012044D01*
X017971Y012094D01*
X017971Y012494D01*
X017920Y012544D01*
X017971Y012594D01*
X017971Y012994D01*
X017920Y013044D01*
X017970Y013094D01*
X018601Y013094D01*
X018601Y013066D01*
X018671Y012996D01*
X019126Y012996D01*
X019197Y013066D01*
X019197Y013522D01*
X019126Y013592D01*
X018671Y013592D01*
X018601Y013522D01*
X018601Y013494D01*
X017970Y013494D01*
X017900Y013564D01*
X017301Y013564D01*
X017231Y013494D01*
X017231Y013435D01*
X017058Y013417D01*
X017058Y013540D01*
X016988Y013611D01*
X016377Y013611D01*
X016308Y013542D01*
X016240Y013611D01*
X015628Y013611D01*
X015558Y013540D01*
X015558Y013174D01*
X014575Y012191D01*
X014887Y012022D02*
X015714Y012022D01*
X015694Y012140D02*
X015005Y012140D01*
X015124Y012259D02*
X015694Y012259D01*
X015694Y012377D02*
X015242Y012377D01*
X015361Y012496D02*
X015694Y012496D01*
X015694Y012614D02*
X015479Y012614D01*
X015598Y012733D02*
X015694Y012733D01*
X015235Y012851D02*
X007964Y012851D01*
X007850Y012733D02*
X015117Y012733D01*
X015354Y012970D02*
X008078Y012970D01*
X008192Y013088D02*
X015472Y013088D01*
X015558Y013207D02*
X008306Y013207D01*
X008420Y013325D02*
X015558Y013325D01*
X015558Y013444D02*
X008534Y013444D01*
X008648Y013562D02*
X015580Y013562D01*
X016288Y013562D02*
X016328Y013562D01*
X016682Y013195D02*
X017601Y013294D01*
X017231Y013444D02*
X017058Y013444D01*
X017036Y013562D02*
X017299Y013562D01*
X017902Y013562D02*
X018641Y013562D01*
X019156Y013562D02*
X021349Y013562D01*
X021281Y013444D02*
X019197Y013444D01*
X019197Y013325D02*
X021281Y013325D01*
X021281Y013207D02*
X019197Y013207D01*
X019197Y013088D02*
X021286Y013088D01*
X021281Y012970D02*
X017971Y012970D01*
X017965Y013088D02*
X018601Y013088D01*
X017971Y012851D02*
X021281Y012851D01*
X021281Y012733D02*
X017971Y012733D01*
X017971Y012614D02*
X021281Y012614D01*
X021283Y012496D02*
X017968Y012496D01*
X017971Y012377D02*
X021281Y012377D01*
X021281Y012259D02*
X017971Y012259D01*
X017971Y012140D02*
X021281Y012140D01*
X021309Y012022D02*
X017942Y012022D01*
X017971Y011903D02*
X021281Y011903D01*
X021281Y011785D02*
X017971Y011785D01*
X017971Y011666D02*
X021281Y011666D01*
X021327Y011548D02*
X017924Y011548D01*
X017971Y011429D02*
X020288Y011429D01*
X020262Y011311D02*
X017971Y011311D01*
X017971Y011192D02*
X020262Y011192D01*
X020262Y011074D02*
X017950Y011074D01*
X017601Y010794D02*
X017593Y010786D01*
X017920Y010544D02*
X017922Y010546D01*
X018872Y010546D01*
X018872Y010113D01*
X018942Y010043D01*
X018971Y010043D01*
X018971Y008677D01*
X018791Y008857D01*
X018686Y008962D01*
X017971Y008962D01*
X017971Y008994D01*
X017920Y009044D01*
X017971Y009094D01*
X017971Y009494D01*
X017934Y009530D01*
X017937Y009532D01*
X017963Y009558D01*
X017981Y009590D01*
X017991Y009625D01*
X017991Y009779D01*
X017616Y009779D01*
X017616Y009809D01*
X017991Y009809D01*
X017991Y009962D01*
X017981Y009998D01*
X017963Y010030D01*
X017937Y010056D01*
X017934Y010057D01*
X017971Y010094D01*
X017971Y010494D01*
X017920Y010544D01*
X017971Y010481D02*
X018872Y010481D01*
X018872Y010363D02*
X017971Y010363D01*
X017971Y010244D02*
X018872Y010244D01*
X018872Y010126D02*
X017971Y010126D01*
X017976Y010007D02*
X018971Y010007D01*
X018971Y009889D02*
X017991Y009889D01*
X017991Y009770D02*
X018971Y009770D01*
X018971Y009652D02*
X017991Y009652D01*
X017938Y009533D02*
X018971Y009533D01*
X018971Y009415D02*
X017971Y009415D01*
X017971Y009296D02*
X018971Y009296D01*
X018971Y009178D02*
X017971Y009178D01*
X017936Y009059D02*
X018971Y009059D01*
X018971Y008941D02*
X018707Y008941D01*
X018826Y008822D02*
X018971Y008822D01*
X018971Y008704D02*
X018944Y008704D01*
X018855Y008538D02*
X018611Y008782D01*
X017612Y008782D01*
X017601Y008794D01*
X017231Y008822D02*
X016834Y008822D01*
X016834Y008941D02*
X017231Y008941D01*
X017265Y009059D02*
X016834Y009059D01*
X016759Y009178D02*
X017231Y009178D01*
X017231Y009296D02*
X014466Y009296D01*
X014466Y009178D02*
X016117Y009178D01*
X016378Y009178D02*
X016498Y009178D01*
X016498Y009059D02*
X016378Y009059D01*
X016378Y008941D02*
X016498Y008941D01*
X016498Y008822D02*
X016378Y008822D01*
X016498Y008704D02*
X017231Y008704D01*
X017239Y008585D02*
X016834Y008585D01*
X016834Y008467D02*
X017231Y008467D01*
X017231Y008348D02*
X016775Y008348D01*
X016498Y008348D02*
X016378Y008348D01*
X016378Y008467D02*
X016498Y008467D01*
X016498Y008585D02*
X016378Y008585D01*
X016101Y008348D02*
X016001Y008348D01*
X015890Y008230D02*
X017231Y008230D01*
X017231Y008111D02*
X015890Y008111D01*
X015890Y007993D02*
X017231Y007993D01*
X017231Y007874D02*
X017018Y007874D01*
X016575Y007874D02*
X015890Y007874D01*
X015890Y007756D02*
X016506Y007756D01*
X015490Y007756D02*
X015453Y007756D01*
X015466Y007637D02*
X015490Y007637D01*
X015490Y007519D02*
X015466Y007519D01*
X015466Y007400D02*
X015490Y007400D01*
X015490Y007282D02*
X015466Y007282D01*
X015466Y007163D02*
X015490Y007163D01*
X015490Y007045D02*
X015466Y007045D01*
X015466Y006926D02*
X015490Y006926D01*
X015490Y006808D02*
X015466Y006808D01*
X015466Y006689D02*
X015499Y006689D01*
X015499Y006571D02*
X015466Y006571D01*
X015466Y006452D02*
X015499Y006452D01*
X015499Y006334D02*
X015466Y006334D01*
X015466Y006215D02*
X015499Y006215D01*
X015499Y006097D02*
X015466Y006097D01*
X015466Y005978D02*
X015499Y005978D01*
X015499Y005860D02*
X015466Y005860D01*
X015466Y005741D02*
X015499Y005741D01*
X015499Y005623D02*
X015466Y005623D01*
X015466Y005504D02*
X015499Y005504D01*
X015499Y005386D02*
X015466Y005386D01*
X015466Y005267D02*
X016116Y005267D01*
X016116Y005149D02*
X015466Y005149D01*
X015466Y005030D02*
X016116Y005030D01*
X016116Y004912D02*
X015466Y004912D01*
X015466Y004793D02*
X016116Y004793D01*
X016116Y004675D02*
X015473Y004675D01*
X015427Y004556D02*
X016116Y004556D01*
X016228Y004438D02*
X015362Y004438D01*
X015298Y004319D02*
X016346Y004319D01*
X016465Y004201D02*
X015233Y004201D01*
X014910Y004319D02*
X007373Y004319D01*
X007412Y004438D02*
X014975Y004438D01*
X015040Y004556D02*
X007412Y004556D01*
X007412Y004675D02*
X015104Y004675D01*
X015126Y004793D02*
X014819Y004793D01*
X014819Y004751D02*
X014819Y005207D01*
X014749Y005277D01*
X014293Y005277D01*
X014223Y005207D01*
X014223Y005159D01*
X012729Y005159D01*
X011791Y006097D01*
X015126Y006097D01*
X015126Y006215D02*
X011791Y006215D01*
X011791Y006097D02*
X011791Y006755D01*
X011834Y006755D01*
X011904Y006825D01*
X011904Y007160D01*
X011834Y007231D01*
X010869Y007231D01*
X010798Y007160D01*
X010798Y006825D01*
X010869Y006755D01*
X011431Y006755D01*
X011431Y005948D01*
X012475Y004904D01*
X012580Y004799D01*
X014223Y004799D01*
X014223Y004751D01*
X014293Y004681D01*
X014749Y004681D01*
X014819Y004751D01*
X014819Y004912D02*
X015126Y004912D01*
X015126Y005030D02*
X014819Y005030D01*
X014819Y005149D02*
X015126Y005149D01*
X015126Y005267D02*
X014758Y005267D01*
X015126Y005386D02*
X012502Y005386D01*
X012384Y005504D02*
X015126Y005504D01*
X015126Y005623D02*
X012265Y005623D01*
X012147Y005741D02*
X015126Y005741D01*
X015126Y005860D02*
X012028Y005860D01*
X011910Y005978D02*
X015126Y005978D01*
X015126Y006334D02*
X011791Y006334D01*
X011791Y006452D02*
X015126Y006452D01*
X015126Y006571D02*
X011791Y006571D01*
X011791Y006689D02*
X015126Y006689D01*
X015126Y006808D02*
X011887Y006808D01*
X011904Y006926D02*
X012337Y006926D01*
X012333Y006941D02*
X012343Y006905D01*
X012361Y006873D01*
X012388Y006847D01*
X012419Y006829D01*
X012455Y006819D01*
X012709Y006819D01*
X012709Y007155D01*
X012333Y007155D01*
X012333Y006941D01*
X012333Y007045D02*
X011904Y007045D01*
X011902Y007163D02*
X012709Y007163D01*
X012709Y007045D02*
X012829Y007045D01*
X012829Y007155D02*
X012829Y006819D01*
X013082Y006819D01*
X013118Y006829D01*
X013150Y006847D01*
X013176Y006873D01*
X013194Y006905D01*
X013204Y006941D01*
X013204Y007155D01*
X012829Y007155D01*
X012829Y007163D02*
X015126Y007163D01*
X015126Y007045D02*
X013204Y007045D01*
X013200Y006926D02*
X015126Y006926D01*
X015690Y006841D02*
X016013Y006518D01*
X016316Y006215D01*
X016855Y006778D02*
X016946Y006688D01*
X016946Y005688D01*
X017347Y005357D01*
X018391Y005357D01*
X018501Y005247D01*
X018501Y004621D01*
X018391Y004510D01*
X017758Y004510D01*
X017758Y005010D02*
X017746Y005022D01*
X017013Y005022D01*
X018580Y004010D02*
X018855Y004286D01*
X018855Y008538D01*
X018675Y008463D02*
X018537Y008602D01*
X017971Y008602D01*
X017971Y008594D01*
X017920Y008544D01*
X017971Y008494D01*
X017971Y008094D01*
X017920Y008044D01*
X017971Y007994D01*
X017971Y007673D01*
X017978Y007642D01*
X017971Y007630D01*
X017971Y007594D01*
X017920Y007544D01*
X017971Y007494D01*
X017971Y007466D01*
X017982Y007466D01*
X017982Y007514D01*
X018053Y007584D01*
X018508Y007584D01*
X018579Y007514D01*
X018579Y007058D01*
X018508Y006988D01*
X018053Y006988D01*
X017982Y007058D01*
X017982Y007106D01*
X017971Y007106D01*
X017971Y007094D01*
X017920Y007044D01*
X017971Y006994D01*
X017971Y006594D01*
X017900Y006524D01*
X017801Y006524D01*
X017801Y006339D01*
X017984Y006339D01*
X018043Y006279D01*
X018058Y006305D01*
X018084Y006331D01*
X018116Y006350D01*
X018152Y006359D01*
X018366Y006359D01*
X018366Y005984D01*
X018486Y005984D01*
X018486Y006359D01*
X018675Y006359D01*
X018675Y008463D01*
X018672Y008467D02*
X017971Y008467D01*
X017971Y008348D02*
X018675Y008348D01*
X018675Y008230D02*
X017971Y008230D01*
X017971Y008111D02*
X018675Y008111D01*
X018675Y007993D02*
X017971Y007993D01*
X017971Y007874D02*
X018675Y007874D01*
X018675Y007756D02*
X017971Y007756D01*
X017975Y007637D02*
X018675Y007637D01*
X018675Y007519D02*
X018574Y007519D01*
X018579Y007400D02*
X018675Y007400D01*
X018675Y007282D02*
X018579Y007282D01*
X018579Y007163D02*
X018675Y007163D01*
X018675Y007045D02*
X018565Y007045D01*
X018675Y006926D02*
X017971Y006926D01*
X017971Y006808D02*
X018675Y006808D01*
X018675Y006689D02*
X017971Y006689D01*
X017947Y006571D02*
X018675Y006571D01*
X018675Y006452D02*
X017801Y006452D01*
X017989Y006334D02*
X018089Y006334D01*
X018366Y006334D02*
X018486Y006334D01*
X018486Y006215D02*
X018366Y006215D01*
X018366Y006097D02*
X018486Y006097D01*
X019632Y006097D02*
X019691Y006097D01*
X019691Y006215D02*
X019632Y006215D01*
X019632Y006334D02*
X019691Y006334D01*
X019691Y006452D02*
X019632Y006452D01*
X019632Y006571D02*
X019691Y006571D01*
X019691Y006689D02*
X019632Y006689D01*
X019632Y006808D02*
X019691Y006808D01*
X019691Y006926D02*
X019632Y006926D01*
X019632Y007045D02*
X019691Y007045D01*
X019691Y007163D02*
X019632Y007163D01*
X019632Y007282D02*
X019691Y007282D01*
X019691Y007400D02*
X019632Y007400D01*
X019632Y007519D02*
X019691Y007519D01*
X019691Y007637D02*
X019632Y007637D01*
X019632Y007756D02*
X019691Y007756D01*
X019691Y007874D02*
X019633Y007874D01*
X019633Y007993D02*
X019691Y007993D01*
X019691Y008065D02*
X019691Y003260D01*
X019630Y003321D01*
X019634Y009882D01*
X019753Y010035D01*
X019985Y010035D01*
X020055Y010105D01*
X020055Y010546D01*
X020106Y010546D01*
X020245Y010407D01*
X020245Y009598D01*
X020241Y009583D01*
X020245Y009551D01*
X020245Y009518D01*
X020251Y009504D01*
X020253Y009489D01*
X020269Y009460D01*
X020282Y009430D01*
X020293Y009419D01*
X020300Y009406D01*
X020326Y009385D01*
X020349Y009362D01*
X020363Y009356D01*
X020684Y009106D01*
X020708Y009083D01*
X020722Y009077D01*
X020734Y009067D01*
X020765Y009059D01*
X020796Y009046D01*
X020811Y009046D01*
X020826Y009042D01*
X020858Y009046D01*
X021094Y009046D01*
X021301Y009043D01*
X021289Y009030D01*
X021270Y008998D01*
X021261Y008962D01*
X021261Y008809D01*
X021636Y008809D01*
X021636Y008779D01*
X021261Y008779D01*
X021261Y008625D01*
X021270Y008590D01*
X021289Y008558D01*
X021315Y008532D01*
X021317Y008530D01*
X021308Y008521D01*
X020147Y008521D01*
X020041Y008416D01*
X019691Y008065D01*
X019737Y008111D02*
X019633Y008111D01*
X019633Y008230D02*
X019856Y008230D01*
X019974Y008348D02*
X019633Y008348D01*
X019633Y008467D02*
X020093Y008467D01*
X020221Y008341D02*
X021603Y008341D01*
X021651Y008294D01*
X029481Y008294D01*
X029824Y008636D01*
X029824Y008843D01*
X030328Y009059D02*
X032338Y009059D01*
X032338Y009024D02*
X032408Y008953D01*
X034885Y008953D01*
X034956Y009024D01*
X034956Y010462D01*
X034885Y010532D01*
X032408Y010532D01*
X032338Y010462D01*
X032338Y009024D01*
X032338Y009178D02*
X030377Y009178D01*
X030377Y009175D02*
X030377Y009511D01*
X030307Y009581D01*
X029341Y009581D01*
X029283Y009523D01*
X029047Y009523D01*
X029047Y009565D01*
X028977Y009635D01*
X028521Y009635D01*
X028451Y009565D01*
X028451Y009109D01*
X028521Y009039D01*
X028977Y009039D01*
X029047Y009109D01*
X029047Y009163D01*
X029283Y009163D01*
X029341Y009105D01*
X030307Y009105D01*
X030377Y009175D01*
X030377Y009296D02*
X032338Y009296D01*
X032338Y009415D02*
X030377Y009415D01*
X030354Y009533D02*
X032338Y009533D01*
X032338Y009652D02*
X030354Y009652D01*
X030377Y009770D02*
X032338Y009770D01*
X032338Y009889D02*
X030377Y009889D01*
X030377Y010007D02*
X032338Y010007D01*
X032338Y010126D02*
X032131Y010126D01*
X032153Y010244D02*
X032338Y010244D01*
X032338Y010363D02*
X032153Y010363D01*
X032153Y010481D02*
X032357Y010481D01*
X032153Y010600D02*
X035473Y010600D01*
X035473Y010718D02*
X031394Y010718D01*
X031495Y010837D02*
X035473Y010837D01*
X035473Y010955D02*
X031495Y010955D01*
X031495Y011074D02*
X035473Y011074D01*
X035473Y011192D02*
X031159Y011192D01*
X031159Y011208D02*
X031495Y011208D01*
X031495Y011462D01*
X031486Y011498D01*
X031467Y011529D01*
X031441Y011555D01*
X031409Y011574D01*
X031374Y011583D01*
X031159Y011583D01*
X031159Y011208D01*
X031159Y011311D02*
X031039Y011311D01*
X031039Y011429D02*
X031159Y011429D01*
X031159Y011548D02*
X031039Y011548D01*
X030750Y011548D02*
X030712Y011548D01*
X030749Y011666D02*
X035472Y011666D01*
X035472Y011548D02*
X031449Y011548D01*
X031495Y011429D02*
X035472Y011429D01*
X035472Y011311D02*
X031495Y011311D01*
X031159Y011074D02*
X031039Y011074D01*
X031039Y010955D02*
X031159Y010955D01*
X031159Y010837D02*
X031039Y010837D01*
X031039Y010718D02*
X031159Y010718D01*
X030805Y010718D02*
X030650Y010718D01*
X029938Y011074D02*
X026535Y011074D01*
X026461Y011148D02*
X026461Y011148D01*
X026416Y011192D02*
X029976Y011192D01*
X029976Y011311D02*
X029887Y011311D01*
X029966Y011429D02*
X029976Y011429D01*
X029718Y011396D02*
X030068Y011869D01*
X030068Y012550D01*
X030421Y012496D02*
X030844Y012496D01*
X030940Y012614D02*
X030421Y012614D01*
X030421Y012733D02*
X030940Y012733D01*
X030940Y012851D02*
X030421Y012851D01*
X030415Y012970D02*
X030940Y012970D01*
X030366Y013088D02*
X032003Y013088D01*
X032122Y013207D02*
X030257Y013207D01*
X029785Y013207D02*
X029257Y013207D01*
X029247Y013216D02*
X029100Y013277D01*
X028941Y013277D01*
X028794Y013216D01*
X028682Y013104D01*
X028621Y012957D01*
X028621Y012237D01*
X028682Y012090D01*
X028794Y011978D01*
X028941Y011917D01*
X029100Y011917D01*
X029247Y011978D01*
X029360Y012090D01*
X029421Y012237D01*
X029421Y012957D01*
X029360Y013104D01*
X029247Y013216D01*
X029366Y013088D02*
X029675Y013088D01*
X029626Y012970D02*
X029415Y012970D01*
X029421Y012851D02*
X029621Y012851D01*
X029621Y012733D02*
X029421Y012733D01*
X029421Y012614D02*
X029621Y012614D01*
X029621Y012496D02*
X029421Y012496D01*
X029421Y012377D02*
X029621Y012377D01*
X029621Y012259D02*
X029421Y012259D01*
X029380Y012140D02*
X029661Y012140D01*
X029750Y012022D02*
X029291Y012022D01*
X029870Y011903D02*
X027094Y011903D01*
X027119Y011907D02*
X027182Y011928D01*
X027241Y011958D01*
X027294Y011997D01*
X027341Y012043D01*
X027380Y012097D01*
X027410Y012156D01*
X027430Y012219D01*
X027441Y012284D01*
X027441Y012557D01*
X027061Y012557D01*
X027061Y012637D01*
X027441Y012637D01*
X027441Y012910D01*
X027430Y012975D01*
X027410Y013038D01*
X027380Y013097D01*
X027341Y013151D01*
X027294Y013197D01*
X027241Y013236D01*
X027182Y013266D01*
X027119Y013287D01*
X027061Y013296D01*
X027061Y012637D01*
X026981Y012637D01*
X026981Y013296D01*
X026922Y013287D01*
X026859Y013266D01*
X026801Y013236D01*
X026747Y013197D01*
X026700Y013151D01*
X026661Y013097D01*
X026631Y013038D01*
X026611Y012975D01*
X026601Y012910D01*
X026601Y012637D01*
X026981Y012637D01*
X026981Y012557D01*
X027061Y012557D01*
X027061Y011898D01*
X027119Y011907D01*
X027061Y011903D02*
X026981Y011903D01*
X026981Y011898D02*
X026981Y012557D01*
X026601Y012557D01*
X026601Y012284D01*
X026611Y012219D01*
X026631Y012156D01*
X026661Y012097D01*
X026700Y012043D01*
X026747Y011997D01*
X026801Y011958D01*
X026859Y011928D01*
X026922Y011907D01*
X026981Y011898D01*
X026948Y011903D02*
X024507Y011903D01*
X024599Y011785D02*
X029782Y011785D01*
X029694Y011666D02*
X024692Y011666D01*
X024674Y011396D02*
X024351Y011810D01*
X024371Y011778D01*
X023922Y012306D01*
X021651Y012294D01*
X021651Y011794D02*
X021659Y011786D01*
X023702Y011786D01*
X024414Y011073D01*
X026281Y011073D01*
X027011Y010343D01*
X027777Y010343D01*
X027273Y010126D02*
X026884Y010126D01*
X026855Y010244D02*
X026766Y010244D01*
X026737Y010363D02*
X026647Y010363D01*
X026618Y010481D02*
X026529Y010481D01*
X026500Y010600D02*
X022996Y010600D01*
X022796Y010384D02*
X022698Y010388D01*
X022698Y010306D01*
X022115Y009810D01*
X021666Y009810D01*
X021651Y009794D01*
X022007Y010007D02*
X022070Y010007D01*
X022021Y010126D02*
X022209Y010126D01*
X022348Y010244D02*
X022021Y010244D01*
X022021Y010363D02*
X022400Y010363D01*
X022400Y010481D02*
X022021Y010481D01*
X022021Y010600D02*
X022400Y010600D01*
X022021Y010718D02*
X026381Y010718D01*
X026263Y010837D02*
X022021Y010837D01*
X022021Y010955D02*
X024278Y010955D01*
X024159Y011074D02*
X022000Y011074D01*
X022021Y011192D02*
X024041Y011192D01*
X023922Y011311D02*
X022021Y011311D01*
X022021Y011429D02*
X023804Y011429D01*
X023685Y011548D02*
X021974Y011548D01*
X021281Y011429D02*
X020832Y011429D01*
X020858Y011311D02*
X021281Y011311D01*
X021281Y011192D02*
X020869Y011192D01*
X020987Y011074D02*
X021301Y011074D01*
X021021Y010786D02*
X021643Y010786D01*
X021651Y010794D01*
X021021Y010786D02*
X020631Y011176D01*
X020560Y011176D01*
X020171Y010481D02*
X020055Y010481D01*
X020055Y010363D02*
X020245Y010363D01*
X020245Y010244D02*
X020055Y010244D01*
X020055Y010126D02*
X020245Y010126D01*
X020245Y010007D02*
X019731Y010007D01*
X019639Y009889D02*
X020245Y009889D01*
X020245Y009770D02*
X019634Y009770D01*
X019634Y009652D02*
X020245Y009652D01*
X020245Y009533D02*
X019634Y009533D01*
X019633Y009415D02*
X020295Y009415D01*
X020440Y009296D02*
X019633Y009296D01*
X019633Y009178D02*
X020592Y009178D01*
X020763Y009059D02*
X019633Y009059D01*
X019633Y008941D02*
X021261Y008941D01*
X021261Y008822D02*
X019633Y008822D01*
X019633Y008704D02*
X021261Y008704D01*
X021273Y008585D02*
X019633Y008585D01*
X020221Y008341D02*
X019871Y007991D01*
X019871Y003321D01*
X020182Y003010D01*
X021528Y003010D01*
X021873Y003016D02*
X021906Y003016D01*
X021906Y002959D02*
X021951Y002848D01*
X022036Y002764D01*
X022146Y002718D01*
X022265Y002718D01*
X022376Y002764D01*
X022460Y002848D01*
X022506Y002959D01*
X022506Y003078D01*
X022471Y003163D01*
X022938Y004075D01*
X022970Y004112D01*
X022969Y004136D01*
X022980Y004157D01*
X022965Y004204D01*
X022957Y004333D01*
X023872Y004334D01*
X024373Y004131D01*
X024845Y003472D01*
X024845Y003456D01*
X024887Y003413D01*
X024922Y003365D01*
X024938Y003362D01*
X024950Y003350D01*
X025010Y003350D01*
X025069Y003340D01*
X025082Y003350D01*
X025145Y003350D01*
X025145Y003319D01*
X025215Y003249D01*
X025905Y003249D01*
X025975Y003319D01*
X025975Y003930D01*
X025907Y003999D01*
X025975Y004067D01*
X025975Y004529D01*
X026366Y004279D01*
X026355Y002464D01*
X026353Y002459D01*
X026355Y002408D01*
X026355Y002358D01*
X026357Y002353D01*
X026357Y002347D01*
X026378Y002301D01*
X026384Y002286D01*
X023779Y002286D01*
X023779Y002351D01*
X023708Y002422D01*
X023097Y002422D01*
X023029Y002353D01*
X022960Y002422D01*
X022349Y002422D01*
X022279Y002351D01*
X022279Y002210D01*
X021872Y002210D01*
X021822Y002260D01*
X021873Y002311D01*
X021873Y002710D01*
X021822Y002760D01*
X021873Y002811D01*
X021873Y003210D01*
X021822Y003260D01*
X021873Y003311D01*
X021873Y003710D01*
X021822Y003760D01*
X021873Y003811D01*
X021873Y004210D01*
X021822Y004260D01*
X021873Y004311D01*
X021873Y004331D01*
X022616Y004332D01*
X022624Y004208D01*
X022168Y003318D01*
X022146Y003318D01*
X022036Y003273D01*
X021951Y003188D01*
X021906Y003078D01*
X021906Y002959D01*
X021931Y002897D02*
X021873Y002897D01*
X021841Y002779D02*
X022021Y002779D01*
X021873Y002660D02*
X026356Y002660D01*
X026356Y002542D02*
X021873Y002542D01*
X021873Y002423D02*
X026354Y002423D01*
X026376Y002305D02*
X023779Y002305D01*
X022655Y002006D02*
X022651Y002010D01*
X022279Y002305D02*
X021867Y002305D01*
X021528Y002510D02*
X020186Y002510D01*
X019450Y003247D01*
X019454Y009943D01*
X019757Y010333D01*
X019170Y010341D02*
X019151Y010321D01*
X019151Y003156D01*
X020296Y002010D01*
X021528Y002010D01*
X021871Y001712D02*
X022279Y001712D01*
X022346Y001594D02*
X021873Y001594D01*
X021873Y001475D02*
X027195Y001475D01*
X026714Y001594D02*
X023711Y001594D01*
X023779Y001712D02*
X026644Y001712D01*
X027064Y002186D02*
X027131Y002186D01*
X027132Y002305D02*
X026991Y002305D01*
X026937Y002423D02*
X027201Y002423D01*
X027170Y002542D02*
X026916Y002542D01*
X026916Y002660D02*
X027170Y002660D01*
X027159Y002779D02*
X026917Y002779D01*
X026918Y002897D02*
X027159Y002897D01*
X027159Y003016D02*
X026918Y003016D01*
X026919Y003134D02*
X027159Y003134D01*
X027159Y003253D02*
X026920Y003253D01*
X026920Y003371D02*
X027159Y003371D01*
X027124Y003490D02*
X026921Y003490D01*
X026922Y003608D02*
X027062Y003608D01*
X027062Y003727D02*
X026923Y003727D01*
X026923Y003845D02*
X027062Y003845D01*
X027062Y003964D02*
X026924Y003964D01*
X026925Y004082D02*
X027100Y004082D01*
X026925Y004201D02*
X028734Y004201D01*
X028664Y004082D02*
X028445Y004082D01*
X027887Y004082D02*
X027658Y004082D01*
X027696Y003964D02*
X027850Y003964D01*
X027850Y003845D02*
X027696Y003845D01*
X027696Y003727D02*
X027850Y003727D01*
X027850Y003608D02*
X027696Y003608D01*
X027639Y003490D02*
X027907Y003490D01*
X027907Y003371D02*
X027639Y003371D01*
X027639Y003253D02*
X027907Y003253D01*
X027907Y003134D02*
X027639Y003134D01*
X027639Y003016D02*
X027907Y003016D01*
X027907Y002897D02*
X027639Y002897D01*
X027639Y002779D02*
X027907Y002779D01*
X027918Y002660D02*
X027627Y002660D01*
X027627Y002542D02*
X027918Y002542D01*
X028207Y002423D02*
X029410Y002423D01*
X029385Y002305D02*
X028326Y002305D01*
X028387Y002186D02*
X029385Y002186D01*
X029385Y002068D02*
X028387Y002068D01*
X028387Y001949D02*
X029385Y001949D01*
X029385Y001831D02*
X028441Y001831D01*
X028560Y001712D02*
X029419Y001712D01*
X029979Y001594D02*
X035483Y001594D01*
X035483Y001712D02*
X030049Y001712D01*
X030216Y001831D02*
X035483Y001831D01*
X035483Y001949D02*
X030216Y001949D01*
X030216Y002068D02*
X035483Y002068D01*
X035483Y002186D02*
X030216Y002186D01*
X030216Y002305D02*
X035483Y002305D01*
X035483Y002423D02*
X030191Y002423D01*
X030229Y002542D02*
X035482Y002542D01*
X035482Y002660D02*
X030236Y002660D01*
X030236Y002779D02*
X035482Y002779D01*
X035482Y002897D02*
X029860Y002897D01*
X029860Y002901D02*
X030236Y002901D01*
X030236Y003115D01*
X030226Y003151D01*
X030208Y003183D01*
X030181Y003209D01*
X030150Y003227D01*
X030114Y003237D01*
X029860Y003237D01*
X029860Y002901D01*
X029860Y003016D02*
X029740Y003016D01*
X029740Y002901D02*
X029740Y003237D01*
X029487Y003237D01*
X029451Y003227D01*
X029419Y003209D01*
X029393Y003183D01*
X029375Y003151D01*
X029365Y003115D01*
X029365Y002901D01*
X029740Y002901D01*
X029740Y002897D02*
X028918Y002897D01*
X029056Y003016D02*
X029365Y003016D01*
X029370Y003134D02*
X029096Y003134D01*
X029087Y003253D02*
X035482Y003253D01*
X035481Y003371D02*
X030118Y003371D01*
X030184Y003490D02*
X035481Y003490D01*
X035481Y003608D02*
X034895Y003608D01*
X034885Y003599D02*
X034956Y003669D01*
X034956Y005107D01*
X034885Y005178D01*
X032408Y005178D01*
X032338Y005107D01*
X032338Y003669D01*
X032408Y003599D01*
X034885Y003599D01*
X034956Y003727D02*
X035481Y003727D01*
X035481Y003845D02*
X034956Y003845D01*
X034956Y003964D02*
X035481Y003964D01*
X035481Y004082D02*
X034956Y004082D01*
X034956Y004201D02*
X035481Y004201D01*
X035480Y004319D02*
X034956Y004319D01*
X034956Y004438D02*
X035480Y004438D01*
X035480Y004556D02*
X034956Y004556D01*
X034956Y004675D02*
X035480Y004675D01*
X035480Y004793D02*
X034956Y004793D01*
X034956Y004912D02*
X035480Y004912D01*
X035480Y005030D02*
X034956Y005030D01*
X034914Y005149D02*
X035479Y005149D01*
X035479Y005267D02*
X032274Y005267D01*
X032379Y005149D02*
X032151Y005149D01*
X032025Y005030D02*
X032338Y005030D01*
X032338Y004912D02*
X031876Y004912D01*
X031731Y004793D02*
X032338Y004793D01*
X032338Y004675D02*
X026791Y004675D01*
X026901Y004556D02*
X032338Y004556D01*
X032338Y004438D02*
X026932Y004438D01*
X026926Y004319D02*
X032338Y004319D01*
X032338Y004201D02*
X030117Y004201D01*
X030130Y004193D02*
X030098Y004212D01*
X030063Y004221D01*
X029848Y004221D01*
X029848Y003846D01*
X030184Y003846D01*
X030184Y004100D01*
X030175Y004135D01*
X030156Y004167D01*
X030130Y004193D01*
X030184Y004082D02*
X032338Y004082D01*
X032338Y003964D02*
X030184Y003964D01*
X029848Y003964D02*
X029728Y003964D01*
X029728Y004082D02*
X029848Y004082D01*
X029848Y004201D02*
X029728Y004201D01*
X029460Y004201D02*
X029346Y004201D01*
X029848Y003845D02*
X032338Y003845D01*
X032338Y003727D02*
X029848Y003727D01*
X029848Y003608D02*
X029728Y003608D01*
X029728Y003490D02*
X029848Y003490D01*
X029848Y003371D02*
X029728Y003371D01*
X029459Y003371D02*
X029347Y003371D01*
X029740Y003134D02*
X029860Y003134D01*
X030230Y003134D02*
X035482Y003134D01*
X035482Y003016D02*
X030236Y003016D01*
X029365Y002779D02*
X028387Y002779D01*
X028387Y002897D02*
X028675Y002897D01*
X028536Y003016D02*
X028387Y003016D01*
X028387Y003134D02*
X028496Y003134D01*
X028505Y003253D02*
X028387Y003253D01*
X028387Y003371D02*
X028572Y003371D01*
X028626Y003490D02*
X028422Y003490D01*
X030184Y003608D02*
X032399Y003608D01*
X029365Y002660D02*
X028375Y002660D01*
X028375Y002542D02*
X029372Y002542D01*
X027773Y001786D02*
X027773Y001410D01*
X027773Y001786D01*
X027773Y001786D01*
X027773Y001712D02*
X027773Y001712D01*
X027773Y001594D02*
X027773Y001594D01*
X027773Y001475D02*
X027773Y001475D01*
X028236Y001357D02*
X021873Y001357D01*
X021845Y001238D02*
X028355Y001238D01*
X029623Y001238D02*
X035484Y001238D01*
X035484Y001120D02*
X021873Y001120D01*
X021873Y001001D02*
X035484Y001001D01*
X035484Y000883D02*
X021873Y000883D01*
X021826Y000764D02*
X035484Y000764D01*
X035485Y000646D02*
X015030Y000646D01*
X015030Y000764D02*
X017431Y000764D01*
X017421Y000774D02*
X017447Y000748D01*
X017479Y000730D01*
X017514Y000720D01*
X017743Y000720D01*
X017743Y000995D01*
X017393Y000995D01*
X017393Y000842D01*
X017402Y000806D01*
X017421Y000774D01*
X017393Y000883D02*
X015234Y000883D01*
X015644Y001001D02*
X017743Y001001D01*
X017773Y001001D02*
X021183Y001001D01*
X021183Y000883D02*
X018123Y000883D01*
X018085Y000764D02*
X021229Y000764D01*
X021183Y001120D02*
X018123Y001120D01*
X018099Y001238D02*
X021211Y001238D01*
X021183Y001357D02*
X018103Y001357D01*
X018103Y001475D02*
X021183Y001475D01*
X021183Y001594D02*
X018103Y001594D01*
X018101Y001712D02*
X021185Y001712D01*
X020221Y001831D02*
X018103Y001831D01*
X018103Y001949D02*
X020103Y001949D01*
X019984Y002068D02*
X018103Y002068D01*
X018103Y002186D02*
X019866Y002186D01*
X019747Y002305D02*
X018097Y002305D01*
X018103Y002423D02*
X019629Y002423D01*
X019510Y002542D02*
X018103Y002542D01*
X018103Y002660D02*
X019392Y002660D01*
X019273Y002779D02*
X018071Y002779D01*
X018103Y002897D02*
X019155Y002897D01*
X019036Y003016D02*
X018103Y003016D01*
X018103Y003134D02*
X018971Y003134D01*
X018971Y003253D02*
X018060Y003253D01*
X018103Y003371D02*
X018971Y003371D01*
X018971Y003490D02*
X018103Y003490D01*
X018103Y003608D02*
X018971Y003608D01*
X018971Y003727D02*
X018086Y003727D01*
X018669Y003845D02*
X018971Y003845D01*
X018971Y003964D02*
X018788Y003964D01*
X018906Y004082D02*
X018971Y004082D01*
X018580Y004010D02*
X017758Y004010D01*
X019630Y003964D02*
X019691Y003964D01*
X019691Y004082D02*
X019630Y004082D01*
X019630Y004201D02*
X019691Y004201D01*
X019691Y004319D02*
X019630Y004319D01*
X019631Y004438D02*
X019691Y004438D01*
X019691Y004556D02*
X019631Y004556D01*
X019631Y004675D02*
X019691Y004675D01*
X019691Y004793D02*
X019631Y004793D01*
X019631Y004912D02*
X019691Y004912D01*
X019691Y005030D02*
X019631Y005030D01*
X019631Y005149D02*
X019691Y005149D01*
X019691Y005267D02*
X019631Y005267D01*
X019631Y005386D02*
X019691Y005386D01*
X019691Y005504D02*
X019631Y005504D01*
X019631Y005623D02*
X019691Y005623D01*
X019691Y005741D02*
X019631Y005741D01*
X019631Y005860D02*
X019691Y005860D01*
X019691Y005978D02*
X019631Y005978D01*
X021651Y006794D02*
X028954Y006794D01*
X028578Y006974D02*
X022021Y006974D01*
X022021Y006994D01*
X021970Y007044D01*
X022021Y007094D01*
X022021Y007494D01*
X021970Y007544D01*
X022020Y007594D01*
X029859Y007594D01*
X030387Y008121D01*
X031097Y008121D01*
X031097Y008113D01*
X031126Y008084D01*
X031063Y008084D01*
X031010Y008061D01*
X030479Y008061D01*
X030409Y007991D01*
X030409Y007616D01*
X030456Y007569D01*
X030443Y007561D01*
X030417Y007535D01*
X030398Y007503D01*
X030389Y007468D01*
X030389Y007320D01*
X031110Y007320D01*
X031110Y007303D01*
X030389Y007303D01*
X030389Y007155D01*
X030398Y007120D01*
X030417Y007088D01*
X030443Y007062D01*
X030456Y007054D01*
X030409Y007007D01*
X030409Y006974D01*
X030078Y006974D01*
X030078Y007139D01*
X030007Y007209D01*
X029396Y007209D01*
X029328Y007141D01*
X029259Y007209D01*
X028648Y007209D01*
X028578Y007139D01*
X028578Y006974D01*
X028578Y007045D02*
X021971Y007045D01*
X022021Y007163D02*
X028602Y007163D01*
X029305Y007163D02*
X029350Y007163D01*
X030053Y007163D02*
X030389Y007163D01*
X030389Y007282D02*
X022021Y007282D01*
X022021Y007400D02*
X030389Y007400D01*
X030407Y007519D02*
X021995Y007519D01*
X022021Y008111D02*
X029811Y008111D01*
X029930Y008230D02*
X029672Y008230D01*
X029790Y008348D02*
X030048Y008348D01*
X030167Y008467D02*
X029909Y008467D01*
X030004Y008585D02*
X031113Y008585D01*
X031375Y008321D02*
X031395Y008341D01*
X031693Y008348D02*
X033515Y008348D01*
X033411Y008230D02*
X031693Y008230D01*
X031693Y008113D02*
X031663Y008084D01*
X032437Y008084D01*
X032540Y008041D01*
X032825Y007756D01*
X032920Y007637D02*
X033432Y007637D01*
X033550Y007519D02*
X032946Y007519D01*
X032946Y007400D02*
X035477Y007400D01*
X035477Y007282D02*
X032946Y007282D01*
X032946Y007163D02*
X035477Y007163D01*
X035477Y007045D02*
X032946Y007045D01*
X032946Y006926D02*
X035477Y006926D01*
X035478Y006808D02*
X032946Y006808D01*
X032946Y006689D02*
X033706Y006689D01*
X033769Y006715D02*
X033572Y006634D01*
X033421Y006483D01*
X033339Y006286D01*
X033339Y006073D01*
X033421Y005876D01*
X033572Y005726D01*
X033769Y005644D01*
X033982Y005644D01*
X034178Y005726D01*
X034329Y005876D01*
X034411Y006073D01*
X034411Y006286D01*
X034329Y006483D01*
X034178Y006634D01*
X033982Y006715D01*
X033769Y006715D01*
X034044Y006689D02*
X035478Y006689D01*
X035478Y006571D02*
X034241Y006571D01*
X034342Y006452D02*
X035478Y006452D01*
X035478Y006334D02*
X034391Y006334D01*
X034411Y006215D02*
X035478Y006215D01*
X035478Y006097D02*
X034411Y006097D01*
X034371Y005978D02*
X035478Y005978D01*
X035479Y005860D02*
X034313Y005860D01*
X034194Y005741D02*
X035479Y005741D01*
X035479Y005623D02*
X032640Y005623D01*
X032518Y005504D02*
X035479Y005504D01*
X035479Y005386D02*
X032396Y005386D01*
X032763Y005741D02*
X033556Y005741D01*
X033437Y005860D02*
X032885Y005860D01*
X032945Y005978D02*
X033379Y005978D01*
X033339Y006097D02*
X032946Y006097D01*
X032946Y006215D02*
X033339Y006215D01*
X033359Y006334D02*
X032946Y006334D01*
X032946Y006452D02*
X033408Y006452D01*
X033509Y006571D02*
X032946Y006571D01*
X032386Y006571D02*
X031774Y006571D01*
X031771Y006573D02*
X031830Y006632D01*
X031830Y007007D01*
X031782Y007054D01*
X031796Y007062D01*
X031822Y007088D01*
X031840Y007120D01*
X031850Y007155D01*
X031850Y007303D01*
X031128Y007303D01*
X031128Y007320D01*
X031850Y007320D01*
X031850Y007468D01*
X031840Y007503D01*
X031828Y007524D01*
X032265Y007524D01*
X032386Y007402D01*
X032386Y006157D01*
X031678Y005470D01*
X031467Y005302D01*
X025797Y005302D01*
X025700Y005319D01*
X025640Y005306D01*
X025157Y005306D01*
X025157Y005545D01*
X024821Y005545D01*
X024821Y005665D01*
X025157Y005665D01*
X025157Y005919D01*
X025147Y005954D01*
X025129Y005986D01*
X025113Y006002D01*
X028550Y006002D01*
X028550Y005654D01*
X028621Y005583D01*
X029232Y005583D01*
X029300Y005652D01*
X029369Y005583D01*
X029980Y005583D01*
X030050Y005654D01*
X030050Y005820D01*
X030555Y005822D01*
X030565Y005814D01*
X030628Y005823D01*
X030691Y005823D01*
X030700Y005832D01*
X030713Y005834D01*
X030751Y005884D01*
X030796Y005929D01*
X030795Y005942D01*
X030893Y006070D01*
X031759Y006070D01*
X031830Y006140D01*
X031830Y006515D01*
X031771Y006573D01*
X031830Y006689D02*
X032386Y006689D01*
X032386Y006808D02*
X031830Y006808D01*
X031830Y006926D02*
X032386Y006926D01*
X032386Y007045D02*
X031792Y007045D01*
X031850Y007163D02*
X032386Y007163D01*
X032386Y007282D02*
X031850Y007282D01*
X031850Y007400D02*
X032386Y007400D01*
X032270Y007519D02*
X031831Y007519D01*
X031895Y007804D02*
X031950Y007859D01*
X031099Y008111D02*
X030377Y008111D01*
X030410Y007993D02*
X030258Y007993D01*
X030140Y007874D02*
X030409Y007874D01*
X030409Y007756D02*
X030021Y007756D01*
X029903Y007637D02*
X030409Y007637D01*
X030446Y007045D02*
X030078Y007045D01*
X029702Y006794D02*
X031119Y006794D01*
X031119Y006819D01*
X031119Y006327D02*
X031119Y006302D01*
X030844Y006302D01*
X030615Y006003D01*
X029674Y005999D01*
X030050Y005741D02*
X031958Y005741D01*
X031836Y005623D02*
X030019Y005623D01*
X029329Y005623D02*
X029271Y005623D01*
X028581Y005623D02*
X024821Y005623D01*
X025157Y005741D02*
X028550Y005741D01*
X028550Y005860D02*
X025157Y005860D01*
X025133Y005978D02*
X028550Y005978D01*
X030733Y005860D02*
X032080Y005860D01*
X032203Y005978D02*
X030823Y005978D01*
X031787Y006097D02*
X032325Y006097D01*
X032386Y006215D02*
X031830Y006215D01*
X031830Y006334D02*
X032386Y006334D01*
X032386Y006452D02*
X031830Y006452D01*
X031713Y005504D02*
X025157Y005504D01*
X025157Y005386D02*
X031572Y005386D01*
X026365Y004201D02*
X025975Y004201D01*
X025975Y004319D02*
X026303Y004319D01*
X026118Y004438D02*
X025975Y004438D01*
X025975Y004082D02*
X026365Y004082D01*
X026364Y003964D02*
X025942Y003964D01*
X025975Y003845D02*
X026363Y003845D01*
X026363Y003727D02*
X025975Y003727D01*
X025975Y003608D02*
X026362Y003608D01*
X026361Y003490D02*
X025975Y003490D01*
X025975Y003371D02*
X026360Y003371D01*
X026360Y003253D02*
X025909Y003253D01*
X026359Y003134D02*
X022482Y003134D01*
X022506Y003016D02*
X026358Y003016D01*
X026358Y002897D02*
X022480Y002897D01*
X022391Y002779D02*
X026357Y002779D01*
X025211Y003253D02*
X022517Y003253D01*
X022577Y003371D02*
X024917Y003371D01*
X024832Y003490D02*
X022638Y003490D01*
X022699Y003608D02*
X024747Y003608D01*
X024662Y003727D02*
X022759Y003727D01*
X022820Y003845D02*
X024578Y003845D01*
X024493Y003964D02*
X022881Y003964D01*
X022944Y004082D02*
X024408Y004082D01*
X024489Y004278D02*
X025025Y003530D01*
X025430Y003530D01*
X024201Y004201D02*
X022966Y004201D01*
X022958Y004319D02*
X023908Y004319D01*
X023907Y004514D02*
X024489Y004278D01*
X023907Y004514D02*
X022785Y004512D01*
X021528Y004510D01*
X021873Y004319D02*
X022617Y004319D01*
X022620Y004201D02*
X021873Y004201D01*
X021873Y004082D02*
X022560Y004082D01*
X022499Y003964D02*
X021873Y003964D01*
X021873Y003845D02*
X022438Y003845D01*
X022378Y003727D02*
X021856Y003727D01*
X021873Y003608D02*
X022317Y003608D01*
X022256Y003490D02*
X021873Y003490D01*
X021873Y003371D02*
X022196Y003371D01*
X022016Y003253D02*
X021830Y003253D01*
X021873Y003134D02*
X021929Y003134D01*
X021528Y003510D02*
X020592Y003510D01*
X020379Y003723D01*
X020379Y007731D01*
X020485Y007837D01*
X022028Y008585D02*
X027324Y008585D01*
X027325Y008585D02*
X027777Y008585D01*
X028228Y008585D01*
X028264Y008595D01*
X028296Y008613D01*
X028322Y008639D01*
X028340Y008671D01*
X028350Y008707D01*
X028350Y008843D01*
X027777Y008843D01*
X027777Y008843D01*
X028350Y008843D01*
X028350Y008980D01*
X028340Y009015D01*
X028322Y009047D01*
X028296Y009073D01*
X028264Y009092D01*
X028228Y009101D01*
X027777Y009101D01*
X027777Y008843D01*
X027777Y008585D01*
X027777Y008843D01*
X027777Y008843D01*
X027777Y008843D01*
X027777Y009101D01*
X027325Y009101D01*
X027290Y009092D01*
X027258Y009073D01*
X027232Y009047D01*
X027213Y009015D01*
X027204Y008980D01*
X027204Y008843D01*
X027204Y008707D01*
X027213Y008671D01*
X027232Y008639D01*
X027258Y008613D01*
X027290Y008595D01*
X027325Y008585D01*
X027204Y008704D02*
X022041Y008704D01*
X022041Y008822D02*
X027204Y008822D01*
X027204Y008843D02*
X027777Y008843D01*
X027777Y008843D01*
X027204Y008843D01*
X027204Y008941D02*
X023724Y008941D01*
X023719Y008932D02*
X023738Y008964D01*
X023747Y009000D01*
X023747Y009254D01*
X023411Y009254D01*
X023411Y008878D01*
X023626Y008878D01*
X023661Y008888D01*
X023693Y008906D01*
X023719Y008932D01*
X023747Y009059D02*
X027244Y009059D01*
X027294Y009105D02*
X027224Y009175D01*
X027224Y009511D01*
X027294Y009581D01*
X028259Y009581D01*
X028330Y009511D01*
X028330Y009175D01*
X028259Y009105D01*
X027294Y009105D01*
X027224Y009178D02*
X023747Y009178D01*
X023411Y009178D02*
X023291Y009178D01*
X023291Y009059D02*
X023411Y009059D01*
X023411Y008941D02*
X023291Y008941D01*
X022979Y008941D02*
X022952Y008941D01*
X022255Y008941D02*
X022041Y008941D01*
X022109Y009059D02*
X022227Y009059D01*
X023411Y009296D02*
X027224Y009296D01*
X027224Y009415D02*
X023747Y009415D01*
X023747Y009533D02*
X027246Y009533D01*
X027247Y009652D02*
X023741Y009652D01*
X023535Y009770D02*
X026731Y009770D01*
X026612Y009889D02*
X023535Y009889D01*
X023535Y010007D02*
X026494Y010007D01*
X026375Y010126D02*
X023535Y010126D01*
X022796Y010384D02*
X026371Y010384D01*
X026912Y009843D01*
X027777Y009843D01*
X028330Y009889D02*
X029271Y009889D01*
X029271Y010007D02*
X028330Y010007D01*
X028280Y010126D02*
X029320Y010126D01*
X029271Y010244D02*
X028330Y010244D01*
X028330Y010363D02*
X029271Y010363D01*
X029271Y010481D02*
X028330Y010481D01*
X029584Y010600D02*
X027009Y010600D01*
X026890Y010718D02*
X029605Y010718D01*
X029701Y010837D02*
X026772Y010837D01*
X026653Y010955D02*
X029819Y010955D01*
X029718Y011396D02*
X024674Y011396D01*
X024941Y011917D02*
X025100Y011917D01*
X025247Y011978D01*
X025360Y012090D01*
X025421Y012237D01*
X025421Y012957D01*
X025360Y013104D01*
X025247Y013216D01*
X025100Y013277D01*
X024941Y013277D01*
X024794Y013216D01*
X024682Y013104D01*
X024621Y012957D01*
X024621Y012237D01*
X024682Y012090D01*
X024794Y011978D01*
X024941Y011917D01*
X024750Y012022D02*
X024400Y012022D01*
X024299Y012140D02*
X024661Y012140D01*
X024621Y012259D02*
X024198Y012259D01*
X024102Y012377D02*
X024621Y012377D01*
X024621Y012496D02*
X022973Y012496D01*
X022988Y012614D02*
X024621Y012614D01*
X024621Y012733D02*
X022988Y012733D01*
X022988Y012851D02*
X024621Y012851D01*
X024626Y012970D02*
X022985Y012970D01*
X022395Y012970D02*
X022021Y012970D01*
X022015Y013088D02*
X024675Y013088D01*
X024785Y013207D02*
X024133Y013207D01*
X024271Y013325D02*
X027805Y013325D01*
X027785Y013207D02*
X027281Y013207D01*
X027384Y013088D02*
X027675Y013088D01*
X027626Y012970D02*
X027431Y012970D01*
X027441Y012851D02*
X027621Y012851D01*
X027621Y012733D02*
X027441Y012733D01*
X027621Y012614D02*
X027061Y012614D01*
X026981Y012614D02*
X026421Y012614D01*
X026421Y012496D02*
X026601Y012496D01*
X026601Y012377D02*
X026421Y012377D01*
X026421Y012259D02*
X026605Y012259D01*
X026639Y012140D02*
X026380Y012140D01*
X026360Y012090D02*
X026421Y012237D01*
X026421Y012957D01*
X026360Y013104D01*
X026247Y013216D01*
X026100Y013277D01*
X025941Y013277D01*
X025794Y013216D01*
X025682Y013104D01*
X025621Y012957D01*
X025621Y012237D01*
X025682Y012090D01*
X025794Y011978D01*
X025941Y011917D01*
X026100Y011917D01*
X026247Y011978D01*
X026360Y012090D01*
X026291Y012022D02*
X026722Y012022D01*
X026981Y012022D02*
X027061Y012022D01*
X027061Y012140D02*
X026981Y012140D01*
X026981Y012259D02*
X027061Y012259D01*
X027061Y012377D02*
X026981Y012377D01*
X026981Y012496D02*
X027061Y012496D01*
X027061Y012733D02*
X026981Y012733D01*
X026981Y012851D02*
X027061Y012851D01*
X027061Y012970D02*
X026981Y012970D01*
X026981Y013088D02*
X027061Y013088D01*
X027061Y013207D02*
X026981Y013207D01*
X026760Y013207D02*
X026257Y013207D01*
X026366Y013088D02*
X026657Y013088D01*
X026610Y012970D02*
X026415Y012970D01*
X026421Y012851D02*
X026601Y012851D01*
X026601Y012733D02*
X026421Y012733D01*
X025621Y012733D02*
X025421Y012733D01*
X025421Y012851D02*
X025621Y012851D01*
X025626Y012970D02*
X025415Y012970D01*
X025366Y013088D02*
X025675Y013088D01*
X025785Y013207D02*
X025257Y013207D01*
X024237Y013534D02*
X027840Y013534D01*
X028096Y013310D01*
X028096Y012672D01*
X028421Y012614D02*
X028621Y012614D01*
X028621Y012496D02*
X028421Y012496D01*
X028421Y012377D02*
X028621Y012377D01*
X028621Y012259D02*
X028421Y012259D01*
X028380Y012140D02*
X028661Y012140D01*
X028750Y012022D02*
X028291Y012022D01*
X027750Y012022D02*
X027320Y012022D01*
X027402Y012140D02*
X027661Y012140D01*
X027621Y012259D02*
X027437Y012259D01*
X027441Y012377D02*
X027621Y012377D01*
X027621Y012496D02*
X027441Y012496D01*
X028421Y012733D02*
X028621Y012733D01*
X028621Y012851D02*
X028421Y012851D01*
X028415Y012970D02*
X028626Y012970D01*
X028675Y013088D02*
X028366Y013088D01*
X028276Y013207D02*
X028785Y013207D01*
X028276Y013325D02*
X032240Y013325D01*
X032359Y013444D02*
X028216Y013444D01*
X028080Y013562D02*
X032477Y013562D01*
X032682Y013088D02*
X033600Y013088D01*
X033600Y012970D02*
X032564Y012970D01*
X032445Y012851D02*
X032711Y012851D01*
X032722Y012863D02*
X032621Y012761D01*
X032566Y012629D01*
X032566Y012006D01*
X032621Y011874D01*
X032722Y011772D01*
X032855Y011717D01*
X032998Y011717D01*
X033130Y011772D01*
X033231Y011874D01*
X033286Y012006D01*
X033286Y012629D01*
X033231Y012761D01*
X033130Y012863D01*
X032998Y012917D01*
X032855Y012917D01*
X032722Y012863D01*
X032609Y012733D02*
X032440Y012733D01*
X032440Y012614D02*
X032566Y012614D01*
X032566Y012496D02*
X032440Y012496D01*
X032440Y012377D02*
X032566Y012377D01*
X032566Y012259D02*
X032415Y012259D01*
X032566Y012140D02*
X031167Y012140D01*
X031054Y012022D02*
X032566Y012022D01*
X032609Y011903D02*
X030942Y011903D01*
X030829Y011785D02*
X032710Y011785D01*
X033143Y011785D02*
X033710Y011785D01*
X033609Y011903D02*
X033244Y011903D01*
X033286Y012022D02*
X033566Y012022D01*
X033566Y012140D02*
X033286Y012140D01*
X033286Y012259D02*
X033566Y012259D01*
X033566Y012377D02*
X033286Y012377D01*
X033286Y012496D02*
X033566Y012496D01*
X033566Y012614D02*
X033286Y012614D01*
X033243Y012733D02*
X033600Y012733D01*
X033600Y012851D02*
X033141Y012851D01*
X034080Y012970D02*
X035470Y012970D01*
X035470Y013088D02*
X034080Y013088D01*
X034080Y013207D02*
X035470Y013207D01*
X035470Y013325D02*
X034068Y013325D01*
X033986Y013444D02*
X035470Y013444D01*
X035470Y013562D02*
X033867Y013562D01*
X033690Y013400D02*
X033840Y013251D01*
X034722Y012863D02*
X034855Y012917D01*
X034998Y012917D01*
X035130Y012863D01*
X035231Y012761D01*
X035286Y012629D01*
X035286Y012006D01*
X035231Y011874D01*
X035130Y011772D01*
X034998Y011717D01*
X034855Y011717D01*
X034722Y011772D01*
X034621Y011874D01*
X034566Y012006D01*
X034566Y012629D01*
X034621Y012761D01*
X034722Y012863D01*
X034711Y012851D02*
X034141Y012851D01*
X034243Y012733D02*
X034609Y012733D01*
X034566Y012614D02*
X034286Y012614D01*
X034286Y012496D02*
X034566Y012496D01*
X034566Y012377D02*
X034286Y012377D01*
X034286Y012259D02*
X034566Y012259D01*
X034566Y012140D02*
X034286Y012140D01*
X034286Y012022D02*
X034566Y012022D01*
X034609Y011903D02*
X034244Y011903D01*
X034143Y011785D02*
X034710Y011785D01*
X035143Y011785D02*
X035472Y011785D01*
X035472Y011903D02*
X035244Y011903D01*
X035286Y012022D02*
X035472Y012022D01*
X035471Y012140D02*
X035286Y012140D01*
X035286Y012259D02*
X035471Y012259D01*
X035471Y012377D02*
X035286Y012377D01*
X035286Y012496D02*
X035471Y012496D01*
X035471Y012614D02*
X035286Y012614D01*
X035243Y012733D02*
X035471Y012733D01*
X035471Y012851D02*
X035141Y012851D01*
X032064Y012810D02*
X032064Y012629D01*
X031713Y012259D02*
X031667Y012259D01*
X030730Y012377D02*
X030421Y012377D01*
X030421Y012259D02*
X030617Y012259D01*
X030505Y012140D02*
X030380Y012140D01*
X030390Y012022D02*
X030291Y012022D01*
X030319Y011903D02*
X030248Y011903D01*
X030239Y011785D02*
X030283Y011785D01*
X030247Y011666D02*
X030142Y011666D01*
X030377Y010244D02*
X030439Y010244D01*
X030328Y010126D02*
X031580Y010126D01*
X029824Y009343D02*
X028755Y009343D01*
X028749Y009337D01*
X028451Y009296D02*
X028330Y009296D01*
X028330Y009178D02*
X028451Y009178D01*
X028501Y009059D02*
X028310Y009059D01*
X028350Y008941D02*
X029271Y008941D01*
X029271Y008822D02*
X028350Y008822D01*
X028349Y008704D02*
X029271Y008704D01*
X029518Y008585D02*
X028229Y008585D01*
X027777Y008585D02*
X027777Y008585D01*
X027777Y008704D02*
X027777Y008704D01*
X027777Y008822D02*
X027777Y008822D01*
X027777Y008941D02*
X027777Y008941D01*
X027777Y009059D02*
X027777Y009059D01*
X028330Y009415D02*
X028451Y009415D01*
X028451Y009533D02*
X028307Y009533D01*
X028306Y009652D02*
X029294Y009652D01*
X029293Y009533D02*
X029047Y009533D01*
X029271Y009770D02*
X028330Y009770D01*
X028997Y009059D02*
X029319Y009059D01*
X030377Y008941D02*
X035475Y008941D01*
X035475Y009059D02*
X034956Y009059D01*
X034956Y009178D02*
X035475Y009178D01*
X035475Y009296D02*
X034956Y009296D01*
X034956Y009415D02*
X035475Y009415D01*
X035474Y009533D02*
X034956Y009533D01*
X034956Y009652D02*
X035474Y009652D01*
X035474Y009770D02*
X034956Y009770D01*
X034956Y009889D02*
X035474Y009889D01*
X035474Y010007D02*
X034956Y010007D01*
X034956Y010126D02*
X035474Y010126D01*
X035474Y010244D02*
X034956Y010244D01*
X034956Y010363D02*
X035473Y010363D01*
X035473Y010481D02*
X034936Y010481D01*
X035475Y008822D02*
X030377Y008822D01*
X030377Y008704D02*
X035475Y008704D01*
X035475Y008585D02*
X031676Y008585D01*
X031693Y008467D02*
X033720Y008467D01*
X034030Y008467D02*
X035476Y008467D01*
X035476Y008348D02*
X034235Y008348D01*
X034339Y008230D02*
X035476Y008230D01*
X035476Y008111D02*
X034388Y008111D01*
X034411Y007993D02*
X035476Y007993D01*
X035476Y007874D02*
X034411Y007874D01*
X034374Y007756D02*
X035476Y007756D01*
X035477Y007637D02*
X034318Y007637D01*
X034200Y007519D02*
X035477Y007519D01*
X025750Y012022D02*
X025291Y012022D01*
X025380Y012140D02*
X025661Y012140D01*
X025621Y012259D02*
X025421Y012259D01*
X025421Y012377D02*
X025621Y012377D01*
X025621Y012496D02*
X025421Y012496D01*
X025421Y012614D02*
X025621Y012614D01*
X024237Y013534D02*
X023958Y013294D01*
X021651Y013294D01*
X021952Y013562D02*
X023994Y013562D01*
X017601Y012294D02*
X017597Y012298D01*
X016576Y012298D01*
X015808Y011903D02*
X014768Y011903D01*
X014650Y011785D02*
X015927Y011785D01*
X016045Y011666D02*
X014531Y011666D01*
X014466Y011548D02*
X016164Y011548D01*
X016282Y011429D02*
X014466Y011429D01*
X014466Y011311D02*
X016320Y011311D01*
X016281Y011192D02*
X016244Y011192D01*
X015935Y011192D02*
X015815Y011192D01*
X015815Y011074D02*
X015935Y011074D01*
X015935Y010955D02*
X015815Y010955D01*
X015815Y010837D02*
X014466Y010837D01*
X014466Y010955D02*
X015479Y010955D01*
X015479Y011074D02*
X014466Y011074D01*
X014466Y011192D02*
X015506Y011192D01*
X015479Y010718D02*
X014466Y010718D01*
X014466Y010600D02*
X015479Y010600D01*
X015484Y010481D02*
X014466Y010481D01*
X014466Y010363D02*
X017231Y010363D01*
X017231Y010481D02*
X016999Y010481D01*
X017231Y010244D02*
X014466Y010244D01*
X014466Y010126D02*
X017231Y010126D01*
X017226Y010007D02*
X014466Y010007D01*
X014466Y009889D02*
X017211Y009889D01*
X017211Y009770D02*
X014466Y009770D01*
X014466Y009652D02*
X017211Y009652D01*
X017263Y009533D02*
X014466Y009533D01*
X014466Y009415D02*
X017231Y009415D01*
X015314Y009059D02*
X014466Y009059D01*
X014466Y008941D02*
X015314Y008941D01*
X015314Y008822D02*
X014466Y008822D01*
X014505Y008704D02*
X015314Y008704D01*
X015314Y008585D02*
X014623Y008585D01*
X014742Y008467D02*
X015314Y008467D01*
X015379Y008348D02*
X014860Y008348D01*
X014979Y008230D02*
X015490Y008230D01*
X015490Y008111D02*
X015097Y008111D01*
X015216Y007993D02*
X015490Y007993D01*
X015490Y007874D02*
X015334Y007874D01*
X014972Y007756D02*
X013945Y007756D01*
X013945Y007874D02*
X014853Y007874D01*
X014735Y007993D02*
X013883Y007993D01*
X013635Y008111D02*
X014616Y008111D01*
X014498Y008230D02*
X013475Y008230D01*
X013079Y008348D02*
X014379Y008348D01*
X014261Y008467D02*
X013079Y008467D01*
X013079Y008585D02*
X014142Y008585D01*
X014126Y008704D02*
X013079Y008704D01*
X013034Y008822D02*
X014126Y008822D01*
X014126Y008941D02*
X012961Y008941D01*
X012961Y009059D02*
X014126Y009059D01*
X014126Y009178D02*
X012961Y009178D01*
X012961Y009296D02*
X014126Y009296D01*
X014126Y009415D02*
X012961Y009415D01*
X012961Y009533D02*
X014126Y009533D01*
X014126Y009652D02*
X012961Y009652D01*
X012961Y009770D02*
X014126Y009770D01*
X014126Y009889D02*
X012961Y009889D01*
X012961Y010007D02*
X014126Y010007D01*
X014126Y010126D02*
X012961Y010126D01*
X012961Y010244D02*
X014126Y010244D01*
X014126Y010363D02*
X012961Y010363D01*
X012961Y010481D02*
X014126Y010481D01*
X014126Y010600D02*
X012961Y010600D01*
X012961Y010718D02*
X014126Y010718D01*
X014126Y010837D02*
X012961Y010837D01*
X012961Y010955D02*
X014126Y010955D01*
X014126Y011074D02*
X012961Y011074D01*
X012961Y011192D02*
X014126Y011192D01*
X014126Y011311D02*
X012961Y011311D01*
X012978Y011429D02*
X014126Y011429D01*
X014126Y011548D02*
X013096Y011548D01*
X013215Y011666D02*
X014126Y011666D01*
X014169Y011785D02*
X013333Y011785D01*
X013452Y011903D02*
X014287Y011903D01*
X014042Y012022D02*
X013570Y012022D01*
X014575Y012377D02*
X014761Y012377D01*
X015815Y010718D02*
X015935Y010718D01*
X015935Y010600D02*
X015815Y010600D01*
X015815Y010481D02*
X015935Y010481D01*
X012601Y010481D02*
X003653Y010481D01*
X003653Y010363D02*
X012601Y010363D01*
X012601Y010244D02*
X003653Y010244D01*
X003653Y010126D02*
X012601Y010126D01*
X012601Y010007D02*
X003654Y010007D01*
X003654Y009889D02*
X012601Y009889D01*
X012601Y009770D02*
X003654Y009770D01*
X003654Y009652D02*
X012601Y009652D01*
X012601Y009533D02*
X007222Y009533D01*
X007339Y009415D02*
X012601Y009415D01*
X011434Y008959D02*
X011434Y008575D01*
X011351Y008493D01*
X011732Y008731D02*
X011732Y008731D01*
X010842Y008704D02*
X009814Y008704D01*
X009857Y008585D02*
X010798Y008585D01*
X010798Y008467D02*
X009857Y008467D01*
X009857Y008348D02*
X010798Y008348D01*
X010868Y008230D02*
X009788Y008230D01*
X009857Y008111D02*
X010798Y008111D01*
X010798Y007993D02*
X009857Y007993D01*
X009857Y007874D02*
X010798Y007874D01*
X010867Y007756D02*
X009788Y007756D01*
X010051Y007637D02*
X010781Y007637D01*
X010778Y007519D02*
X010153Y007519D01*
X010147Y007400D02*
X010778Y007400D01*
X010813Y007282D02*
X010150Y007282D01*
X010153Y007163D02*
X010801Y007163D01*
X010798Y007045D02*
X010156Y007045D01*
X010159Y006926D02*
X010798Y006926D01*
X010815Y006808D02*
X010162Y006808D01*
X010159Y006689D02*
X011431Y006689D01*
X011431Y006571D02*
X010156Y006571D01*
X010154Y006452D02*
X011431Y006452D01*
X011431Y006334D02*
X010152Y006334D01*
X010150Y006215D02*
X011431Y006215D01*
X011431Y006097D02*
X010139Y006097D01*
X009970Y006184D02*
X009981Y006845D01*
X009966Y007467D01*
X009788Y007491D01*
X009306Y007491D01*
X009304Y007493D01*
X009304Y007163D02*
X009304Y007163D01*
X009304Y007045D02*
X009304Y007045D01*
X009304Y006926D02*
X009304Y006926D01*
X009304Y006808D02*
X009304Y006808D01*
X008748Y006808D02*
X007409Y006808D01*
X007357Y006689D02*
X009799Y006689D01*
X009796Y006571D02*
X007785Y006571D01*
X007909Y006452D02*
X009794Y006452D01*
X009756Y006334D02*
X009227Y006334D01*
X008910Y006026D02*
X009970Y006184D01*
X009813Y005978D02*
X011431Y005978D01*
X011519Y005860D02*
X009227Y005860D01*
X009227Y005741D02*
X011638Y005741D01*
X011756Y005623D02*
X007351Y005623D01*
X007400Y005741D02*
X007846Y005741D01*
X007846Y005860D02*
X007412Y005860D01*
X007407Y005978D02*
X007846Y005978D01*
X007760Y006097D02*
X007358Y006097D01*
X007269Y006215D02*
X007636Y006215D01*
X007674Y006428D02*
X008096Y006026D01*
X008162Y006026D01*
X008479Y005978D02*
X008594Y005978D01*
X008594Y005860D02*
X008479Y005860D01*
X008479Y005741D02*
X008594Y005741D01*
X008575Y005576D02*
X008575Y005198D01*
X008873Y005198D01*
X008873Y005454D01*
X008864Y005490D01*
X008845Y005522D01*
X008819Y005548D01*
X008787Y005566D01*
X008752Y005576D01*
X008575Y005576D01*
X008575Y005504D02*
X008498Y005504D01*
X008498Y005576D02*
X008321Y005576D01*
X008286Y005566D01*
X008254Y005548D01*
X008228Y005522D01*
X008209Y005490D01*
X008200Y005454D01*
X008200Y005198D01*
X008498Y005198D01*
X008498Y005122D01*
X008200Y005122D01*
X008200Y004866D01*
X008209Y004830D01*
X008228Y004798D01*
X008254Y004772D01*
X008286Y004754D01*
X008321Y004744D01*
X008498Y004744D01*
X008498Y005122D01*
X008575Y005122D01*
X008575Y005198D01*
X008498Y005198D01*
X008498Y005576D01*
X008498Y005386D02*
X008575Y005386D01*
X008575Y005267D02*
X008498Y005267D01*
X008498Y005149D02*
X007412Y005149D01*
X007412Y005030D02*
X008200Y005030D01*
X008200Y004912D02*
X007412Y004912D01*
X007412Y004793D02*
X008233Y004793D01*
X008498Y004793D02*
X008575Y004793D01*
X008575Y004744D02*
X008752Y004744D01*
X008787Y004754D01*
X008819Y004772D01*
X008845Y004798D01*
X008864Y004830D01*
X008873Y004866D01*
X008873Y005122D01*
X008575Y005122D01*
X008575Y004744D01*
X008840Y004793D02*
X014223Y004793D01*
X014521Y004979D02*
X012655Y004979D01*
X011611Y006022D01*
X011611Y006936D01*
X011554Y006993D01*
X011351Y006993D01*
X011351Y007235D02*
X011803Y007235D01*
X011839Y007244D01*
X011870Y007263D01*
X011897Y007289D01*
X011915Y007321D01*
X011924Y007356D01*
X011924Y007493D01*
X011351Y007493D01*
X011351Y007493D01*
X011351Y007235D01*
X011351Y007282D02*
X011351Y007282D01*
X011351Y007400D02*
X011351Y007400D01*
X011890Y007282D02*
X012333Y007282D01*
X012333Y007400D02*
X011924Y007400D01*
X011924Y007519D02*
X012341Y007519D01*
X012374Y007637D02*
X011922Y007637D01*
X013164Y007637D02*
X013317Y007637D01*
X013349Y007519D02*
X013196Y007519D01*
X013204Y007400D02*
X015126Y007400D01*
X015126Y007282D02*
X013204Y007282D01*
X012829Y006926D02*
X012709Y006926D01*
X013945Y007519D02*
X015126Y007519D01*
X015090Y007637D02*
X013945Y007637D01*
X017601Y007294D02*
X017609Y007286D01*
X018281Y007286D01*
X017996Y007045D02*
X017921Y007045D01*
X017945Y007519D02*
X017987Y007519D01*
X017962Y008585D02*
X018553Y008585D01*
X020966Y010306D02*
X021639Y010306D01*
X021651Y010294D01*
X012601Y010600D02*
X003653Y010600D01*
X003653Y010718D02*
X012601Y010718D01*
X007738Y012616D02*
X007704Y012580D01*
X007609Y012539D01*
X007506Y012537D01*
X007493Y012542D01*
X007275Y012542D01*
X006796Y010837D02*
X006511Y010760D01*
X006216Y010760D01*
X005931Y010837D01*
X006622Y009533D02*
X003654Y009533D01*
X003654Y009415D02*
X006506Y009415D01*
X006457Y009296D02*
X003654Y009296D01*
X003654Y009178D02*
X006432Y009178D01*
X006432Y009059D02*
X006012Y009059D01*
X005844Y009059D02*
X005764Y009059D01*
X005764Y008941D02*
X005844Y008941D01*
X005844Y008822D02*
X005764Y008822D01*
X005431Y008941D02*
X003655Y008941D01*
X003655Y009059D02*
X005596Y009059D01*
X005349Y008822D02*
X003655Y008822D01*
X003655Y008704D02*
X005305Y008704D01*
X005294Y008553D02*
X005294Y008553D01*
X005265Y008230D02*
X005160Y008124D01*
X004782Y007746D01*
X004782Y007215D01*
X004887Y007110D01*
X005142Y006855D01*
X005189Y006803D01*
X005194Y006803D01*
X005198Y006799D01*
X005268Y006799D01*
X005433Y006791D01*
X005436Y006788D01*
X005483Y006787D01*
X005389Y006693D01*
X005314Y006513D01*
X005314Y006318D01*
X005389Y006138D01*
X005527Y006001D01*
X005707Y005926D01*
X005902Y005926D01*
X006082Y006001D01*
X006220Y006138D01*
X006294Y006318D01*
X006294Y006472D01*
X006504Y006250D01*
X006608Y006247D01*
X006507Y006146D01*
X006432Y005966D01*
X006432Y005771D01*
X006507Y005591D01*
X006645Y005453D01*
X006594Y005504D02*
X006260Y005504D01*
X006294Y005386D02*
X006808Y005386D01*
X007037Y005386D02*
X008200Y005386D01*
X008200Y005267D02*
X007343Y005267D01*
X007251Y005504D02*
X008218Y005504D01*
X008855Y005504D02*
X011875Y005504D01*
X011993Y005386D02*
X008873Y005386D01*
X008873Y005267D02*
X012112Y005267D01*
X012230Y005149D02*
X008575Y005149D01*
X008575Y005030D02*
X008498Y005030D01*
X008498Y004912D02*
X008575Y004912D01*
X008873Y004912D02*
X012467Y004912D01*
X012349Y005030D02*
X008873Y005030D01*
X006494Y005623D02*
X006200Y005623D01*
X006080Y005741D02*
X006445Y005741D01*
X006432Y005860D02*
X003658Y005860D01*
X003658Y005978D02*
X005580Y005978D01*
X005430Y006097D02*
X003658Y006097D01*
X003657Y006215D02*
X005357Y006215D01*
X005314Y006334D02*
X003657Y006334D01*
X003657Y006452D02*
X005314Y006452D01*
X005338Y006571D02*
X003657Y006571D01*
X003657Y006689D02*
X005387Y006689D01*
X005185Y006808D02*
X003657Y006808D01*
X003657Y006926D02*
X005071Y006926D01*
X004952Y007045D02*
X003657Y007045D01*
X003656Y007163D02*
X004834Y007163D01*
X004782Y007282D02*
X003656Y007282D01*
X003656Y007400D02*
X004782Y007400D01*
X004782Y007519D02*
X003656Y007519D01*
X003656Y007637D02*
X004782Y007637D01*
X004791Y007756D02*
X003656Y007756D01*
X003656Y007874D02*
X004910Y007874D01*
X005028Y007993D02*
X003656Y007993D01*
X003656Y008111D02*
X005147Y008111D01*
X005265Y008230D02*
X005446Y008230D01*
X005340Y008050D02*
X006922Y008050D01*
X006466Y008230D02*
X006162Y008230D01*
X006252Y008348D02*
X006528Y008348D01*
X006649Y008467D02*
X006299Y008467D01*
X006314Y008553D02*
X006314Y008553D01*
X006303Y008704D02*
X006696Y008704D01*
X006547Y008822D02*
X006260Y008822D01*
X006178Y008941D02*
X006475Y008941D01*
X007196Y008467D02*
X008751Y008467D01*
X008751Y008348D02*
X007317Y008348D01*
X007378Y008230D02*
X008820Y008230D01*
X008820Y007756D02*
X007321Y007756D01*
X006565Y007323D02*
X006260Y007323D01*
X006220Y007225D01*
X006133Y007139D01*
X006169Y007138D01*
X006172Y007134D01*
X006178Y007134D01*
X006224Y007081D01*
X006273Y007031D01*
X006272Y007026D01*
X006362Y006923D01*
X006422Y006861D01*
X006412Y006919D01*
X006412Y006919D01*
X006882Y006919D01*
X006882Y006999D01*
X006412Y006999D01*
X006412Y006999D01*
X006425Y007079D01*
X006450Y007155D01*
X006486Y007227D01*
X006533Y007291D01*
X006565Y007323D01*
X006526Y007282D02*
X006243Y007282D01*
X006158Y007163D02*
X006454Y007163D01*
X006419Y007045D02*
X006259Y007045D01*
X006360Y006926D02*
X006882Y006926D01*
X006962Y006926D02*
X008731Y006926D01*
X008731Y007045D02*
X007425Y007045D01*
X007391Y007163D02*
X008740Y007163D01*
X008794Y007282D02*
X007318Y007282D01*
X006584Y006428D02*
X006229Y006802D01*
X006092Y006959D01*
X005513Y006967D01*
X005273Y006979D01*
X004962Y007290D01*
X004962Y007672D01*
X005340Y008050D01*
X004973Y007664D02*
X004973Y007282D01*
X006294Y006452D02*
X006312Y006452D01*
X006294Y006334D02*
X006425Y006334D01*
X006576Y006215D02*
X006251Y006215D01*
X006178Y006097D02*
X006486Y006097D01*
X006437Y005978D02*
X006028Y005978D01*
X005528Y005741D02*
X003658Y005741D01*
X003658Y005623D02*
X005409Y005623D01*
X005348Y005504D02*
X003658Y005504D01*
X003658Y005386D02*
X005314Y005386D01*
X005314Y005267D02*
X003658Y005267D01*
X003659Y005149D02*
X005347Y005149D01*
X005406Y005030D02*
X003659Y005030D01*
X003659Y004912D02*
X005525Y004912D01*
X008479Y006097D02*
X008594Y006097D01*
X008594Y006215D02*
X008479Y006215D01*
X008479Y006334D02*
X008594Y006334D01*
X012621Y005267D02*
X014283Y005267D01*
X014372Y003608D02*
X003660Y003608D01*
X003660Y003490D02*
X014319Y003490D01*
X014319Y003371D02*
X003660Y003371D01*
X003660Y003253D02*
X014374Y003253D01*
X016734Y001712D02*
X017415Y001712D01*
X017416Y001238D02*
X016465Y001238D01*
X016054Y001120D02*
X017393Y001120D01*
X017743Y000883D02*
X017773Y000883D01*
X017773Y000764D02*
X017743Y000764D01*
X015433Y001357D02*
X014189Y001357D01*
X013967Y001357D02*
X013847Y001357D01*
X013847Y001238D02*
X013967Y001238D01*
X013967Y001120D02*
X013847Y001120D01*
X013847Y001001D02*
X013967Y001001D01*
X013847Y000883D02*
X008018Y000883D01*
X007887Y001001D02*
X013511Y001001D01*
X013511Y001120D02*
X007757Y001120D01*
X007626Y001238D02*
X013511Y001238D01*
X013624Y001357D02*
X007470Y001357D01*
X008148Y000764D02*
X013511Y000764D01*
X013511Y000864D02*
X013511Y000610D01*
X013520Y000574D01*
X013539Y000543D01*
X013565Y000516D01*
X013597Y000498D01*
X013632Y000489D01*
X013847Y000489D01*
X013847Y000864D01*
X013511Y000864D01*
X013847Y000764D02*
X013967Y000764D01*
X013967Y000646D02*
X013847Y000646D01*
X013847Y000527D02*
X013967Y000527D01*
X014259Y000527D02*
X014330Y000527D01*
X014979Y000527D02*
X035485Y000527D01*
X035484Y001357D02*
X029742Y001357D01*
X029860Y001475D02*
X035484Y001475D01*
X023094Y001594D02*
X022963Y001594D01*
X019691Y003371D02*
X019630Y003371D01*
X019630Y003490D02*
X019691Y003490D01*
X019691Y003608D02*
X019630Y003608D01*
X019630Y003727D02*
X019691Y003727D01*
X019691Y003845D02*
X019630Y003845D01*
X020828Y003975D02*
X020863Y004010D01*
X021528Y004010D01*
X013511Y000646D02*
X008279Y000646D01*
X008410Y000527D02*
X013554Y000527D01*
D29*
X013088Y000873D03*
X020828Y003975D03*
X023560Y003853D03*
X024915Y005004D03*
X025383Y005601D03*
X020485Y007837D03*
X018281Y007286D03*
X018328Y006609D03*
X016855Y006778D03*
X013647Y007703D03*
X012781Y008550D03*
X011434Y008959D03*
X016485Y009455D03*
X019170Y010341D03*
X019757Y010333D03*
X020966Y010306D03*
X022698Y010388D03*
X023237Y009916D03*
X023922Y008699D03*
X028749Y009337D03*
X031395Y008341D03*
X031855Y010377D03*
X022690Y012739D03*
X019619Y012290D03*
X018899Y013294D03*
X016576Y012298D03*
X014277Y012314D03*
X020560Y011176D03*
X017013Y005022D03*
X014521Y004979D03*
X027757Y001113D03*
D30*
X022796Y004172D02*
X022206Y003018D01*
X022796Y004172D02*
X022777Y004491D01*
X022785Y004512D01*
X025296Y005672D02*
X025383Y005601D01*
X028796Y006172D02*
X028926Y005999D01*
X028796Y006172D02*
X021296Y006172D01*
X021009Y006660D01*
X021009Y007160D01*
X021796Y007172D01*
X021651Y007294D01*
X017796Y007672D02*
X017601Y007794D01*
X017796Y007672D02*
X016796Y007672D01*
X015296Y007672D02*
X014296Y008672D01*
X014296Y011672D01*
X015796Y013172D01*
X015934Y013195D01*
X016338Y011713D02*
X016296Y011672D01*
X016505Y011487D01*
X016544Y010849D01*
X016623Y010814D01*
X021096Y009286D02*
X021182Y009262D01*
X021442Y009243D01*
X021651Y009294D01*
X015296Y007672D02*
X015296Y004672D01*
X014619Y003432D01*
X007674Y006428D02*
X006584Y006428D01*
X005814Y007493D02*
X009304Y007493D01*
X028796Y003672D02*
X028796Y003172D01*
X028796Y003672D02*
X029040Y003786D01*
D31*
X022651Y002010D02*
X021528Y002010D01*
X017758Y002010D02*
X017359Y002010D01*
X016930Y002440D01*
X016930Y004018D01*
X016316Y004632D01*
X016316Y006215D01*
X017601Y006001D02*
X017678Y005924D01*
X017601Y006001D02*
X017601Y006794D01*
X015690Y006841D02*
X015690Y008758D01*
X016651Y010786D02*
X016623Y010814D01*
X021651Y012794D02*
X021706Y012739D01*
X022690Y012739D01*
X018899Y013294D02*
X017601Y013294D01*
X029777Y007794D02*
X030304Y008321D01*
X031375Y008321D01*
X029777Y007794D02*
X021651Y007794D01*
X009304Y007993D02*
X006979Y007993D01*
X016013Y002778D02*
X016257Y001522D01*
X016686Y001510D02*
X014655Y000924D01*
X016686Y001510D02*
X017758Y001510D01*
D32*
X022206Y003018D03*
X028796Y003172D03*
X016796Y007672D03*
X014619Y003432D03*
M02*
