%
M48
M72
T01C0.0236
T02C0.0240
T03C0.0320
T04C0.0400
T05C0.0551
T06C0.1300
%
T01
X13088Y873
X20828Y3975
X23560Y3853
X24915Y5004
X25383Y5601
X20485Y7837
X18281Y7286
X18328Y6609
X16855Y6778
X13647Y7703
X12781Y8550
X11434Y8959
X16485Y9455
X19170Y10341
X19757Y10333
X20966Y10306
X22698Y10388
X23237Y9916
X23922Y8699
X28749Y9337
X31395Y8341
X31855Y10377
X22690Y12739
X19619Y12290
X18899Y13294
X16576Y12298
X14277Y12314
X20560Y11176
X17013Y5022
X14521Y4979
X27757Y1113
T02
X14619Y3432
X22206Y3018
X28796Y3172
X16796Y7672
T03
X33926Y12317
X32926Y12317
X34926Y12317
T04
X6922Y4778
X5804Y5325
X6922Y5869
X5804Y6416
X6922Y6959
X5804Y7503
X6922Y8050
X5804Y8593
X6922Y9140
X25021Y12597
X26021Y12597
X27021Y12597
X28021Y12597
X29021Y12597
X30021Y12597
T05
X33875Y6180
X33875Y7951
T06
X6363Y2038
X6363Y11880
M30
