G75*
%MOIN*%
%OFA0B0*%
%FSLAX24Y24*%
%IPPOS*%
%LPD*%
%AMOC8*
5,1,8,0,0,1.08239X$1,22.5*
%
%ADD10R,0.0800X0.0800*%
%ADD11C,0.0800*%
%ADD12C,0.2060*%
%ADD13R,0.0926X0.0296*%
%ADD14C,0.0620*%
%ADD15R,0.0572X0.0651*%
%ADD16R,0.0454X0.0611*%
%ADD17R,0.0560X0.0360*%
%ADD18R,0.0651X0.0572*%
%ADD19R,0.2438X0.1399*%
%ADD20R,0.1241X0.0336*%
%ADD21C,0.0611*%
%ADD22R,0.0847X0.2225*%
%ADD23R,0.0510X0.0360*%
%ADD24R,0.0277X0.0532*%
%ADD25R,0.0454X0.0454*%
%ADD26C,0.0540*%
%ADD27R,0.0416X0.0416*%
%ADD28C,0.0420*%
D10*
X006922Y004778D03*
D11*
X005804Y005325D03*
X006922Y005869D03*
X005804Y006416D03*
X006922Y006959D03*
X005804Y007503D03*
X006922Y008050D03*
X005804Y008593D03*
X006922Y009140D03*
D12*
X006363Y002038D03*
X006363Y011880D03*
D13*
X009304Y008493D03*
X009304Y007993D03*
X009304Y007493D03*
X009304Y006993D03*
X011351Y006993D03*
X011351Y007493D03*
X011351Y007993D03*
X011351Y008493D03*
X027777Y008843D03*
X027777Y009343D03*
X027777Y009843D03*
X027777Y010343D03*
X029824Y010343D03*
X029824Y009843D03*
X029824Y009343D03*
X029824Y008843D03*
D14*
X030021Y012317D02*
X030021Y012877D01*
X029021Y012877D02*
X029021Y012317D01*
X028021Y012317D02*
X028021Y012877D01*
X027021Y012877D02*
X027021Y012317D01*
X026021Y012317D02*
X026021Y012877D01*
X025021Y012877D02*
X025021Y012317D01*
D15*
X030351Y011148D03*
X031099Y011148D03*
X031316Y012629D03*
X032064Y012629D03*
X023351Y009314D03*
X022603Y009314D03*
X016623Y010814D03*
X015875Y010814D03*
X015690Y008758D03*
X016438Y008758D03*
X017678Y005924D03*
X018426Y005924D03*
X024013Y005605D03*
X024761Y005605D03*
X028926Y005999D03*
X029674Y005999D03*
X029702Y006794D03*
X028954Y006794D03*
X029040Y003786D03*
X029788Y003786D03*
X023403Y002006D03*
X022655Y002006D03*
X014655Y000924D03*
X013907Y000924D03*
X015934Y013195D03*
X016682Y013195D03*
D16*
X008910Y006026D03*
X008162Y006026D03*
X008536Y005160D03*
D17*
X017601Y006794D03*
X017601Y007294D03*
X017601Y007794D03*
X017601Y008294D03*
X017601Y008794D03*
X017601Y009294D03*
X017601Y009794D03*
X017601Y010294D03*
X017601Y010794D03*
X017601Y011294D03*
X017601Y011794D03*
X017601Y012294D03*
X017601Y012794D03*
X017601Y013294D03*
X021651Y013294D03*
X021651Y012794D03*
X021651Y012294D03*
X021651Y011794D03*
X021651Y011294D03*
X021651Y010794D03*
X021651Y010294D03*
X021651Y009794D03*
X021651Y009294D03*
X021651Y008794D03*
X021651Y008294D03*
X021651Y007794D03*
X021651Y007294D03*
X021651Y006794D03*
D18*
X025560Y004373D03*
X025560Y003625D03*
X029800Y002841D03*
X029800Y002093D03*
X012769Y007215D03*
X012769Y007963D03*
D19*
X033647Y009743D03*
X033647Y004388D03*
D20*
X031119Y006327D03*
X031119Y006819D03*
X031119Y007312D03*
X031119Y007804D03*
D21*
X033875Y007951D03*
X033875Y006180D03*
D22*
X016013Y006518D03*
X016013Y002778D03*
D23*
X017758Y003010D03*
X017758Y002510D03*
X017758Y002010D03*
X017758Y001510D03*
X017758Y001010D03*
X021528Y001010D03*
X021528Y001510D03*
X021528Y002010D03*
X021528Y002510D03*
X021528Y003010D03*
X021528Y003510D03*
X021528Y004010D03*
X021528Y004510D03*
X021528Y005010D03*
X017758Y005010D03*
X017758Y004510D03*
X017758Y004010D03*
X017758Y003510D03*
D24*
X027399Y002810D03*
X028147Y002810D03*
X028147Y001786D03*
X027773Y001786D03*
X027399Y001786D03*
D25*
X027379Y003798D03*
X028166Y003798D03*
D26*
X032926Y012077D02*
X032926Y012557D01*
X033926Y012557D02*
X033926Y012077D01*
X034926Y012077D02*
X034926Y012557D01*
D27*
X031855Y010377D03*
X028749Y009337D03*
X031395Y008341D03*
X025383Y005601D03*
X024915Y005004D03*
X023560Y003853D03*
X020828Y003975D03*
X017013Y005022D03*
X014521Y004979D03*
X018328Y006609D03*
X018281Y007286D03*
X016855Y006778D03*
X013647Y007703D03*
X012781Y008550D03*
X011434Y008959D03*
X016485Y009455D03*
X019170Y010341D03*
X019757Y010333D03*
X020966Y010306D03*
X022698Y010388D03*
X023237Y009916D03*
X023922Y008699D03*
X020485Y007837D03*
X020560Y011176D03*
X019619Y012290D03*
X018899Y013294D03*
X016576Y012298D03*
X014277Y012314D03*
X022690Y012739D03*
X027757Y001113D03*
X013088Y000873D03*
D28*
X014619Y003432D03*
X022206Y003018D03*
X028796Y003172D03*
X016796Y007672D03*
M02*
