G75*
%MOIN*%
%OFA0B0*%
%FSLAX24Y24*%
%IPPOS*%
%LPD*%
%AMOC8*
5,1,8,0,0,1.08239X$1,22.5*
%
%ADD10R,0.0800X0.0800*%
%ADD11C,0.0800*%
%ADD12C,0.2060*%
%ADD13C,0.0620*%
%ADD14C,0.0611*%
%ADD15C,0.0540*%
%ADD16R,0.0416X0.0416*%
%ADD17C,0.0420*%
D10*
X006922Y004778D03*
D11*
X005804Y005325D03*
X006922Y005869D03*
X005804Y006416D03*
X006922Y006959D03*
X005804Y007503D03*
X006922Y008050D03*
X005804Y008593D03*
X006922Y009140D03*
D12*
X006363Y002038D03*
X006363Y011880D03*
D13*
X025021Y012317D02*
X025021Y012877D01*
X026021Y012877D02*
X026021Y012317D01*
X027021Y012317D02*
X027021Y012877D01*
X028021Y012877D02*
X028021Y012317D01*
X029021Y012317D02*
X029021Y012877D01*
X030021Y012877D02*
X030021Y012317D01*
D14*
X033875Y007951D03*
X033875Y006180D03*
D15*
X033926Y012077D02*
X033926Y012557D01*
X032926Y012557D02*
X032926Y012077D01*
X034926Y012077D02*
X034926Y012557D01*
D16*
X031855Y010377D03*
X028749Y009337D03*
X031395Y008341D03*
X025383Y005601D03*
X024915Y005004D03*
X023560Y003853D03*
X020828Y003975D03*
X017013Y005022D03*
X014521Y004979D03*
X018328Y006609D03*
X018281Y007286D03*
X016855Y006778D03*
X013647Y007703D03*
X012781Y008550D03*
X011434Y008959D03*
X016485Y009455D03*
X019170Y010341D03*
X019757Y010333D03*
X020966Y010306D03*
X022698Y010388D03*
X023237Y009916D03*
X023922Y008699D03*
X020485Y007837D03*
X020560Y011176D03*
X019619Y012290D03*
X018899Y013294D03*
X016576Y012298D03*
X014277Y012314D03*
X022690Y012739D03*
X027757Y001113D03*
X013088Y000873D03*
D17*
X014619Y003432D03*
X022206Y003018D03*
X028796Y003172D03*
X016796Y007672D03*
M02*
