%
M48
M72
T01C0.0236
T02C0.0320
T03C0.0354
T04C0.0400
T05C0.0551
T06C0.1299
%
T01
X20440Y8299
X21003Y9598
X20183Y9933
X17440Y8799
X16109Y8961
X16034Y9889
X16489Y10579
X16849Y11326
X14416Y12071
X14180Y11480
X12050Y12099
X12080Y13059
X14377Y13016
X14101Y14591
X12447Y15024
X12132Y15929
X14101Y15811
X15833Y15575
X15833Y16087
X16817Y16126
X17283Y15155
X18624Y13567
X20079Y13463
X19963Y12506
X25361Y16244
X13077Y9260
X13921Y8559
X11817Y9551
X10649Y9548
X10240Y10057
X10673Y10565
X10125Y11480
X9822Y12571
X7841Y12701
X6621Y12701
X9298Y14158
X10587Y14612
X7920Y10221
X6384Y10221
X6227Y8331
X1940Y8799
X2802Y5536
X3512Y4272
X4164Y3299
X6440Y2799
X7105Y1812
X2273Y1663
X8523Y5535
X8952Y6304
X9308Y7036
X12285Y7100
X14022Y5654
X12114Y5130
X12126Y4471
X12802Y3685
X16026Y3880
X14731Y1244
X17999Y1298
X2684Y12583
T02
X20480Y6783
X20479Y5787
X25424Y15102
X26424Y15102
X27424Y15102
T03
X23215Y6815
X22215Y7319
X23211Y7811
X22207Y8311
X23215Y8811
X22199Y9291
X23215Y9803
X22199Y10307
T04
X9743Y2079
X10743Y2079
X11743Y2079
X12743Y2079
X13743Y2079
X14743Y2079
X21262Y3921
X22262Y3921
X23262Y3921
X24262Y3921
T05
X4577Y7683
X4577Y9455
T06
X25715Y6323
X25715Y10811
M30
