G75*
%MOIN*%
%OFA0B0*%
%FSLAX24Y24*%
%IPPOS*%
%LPD*%
%AMOC8*
5,1,8,0,0,1.08239X$1,22.5*
%
%ADD10C,0.0560*%
%ADD11R,0.0514X0.0514*%
%ADD12OC8,0.0630*%
%ADD13C,0.0480*%
%ADD14R,0.0356X0.0356*%
%ADD15C,0.0356*%
%ADD16C,0.0120*%
%ADD17C,0.0240*%
%ADD18C,0.0080*%
%ADD19C,0.0160*%
%ADD20C,0.0100*%
%ADD21C,0.0320*%
D10*
X009743Y001799D02*
X009743Y002359D01*
X010743Y002359D02*
X010743Y001799D01*
X011743Y001799D02*
X011743Y002359D01*
X012743Y002359D02*
X012743Y001799D01*
X013743Y001799D02*
X013743Y002359D01*
X014743Y002359D02*
X014743Y001799D01*
X021262Y003641D02*
X021262Y004201D01*
X022262Y004201D02*
X022262Y003641D01*
X023262Y003641D02*
X023262Y004201D01*
X024262Y004201D02*
X024262Y003641D01*
D11*
X023215Y006815D03*
X022215Y007319D03*
X023211Y007811D03*
X022207Y008311D03*
X023215Y008811D03*
X022199Y009291D03*
X023215Y009803D03*
X022199Y010307D03*
D12*
X020480Y006783D03*
X020479Y005787D03*
D13*
X025424Y014862D02*
X025424Y015342D01*
X026424Y015342D02*
X026424Y014862D01*
X027424Y014862D02*
X027424Y015342D01*
D14*
X025361Y016244D03*
X020079Y013463D03*
X019963Y012506D03*
X018624Y013567D03*
X017283Y015155D03*
X016817Y016126D03*
X015833Y016087D03*
X015833Y015575D03*
X014101Y015811D03*
X012447Y015024D03*
X012132Y015929D03*
X010587Y014612D03*
X009298Y014158D03*
X007841Y012701D03*
X006621Y012701D03*
X009822Y012571D03*
X010125Y011480D03*
X010673Y010565D03*
X010240Y010057D03*
X010649Y009548D03*
X011817Y009551D03*
X013077Y009260D03*
X013921Y008559D03*
X016109Y008961D03*
X016034Y009889D03*
X016489Y010579D03*
X016849Y011326D03*
X014416Y012071D03*
X014180Y011480D03*
X012050Y012099D03*
X012080Y013059D03*
X014377Y013016D03*
X014101Y014591D03*
X007920Y010221D03*
X006384Y010221D03*
X006227Y008331D03*
X009308Y007036D03*
X008952Y006304D03*
X008523Y005535D03*
X012114Y005130D03*
X012126Y004471D03*
X012802Y003685D03*
X014022Y005654D03*
X012285Y007100D03*
X016026Y003880D03*
X014731Y001244D03*
X017999Y001298D03*
X007105Y001812D03*
X003512Y004272D03*
X002802Y005536D03*
X002273Y001663D03*
X020183Y009933D03*
X021003Y009598D03*
X002684Y012583D03*
D15*
X001940Y008799D03*
X004164Y003299D03*
X006440Y002799D03*
X017440Y008799D03*
X020440Y008299D03*
D16*
X000683Y000540D02*
X000664Y016567D01*
X012293Y016575D01*
X012005Y016287D01*
X011880Y016287D01*
X011774Y016182D01*
X011774Y015677D01*
X011880Y015571D01*
X012385Y015571D01*
X012491Y015677D01*
X012491Y016038D01*
X012713Y016260D01*
X015475Y016260D01*
X015475Y015834D01*
X015478Y015831D01*
X015475Y015828D01*
X015475Y015432D01*
X013239Y015453D01*
X013258Y015471D01*
X013830Y015471D01*
X013848Y015453D01*
X014354Y015453D01*
X014459Y015558D01*
X014459Y016064D01*
X014354Y016169D01*
X013848Y016169D01*
X013830Y016151D01*
X013049Y016151D01*
X012924Y016099D01*
X012334Y015509D01*
X012292Y015472D01*
X012286Y015461D01*
X012277Y015453D01*
X012256Y015401D01*
X012246Y015382D01*
X012195Y015382D01*
X012089Y015276D01*
X012089Y015020D01*
X012003Y015148D01*
X011993Y015172D01*
X011974Y015191D01*
X011959Y015213D01*
X011938Y015227D01*
X011920Y015245D01*
X011895Y015255D01*
X011873Y015270D01*
X011848Y015275D01*
X011824Y015285D01*
X011798Y015285D01*
X011771Y015290D01*
X011746Y015285D01*
X008904Y015285D01*
X008808Y015245D01*
X008735Y015172D01*
X008379Y014816D01*
X008343Y014780D01*
X008343Y014780D01*
X008342Y014779D01*
X008323Y014732D01*
X008303Y014685D01*
X008303Y014684D01*
X008303Y014684D01*
X008303Y014633D01*
X008265Y005887D01*
X008240Y005862D01*
X006629Y005862D01*
X006581Y005864D01*
X006577Y005862D01*
X006573Y005862D01*
X006529Y005844D01*
X006485Y005828D01*
X006481Y005825D01*
X006477Y005823D01*
X006444Y005789D01*
X004166Y003657D01*
X004093Y003657D01*
X003961Y003603D01*
X003860Y003502D01*
X003806Y003371D01*
X003806Y003228D01*
X003860Y003096D01*
X003961Y002996D01*
X004093Y002941D01*
X004235Y002941D01*
X004367Y002996D01*
X004468Y003096D01*
X004522Y003228D01*
X004522Y003278D01*
X006727Y005342D01*
X008165Y005342D01*
X008165Y005282D01*
X008271Y005177D01*
X008656Y005177D01*
X008676Y003709D01*
X008601Y003709D01*
X008550Y003709D01*
X008498Y003709D01*
X008498Y003709D01*
X008498Y003709D01*
X008450Y003689D01*
X008402Y003669D01*
X008366Y003632D01*
X008329Y003596D01*
X008329Y003596D01*
X008329Y003596D01*
X008310Y003548D01*
X008290Y003501D01*
X008290Y003500D01*
X008101Y003041D01*
X006689Y003057D01*
X006642Y003103D01*
X006511Y003157D01*
X006368Y003157D01*
X006237Y003103D01*
X006136Y003002D01*
X006081Y002871D01*
X006081Y002728D01*
X006136Y002596D01*
X006237Y002496D01*
X006368Y002441D01*
X006511Y002441D01*
X006642Y002496D01*
X006683Y002537D01*
X008221Y002520D01*
X008223Y002519D01*
X008273Y002520D01*
X008323Y002519D01*
X008325Y002520D01*
X008326Y002520D01*
X008373Y002539D01*
X008419Y002558D01*
X008420Y002559D01*
X008422Y002559D01*
X008457Y002595D01*
X008493Y002630D01*
X008494Y002632D01*
X008495Y002633D01*
X008514Y002679D01*
X008534Y002725D01*
X008534Y002727D01*
X008724Y003189D01*
X008882Y003189D01*
X008681Y002988D01*
X008642Y002893D01*
X008642Y002353D01*
X008360Y002072D01*
X007456Y002072D01*
X007358Y002170D01*
X006853Y002170D01*
X006747Y002064D01*
X006747Y001559D01*
X006853Y001454D01*
X007358Y001454D01*
X007456Y001552D01*
X008520Y001552D01*
X008615Y001591D01*
X009049Y002025D01*
X009122Y002098D01*
X009162Y002194D01*
X009162Y002733D01*
X009483Y003054D01*
X009483Y002749D01*
X009482Y002749D01*
X009353Y002619D01*
X009283Y002450D01*
X009283Y001707D01*
X009353Y001538D01*
X009482Y001409D01*
X009651Y001339D01*
X009834Y001339D01*
X010003Y001409D01*
X010133Y001538D01*
X010203Y001707D01*
X010203Y002450D01*
X010133Y002619D01*
X010003Y002749D01*
X010003Y003502D01*
X010019Y003462D01*
X010488Y002994D01*
X010488Y002751D01*
X010482Y002749D01*
X010353Y002619D01*
X010283Y002450D01*
X010283Y001707D01*
X010353Y001538D01*
X010482Y001409D01*
X010651Y001339D01*
X010834Y001339D01*
X011003Y001409D01*
X011133Y001538D01*
X011203Y001707D01*
X011203Y002450D01*
X011133Y002619D01*
X011008Y002744D01*
X011008Y003118D01*
X011047Y003079D01*
X011142Y003040D01*
X011479Y003040D01*
X011479Y002746D01*
X011353Y002619D01*
X011283Y002450D01*
X011283Y001707D01*
X011353Y001538D01*
X011482Y001409D01*
X011651Y001339D01*
X011834Y001339D01*
X011974Y001397D01*
X011886Y001315D01*
X003372Y001315D01*
X003103Y001585D01*
X003103Y003881D01*
X003216Y003958D01*
X003259Y003914D01*
X003765Y003914D01*
X003870Y004019D01*
X003870Y004525D01*
X003765Y004630D01*
X003259Y004630D01*
X003160Y004531D01*
X003138Y004522D01*
X003111Y004516D01*
X003090Y004502D01*
X003068Y004492D01*
X003048Y004473D01*
X002719Y004248D01*
X002696Y004239D01*
X002676Y004219D01*
X002654Y004204D01*
X002640Y004183D01*
X002623Y004166D01*
X002612Y004140D01*
X002597Y004118D01*
X002593Y004093D01*
X002583Y004070D01*
X002583Y004043D01*
X002578Y004016D01*
X002583Y003992D01*
X002583Y001425D01*
X002623Y001330D01*
X002696Y001257D01*
X003117Y000835D01*
X003213Y000795D01*
X011981Y000795D01*
X012027Y000793D01*
X012033Y000795D01*
X012038Y000795D01*
X012081Y000813D01*
X012124Y000829D01*
X012129Y000833D01*
X012134Y000835D01*
X012167Y000868D01*
X012381Y001064D01*
X012386Y001066D01*
X012419Y001099D01*
X012453Y001130D01*
X012455Y001135D01*
X012459Y001139D01*
X012477Y001182D01*
X012496Y001224D01*
X012497Y001230D01*
X012499Y001235D01*
X012499Y001281D01*
X012501Y001327D01*
X012499Y001333D01*
X012499Y001457D01*
X012523Y001440D01*
X012581Y001410D01*
X012644Y001389D01*
X012703Y001380D01*
X012703Y002039D01*
X012783Y002039D01*
X012783Y002119D01*
X013163Y002119D01*
X013163Y002392D01*
X013152Y002457D01*
X013132Y002520D01*
X013102Y002579D01*
X013063Y002632D01*
X013016Y002679D01*
X012963Y002718D01*
X012904Y002748D01*
X012841Y002768D01*
X012783Y002778D01*
X012783Y002119D01*
X012703Y002119D01*
X012703Y002778D01*
X012644Y002768D01*
X012581Y002748D01*
X012523Y002718D01*
X012499Y002701D01*
X012499Y003377D01*
X012549Y003327D01*
X013054Y003327D01*
X013160Y003432D01*
X013160Y003524D01*
X014041Y003524D01*
X014491Y003074D01*
X014491Y002752D01*
X014482Y002749D01*
X014353Y002619D01*
X014283Y002450D01*
X014283Y001707D01*
X014353Y001538D01*
X014383Y001508D01*
X014373Y001497D01*
X014373Y000992D01*
X014478Y000886D01*
X014984Y000886D01*
X015089Y000992D01*
X015089Y001495D01*
X015133Y001538D01*
X015203Y001707D01*
X015203Y002450D01*
X015133Y002619D01*
X015003Y002749D01*
X014971Y002762D01*
X014971Y003221D01*
X014934Y003309D01*
X014344Y003900D01*
X014276Y003967D01*
X014188Y004004D01*
X013094Y004004D01*
X013054Y004043D01*
X012549Y004043D01*
X012444Y003938D01*
X012444Y003596D01*
X012420Y003618D01*
X012386Y003652D01*
X012383Y003653D01*
X011897Y004113D01*
X012379Y004113D01*
X012474Y004208D01*
X015717Y004182D01*
X015668Y004133D01*
X015668Y003628D01*
X015773Y003522D01*
X016278Y003522D01*
X016377Y003620D01*
X018854Y003620D01*
X018950Y003660D01*
X019440Y004150D01*
X019513Y004223D01*
X019552Y004318D01*
X019552Y013285D01*
X019513Y013380D01*
X019153Y013741D01*
X019079Y013814D01*
X018984Y013853D01*
X018949Y013853D01*
X018876Y013926D01*
X018371Y013926D01*
X018265Y013820D01*
X018265Y013315D01*
X018371Y013209D01*
X018876Y013209D01*
X018912Y013245D01*
X019032Y013125D01*
X019032Y010859D01*
X019024Y010868D01*
X018901Y011021D01*
X018895Y011035D01*
X018869Y011062D01*
X018846Y011091D01*
X018833Y011098D01*
X018822Y011108D01*
X018788Y011123D01*
X018756Y011141D01*
X018741Y011142D01*
X018727Y011148D01*
X018690Y011148D01*
X018653Y011152D01*
X018638Y011148D01*
X017395Y011148D01*
X017207Y011336D01*
X017207Y011579D01*
X017102Y011684D01*
X016596Y011684D01*
X016491Y011579D01*
X016491Y011073D01*
X016596Y010968D01*
X016839Y010968D01*
X017071Y010736D01*
X016847Y010736D01*
X016847Y010832D01*
X016741Y010937D01*
X016236Y010937D01*
X016131Y010832D01*
X016131Y010326D01*
X016210Y010247D01*
X015781Y010247D01*
X015683Y010149D01*
X014334Y010149D01*
X014238Y010110D01*
X014007Y009878D01*
X014007Y009955D01*
X014400Y010349D01*
X014440Y010444D01*
X014440Y011130D01*
X014538Y011228D01*
X014538Y011713D01*
X014669Y011713D01*
X014774Y011818D01*
X014774Y012324D01*
X014669Y012429D01*
X014224Y012429D01*
X014126Y012527D01*
X014126Y014017D01*
X014342Y014233D01*
X014354Y014233D01*
X014459Y014338D01*
X014459Y014843D01*
X014380Y014922D01*
X016929Y014898D01*
X017031Y014797D01*
X017536Y014797D01*
X017641Y014902D01*
X017641Y015345D01*
X024314Y015345D01*
X024551Y015581D01*
X025068Y015581D01*
X025068Y015580D01*
X025004Y015426D01*
X025004Y014779D01*
X025068Y014625D01*
X025186Y014506D01*
X025340Y014442D01*
X025507Y014442D01*
X025662Y014506D01*
X025780Y014625D01*
X025844Y014779D01*
X025844Y015426D01*
X025780Y015580D01*
X025779Y015581D01*
X026068Y015581D01*
X026068Y015580D01*
X026004Y015426D01*
X026004Y014779D01*
X026068Y014625D01*
X026186Y014506D01*
X026340Y014442D01*
X026507Y014442D01*
X026662Y014506D01*
X026780Y014625D01*
X026844Y014779D01*
X026844Y015426D01*
X026780Y015580D01*
X026779Y015581D01*
X027068Y015581D01*
X027068Y015580D01*
X027004Y015426D01*
X027004Y014779D01*
X027068Y014625D01*
X027186Y014506D01*
X027340Y014442D01*
X027507Y014442D01*
X027662Y014506D01*
X027780Y014625D01*
X027844Y014779D01*
X027844Y015426D01*
X027780Y015580D01*
X027662Y015698D01*
X027640Y015707D01*
X027543Y015805D01*
X027306Y016041D01*
X025719Y016041D01*
X025719Y016497D01*
X025631Y016584D01*
X028518Y016586D01*
X028518Y000540D01*
X000683Y000540D01*
X000683Y000655D02*
X028518Y000655D01*
X028518Y000773D02*
X000683Y000773D01*
X000683Y000892D02*
X003061Y000892D01*
X002942Y001010D02*
X000683Y001010D01*
X000683Y001129D02*
X002824Y001129D01*
X002705Y001247D02*
X000683Y001247D01*
X000682Y001366D02*
X002608Y001366D01*
X002583Y001484D02*
X000682Y001484D01*
X000682Y001603D02*
X002583Y001603D01*
X002583Y001721D02*
X000682Y001721D01*
X000682Y001840D02*
X002583Y001840D01*
X002583Y001958D02*
X000682Y001958D01*
X000682Y002077D02*
X002583Y002077D01*
X002583Y002195D02*
X000682Y002195D01*
X000681Y002314D02*
X002583Y002314D01*
X002583Y002432D02*
X000681Y002432D01*
X000681Y002551D02*
X002583Y002551D01*
X002583Y002669D02*
X000681Y002669D01*
X000681Y002788D02*
X002583Y002788D01*
X002583Y002906D02*
X000681Y002906D01*
X000681Y003025D02*
X002583Y003025D01*
X002583Y003143D02*
X000680Y003143D01*
X000680Y003262D02*
X002583Y003262D01*
X002583Y003380D02*
X000680Y003380D01*
X000680Y003499D02*
X002583Y003499D01*
X002583Y003617D02*
X000680Y003617D01*
X000680Y003736D02*
X002583Y003736D01*
X002583Y003854D02*
X000680Y003854D01*
X000679Y003973D02*
X002583Y003973D01*
X002592Y004091D02*
X000679Y004091D01*
X000679Y004210D02*
X002662Y004210D01*
X002836Y004328D02*
X000679Y004328D01*
X000679Y004447D02*
X003010Y004447D01*
X003195Y004565D02*
X000679Y004565D01*
X000679Y004684D02*
X005263Y004684D01*
X005389Y004802D02*
X000678Y004802D01*
X000678Y004921D02*
X005516Y004921D01*
X005642Y005039D02*
X000678Y005039D01*
X000678Y005158D02*
X005769Y005158D01*
X005896Y005276D02*
X003153Y005276D01*
X003160Y005283D02*
X003054Y005177D01*
X002549Y005177D01*
X002444Y005283D01*
X002444Y005788D01*
X002462Y005806D01*
X002462Y009619D01*
X002513Y009744D01*
X003183Y010413D01*
X003278Y010509D01*
X003403Y010561D01*
X006114Y010561D01*
X006132Y010579D01*
X006637Y010579D01*
X006655Y010561D01*
X007649Y010561D01*
X007667Y010579D01*
X008173Y010579D01*
X008278Y010473D01*
X008278Y009968D01*
X008173Y009862D01*
X007667Y009862D01*
X007649Y009881D01*
X006655Y009881D01*
X006637Y009862D01*
X006132Y009862D01*
X006114Y009881D01*
X004909Y009881D01*
X005031Y009758D01*
X005113Y009561D01*
X005113Y009348D01*
X005031Y009152D01*
X004881Y009001D01*
X004684Y008919D01*
X004471Y008919D01*
X004274Y009001D01*
X004123Y009152D01*
X004042Y009348D01*
X004042Y009561D01*
X004123Y009758D01*
X004245Y009881D01*
X003612Y009881D01*
X003142Y009410D01*
X003142Y005806D01*
X003160Y005788D01*
X003160Y005283D01*
X003160Y005395D02*
X006022Y005395D01*
X006149Y005513D02*
X003160Y005513D01*
X003160Y005632D02*
X006275Y005632D01*
X006402Y005750D02*
X003160Y005750D01*
X003142Y005869D02*
X008246Y005869D01*
X008265Y005987D02*
X003142Y005987D01*
X003142Y006106D02*
X008266Y006106D01*
X008266Y006224D02*
X003142Y006224D01*
X003142Y006343D02*
X008267Y006343D01*
X008267Y006461D02*
X003142Y006461D01*
X003142Y006580D02*
X008268Y006580D01*
X008268Y006698D02*
X003142Y006698D01*
X003142Y006817D02*
X008269Y006817D01*
X008269Y006935D02*
X003142Y006935D01*
X003142Y007054D02*
X008270Y007054D01*
X008270Y007172D02*
X004743Y007172D01*
X004684Y007148D02*
X004881Y007229D01*
X005031Y007380D01*
X005113Y007577D01*
X005113Y007790D01*
X005031Y007987D01*
X004881Y008137D01*
X004684Y008219D01*
X004471Y008219D01*
X004274Y008137D01*
X004123Y007987D01*
X004042Y007790D01*
X004042Y007577D01*
X004123Y007380D01*
X004274Y007229D01*
X004471Y007148D01*
X004684Y007148D01*
X004411Y007172D02*
X003142Y007172D01*
X003142Y007291D02*
X004212Y007291D01*
X004111Y007409D02*
X003142Y007409D01*
X003142Y007528D02*
X004062Y007528D01*
X004042Y007646D02*
X003142Y007646D01*
X003142Y007765D02*
X004042Y007765D01*
X004080Y007883D02*
X003142Y007883D01*
X003142Y008002D02*
X004138Y008002D01*
X004257Y008120D02*
X003142Y008120D01*
X003142Y008239D02*
X008275Y008239D01*
X008275Y008357D02*
X003142Y008357D01*
X003142Y008476D02*
X008276Y008476D01*
X008276Y008594D02*
X003142Y008594D01*
X003142Y008713D02*
X008277Y008713D01*
X008277Y008831D02*
X003142Y008831D01*
X003142Y008950D02*
X004397Y008950D01*
X004207Y009068D02*
X003142Y009068D01*
X003142Y009187D02*
X004109Y009187D01*
X004060Y009305D02*
X003142Y009305D01*
X003155Y009424D02*
X004042Y009424D01*
X004042Y009542D02*
X003274Y009542D01*
X003392Y009661D02*
X004083Y009661D01*
X004144Y009779D02*
X003511Y009779D01*
X003023Y010253D02*
X000672Y010253D01*
X000672Y010135D02*
X002904Y010135D01*
X002786Y010016D02*
X000672Y010016D01*
X000672Y009898D02*
X002667Y009898D01*
X002549Y009779D02*
X000672Y009779D01*
X000673Y009661D02*
X002479Y009661D01*
X002462Y009542D02*
X000673Y009542D01*
X000673Y009424D02*
X002462Y009424D01*
X002462Y009305D02*
X000673Y009305D01*
X000673Y009187D02*
X002462Y009187D01*
X002462Y009068D02*
X000673Y009068D01*
X000673Y008950D02*
X002462Y008950D01*
X002462Y008831D02*
X000674Y008831D01*
X000674Y008713D02*
X002462Y008713D01*
X002462Y008594D02*
X000674Y008594D01*
X000674Y008476D02*
X002462Y008476D01*
X002462Y008357D02*
X000674Y008357D01*
X000674Y008239D02*
X002462Y008239D01*
X002462Y008120D02*
X000674Y008120D01*
X000675Y008002D02*
X002462Y008002D01*
X002462Y007883D02*
X000675Y007883D01*
X000675Y007765D02*
X002462Y007765D01*
X002462Y007646D02*
X000675Y007646D01*
X000675Y007528D02*
X002462Y007528D01*
X002462Y007409D02*
X000675Y007409D01*
X000675Y007291D02*
X002462Y007291D01*
X002462Y007172D02*
X000676Y007172D01*
X000676Y007054D02*
X002462Y007054D01*
X002462Y006935D02*
X000676Y006935D01*
X000676Y006817D02*
X002462Y006817D01*
X002462Y006698D02*
X000676Y006698D01*
X000676Y006580D02*
X002462Y006580D01*
X002462Y006461D02*
X000676Y006461D01*
X000677Y006343D02*
X002462Y006343D01*
X002462Y006224D02*
X000677Y006224D01*
X000677Y006106D02*
X002462Y006106D01*
X002462Y005987D02*
X000677Y005987D01*
X000677Y005869D02*
X002462Y005869D01*
X002444Y005750D02*
X000677Y005750D01*
X000677Y005632D02*
X002444Y005632D01*
X002444Y005513D02*
X000678Y005513D01*
X000678Y005395D02*
X002444Y005395D01*
X002450Y005276D02*
X000678Y005276D01*
X003103Y003854D02*
X004376Y003854D01*
X004250Y003736D02*
X003103Y003736D01*
X003103Y003617D02*
X003996Y003617D01*
X003859Y003499D02*
X003103Y003499D01*
X003103Y003380D02*
X003810Y003380D01*
X003806Y003262D02*
X003103Y003262D01*
X003103Y003143D02*
X003841Y003143D01*
X003932Y003025D02*
X003103Y003025D01*
X003103Y002906D02*
X006096Y002906D01*
X006081Y002788D02*
X003103Y002788D01*
X003103Y002669D02*
X006106Y002669D01*
X006182Y002551D02*
X003103Y002551D01*
X003103Y002432D02*
X008642Y002432D01*
X008642Y002551D02*
X008402Y002551D01*
X008510Y002669D02*
X008642Y002669D01*
X008642Y002788D02*
X008559Y002788D01*
X008608Y002906D02*
X008647Y002906D01*
X008656Y003025D02*
X008718Y003025D01*
X008705Y003143D02*
X008836Y003143D01*
X009216Y002788D02*
X009483Y002788D01*
X009483Y002906D02*
X009335Y002906D01*
X009453Y003025D02*
X009483Y003025D01*
X009403Y002669D02*
X009162Y002669D01*
X009162Y002551D02*
X009324Y002551D01*
X009283Y002432D02*
X009162Y002432D01*
X009162Y002314D02*
X009283Y002314D01*
X009283Y002195D02*
X009162Y002195D01*
X009101Y002077D02*
X009283Y002077D01*
X009283Y001958D02*
X008982Y001958D01*
X008864Y001840D02*
X009283Y001840D01*
X009283Y001721D02*
X008745Y001721D01*
X008627Y001603D02*
X009326Y001603D01*
X009407Y001484D02*
X007389Y001484D01*
X006822Y001484D02*
X003203Y001484D01*
X003103Y001603D02*
X006747Y001603D01*
X006747Y001721D02*
X003103Y001721D01*
X003103Y001840D02*
X006747Y001840D01*
X006747Y001958D02*
X003103Y001958D01*
X003103Y002077D02*
X006760Y002077D01*
X007451Y002077D02*
X008365Y002077D01*
X008484Y002195D02*
X003103Y002195D01*
X003103Y002314D02*
X008602Y002314D01*
X008143Y003143D02*
X006545Y003143D01*
X006334Y003143D02*
X004487Y003143D01*
X004522Y003262D02*
X008192Y003262D01*
X008240Y003380D02*
X004631Y003380D01*
X004758Y003499D02*
X008289Y003499D01*
X008350Y003617D02*
X004884Y003617D01*
X005011Y003736D02*
X008676Y003736D01*
X008601Y003709D02*
X008601Y003709D01*
X008674Y003854D02*
X005137Y003854D01*
X005264Y003973D02*
X008672Y003973D01*
X008671Y004091D02*
X005391Y004091D01*
X005517Y004210D02*
X008669Y004210D01*
X008667Y004328D02*
X005644Y004328D01*
X005770Y004447D02*
X008666Y004447D01*
X008664Y004565D02*
X005897Y004565D01*
X006024Y004684D02*
X008662Y004684D01*
X008661Y004802D02*
X006150Y004802D01*
X006277Y004921D02*
X008659Y004921D01*
X008658Y005039D02*
X006403Y005039D01*
X006530Y005158D02*
X008656Y005158D01*
X008171Y005276D02*
X006657Y005276D01*
X005136Y004565D02*
X003830Y004565D01*
X003870Y004447D02*
X005009Y004447D01*
X004883Y004328D02*
X003870Y004328D01*
X003870Y004210D02*
X004756Y004210D01*
X004630Y004091D02*
X003870Y004091D01*
X003824Y003973D02*
X004503Y003973D01*
X004396Y003025D02*
X006159Y003025D01*
X008402Y003669D02*
X008402Y003669D01*
X008402Y003669D01*
X010003Y003499D02*
X010004Y003499D01*
X010003Y003380D02*
X010101Y003380D01*
X010003Y003262D02*
X010220Y003262D01*
X010338Y003143D02*
X010003Y003143D01*
X010003Y003025D02*
X010457Y003025D01*
X010488Y002906D02*
X010003Y002906D01*
X010003Y002788D02*
X010488Y002788D01*
X010403Y002669D02*
X010083Y002669D01*
X010003Y002749D02*
X010003Y002749D01*
X010161Y002551D02*
X010324Y002551D01*
X010283Y002432D02*
X010203Y002432D01*
X010203Y002314D02*
X010283Y002314D01*
X010283Y002195D02*
X010203Y002195D01*
X010203Y002077D02*
X010283Y002077D01*
X010283Y001958D02*
X010203Y001958D01*
X010203Y001840D02*
X010283Y001840D01*
X010283Y001721D02*
X010203Y001721D01*
X010159Y001603D02*
X010326Y001603D01*
X010407Y001484D02*
X010079Y001484D01*
X009899Y001366D02*
X010586Y001366D01*
X010899Y001366D02*
X011586Y001366D01*
X011407Y001484D02*
X011079Y001484D01*
X011159Y001603D02*
X011326Y001603D01*
X011283Y001721D02*
X011203Y001721D01*
X011203Y001840D02*
X011283Y001840D01*
X011283Y001958D02*
X011203Y001958D01*
X011203Y002077D02*
X011283Y002077D01*
X011283Y002195D02*
X011203Y002195D01*
X011203Y002314D02*
X011283Y002314D01*
X011283Y002432D02*
X011203Y002432D01*
X011161Y002551D02*
X011324Y002551D01*
X011403Y002669D02*
X011083Y002669D01*
X011008Y002788D02*
X011479Y002788D01*
X011479Y002906D02*
X011008Y002906D01*
X011008Y003025D02*
X011479Y003025D01*
X011886Y003396D02*
X011762Y003520D01*
X011667Y003560D01*
X011301Y003560D01*
X010909Y003953D01*
X010909Y009198D01*
X011007Y009296D01*
X011007Y009801D01*
X010901Y009906D01*
X010598Y009906D01*
X010598Y010207D01*
X010926Y010207D01*
X011032Y010312D01*
X011032Y010818D01*
X010926Y010923D01*
X010421Y010923D01*
X010335Y010837D01*
X009903Y010837D01*
X009808Y010798D01*
X009734Y010725D01*
X009568Y010558D01*
X009568Y011949D01*
X009831Y012213D01*
X010075Y012213D01*
X010180Y012318D01*
X010180Y012823D01*
X010075Y012929D01*
X009569Y012929D01*
X009464Y012823D01*
X009464Y012580D01*
X009140Y012257D01*
X009145Y014337D01*
X009245Y014425D01*
X010229Y014425D01*
X010229Y014360D01*
X010335Y014254D01*
X010840Y014254D01*
X010945Y014360D01*
X010945Y014765D01*
X011634Y014765D01*
X011837Y014463D01*
X011837Y013417D01*
X011827Y013417D01*
X011721Y013312D01*
X011721Y012806D01*
X011827Y012701D01*
X012332Y012701D01*
X012438Y012806D01*
X012438Y013312D01*
X012357Y013392D01*
X012357Y014517D01*
X012363Y014543D01*
X012357Y014568D01*
X012357Y014594D01*
X012347Y014619D01*
X012342Y014645D01*
X012328Y014666D01*
X012700Y014666D01*
X012710Y014676D01*
X012526Y013530D01*
X012518Y013510D01*
X012518Y013479D01*
X012513Y013449D01*
X012518Y013428D01*
X012518Y012571D01*
X012353Y012406D01*
X012302Y012457D01*
X011797Y012457D01*
X011691Y012351D01*
X011691Y011846D01*
X011797Y011741D01*
X012025Y011741D01*
X012025Y007451D01*
X011927Y007353D01*
X011927Y006847D01*
X012033Y006742D01*
X012538Y006742D01*
X012643Y006847D01*
X012643Y007353D01*
X012545Y007451D01*
X012545Y011884D01*
X012582Y011900D01*
X012998Y012316D01*
X013038Y012411D01*
X013038Y013438D01*
X013278Y014932D01*
X013827Y014927D01*
X013743Y014843D01*
X013743Y014595D01*
X013593Y014446D01*
X013498Y014350D01*
X013446Y014225D01*
X013446Y012318D01*
X013498Y012193D01*
X013813Y011878D01*
X013890Y011801D01*
X013822Y011733D01*
X013822Y011228D01*
X013920Y011130D01*
X013920Y010604D01*
X013599Y010283D01*
X013526Y010210D01*
X013487Y010115D01*
X013487Y009816D01*
X013379Y009709D01*
X013352Y009689D01*
X013343Y009673D01*
X013329Y009659D01*
X013317Y009628D01*
X013311Y009619D01*
X012824Y009619D01*
X012719Y009513D01*
X012719Y009008D01*
X012817Y008910D01*
X012817Y006692D01*
X012412Y006286D01*
X011774Y006286D01*
X011679Y006247D01*
X011393Y005962D01*
X011320Y005889D01*
X011281Y005793D01*
X011281Y004140D01*
X011279Y004137D01*
X011281Y004089D01*
X011281Y004040D01*
X011282Y004037D01*
X011282Y004033D01*
X011302Y003989D01*
X011320Y003945D01*
X011323Y003942D01*
X011324Y003939D01*
X011359Y003906D01*
X011393Y003872D01*
X011397Y003870D01*
X011979Y003320D01*
X011979Y003276D01*
X011959Y003323D01*
X011886Y003396D01*
X011902Y003380D02*
X011915Y003380D01*
X011789Y003499D02*
X011784Y003499D01*
X011664Y003617D02*
X011244Y003617D01*
X011125Y003736D02*
X011539Y003736D01*
X011414Y003854D02*
X011007Y003854D01*
X010909Y003973D02*
X011309Y003973D01*
X011281Y004091D02*
X010909Y004091D01*
X010909Y004210D02*
X011281Y004210D01*
X011281Y004328D02*
X010909Y004328D01*
X010909Y004447D02*
X011281Y004447D01*
X011281Y004565D02*
X010909Y004565D01*
X010909Y004684D02*
X011281Y004684D01*
X011281Y004802D02*
X010909Y004802D01*
X010909Y004921D02*
X011281Y004921D01*
X011281Y005039D02*
X010909Y005039D01*
X010909Y005158D02*
X011281Y005158D01*
X011281Y005276D02*
X010909Y005276D01*
X010909Y005395D02*
X011281Y005395D01*
X011281Y005513D02*
X010909Y005513D01*
X010909Y005632D02*
X011281Y005632D01*
X011281Y005750D02*
X010909Y005750D01*
X010909Y005869D02*
X011312Y005869D01*
X011419Y005987D02*
X010909Y005987D01*
X010909Y006106D02*
X011537Y006106D01*
X011656Y006224D02*
X010909Y006224D01*
X010909Y006343D02*
X012468Y006343D01*
X012587Y006461D02*
X010909Y006461D01*
X010909Y006580D02*
X012705Y006580D01*
X012817Y006698D02*
X010909Y006698D01*
X010909Y006817D02*
X011958Y006817D01*
X011927Y006935D02*
X010909Y006935D01*
X010909Y007054D02*
X011927Y007054D01*
X011927Y007172D02*
X010909Y007172D01*
X010909Y007291D02*
X011927Y007291D01*
X011984Y007409D02*
X010909Y007409D01*
X010909Y007528D02*
X012025Y007528D01*
X012025Y007646D02*
X010909Y007646D01*
X010909Y007765D02*
X012025Y007765D01*
X012025Y007883D02*
X010909Y007883D01*
X010909Y008002D02*
X012025Y008002D01*
X012025Y008120D02*
X010909Y008120D01*
X010909Y008239D02*
X012025Y008239D01*
X012025Y008357D02*
X010909Y008357D01*
X010909Y008476D02*
X012025Y008476D01*
X012025Y008594D02*
X010909Y008594D01*
X010909Y008713D02*
X012025Y008713D01*
X012025Y008831D02*
X010909Y008831D01*
X010909Y008950D02*
X012025Y008950D01*
X012025Y009068D02*
X010909Y009068D01*
X010909Y009187D02*
X012025Y009187D01*
X012025Y009305D02*
X011007Y009305D01*
X011007Y009424D02*
X012025Y009424D01*
X012025Y009542D02*
X011007Y009542D01*
X011007Y009661D02*
X012025Y009661D01*
X012025Y009779D02*
X011007Y009779D01*
X010910Y009898D02*
X012025Y009898D01*
X012025Y010016D02*
X010598Y010016D01*
X010598Y010135D02*
X012025Y010135D01*
X012025Y010253D02*
X010972Y010253D01*
X011032Y010372D02*
X012025Y010372D01*
X012025Y010490D02*
X011032Y010490D01*
X011032Y010609D02*
X012025Y010609D01*
X012025Y010727D02*
X011032Y010727D01*
X011003Y010846D02*
X012025Y010846D01*
X012025Y010964D02*
X009568Y010964D01*
X009568Y010846D02*
X010343Y010846D01*
X009737Y010727D02*
X009568Y010727D01*
X009568Y010609D02*
X009618Y010609D01*
X009568Y011083D02*
X012025Y011083D01*
X012025Y011201D02*
X009568Y011201D01*
X009568Y011320D02*
X012025Y011320D01*
X012025Y011438D02*
X009568Y011438D01*
X009568Y011557D02*
X012025Y011557D01*
X012025Y011675D02*
X009568Y011675D01*
X009568Y011794D02*
X011744Y011794D01*
X011691Y011912D02*
X009568Y011912D01*
X009650Y012031D02*
X011691Y012031D01*
X011691Y012149D02*
X009768Y012149D01*
X010130Y012268D02*
X011691Y012268D01*
X011726Y012386D02*
X010180Y012386D01*
X010180Y012505D02*
X012452Y012505D01*
X012518Y012623D02*
X010180Y012623D01*
X010180Y012742D02*
X011786Y012742D01*
X011721Y012860D02*
X010143Y012860D01*
X009501Y012860D02*
X009141Y012860D01*
X009141Y012742D02*
X009464Y012742D01*
X009464Y012623D02*
X009141Y012623D01*
X009141Y012505D02*
X009388Y012505D01*
X009270Y012386D02*
X009140Y012386D01*
X009140Y012268D02*
X009151Y012268D01*
X008292Y012268D02*
X000670Y012268D01*
X000669Y012386D02*
X008293Y012386D01*
X008293Y012505D02*
X000669Y012505D01*
X000669Y012623D02*
X008294Y012623D01*
X008294Y012742D02*
X000669Y012742D01*
X000669Y012860D02*
X008295Y012860D01*
X008295Y012979D02*
X000669Y012979D01*
X000669Y013097D02*
X008296Y013097D01*
X008296Y013216D02*
X000668Y013216D01*
X000668Y013334D02*
X008297Y013334D01*
X008297Y013453D02*
X000668Y013453D01*
X000668Y013571D02*
X008298Y013571D01*
X008299Y013690D02*
X000668Y013690D01*
X000668Y013808D02*
X008299Y013808D01*
X008300Y013927D02*
X000668Y013927D01*
X000667Y014045D02*
X008300Y014045D01*
X008301Y014164D02*
X000667Y014164D01*
X000667Y014282D02*
X008301Y014282D01*
X008302Y014401D02*
X000667Y014401D01*
X000667Y014519D02*
X008302Y014519D01*
X008303Y014638D02*
X000667Y014638D01*
X000667Y014756D02*
X008333Y014756D01*
X008438Y014875D02*
X000666Y014875D01*
X000666Y014993D02*
X008556Y014993D01*
X008675Y015112D02*
X000666Y015112D01*
X000666Y015230D02*
X008793Y015230D01*
X009217Y014401D02*
X010229Y014401D01*
X010307Y014282D02*
X009145Y014282D01*
X009145Y014164D02*
X011837Y014164D01*
X011837Y014282D02*
X010868Y014282D01*
X010945Y014401D02*
X011837Y014401D01*
X011799Y014519D02*
X010945Y014519D01*
X010945Y014638D02*
X011720Y014638D01*
X011640Y014756D02*
X010945Y014756D01*
X011935Y015230D02*
X012089Y015230D01*
X012089Y015112D02*
X012027Y015112D01*
X012162Y015349D02*
X000666Y015349D01*
X000666Y015467D02*
X012289Y015467D01*
X012400Y015586D02*
X012411Y015586D01*
X012491Y015704D02*
X012529Y015704D01*
X012491Y015823D02*
X012648Y015823D01*
X012766Y015941D02*
X012491Y015941D01*
X012513Y016060D02*
X012885Y016060D01*
X012631Y016178D02*
X015475Y016178D01*
X015475Y016060D02*
X014459Y016060D01*
X014459Y015941D02*
X015475Y015941D01*
X015475Y015823D02*
X014459Y015823D01*
X014459Y015704D02*
X015475Y015704D01*
X015475Y015586D02*
X014459Y015586D01*
X014368Y015467D02*
X015475Y015467D01*
X014428Y014875D02*
X016953Y014875D01*
X017614Y014875D02*
X025004Y014875D01*
X025004Y014993D02*
X017641Y014993D01*
X017641Y015112D02*
X025004Y015112D01*
X025004Y015230D02*
X017641Y015230D01*
X018265Y013808D02*
X014126Y013808D01*
X014126Y013690D02*
X018265Y013690D01*
X018265Y013571D02*
X014126Y013571D01*
X014126Y013453D02*
X018265Y013453D01*
X018265Y013334D02*
X014126Y013334D01*
X014126Y013216D02*
X018364Y013216D01*
X018883Y013216D02*
X018942Y013216D01*
X019032Y013097D02*
X014126Y013097D01*
X014126Y012979D02*
X019032Y012979D01*
X019032Y012860D02*
X014126Y012860D01*
X014126Y012742D02*
X019032Y012742D01*
X019032Y012623D02*
X014126Y012623D01*
X014148Y012505D02*
X019032Y012505D01*
X019032Y012386D02*
X014711Y012386D01*
X014774Y012268D02*
X019032Y012268D01*
X019032Y012149D02*
X014774Y012149D01*
X014774Y012031D02*
X019032Y012031D01*
X019032Y011912D02*
X014774Y011912D01*
X014750Y011794D02*
X019032Y011794D01*
X019032Y011675D02*
X017110Y011675D01*
X017207Y011557D02*
X019032Y011557D01*
X019032Y011438D02*
X017207Y011438D01*
X017223Y011320D02*
X019032Y011320D01*
X019032Y011201D02*
X017341Y011201D01*
X016961Y010846D02*
X016833Y010846D01*
X016843Y010964D02*
X014440Y010964D01*
X014440Y010846D02*
X016145Y010846D01*
X016131Y010727D02*
X014440Y010727D01*
X014440Y010609D02*
X016131Y010609D01*
X016131Y010490D02*
X014440Y010490D01*
X014410Y010372D02*
X016131Y010372D01*
X016204Y010253D02*
X014305Y010253D01*
X014299Y010135D02*
X014186Y010135D01*
X014145Y010016D02*
X014068Y010016D01*
X014026Y009898D02*
X014007Y009898D01*
X013487Y009898D02*
X012545Y009898D01*
X012545Y010016D02*
X013487Y010016D01*
X013495Y010135D02*
X012545Y010135D01*
X012545Y010253D02*
X013569Y010253D01*
X013688Y010372D02*
X012545Y010372D01*
X012545Y010490D02*
X013806Y010490D01*
X013920Y010609D02*
X012545Y010609D01*
X012545Y010727D02*
X013920Y010727D01*
X013920Y010846D02*
X012545Y010846D01*
X012545Y010964D02*
X013920Y010964D01*
X013920Y011083D02*
X012545Y011083D01*
X012545Y011201D02*
X013848Y011201D01*
X013822Y011320D02*
X012545Y011320D01*
X012545Y011438D02*
X013822Y011438D01*
X013822Y011557D02*
X012545Y011557D01*
X012545Y011675D02*
X013822Y011675D01*
X013882Y011794D02*
X012545Y011794D01*
X012595Y011912D02*
X013779Y011912D01*
X013660Y012031D02*
X012713Y012031D01*
X012832Y012149D02*
X013542Y012149D01*
X013467Y012268D02*
X012950Y012268D01*
X013028Y012386D02*
X013446Y012386D01*
X013446Y012505D02*
X013038Y012505D01*
X013038Y012623D02*
X013446Y012623D01*
X013446Y012742D02*
X013038Y012742D01*
X013038Y012860D02*
X013446Y012860D01*
X013446Y012979D02*
X013038Y012979D01*
X013038Y013097D02*
X013446Y013097D01*
X013446Y013216D02*
X013038Y013216D01*
X013038Y013334D02*
X013446Y013334D01*
X013446Y013453D02*
X013040Y013453D01*
X013059Y013571D02*
X013446Y013571D01*
X013446Y013690D02*
X013078Y013690D01*
X013097Y013808D02*
X013446Y013808D01*
X013446Y013927D02*
X013117Y013927D01*
X013136Y014045D02*
X013446Y014045D01*
X013446Y014164D02*
X013155Y014164D01*
X013174Y014282D02*
X013470Y014282D01*
X013548Y014401D02*
X013193Y014401D01*
X013212Y014519D02*
X013667Y014519D01*
X013743Y014638D02*
X013231Y014638D01*
X013250Y014756D02*
X013743Y014756D01*
X013774Y014875D02*
X013269Y014875D01*
X012704Y014638D02*
X012343Y014638D01*
X012358Y014519D02*
X012685Y014519D01*
X012666Y014401D02*
X012357Y014401D01*
X012357Y014282D02*
X012647Y014282D01*
X012628Y014164D02*
X012357Y014164D01*
X012357Y014045D02*
X012609Y014045D01*
X012590Y013927D02*
X012357Y013927D01*
X012357Y013808D02*
X012571Y013808D01*
X012552Y013690D02*
X012357Y013690D01*
X012357Y013571D02*
X012533Y013571D01*
X012514Y013453D02*
X012357Y013453D01*
X012415Y013334D02*
X012518Y013334D01*
X012518Y013216D02*
X012438Y013216D01*
X012438Y013097D02*
X012518Y013097D01*
X012518Y012979D02*
X012438Y012979D01*
X012438Y012860D02*
X012518Y012860D01*
X012518Y012742D02*
X012373Y012742D01*
X011721Y012979D02*
X009142Y012979D01*
X009142Y013097D02*
X011721Y013097D01*
X011721Y013216D02*
X009142Y013216D01*
X009143Y013334D02*
X011744Y013334D01*
X011837Y013453D02*
X009143Y013453D01*
X009143Y013571D02*
X011837Y013571D01*
X011837Y013690D02*
X009143Y013690D01*
X009144Y013808D02*
X011837Y013808D01*
X011837Y013927D02*
X009144Y013927D01*
X009144Y014045D02*
X011837Y014045D01*
X014126Y013927D02*
X028518Y013927D01*
X028518Y014045D02*
X014155Y014045D01*
X014273Y014164D02*
X028518Y014164D01*
X028518Y014282D02*
X014403Y014282D01*
X014459Y014401D02*
X028518Y014401D01*
X028518Y014519D02*
X027675Y014519D01*
X027785Y014638D02*
X028518Y014638D01*
X028518Y014756D02*
X027834Y014756D01*
X027844Y014875D02*
X028518Y014875D01*
X028518Y014993D02*
X027844Y014993D01*
X027844Y015112D02*
X028518Y015112D01*
X028518Y015230D02*
X027844Y015230D01*
X027844Y015349D02*
X028518Y015349D01*
X028518Y015467D02*
X027827Y015467D01*
X027774Y015586D02*
X028518Y015586D01*
X028518Y015704D02*
X027648Y015704D01*
X027543Y015805D02*
X027543Y015805D01*
X027525Y015823D02*
X028518Y015823D01*
X028518Y015941D02*
X027406Y015941D01*
X027021Y015467D02*
X026827Y015467D01*
X026844Y015349D02*
X027004Y015349D01*
X027004Y015230D02*
X026844Y015230D01*
X026844Y015112D02*
X027004Y015112D01*
X027004Y014993D02*
X026844Y014993D01*
X026844Y014875D02*
X027004Y014875D01*
X027013Y014756D02*
X026834Y014756D01*
X026785Y014638D02*
X027062Y014638D01*
X027173Y014519D02*
X026675Y014519D01*
X026173Y014519D02*
X025675Y014519D01*
X025785Y014638D02*
X026062Y014638D01*
X026013Y014756D02*
X025834Y014756D01*
X025844Y014875D02*
X026004Y014875D01*
X026004Y014993D02*
X025844Y014993D01*
X025844Y015112D02*
X026004Y015112D01*
X026004Y015230D02*
X025844Y015230D01*
X025844Y015349D02*
X026004Y015349D01*
X026021Y015467D02*
X025827Y015467D01*
X025719Y016060D02*
X028518Y016060D01*
X028518Y016178D02*
X025719Y016178D01*
X025719Y016297D02*
X028518Y016297D01*
X028518Y016415D02*
X025719Y016415D01*
X025682Y016534D02*
X028518Y016534D01*
X025062Y014638D02*
X014459Y014638D01*
X014459Y014756D02*
X025013Y014756D01*
X025173Y014519D02*
X014459Y014519D01*
X013834Y015467D02*
X013254Y015467D01*
X012014Y016297D02*
X000665Y016297D01*
X000665Y016415D02*
X012133Y016415D01*
X012251Y016534D02*
X000664Y016534D01*
X000665Y016178D02*
X011774Y016178D01*
X011774Y016060D02*
X000665Y016060D01*
X000665Y015941D02*
X011774Y015941D01*
X011774Y015823D02*
X000665Y015823D01*
X000665Y015704D02*
X011774Y015704D01*
X011865Y015586D02*
X000666Y015586D01*
X000670Y012149D02*
X008292Y012149D01*
X008291Y012031D02*
X000670Y012031D01*
X000670Y011912D02*
X008291Y011912D01*
X008290Y011794D02*
X000670Y011794D01*
X000670Y011675D02*
X008290Y011675D01*
X008289Y011557D02*
X000670Y011557D01*
X000671Y011438D02*
X008289Y011438D01*
X008288Y011320D02*
X000671Y011320D01*
X000671Y011201D02*
X008288Y011201D01*
X008287Y011083D02*
X000671Y011083D01*
X000671Y010964D02*
X008287Y010964D01*
X008286Y010846D02*
X000671Y010846D01*
X000671Y010727D02*
X008286Y010727D01*
X008285Y010609D02*
X000671Y010609D01*
X000672Y010490D02*
X003260Y010490D01*
X003141Y010372D02*
X000672Y010372D01*
X004757Y008950D02*
X008278Y008950D01*
X008279Y009068D02*
X004948Y009068D01*
X005046Y009187D02*
X008279Y009187D01*
X008280Y009305D02*
X005095Y009305D01*
X005113Y009424D02*
X008280Y009424D01*
X008281Y009542D02*
X005113Y009542D01*
X005072Y009661D02*
X008281Y009661D01*
X008282Y009779D02*
X005010Y009779D01*
X004898Y008120D02*
X008274Y008120D01*
X008274Y008002D02*
X005016Y008002D01*
X005074Y007883D02*
X008273Y007883D01*
X008273Y007765D02*
X005113Y007765D01*
X005113Y007646D02*
X008272Y007646D01*
X008272Y007528D02*
X005093Y007528D01*
X005044Y007409D02*
X008271Y007409D01*
X008271Y007291D02*
X004942Y007291D01*
X008208Y009898D02*
X008282Y009898D01*
X008278Y010016D02*
X008283Y010016D01*
X008278Y010135D02*
X008283Y010135D01*
X008278Y010253D02*
X008284Y010253D01*
X008278Y010372D02*
X008284Y010372D01*
X008285Y010490D02*
X008261Y010490D01*
X012545Y009779D02*
X013449Y009779D01*
X013331Y009661D02*
X012545Y009661D01*
X012545Y009542D02*
X012748Y009542D01*
X012719Y009424D02*
X012545Y009424D01*
X012545Y009305D02*
X012719Y009305D01*
X012719Y009187D02*
X012545Y009187D01*
X012545Y009068D02*
X012719Y009068D01*
X012777Y008950D02*
X012545Y008950D01*
X012545Y008831D02*
X012817Y008831D01*
X012817Y008713D02*
X012545Y008713D01*
X012545Y008594D02*
X012817Y008594D01*
X012817Y008476D02*
X012545Y008476D01*
X012545Y008357D02*
X012817Y008357D01*
X012817Y008239D02*
X012545Y008239D01*
X012545Y008120D02*
X012817Y008120D01*
X012817Y008002D02*
X012545Y008002D01*
X012545Y007883D02*
X012817Y007883D01*
X012817Y007765D02*
X012545Y007765D01*
X012545Y007646D02*
X012817Y007646D01*
X012817Y007528D02*
X012545Y007528D01*
X012587Y007409D02*
X012817Y007409D01*
X012817Y007291D02*
X012643Y007291D01*
X012643Y007172D02*
X012817Y007172D01*
X012817Y007054D02*
X012643Y007054D01*
X012643Y006935D02*
X012817Y006935D01*
X012817Y006817D02*
X012613Y006817D01*
X013964Y007172D02*
X018111Y007172D01*
X018111Y007054D02*
X013990Y007054D01*
X014015Y006935D02*
X018111Y006935D01*
X018111Y006817D02*
X014040Y006817D01*
X014065Y006698D02*
X018111Y006698D01*
X018111Y006580D02*
X014091Y006580D01*
X014116Y006461D02*
X018111Y006461D01*
X018111Y006343D02*
X014141Y006343D01*
X014166Y006224D02*
X018111Y006224D01*
X018111Y006106D02*
X014192Y006106D01*
X014212Y006012D02*
X013769Y008088D01*
X013764Y008201D01*
X014173Y008201D01*
X014279Y008306D01*
X014279Y008812D01*
X014173Y008917D01*
X014066Y008917D01*
X014066Y009202D01*
X014493Y009629D01*
X015683Y009629D01*
X015781Y009531D01*
X016287Y009531D01*
X016392Y009636D01*
X016392Y010142D01*
X016313Y010221D01*
X016528Y010221D01*
X016540Y010216D01*
X018111Y010216D01*
X018111Y005766D01*
X017807Y005403D01*
X014375Y005395D01*
X014380Y005401D01*
X014380Y005906D01*
X014275Y006012D01*
X014212Y006012D01*
X014299Y005987D02*
X018111Y005987D01*
X018111Y005869D02*
X014380Y005869D01*
X014380Y005750D02*
X018098Y005750D01*
X017999Y005632D02*
X014380Y005632D01*
X014380Y005513D02*
X017899Y005513D01*
X019552Y005513D02*
X020053Y005513D01*
X019984Y005582D02*
X020274Y005292D01*
X020684Y005292D01*
X020974Y005582D01*
X020974Y005992D01*
X020684Y006282D01*
X020274Y006282D01*
X019984Y005992D01*
X019984Y005582D01*
X019984Y005632D02*
X019552Y005632D01*
X019552Y005750D02*
X019984Y005750D01*
X019984Y005869D02*
X019552Y005869D01*
X019552Y005987D02*
X019984Y005987D01*
X020098Y006106D02*
X019552Y006106D01*
X019552Y006224D02*
X020217Y006224D01*
X020275Y006288D02*
X020685Y006288D01*
X020975Y006578D01*
X020975Y006988D01*
X020685Y007278D01*
X020275Y007278D01*
X019985Y006988D01*
X019985Y006578D01*
X020275Y006288D01*
X020220Y006343D02*
X019552Y006343D01*
X019552Y006461D02*
X020102Y006461D01*
X019985Y006580D02*
X019552Y006580D01*
X019552Y006698D02*
X019985Y006698D01*
X019985Y006817D02*
X019552Y006817D01*
X019552Y006935D02*
X019985Y006935D01*
X020051Y007054D02*
X019552Y007054D01*
X019552Y007172D02*
X020169Y007172D01*
X020791Y007172D02*
X021243Y007172D01*
X021243Y007059D02*
X021282Y006963D01*
X021355Y006890D01*
X022002Y006243D01*
X022002Y004592D01*
X022002Y004591D01*
X021872Y004462D01*
X021802Y004293D01*
X021802Y003550D01*
X021872Y003381D01*
X022002Y003251D01*
X022171Y003181D01*
X022354Y003181D01*
X022523Y003251D01*
X022652Y003381D01*
X022722Y003550D01*
X022722Y004293D01*
X022652Y004462D01*
X022523Y004591D01*
X022522Y004592D01*
X022522Y006402D01*
X022483Y006498D01*
X022099Y006882D01*
X022547Y006882D01*
X022652Y006987D01*
X022652Y007651D01*
X022547Y007756D01*
X021883Y007756D01*
X021778Y007651D01*
X021778Y007203D01*
X021763Y007218D01*
X021763Y008065D01*
X021770Y008065D01*
X021770Y007979D01*
X021876Y007874D01*
X022539Y007874D01*
X022644Y007979D01*
X022644Y008643D01*
X022539Y008748D01*
X021876Y008748D01*
X021770Y008643D01*
X021770Y008585D01*
X021745Y008585D01*
X021745Y012435D01*
X021706Y012530D01*
X021632Y012603D01*
X021509Y012726D01*
X021414Y012766D01*
X020313Y012766D01*
X020215Y012864D01*
X019710Y012864D01*
X019604Y012758D01*
X019604Y012253D01*
X019710Y012148D01*
X020215Y012148D01*
X020313Y012246D01*
X021225Y012246D01*
X021225Y009956D01*
X020750Y009956D01*
X020652Y009858D01*
X020626Y009858D01*
X020541Y009942D01*
X020541Y010185D01*
X020436Y010291D01*
X019930Y010291D01*
X019825Y010185D01*
X019825Y009680D01*
X019930Y009574D01*
X020173Y009574D01*
X020371Y009377D01*
X020466Y009338D01*
X020652Y009338D01*
X020750Y009240D01*
X021225Y009240D01*
X021225Y009019D01*
X021087Y009019D01*
X021087Y009020D01*
X020991Y009059D01*
X020888Y009059D01*
X020792Y009020D01*
X020430Y008657D01*
X020368Y008657D01*
X020237Y008603D01*
X020136Y008502D01*
X020081Y008371D01*
X020081Y008228D01*
X020136Y008096D01*
X020237Y007996D01*
X020368Y007941D01*
X020511Y007941D01*
X020642Y007996D01*
X020743Y008096D01*
X020798Y008228D01*
X020798Y008290D01*
X021087Y008579D01*
X021225Y008579D01*
X021225Y008373D01*
X021257Y008295D01*
X021243Y008259D01*
X021243Y007059D01*
X021245Y007054D02*
X020909Y007054D01*
X020975Y006935D02*
X021310Y006935D01*
X021428Y006817D02*
X020975Y006817D01*
X020975Y006698D02*
X021547Y006698D01*
X021665Y006580D02*
X020975Y006580D01*
X020858Y006461D02*
X021784Y006461D01*
X021902Y006343D02*
X020740Y006343D01*
X020742Y006224D02*
X022002Y006224D01*
X022002Y006106D02*
X020860Y006106D01*
X020974Y005987D02*
X022002Y005987D01*
X022002Y005869D02*
X020974Y005869D01*
X020974Y005750D02*
X022002Y005750D01*
X022002Y005632D02*
X020974Y005632D01*
X020906Y005513D02*
X022002Y005513D01*
X022002Y005395D02*
X020787Y005395D01*
X020171Y005395D02*
X019552Y005395D01*
X019552Y005276D02*
X022002Y005276D01*
X022002Y005158D02*
X019552Y005158D01*
X019552Y005039D02*
X022002Y005039D01*
X022002Y004921D02*
X019552Y004921D01*
X019552Y004802D02*
X022002Y004802D01*
X022002Y004684D02*
X019552Y004684D01*
X019552Y004565D02*
X020976Y004565D01*
X021002Y004591D02*
X020872Y004462D01*
X020802Y004293D01*
X020802Y003550D01*
X020872Y003381D01*
X021002Y003251D01*
X021171Y003181D01*
X021354Y003181D01*
X021523Y003251D01*
X021652Y003381D01*
X021722Y003550D01*
X021722Y004293D01*
X021652Y004462D01*
X021523Y004591D01*
X021354Y004661D01*
X021171Y004661D01*
X021002Y004591D01*
X020866Y004447D02*
X019552Y004447D01*
X019552Y004328D02*
X020817Y004328D01*
X020802Y004210D02*
X019500Y004210D01*
X019381Y004091D02*
X020802Y004091D01*
X020802Y003973D02*
X019263Y003973D01*
X019144Y003854D02*
X020802Y003854D01*
X020802Y003736D02*
X019026Y003736D01*
X020802Y003617D02*
X016374Y003617D01*
X015678Y003617D02*
X014626Y003617D01*
X014745Y003499D02*
X020824Y003499D01*
X020873Y003380D02*
X014863Y003380D01*
X014954Y003262D02*
X020991Y003262D01*
X021533Y003262D02*
X021991Y003262D01*
X021873Y003380D02*
X021652Y003380D01*
X021701Y003499D02*
X021824Y003499D01*
X021802Y003617D02*
X021722Y003617D01*
X021722Y003736D02*
X021802Y003736D01*
X021802Y003854D02*
X021722Y003854D01*
X021722Y003973D02*
X021802Y003973D01*
X021802Y004091D02*
X021722Y004091D01*
X021722Y004210D02*
X021802Y004210D01*
X021817Y004328D02*
X021708Y004328D01*
X021659Y004447D02*
X021866Y004447D01*
X021976Y004565D02*
X021549Y004565D01*
X022522Y004684D02*
X028518Y004684D01*
X028518Y004802D02*
X022522Y004802D01*
X022522Y004921D02*
X028518Y004921D01*
X028518Y005039D02*
X022522Y005039D01*
X022522Y005158D02*
X028518Y005158D01*
X028518Y005276D02*
X022522Y005276D01*
X022522Y005395D02*
X028518Y005395D01*
X028518Y005513D02*
X026137Y005513D01*
X026230Y005552D02*
X026486Y005808D01*
X026625Y006142D01*
X026625Y006504D01*
X026486Y006838D01*
X026230Y007094D01*
X025896Y007233D01*
X025534Y007233D01*
X025200Y007094D01*
X024944Y006838D01*
X024806Y006504D01*
X024806Y006142D01*
X024944Y005808D01*
X025200Y005552D01*
X025534Y005413D01*
X025896Y005413D01*
X026230Y005552D01*
X026310Y005632D02*
X028518Y005632D01*
X028518Y005750D02*
X026429Y005750D01*
X026512Y005869D02*
X028518Y005869D01*
X028518Y005987D02*
X026561Y005987D01*
X026610Y006106D02*
X028518Y006106D01*
X028518Y006224D02*
X026625Y006224D01*
X026625Y006343D02*
X028518Y006343D01*
X028518Y006461D02*
X026625Y006461D01*
X026593Y006580D02*
X028518Y006580D01*
X028518Y006698D02*
X026544Y006698D01*
X026495Y006817D02*
X028518Y006817D01*
X028518Y006935D02*
X026389Y006935D01*
X026271Y007054D02*
X028518Y007054D01*
X028518Y007172D02*
X026041Y007172D01*
X025389Y007172D02*
X023627Y007172D01*
X023652Y007147D02*
X023547Y007252D01*
X022883Y007252D01*
X022778Y007147D01*
X022778Y006483D01*
X022883Y006378D01*
X023547Y006378D01*
X023652Y006483D01*
X023652Y007147D01*
X023652Y007054D02*
X025160Y007054D01*
X025041Y006935D02*
X023652Y006935D01*
X023652Y006817D02*
X024935Y006817D01*
X024886Y006698D02*
X023652Y006698D01*
X023652Y006580D02*
X024837Y006580D01*
X024806Y006461D02*
X023630Y006461D01*
X022800Y006461D02*
X022498Y006461D01*
X022522Y006343D02*
X024806Y006343D01*
X024806Y006224D02*
X022522Y006224D01*
X022522Y006106D02*
X024820Y006106D01*
X024870Y005987D02*
X022522Y005987D01*
X022522Y005869D02*
X024919Y005869D01*
X025001Y005750D02*
X022522Y005750D01*
X022522Y005632D02*
X025120Y005632D01*
X025293Y005513D02*
X022522Y005513D01*
X022549Y004565D02*
X022976Y004565D01*
X023002Y004591D02*
X022872Y004462D01*
X022802Y004293D01*
X022802Y003550D01*
X022872Y003381D01*
X023002Y003251D01*
X023171Y003181D01*
X023354Y003181D01*
X023523Y003251D01*
X023652Y003381D01*
X023722Y003550D01*
X023722Y004293D01*
X023652Y004462D01*
X023523Y004591D01*
X023354Y004661D01*
X023171Y004661D01*
X023002Y004591D01*
X022866Y004447D02*
X022659Y004447D01*
X022708Y004328D02*
X022817Y004328D01*
X022802Y004210D02*
X022722Y004210D01*
X022722Y004091D02*
X022802Y004091D01*
X022802Y003973D02*
X022722Y003973D01*
X022722Y003854D02*
X022802Y003854D01*
X022802Y003736D02*
X022722Y003736D01*
X022722Y003617D02*
X022802Y003617D01*
X022824Y003499D02*
X022701Y003499D01*
X022652Y003380D02*
X022873Y003380D01*
X022991Y003262D02*
X022533Y003262D01*
X023533Y003262D02*
X024082Y003262D01*
X024101Y003252D02*
X024164Y003232D01*
X024222Y003222D01*
X024222Y003881D01*
X024302Y003881D01*
X024302Y003222D01*
X024361Y003232D01*
X024424Y003252D01*
X024482Y003282D01*
X024536Y003321D01*
X024583Y003368D01*
X024622Y003421D01*
X024652Y003480D01*
X024672Y003543D01*
X024682Y003608D01*
X024682Y003881D01*
X024302Y003881D01*
X024302Y003961D01*
X024682Y003961D01*
X024682Y004234D01*
X024672Y004300D01*
X024652Y004363D01*
X024622Y004421D01*
X024583Y004475D01*
X024536Y004522D01*
X024482Y004561D01*
X024424Y004591D01*
X024361Y004611D01*
X024302Y004620D01*
X024302Y003961D01*
X024222Y003961D01*
X024222Y003881D01*
X023842Y003881D01*
X023842Y003608D01*
X023853Y003543D01*
X023873Y003480D01*
X023903Y003421D01*
X023942Y003368D01*
X023989Y003321D01*
X024042Y003282D01*
X024101Y003252D01*
X024222Y003262D02*
X024302Y003262D01*
X024302Y003380D02*
X024222Y003380D01*
X024222Y003499D02*
X024302Y003499D01*
X024302Y003617D02*
X024222Y003617D01*
X024222Y003736D02*
X024302Y003736D01*
X024302Y003854D02*
X024222Y003854D01*
X024222Y003961D02*
X023842Y003961D01*
X023842Y004234D01*
X023853Y004300D01*
X023873Y004363D01*
X023903Y004421D01*
X023942Y004475D01*
X023989Y004522D01*
X024042Y004561D01*
X024101Y004591D01*
X024164Y004611D01*
X024222Y004620D01*
X024222Y003961D01*
X024222Y003973D02*
X024302Y003973D01*
X024302Y004091D02*
X024222Y004091D01*
X024222Y004210D02*
X024302Y004210D01*
X024302Y004328D02*
X024222Y004328D01*
X024222Y004447D02*
X024302Y004447D01*
X024302Y004565D02*
X024222Y004565D01*
X024052Y004565D02*
X023549Y004565D01*
X023659Y004447D02*
X023922Y004447D01*
X023862Y004328D02*
X023708Y004328D01*
X023722Y004210D02*
X023842Y004210D01*
X023842Y004091D02*
X023722Y004091D01*
X023722Y003973D02*
X023842Y003973D01*
X023842Y003854D02*
X023722Y003854D01*
X023722Y003736D02*
X023842Y003736D01*
X023842Y003617D02*
X023722Y003617D01*
X023701Y003499D02*
X023867Y003499D01*
X023933Y003380D02*
X023652Y003380D01*
X024443Y003262D02*
X028518Y003262D01*
X028518Y003380D02*
X024592Y003380D01*
X024658Y003499D02*
X028518Y003499D01*
X028518Y003617D02*
X024682Y003617D01*
X024682Y003736D02*
X028518Y003736D01*
X028518Y003854D02*
X024682Y003854D01*
X024682Y003973D02*
X028518Y003973D01*
X028518Y004091D02*
X024682Y004091D01*
X024682Y004210D02*
X028518Y004210D01*
X028518Y004328D02*
X024663Y004328D01*
X024603Y004447D02*
X028518Y004447D01*
X028518Y004565D02*
X024473Y004565D01*
X022778Y006580D02*
X022401Y006580D01*
X022282Y006698D02*
X022778Y006698D01*
X022778Y006817D02*
X022164Y006817D01*
X022600Y006935D02*
X022778Y006935D01*
X022778Y007054D02*
X022652Y007054D01*
X022652Y007172D02*
X022803Y007172D01*
X022652Y007291D02*
X028518Y007291D01*
X028518Y007409D02*
X023578Y007409D01*
X023543Y007374D02*
X023648Y007479D01*
X023648Y008143D01*
X023543Y008248D01*
X022879Y008248D01*
X022774Y008143D01*
X022774Y007479D01*
X022879Y007374D01*
X023543Y007374D01*
X023648Y007528D02*
X028518Y007528D01*
X028518Y007646D02*
X023648Y007646D01*
X023648Y007765D02*
X028518Y007765D01*
X028518Y007883D02*
X023648Y007883D01*
X023648Y008002D02*
X028518Y008002D01*
X028518Y008120D02*
X023648Y008120D01*
X023552Y008239D02*
X028518Y008239D01*
X028518Y008357D02*
X022644Y008357D01*
X022644Y008239D02*
X022870Y008239D01*
X022883Y008374D02*
X023547Y008374D01*
X023652Y008479D01*
X023652Y009143D01*
X023547Y009248D01*
X022883Y009248D01*
X022778Y009143D01*
X022778Y008479D01*
X022883Y008374D01*
X022782Y008476D02*
X022644Y008476D01*
X022644Y008594D02*
X022778Y008594D01*
X022778Y008713D02*
X022574Y008713D01*
X022511Y008904D02*
X022542Y008922D01*
X022569Y008948D01*
X022587Y008980D01*
X022597Y009016D01*
X022597Y009263D01*
X022228Y009263D01*
X022228Y009320D01*
X022597Y009320D01*
X022597Y009567D01*
X022587Y009603D01*
X022569Y009635D01*
X022542Y009661D01*
X022818Y009661D01*
X022818Y009775D02*
X022818Y009528D01*
X022827Y009492D01*
X022846Y009460D01*
X022872Y009434D01*
X022904Y009416D01*
X022940Y009406D01*
X023187Y009406D01*
X023187Y009775D01*
X023244Y009775D01*
X023244Y009832D01*
X023612Y009832D01*
X023612Y010079D01*
X023603Y010114D01*
X023584Y010146D01*
X023558Y010172D01*
X023526Y010191D01*
X023491Y010200D01*
X023244Y010200D01*
X023244Y009832D01*
X023187Y009832D01*
X023187Y010200D01*
X022940Y010200D01*
X022904Y010191D01*
X022872Y010172D01*
X022846Y010146D01*
X022827Y010114D01*
X022818Y010079D01*
X022818Y009832D01*
X023187Y009832D01*
X023187Y009775D01*
X022818Y009775D01*
X022818Y009898D02*
X021745Y009898D01*
X021830Y009964D02*
X021856Y009938D01*
X021888Y009920D01*
X021924Y009910D01*
X022171Y009910D01*
X022171Y010279D01*
X021802Y010279D01*
X021802Y010032D01*
X021812Y009996D01*
X021830Y009964D01*
X021806Y010016D02*
X021745Y010016D01*
X021745Y010135D02*
X021802Y010135D01*
X021802Y010253D02*
X021745Y010253D01*
X021802Y010336D02*
X021802Y010583D01*
X021812Y010618D01*
X021830Y010650D01*
X021856Y010676D01*
X021888Y010695D01*
X021924Y010704D01*
X022171Y010704D01*
X022171Y010336D01*
X022228Y010336D01*
X022228Y010704D01*
X022475Y010704D01*
X022511Y010695D01*
X022542Y010676D01*
X022569Y010650D01*
X022587Y010618D01*
X022597Y010583D01*
X022597Y010336D01*
X022228Y010336D01*
X022228Y010279D01*
X022597Y010279D01*
X022597Y010032D01*
X022587Y009996D01*
X022569Y009964D01*
X022542Y009938D01*
X022511Y009920D01*
X022475Y009910D01*
X022228Y009910D01*
X022228Y010279D01*
X022171Y010279D01*
X022171Y010336D01*
X021802Y010336D01*
X021802Y010372D02*
X021745Y010372D01*
X021745Y010490D02*
X021802Y010490D01*
X021809Y010609D02*
X021745Y010609D01*
X021745Y010727D02*
X024806Y010727D01*
X024806Y010630D02*
X024944Y010296D01*
X025200Y010040D01*
X025534Y009901D01*
X025896Y009901D01*
X026230Y010040D01*
X026486Y010296D01*
X026625Y010630D01*
X026625Y010992D01*
X026486Y011326D01*
X026230Y011582D01*
X025896Y011721D01*
X025534Y011721D01*
X025200Y011582D01*
X024944Y011326D01*
X024806Y010992D01*
X024806Y010630D01*
X024814Y010609D02*
X022590Y010609D01*
X022597Y010490D02*
X024863Y010490D01*
X024913Y010372D02*
X022597Y010372D01*
X022597Y010253D02*
X024987Y010253D01*
X025105Y010135D02*
X023591Y010135D01*
X023612Y010016D02*
X025257Y010016D01*
X026173Y010016D02*
X028518Y010016D01*
X028518Y009898D02*
X023612Y009898D01*
X023612Y009775D02*
X023244Y009775D01*
X023244Y009406D01*
X023491Y009406D01*
X023526Y009416D01*
X023558Y009434D01*
X023584Y009460D01*
X023603Y009492D01*
X023612Y009528D01*
X023612Y009775D01*
X023612Y009661D02*
X028518Y009661D01*
X028518Y009779D02*
X023244Y009779D01*
X023187Y009779D02*
X021745Y009779D01*
X021745Y009661D02*
X021857Y009661D01*
X021856Y009661D02*
X021830Y009635D01*
X021812Y009603D01*
X021802Y009567D01*
X021802Y009320D01*
X022171Y009320D01*
X022171Y009689D01*
X021924Y009689D01*
X021888Y009679D01*
X021856Y009661D01*
X021802Y009542D02*
X021745Y009542D01*
X021745Y009424D02*
X021802Y009424D01*
X021745Y009305D02*
X022171Y009305D01*
X022171Y009320D02*
X022171Y009263D01*
X022228Y009263D01*
X022228Y008894D01*
X022475Y008894D01*
X022511Y008904D01*
X022569Y008950D02*
X022778Y008950D01*
X022778Y009068D02*
X022597Y009068D01*
X022597Y009187D02*
X022822Y009187D01*
X022890Y009424D02*
X022597Y009424D01*
X022597Y009542D02*
X022818Y009542D01*
X022542Y009661D02*
X022511Y009679D01*
X022475Y009689D01*
X022228Y009689D01*
X022228Y009320D01*
X022171Y009320D01*
X022171Y009263D02*
X021802Y009263D01*
X021802Y009016D01*
X021812Y008980D01*
X021830Y008948D01*
X021856Y008922D01*
X021888Y008904D01*
X021924Y008894D01*
X022171Y008894D01*
X022171Y009263D01*
X022228Y009305D02*
X028518Y009305D01*
X028518Y009187D02*
X023608Y009187D01*
X023652Y009068D02*
X028518Y009068D01*
X028518Y008950D02*
X023652Y008950D01*
X023652Y008831D02*
X028518Y008831D01*
X028518Y008713D02*
X023652Y008713D01*
X023652Y008594D02*
X028518Y008594D01*
X028518Y008476D02*
X023649Y008476D01*
X022778Y008831D02*
X021745Y008831D01*
X021745Y008713D02*
X021840Y008713D01*
X021770Y008594D02*
X021745Y008594D01*
X021745Y008950D02*
X021829Y008950D01*
X021802Y009068D02*
X021745Y009068D01*
X021745Y009187D02*
X021802Y009187D01*
X022171Y009187D02*
X022228Y009187D01*
X022228Y009068D02*
X022171Y009068D01*
X022171Y008950D02*
X022228Y008950D01*
X022228Y009424D02*
X022171Y009424D01*
X022171Y009542D02*
X022228Y009542D01*
X022228Y009661D02*
X022171Y009661D01*
X022171Y010016D02*
X022228Y010016D01*
X022228Y010135D02*
X022171Y010135D01*
X022171Y010253D02*
X022228Y010253D01*
X022228Y010372D02*
X022171Y010372D01*
X022171Y010490D02*
X022228Y010490D01*
X022228Y010609D02*
X022171Y010609D01*
X021745Y010846D02*
X024806Y010846D01*
X024806Y010964D02*
X021745Y010964D01*
X021745Y011083D02*
X024843Y011083D01*
X024892Y011201D02*
X021745Y011201D01*
X021745Y011320D02*
X024941Y011320D01*
X025056Y011438D02*
X021745Y011438D01*
X021745Y011557D02*
X025174Y011557D01*
X025425Y011675D02*
X021745Y011675D01*
X021745Y011794D02*
X028518Y011794D01*
X028518Y011912D02*
X021745Y011912D01*
X021745Y012031D02*
X028518Y012031D01*
X028518Y012149D02*
X021745Y012149D01*
X021745Y012268D02*
X028518Y012268D01*
X028518Y012386D02*
X021745Y012386D01*
X021716Y012505D02*
X028518Y012505D01*
X028518Y012623D02*
X021612Y012623D01*
X021472Y012742D02*
X028518Y012742D01*
X028518Y012860D02*
X020219Y012860D01*
X019706Y012860D02*
X019552Y012860D01*
X019552Y012742D02*
X019604Y012742D01*
X019604Y012623D02*
X019552Y012623D01*
X019552Y012505D02*
X019604Y012505D01*
X019604Y012386D02*
X019552Y012386D01*
X019552Y012268D02*
X019604Y012268D01*
X019552Y012149D02*
X019708Y012149D01*
X019552Y012031D02*
X021225Y012031D01*
X021225Y012149D02*
X020217Y012149D01*
X019552Y011912D02*
X021225Y011912D01*
X021225Y011794D02*
X019552Y011794D01*
X019552Y011675D02*
X021225Y011675D01*
X021225Y011557D02*
X019552Y011557D01*
X019552Y011438D02*
X021225Y011438D01*
X021225Y011320D02*
X019552Y011320D01*
X019552Y011201D02*
X021225Y011201D01*
X021225Y011083D02*
X019552Y011083D01*
X019552Y010964D02*
X021225Y010964D01*
X021225Y010846D02*
X019552Y010846D01*
X019552Y010727D02*
X021225Y010727D01*
X021225Y010609D02*
X019552Y010609D01*
X019552Y010490D02*
X021225Y010490D01*
X021225Y010372D02*
X019552Y010372D01*
X019552Y010253D02*
X019893Y010253D01*
X019825Y010135D02*
X019552Y010135D01*
X019552Y010016D02*
X019825Y010016D01*
X019825Y009898D02*
X019552Y009898D01*
X019552Y009779D02*
X019825Y009779D01*
X019844Y009661D02*
X019552Y009661D01*
X019552Y009542D02*
X020206Y009542D01*
X020324Y009424D02*
X019552Y009424D01*
X019552Y009305D02*
X020685Y009305D01*
X021225Y009187D02*
X019552Y009187D01*
X019552Y009068D02*
X021225Y009068D01*
X020722Y008950D02*
X019552Y008950D01*
X019552Y008831D02*
X020604Y008831D01*
X020485Y008713D02*
X019552Y008713D01*
X019552Y008594D02*
X020228Y008594D01*
X020125Y008476D02*
X019552Y008476D01*
X019552Y008357D02*
X020081Y008357D01*
X020081Y008239D02*
X019552Y008239D01*
X019552Y008120D02*
X020126Y008120D01*
X020231Y008002D02*
X019552Y008002D01*
X019552Y007883D02*
X021243Y007883D01*
X021243Y007765D02*
X019552Y007765D01*
X019552Y007646D02*
X021243Y007646D01*
X021243Y007528D02*
X019552Y007528D01*
X019552Y007409D02*
X021243Y007409D01*
X021243Y007291D02*
X019552Y007291D01*
X020648Y008002D02*
X021243Y008002D01*
X021243Y008120D02*
X020753Y008120D01*
X020798Y008239D02*
X021243Y008239D01*
X021231Y008357D02*
X020865Y008357D01*
X020984Y008476D02*
X021225Y008476D01*
X021763Y008002D02*
X021770Y008002D01*
X021763Y007883D02*
X021866Y007883D01*
X021763Y007765D02*
X022774Y007765D01*
X022774Y007883D02*
X022548Y007883D01*
X022644Y008002D02*
X022774Y008002D01*
X022774Y008120D02*
X022644Y008120D01*
X022652Y007646D02*
X022774Y007646D01*
X022774Y007528D02*
X022652Y007528D01*
X022652Y007409D02*
X022844Y007409D01*
X021778Y007409D02*
X021763Y007409D01*
X021763Y007291D02*
X021778Y007291D01*
X021763Y007528D02*
X021778Y007528D01*
X021763Y007646D02*
X021778Y007646D01*
X023187Y009424D02*
X023244Y009424D01*
X023244Y009542D02*
X023187Y009542D01*
X023187Y009661D02*
X023244Y009661D01*
X023541Y009424D02*
X028518Y009424D01*
X028518Y009542D02*
X023612Y009542D01*
X023244Y009898D02*
X023187Y009898D01*
X023187Y010016D02*
X023244Y010016D01*
X023244Y010135D02*
X023187Y010135D01*
X022839Y010135D02*
X022597Y010135D01*
X022592Y010016D02*
X022818Y010016D01*
X021225Y010016D02*
X020541Y010016D01*
X020541Y010135D02*
X021225Y010135D01*
X021225Y010253D02*
X020473Y010253D01*
X020586Y009898D02*
X020692Y009898D01*
X019032Y010964D02*
X018947Y010964D01*
X019032Y011083D02*
X018852Y011083D01*
X018111Y010135D02*
X016392Y010135D01*
X016392Y010016D02*
X018111Y010016D01*
X018111Y009898D02*
X016392Y009898D01*
X016392Y009779D02*
X018111Y009779D01*
X018111Y009661D02*
X016392Y009661D01*
X016298Y009542D02*
X018111Y009542D01*
X018111Y009424D02*
X014288Y009424D01*
X014406Y009542D02*
X015770Y009542D01*
X014279Y008713D02*
X018111Y008713D01*
X018111Y008831D02*
X014259Y008831D01*
X014066Y008950D02*
X018111Y008950D01*
X018111Y009068D02*
X014066Y009068D01*
X014066Y009187D02*
X018111Y009187D01*
X018111Y009305D02*
X014169Y009305D01*
X014279Y008594D02*
X018111Y008594D01*
X018111Y008476D02*
X014279Y008476D01*
X014279Y008357D02*
X018111Y008357D01*
X018111Y008239D02*
X014211Y008239D01*
X013768Y008120D02*
X018111Y008120D01*
X018111Y008002D02*
X013788Y008002D01*
X013813Y007883D02*
X018111Y007883D01*
X018111Y007765D02*
X013838Y007765D01*
X013863Y007646D02*
X018111Y007646D01*
X018111Y007528D02*
X013889Y007528D01*
X013914Y007409D02*
X018111Y007409D01*
X018111Y007291D02*
X013939Y007291D01*
X015668Y004091D02*
X011920Y004091D01*
X012045Y003973D02*
X012479Y003973D01*
X012444Y003854D02*
X012170Y003854D01*
X012295Y003736D02*
X012444Y003736D01*
X012444Y003617D02*
X012421Y003617D01*
X012802Y003685D02*
X012880Y003764D01*
X014140Y003764D01*
X014731Y003173D01*
X014731Y001244D01*
X015089Y001247D02*
X028518Y001247D01*
X028518Y001129D02*
X015089Y001129D01*
X015089Y001010D02*
X028518Y001010D01*
X028518Y000892D02*
X014989Y000892D01*
X015089Y001366D02*
X028518Y001366D01*
X028518Y001484D02*
X015089Y001484D01*
X015159Y001603D02*
X028518Y001603D01*
X028518Y001721D02*
X015203Y001721D01*
X015203Y001840D02*
X028518Y001840D01*
X028518Y001958D02*
X015203Y001958D01*
X015203Y002077D02*
X028518Y002077D01*
X028518Y002195D02*
X015203Y002195D01*
X015203Y002314D02*
X028518Y002314D01*
X028518Y002432D02*
X015203Y002432D01*
X015161Y002551D02*
X028518Y002551D01*
X028518Y002669D02*
X015083Y002669D01*
X014971Y002788D02*
X028518Y002788D01*
X028518Y002906D02*
X014971Y002906D01*
X014971Y003025D02*
X028518Y003025D01*
X028518Y003143D02*
X014971Y003143D01*
X014491Y003025D02*
X012499Y003025D01*
X012499Y003143D02*
X014421Y003143D01*
X014303Y003262D02*
X012499Y003262D01*
X012499Y002906D02*
X014491Y002906D01*
X014491Y002788D02*
X013909Y002788D01*
X013834Y002819D02*
X013651Y002819D01*
X013482Y002749D01*
X013353Y002619D01*
X013283Y002450D01*
X013283Y001707D01*
X013353Y001538D01*
X013482Y001409D01*
X013651Y001339D01*
X013834Y001339D01*
X014003Y001409D01*
X014133Y001538D01*
X014203Y001707D01*
X014203Y002450D01*
X014133Y002619D01*
X014003Y002749D01*
X013834Y002819D01*
X013576Y002788D02*
X012499Y002788D01*
X012703Y002669D02*
X012783Y002669D01*
X012783Y002551D02*
X012703Y002551D01*
X012703Y002432D02*
X012783Y002432D01*
X012783Y002314D02*
X012703Y002314D01*
X012703Y002195D02*
X012783Y002195D01*
X012783Y002077D02*
X013283Y002077D01*
X013283Y002195D02*
X013163Y002195D01*
X013163Y002314D02*
X013283Y002314D01*
X013283Y002432D02*
X013156Y002432D01*
X013116Y002551D02*
X013324Y002551D01*
X013403Y002669D02*
X013026Y002669D01*
X013163Y002039D02*
X012783Y002039D01*
X012783Y001380D01*
X012841Y001389D01*
X012904Y001410D01*
X012963Y001440D01*
X013016Y001478D01*
X013063Y001525D01*
X013102Y001579D01*
X013132Y001638D01*
X013152Y001700D01*
X013163Y001766D01*
X013163Y002039D01*
X013163Y001958D02*
X013283Y001958D01*
X013283Y001840D02*
X013163Y001840D01*
X013156Y001721D02*
X013283Y001721D01*
X013326Y001603D02*
X013114Y001603D01*
X013022Y001484D02*
X013407Y001484D01*
X013586Y001366D02*
X012499Y001366D01*
X012499Y001247D02*
X014373Y001247D01*
X014373Y001129D02*
X012451Y001129D01*
X012322Y001010D02*
X014373Y001010D01*
X014472Y000892D02*
X012193Y000892D01*
X011940Y001366D02*
X011899Y001366D01*
X012703Y001484D02*
X012783Y001484D01*
X012783Y001603D02*
X012703Y001603D01*
X012703Y001721D02*
X012783Y001721D01*
X012783Y001840D02*
X012703Y001840D01*
X012703Y001958D02*
X012783Y001958D01*
X013899Y001366D02*
X014373Y001366D01*
X014373Y001484D02*
X014079Y001484D01*
X014159Y001603D02*
X014326Y001603D01*
X014283Y001721D02*
X014203Y001721D01*
X014203Y001840D02*
X014283Y001840D01*
X014283Y001958D02*
X014203Y001958D01*
X014203Y002077D02*
X014283Y002077D01*
X014283Y002195D02*
X014203Y002195D01*
X014203Y002314D02*
X014283Y002314D01*
X014283Y002432D02*
X014203Y002432D01*
X014161Y002551D02*
X014324Y002551D01*
X014403Y002669D02*
X014083Y002669D01*
X014184Y003380D02*
X013108Y003380D01*
X013160Y003499D02*
X014066Y003499D01*
X014508Y003736D02*
X015668Y003736D01*
X015668Y003854D02*
X014389Y003854D01*
X014263Y003973D02*
X015668Y003973D01*
X009586Y001366D02*
X003322Y001366D01*
X014440Y011083D02*
X016491Y011083D01*
X016491Y011201D02*
X014511Y011201D01*
X014538Y011320D02*
X016491Y011320D01*
X016491Y011438D02*
X014538Y011438D01*
X014538Y011557D02*
X016491Y011557D01*
X016587Y011675D02*
X014538Y011675D01*
X019085Y013808D02*
X028518Y013808D01*
X028518Y013690D02*
X019203Y013690D01*
X019322Y013571D02*
X028518Y013571D01*
X028518Y013453D02*
X019440Y013453D01*
X019532Y013334D02*
X028518Y013334D01*
X028518Y013216D02*
X019552Y013216D01*
X019552Y013097D02*
X028518Y013097D01*
X028518Y012979D02*
X019552Y012979D01*
X024318Y015349D02*
X025004Y015349D01*
X025021Y015467D02*
X024437Y015467D01*
X026006Y011675D02*
X028518Y011675D01*
X028518Y011557D02*
X026256Y011557D01*
X026374Y011438D02*
X028518Y011438D01*
X028518Y011320D02*
X026489Y011320D01*
X026538Y011201D02*
X028518Y011201D01*
X028518Y011083D02*
X026587Y011083D01*
X026625Y010964D02*
X028518Y010964D01*
X028518Y010846D02*
X026625Y010846D01*
X026625Y010727D02*
X028518Y010727D01*
X028518Y010609D02*
X026616Y010609D01*
X026567Y010490D02*
X028518Y010490D01*
X028518Y010372D02*
X026518Y010372D01*
X026444Y010253D02*
X028518Y010253D01*
X028518Y010135D02*
X026325Y010135D01*
D17*
X007841Y012701D02*
X006621Y012701D01*
D18*
X001940Y008799D02*
X001940Y001799D01*
X002940Y000799D01*
X017440Y000799D01*
X017940Y001299D01*
X017999Y001298D01*
X008952Y006304D02*
X008900Y006299D01*
X008523Y005535D02*
X008400Y005602D01*
X020940Y008799D02*
X021485Y008799D01*
X022394Y013288D02*
X022440Y013299D01*
D19*
X021485Y012383D02*
X021362Y012506D01*
X019963Y012506D01*
X019292Y013233D02*
X018932Y013593D01*
X018649Y013593D01*
X019292Y013233D02*
X019292Y004370D01*
X018803Y003880D01*
X016026Y003880D01*
X017928Y005143D02*
X018371Y005671D01*
X018371Y010257D01*
X018366Y010476D01*
X016592Y010476D01*
X017287Y010888D02*
X016849Y011326D01*
X017287Y010888D02*
X018675Y010888D01*
X018829Y010694D01*
X018829Y004937D01*
X018314Y004421D01*
X012126Y004471D01*
X011541Y004092D02*
X012239Y003431D01*
X012239Y001287D01*
X011987Y001055D01*
X003265Y001055D01*
X002843Y001477D01*
X002843Y004018D01*
X003215Y004272D01*
X003512Y004272D01*
X004164Y003299D02*
X006625Y005602D01*
X008400Y005602D01*
X008523Y005535D02*
X008563Y014632D01*
X008955Y015025D01*
X011772Y015025D01*
X012097Y014542D01*
X012097Y013077D01*
X012778Y013459D02*
X012778Y012463D01*
X012435Y012120D01*
X012371Y012120D02*
X012200Y011949D01*
X012285Y011863D02*
X012285Y007100D01*
X013077Y006584D02*
X012519Y006026D01*
X011826Y006026D01*
X011541Y005741D01*
X011541Y004092D01*
X011194Y003300D02*
X010649Y003845D01*
X010649Y009548D01*
X010240Y010057D02*
X010240Y003609D01*
X010748Y003101D01*
X010748Y002084D01*
X009743Y002079D02*
X009743Y010365D01*
X009955Y010577D01*
X010661Y010577D01*
X013077Y009260D02*
X013077Y006584D01*
X014022Y005654D02*
X013510Y008055D01*
X013471Y008961D01*
X013550Y009512D01*
X013747Y009709D01*
X013747Y010063D01*
X014180Y010496D01*
X014180Y011480D01*
X014385Y009889D02*
X013806Y009310D01*
X013806Y008602D01*
X014385Y009889D02*
X016034Y009889D01*
X020183Y009933D02*
X020518Y009598D01*
X021003Y009598D01*
X020940Y008799D02*
X020440Y008299D01*
X021485Y008424D02*
X021485Y008799D01*
X021485Y012383D01*
X017283Y015155D02*
X013057Y015194D01*
X012778Y013459D01*
X010473Y014685D02*
X009146Y014685D01*
X008885Y014454D01*
X008866Y006554D01*
X008991Y006429D01*
X008952Y006304D01*
X008900Y006299D02*
X008940Y003449D01*
X008550Y003449D01*
X008274Y002780D01*
X006440Y002799D01*
X007105Y001812D02*
X008468Y001812D01*
X008902Y002246D01*
X008902Y002841D01*
X009348Y003287D01*
X009348Y006996D01*
X009308Y007036D02*
X009308Y012057D01*
X009822Y012571D01*
X012132Y015929D02*
X012132Y016047D01*
X012605Y016520D01*
X025085Y016520D01*
X025361Y016244D01*
X016817Y016126D02*
X015833Y016087D01*
X021485Y008424D02*
X021584Y008325D01*
X021621Y008325D02*
X021503Y008207D01*
X021503Y007110D01*
X022262Y006350D01*
X022262Y003921D01*
X017928Y005143D02*
X012114Y005130D01*
X011615Y003300D02*
X011194Y003300D01*
X011615Y003300D02*
X011739Y003176D01*
X011739Y002083D01*
X021621Y008325D02*
X022193Y008325D01*
D20*
X022207Y008311D01*
X021621Y008325D02*
X021584Y008325D01*
X016592Y010476D02*
X016489Y010579D01*
X013921Y008559D02*
X013806Y008602D01*
X010673Y010565D02*
X010661Y010577D01*
X012050Y012099D02*
X012200Y011949D01*
X012285Y011863D01*
X012371Y012120D02*
X012435Y012120D01*
X012080Y013059D02*
X012097Y013077D01*
X010587Y014612D02*
X010473Y014685D01*
X015833Y015575D02*
X024219Y015575D01*
X024455Y015811D01*
X027211Y015811D01*
X027447Y015575D01*
X027447Y015126D01*
X027424Y015102D01*
X018649Y013593D02*
X018624Y013567D01*
X009348Y006996D02*
X009308Y007036D01*
X010748Y002084D02*
X010743Y002079D01*
X011739Y002083D02*
X011743Y002079D01*
D21*
X002802Y005536D02*
X002802Y009551D01*
X003471Y010221D01*
X006384Y010221D01*
X007920Y010221D01*
X013786Y012386D02*
X014101Y012071D01*
X014416Y012071D01*
X013786Y012386D02*
X013786Y014158D01*
X014101Y014473D01*
X014101Y014591D01*
X013117Y015811D02*
X012566Y015260D01*
X012447Y015024D01*
X013117Y015811D02*
X014101Y015811D01*
M02*
