G75*
%MOIN*%
%OFA0B0*%
%FSLAX24Y24*%
%IPPOS*%
%LPD*%
%AMOC8*
5,1,8,0,0,1.08239X$1,22.5*
%
%ADD10R,0.0926X0.0296*%
%ADD11C,0.0620*%
%ADD12R,0.0572X0.0651*%
%ADD13R,0.0651X0.0572*%
%ADD14R,0.0611X0.0454*%
%ADD15R,0.0560X0.0360*%
%ADD16R,0.2438X0.1399*%
%ADD17R,0.1241X0.0336*%
%ADD18C,0.0611*%
%ADD19R,0.0847X0.2225*%
%ADD20R,0.0574X0.0574*%
%ADD21C,0.1359*%
%ADD22R,0.0510X0.0360*%
%ADD23OC8,0.0690*%
%ADD24R,0.0532X0.0277*%
%ADD25R,0.0454X0.0454*%
%ADD26C,0.0540*%
%ADD27R,0.0416X0.0416*%
%ADD28C,0.0416*%
D10*
X003473Y002280D03*
X003473Y002780D03*
X003473Y003280D03*
X003473Y003780D03*
X005520Y003780D03*
X005520Y003280D03*
X005520Y002780D03*
X005520Y002280D03*
X018617Y011506D03*
X018617Y012006D03*
X018617Y012506D03*
X018617Y013006D03*
X020664Y013006D03*
X020664Y012506D03*
X020664Y012006D03*
X020664Y011506D03*
D11*
X021262Y004201D02*
X021262Y003641D01*
X022262Y003641D02*
X022262Y004201D01*
X023262Y004201D02*
X023262Y003641D01*
X024262Y003641D02*
X024262Y004201D01*
X014743Y002359D02*
X014743Y001799D01*
X013743Y001799D02*
X013743Y002359D01*
X012743Y002359D02*
X012743Y001799D01*
X011743Y001799D02*
X011743Y002359D01*
X010743Y002359D02*
X010743Y001799D01*
X009743Y001799D02*
X009743Y002359D01*
D12*
X016549Y001313D03*
X017297Y001313D03*
X015399Y008746D03*
X014651Y008746D03*
X016680Y009403D03*
X017428Y009403D03*
X018373Y010496D03*
X019121Y010496D03*
X017613Y012008D03*
X016864Y012008D03*
X016762Y014408D03*
X017510Y014408D03*
X017467Y016165D03*
X018215Y016165D03*
X011562Y008801D03*
X010814Y008801D03*
D13*
X007408Y011106D03*
X007408Y011854D03*
X005991Y012721D03*
X005991Y013469D03*
X006896Y013390D03*
X006896Y014138D03*
X009912Y014173D03*
X009912Y013425D03*
X016030Y012327D03*
X016030Y011579D03*
X019665Y008830D03*
X019665Y008082D03*
X026503Y012563D03*
X026503Y013311D03*
X002278Y003204D03*
X002278Y002456D03*
X001542Y012681D03*
X001542Y013429D03*
D14*
X021319Y013799D03*
X022185Y014173D03*
X021319Y014547D03*
D15*
X015259Y014573D03*
X015259Y015073D03*
X015259Y015573D03*
X015259Y016073D03*
X015259Y014073D03*
X015259Y013573D03*
X015259Y013073D03*
X015259Y012573D03*
X015259Y012073D03*
X015259Y011573D03*
X015259Y011073D03*
X015259Y010573D03*
X015259Y010073D03*
X015259Y009573D03*
X011209Y009573D03*
X011209Y010073D03*
X011209Y010573D03*
X011209Y011073D03*
X011209Y011573D03*
X011209Y012073D03*
X011209Y012573D03*
X011209Y013073D03*
X011209Y013573D03*
X011209Y014073D03*
X011209Y014573D03*
X011209Y015073D03*
X011209Y015573D03*
X011209Y016073D03*
D16*
X004806Y011246D03*
X004806Y005892D03*
D17*
X007333Y007831D03*
X007333Y008323D03*
X007333Y008815D03*
X007333Y009307D03*
D18*
X004577Y009455D03*
X004577Y007683D03*
D19*
X017014Y007087D03*
X017014Y003347D03*
D20*
X023215Y006815D03*
X022215Y007319D03*
X023211Y007811D03*
X022207Y008311D03*
X023215Y008811D03*
X022199Y009291D03*
X023215Y009803D03*
X022199Y010307D03*
D21*
X025715Y010811D03*
X025715Y006323D03*
D22*
X015068Y006489D03*
X015068Y005989D03*
X015068Y005489D03*
X015068Y004989D03*
X015068Y004489D03*
X015068Y003989D03*
X011298Y003989D03*
X011298Y004489D03*
X011298Y004989D03*
X011298Y005489D03*
X011298Y005989D03*
X011298Y006489D03*
X011298Y006989D03*
X011298Y007489D03*
X011298Y007989D03*
X015068Y007989D03*
X015068Y007489D03*
X015068Y006989D03*
D23*
X020480Y006783D03*
X020479Y005787D03*
D24*
X003983Y013036D03*
X002959Y013036D03*
X002959Y013410D03*
X002959Y013784D03*
X003983Y013784D03*
D25*
X004849Y014433D03*
X005636Y014433D03*
D26*
X025424Y014862D02*
X025424Y015342D01*
X026424Y015342D02*
X026424Y014862D01*
X027424Y014862D02*
X027424Y015342D01*
D27*
X002273Y001663D03*
X003512Y004272D03*
X002802Y005536D03*
X006227Y008331D03*
X006384Y010221D03*
X007920Y010221D03*
X010240Y010057D03*
X010649Y009548D03*
X011817Y009551D03*
X013077Y009260D03*
X013921Y008559D03*
X016109Y008961D03*
X016034Y009889D03*
X016489Y010579D03*
X016849Y011326D03*
X014416Y012071D03*
X014180Y011480D03*
X012050Y012099D03*
X012080Y013059D03*
X014377Y013016D03*
X014101Y014591D03*
X012447Y015024D03*
X012132Y015929D03*
X014101Y015811D03*
X015833Y015575D03*
X015833Y016087D03*
X016817Y016126D03*
X017283Y015155D03*
X018624Y013567D03*
X020079Y013463D03*
X019963Y012506D03*
X020183Y009933D03*
X021003Y009598D03*
X014022Y005654D03*
X012114Y005130D03*
X012126Y004471D03*
X012802Y003685D03*
X016026Y003880D03*
X014731Y001244D03*
X017999Y001298D03*
X008952Y006304D03*
X009308Y007036D03*
X008523Y005535D03*
X012285Y007100D03*
X010673Y010565D03*
X010125Y011480D03*
X009822Y012571D03*
X007841Y012701D03*
X006621Y012701D03*
X009298Y014158D03*
X010587Y014612D03*
X002684Y012583D03*
X007105Y001812D03*
X025361Y016244D03*
D28*
X017440Y008799D03*
X020440Y008299D03*
X006440Y002799D03*
X004164Y003299D03*
X001940Y008799D03*
M02*
