G75*
%MOIN*%
%OFA0B0*%
%FSLAX24Y24*%
%IPPOS*%
%LPD*%
%AMOC8*
5,1,8,0,0,1.08239X$1,22.5*
%
%ADD10C,0.0000*%
%ADD11C,0.0030*%
%ADD12C,0.0020*%
%ADD13C,0.0060*%
%ADD14C,0.0050*%
%ADD15C,0.0020*%
%ADD16R,0.0080X0.0010*%
%ADD17R,0.0100X0.0010*%
%ADD18R,0.0140X0.0010*%
%ADD19R,0.0170X0.0010*%
%ADD20R,0.0150X0.0010*%
%ADD21R,0.0200X0.0010*%
%ADD22R,0.0220X0.0010*%
%ADD23R,0.0250X0.0010*%
%ADD24R,0.0300X0.0010*%
%ADD25R,0.0280X0.0010*%
%ADD26R,0.0330X0.0010*%
%ADD27R,0.0340X0.0010*%
%ADD28R,0.0180X0.0010*%
%ADD29R,0.0320X0.0010*%
%ADD30R,0.0360X0.0010*%
%ADD31R,0.0380X0.0010*%
%ADD32R,0.0390X0.0010*%
%ADD33R,0.0400X0.0010*%
%ADD34R,0.0410X0.0010*%
%ADD35R,0.0160X0.0010*%
%ADD36R,0.0130X0.0010*%
%ADD37R,0.0050X0.0010*%
%ADD38R,0.0350X0.0010*%
%ADD39R,0.0470X0.0010*%
%ADD40R,0.0370X0.0010*%
%ADD41R,0.0270X0.0010*%
%ADD42R,0.0460X0.0010*%
%ADD43R,0.0310X0.0010*%
%ADD44R,0.0430X0.0010*%
%ADD45R,0.0290X0.0010*%
%ADD46R,0.0260X0.0010*%
%ADD47R,0.0230X0.0010*%
%ADD48R,0.0240X0.0010*%
%ADD49R,0.0210X0.0010*%
%ADD50R,0.0040X0.0010*%
%ADD51R,0.0440X0.0010*%
%ADD52R,0.0420X0.0010*%
%ADD53R,0.0010X0.0010*%
%ADD54R,0.0030X0.0010*%
%ADD55R,0.0060X0.0010*%
%ADD56R,0.0070X0.0010*%
%ADD57R,0.0090X0.0010*%
%ADD58R,0.0110X0.0010*%
%ADD59R,0.0190X0.0010*%
%ADD60R,0.0450X0.0010*%
%ADD61R,0.0490X0.0010*%
%ADD62R,0.0500X0.0010*%
%ADD63R,0.0520X0.0010*%
%ADD64R,0.0540X0.0010*%
%ADD65R,0.0560X0.0010*%
%ADD66R,0.0570X0.0010*%
%ADD67R,0.0590X0.0010*%
%ADD68R,0.0620X0.0010*%
%ADD69R,0.0630X0.0010*%
%ADD70R,0.0650X0.0010*%
%ADD71R,0.0670X0.0010*%
%ADD72R,0.0690X0.0010*%
%ADD73R,0.0710X0.0010*%
%ADD74R,0.0730X0.0010*%
%ADD75R,0.0750X0.0010*%
%ADD76R,0.0770X0.0010*%
%ADD77R,0.0790X0.0010*%
%ADD78R,0.0810X0.0010*%
%ADD79R,0.0830X0.0010*%
%ADD80R,0.0850X0.0010*%
%ADD81R,0.0870X0.0010*%
%ADD82R,0.0890X0.0010*%
%ADD83R,0.0920X0.0010*%
%ADD84R,0.0510X0.0010*%
%ADD85R,0.0530X0.0010*%
%ADD86R,0.0550X0.0010*%
%ADD87R,0.0580X0.0010*%
%ADD88R,0.0600X0.0010*%
%ADD89R,0.0610X0.0010*%
%ADD90R,0.0640X0.0010*%
%ADD91R,0.0660X0.0010*%
%ADD92R,0.0680X0.0010*%
%ADD93R,0.0700X0.0010*%
%ADD94R,0.0720X0.0010*%
%ADD95R,0.0480X0.0010*%
%ADD96R,0.0740X0.0010*%
%ADD97R,0.0120X0.0010*%
%ADD98R,0.0020X0.0010*%
%ADD99R,0.0760X0.0010*%
%ADD100R,0.0780X0.0010*%
%ADD101C,0.0100*%
D10*
X000408Y000280D02*
X028778Y000280D01*
X028778Y016847D01*
X000404Y016827D01*
X000424Y000284D01*
X004301Y007683D02*
X004303Y007716D01*
X004309Y007748D01*
X004318Y007779D01*
X004331Y007809D01*
X004348Y007837D01*
X004368Y007863D01*
X004391Y007887D01*
X004416Y007907D01*
X004444Y007925D01*
X004473Y007939D01*
X004504Y007949D01*
X004536Y007956D01*
X004569Y007959D01*
X004602Y007958D01*
X004634Y007953D01*
X004665Y007944D01*
X004696Y007932D01*
X004724Y007916D01*
X004751Y007897D01*
X004775Y007875D01*
X004796Y007850D01*
X004815Y007823D01*
X004830Y007794D01*
X004841Y007764D01*
X004849Y007732D01*
X004853Y007699D01*
X004853Y007667D01*
X004849Y007634D01*
X004841Y007602D01*
X004830Y007572D01*
X004815Y007543D01*
X004796Y007516D01*
X004775Y007491D01*
X004751Y007469D01*
X004724Y007450D01*
X004696Y007434D01*
X004665Y007422D01*
X004634Y007413D01*
X004602Y007408D01*
X004569Y007407D01*
X004536Y007410D01*
X004504Y007417D01*
X004473Y007427D01*
X004444Y007441D01*
X004416Y007459D01*
X004391Y007479D01*
X004368Y007503D01*
X004348Y007529D01*
X004331Y007557D01*
X004318Y007587D01*
X004309Y007618D01*
X004303Y007650D01*
X004301Y007683D01*
X004301Y009455D02*
X004303Y009488D01*
X004309Y009520D01*
X004318Y009551D01*
X004331Y009581D01*
X004348Y009609D01*
X004368Y009635D01*
X004391Y009659D01*
X004416Y009679D01*
X004444Y009697D01*
X004473Y009711D01*
X004504Y009721D01*
X004536Y009728D01*
X004569Y009731D01*
X004602Y009730D01*
X004634Y009725D01*
X004665Y009716D01*
X004696Y009704D01*
X004724Y009688D01*
X004751Y009669D01*
X004775Y009647D01*
X004796Y009622D01*
X004815Y009595D01*
X004830Y009566D01*
X004841Y009536D01*
X004849Y009504D01*
X004853Y009471D01*
X004853Y009439D01*
X004849Y009406D01*
X004841Y009374D01*
X004830Y009344D01*
X004815Y009315D01*
X004796Y009288D01*
X004775Y009263D01*
X004751Y009241D01*
X004724Y009222D01*
X004696Y009206D01*
X004665Y009194D01*
X004634Y009185D01*
X004602Y009180D01*
X004569Y009179D01*
X004536Y009182D01*
X004504Y009189D01*
X004473Y009199D01*
X004444Y009213D01*
X004416Y009231D01*
X004391Y009251D01*
X004368Y009275D01*
X004348Y009301D01*
X004331Y009329D01*
X004318Y009359D01*
X004309Y009390D01*
X004303Y009422D01*
X004301Y009455D01*
X025065Y010811D02*
X025067Y010861D01*
X025073Y010911D01*
X025083Y010961D01*
X025096Y011009D01*
X025113Y011057D01*
X025134Y011103D01*
X025158Y011147D01*
X025186Y011189D01*
X025217Y011229D01*
X025251Y011266D01*
X025288Y011301D01*
X025327Y011332D01*
X025368Y011361D01*
X025412Y011386D01*
X025458Y011408D01*
X025505Y011426D01*
X025553Y011440D01*
X025602Y011451D01*
X025652Y011458D01*
X025702Y011461D01*
X025753Y011460D01*
X025803Y011455D01*
X025853Y011446D01*
X025901Y011434D01*
X025949Y011417D01*
X025995Y011397D01*
X026040Y011374D01*
X026083Y011347D01*
X026123Y011317D01*
X026161Y011284D01*
X026196Y011248D01*
X026229Y011209D01*
X026258Y011168D01*
X026284Y011125D01*
X026307Y011080D01*
X026326Y011033D01*
X026341Y010985D01*
X026353Y010936D01*
X026361Y010886D01*
X026365Y010836D01*
X026365Y010786D01*
X026361Y010736D01*
X026353Y010686D01*
X026341Y010637D01*
X026326Y010589D01*
X026307Y010542D01*
X026284Y010497D01*
X026258Y010454D01*
X026229Y010413D01*
X026196Y010374D01*
X026161Y010338D01*
X026123Y010305D01*
X026083Y010275D01*
X026040Y010248D01*
X025995Y010225D01*
X025949Y010205D01*
X025901Y010188D01*
X025853Y010176D01*
X025803Y010167D01*
X025753Y010162D01*
X025702Y010161D01*
X025652Y010164D01*
X025602Y010171D01*
X025553Y010182D01*
X025505Y010196D01*
X025458Y010214D01*
X025412Y010236D01*
X025368Y010261D01*
X025327Y010290D01*
X025288Y010321D01*
X025251Y010356D01*
X025217Y010393D01*
X025186Y010433D01*
X025158Y010475D01*
X025134Y010519D01*
X025113Y010565D01*
X025096Y010613D01*
X025083Y010661D01*
X025073Y010711D01*
X025067Y010761D01*
X025065Y010811D01*
X025065Y006323D02*
X025067Y006373D01*
X025073Y006423D01*
X025083Y006473D01*
X025096Y006521D01*
X025113Y006569D01*
X025134Y006615D01*
X025158Y006659D01*
X025186Y006701D01*
X025217Y006741D01*
X025251Y006778D01*
X025288Y006813D01*
X025327Y006844D01*
X025368Y006873D01*
X025412Y006898D01*
X025458Y006920D01*
X025505Y006938D01*
X025553Y006952D01*
X025602Y006963D01*
X025652Y006970D01*
X025702Y006973D01*
X025753Y006972D01*
X025803Y006967D01*
X025853Y006958D01*
X025901Y006946D01*
X025949Y006929D01*
X025995Y006909D01*
X026040Y006886D01*
X026083Y006859D01*
X026123Y006829D01*
X026161Y006796D01*
X026196Y006760D01*
X026229Y006721D01*
X026258Y006680D01*
X026284Y006637D01*
X026307Y006592D01*
X026326Y006545D01*
X026341Y006497D01*
X026353Y006448D01*
X026361Y006398D01*
X026365Y006348D01*
X026365Y006298D01*
X026361Y006248D01*
X026353Y006198D01*
X026341Y006149D01*
X026326Y006101D01*
X026307Y006054D01*
X026284Y006009D01*
X026258Y005966D01*
X026229Y005925D01*
X026196Y005886D01*
X026161Y005850D01*
X026123Y005817D01*
X026083Y005787D01*
X026040Y005760D01*
X025995Y005737D01*
X025949Y005717D01*
X025901Y005700D01*
X025853Y005688D01*
X025803Y005679D01*
X025753Y005674D01*
X025702Y005673D01*
X025652Y005676D01*
X025602Y005683D01*
X025553Y005694D01*
X025505Y005708D01*
X025458Y005726D01*
X025412Y005748D01*
X025368Y005773D01*
X025327Y005802D01*
X025288Y005833D01*
X025251Y005868D01*
X025217Y005905D01*
X025186Y005945D01*
X025158Y005987D01*
X025134Y006031D01*
X025113Y006077D01*
X025096Y006125D01*
X025083Y006173D01*
X025073Y006223D01*
X025067Y006273D01*
X025065Y006323D01*
D11*
X024405Y002768D02*
X024467Y002706D01*
X024467Y002645D01*
X024405Y002583D01*
X024220Y002583D01*
X024099Y002521D02*
X024099Y002459D01*
X024037Y002398D01*
X023914Y002398D01*
X023852Y002459D01*
X023730Y002459D02*
X023730Y002768D01*
X023852Y002706D02*
X023852Y002645D01*
X023914Y002583D01*
X024037Y002583D01*
X024099Y002521D01*
X024220Y002398D02*
X024405Y002398D01*
X024467Y002459D01*
X024467Y002521D01*
X024405Y002583D01*
X024405Y002768D02*
X024220Y002768D01*
X024220Y002398D01*
X024099Y002706D02*
X024037Y002768D01*
X023914Y002768D01*
X023852Y002706D01*
X023730Y002459D02*
X023669Y002398D01*
X023545Y002398D01*
X023483Y002459D01*
X023483Y002768D01*
X022993Y002645D02*
X022870Y002645D01*
X022931Y002706D02*
X022931Y002459D01*
X022993Y002398D01*
X022686Y002645D02*
X022563Y002521D01*
X022563Y002398D02*
X022563Y002645D01*
X022441Y002645D02*
X022441Y002398D01*
X022256Y002398D01*
X022194Y002459D01*
X022194Y002645D01*
X022072Y002583D02*
X021949Y002583D01*
X021827Y002645D02*
X021642Y002521D01*
X021827Y002398D01*
X021859Y002238D02*
X021674Y002238D01*
X021674Y001867D01*
X021859Y001867D01*
X021921Y001929D01*
X021921Y001991D01*
X021859Y002053D01*
X021674Y002053D01*
X021859Y002053D02*
X021921Y002114D01*
X021921Y002176D01*
X021859Y002238D01*
X022011Y002398D02*
X022011Y002706D01*
X022072Y002768D01*
X021642Y002768D02*
X021642Y002398D01*
X021520Y002398D02*
X021520Y002583D01*
X021459Y002645D01*
X021274Y002645D01*
X021274Y002398D01*
X021152Y002398D02*
X021152Y002583D01*
X021090Y002645D01*
X020967Y002645D01*
X020967Y002521D02*
X020905Y002459D01*
X020967Y002398D01*
X021152Y002398D01*
X021152Y002521D02*
X020967Y002521D01*
X020784Y002645D02*
X020722Y002645D01*
X020598Y002521D01*
X020598Y002398D02*
X020598Y002645D01*
X020477Y002768D02*
X020230Y002768D01*
X020230Y002398D01*
X020201Y002238D02*
X020386Y002238D01*
X020447Y002176D01*
X020447Y002053D01*
X020386Y001991D01*
X020201Y001991D01*
X020324Y001991D02*
X020447Y001867D01*
X020569Y001929D02*
X020631Y001867D01*
X020754Y001867D01*
X020816Y001991D02*
X020569Y001991D01*
X020569Y002053D02*
X020631Y002114D01*
X020754Y002114D01*
X020816Y002053D01*
X020816Y001991D01*
X020937Y002114D02*
X021061Y001867D01*
X021184Y002114D01*
X020569Y002053D02*
X020569Y001929D01*
X020201Y001867D02*
X020201Y002238D01*
X020230Y002583D02*
X020353Y002583D01*
X020432Y001342D02*
X020432Y001157D01*
X020370Y001095D01*
X020308Y001157D01*
X020247Y001095D01*
X020185Y001157D01*
X020185Y001342D01*
X020553Y001342D02*
X020553Y001157D01*
X020615Y001095D01*
X020677Y001157D01*
X020738Y001095D01*
X020800Y001157D01*
X020800Y001342D01*
X020922Y001342D02*
X020922Y001157D01*
X020983Y001095D01*
X021045Y001157D01*
X021107Y001095D01*
X021168Y001157D01*
X021168Y001342D01*
X021290Y001157D02*
X021352Y001157D01*
X021352Y001095D01*
X021290Y001095D01*
X021290Y001157D01*
X021474Y001157D02*
X021536Y001095D01*
X021721Y001095D01*
X021721Y001034D02*
X021721Y001342D01*
X021536Y001342D01*
X021474Y001280D01*
X021474Y001157D01*
X021597Y000972D02*
X021659Y000972D01*
X021721Y001034D01*
X021842Y001095D02*
X021842Y001342D01*
X021842Y001219D02*
X021966Y001342D01*
X022027Y001342D01*
X022149Y001280D02*
X022149Y001157D01*
X022211Y001095D01*
X022334Y001095D01*
X022396Y001157D01*
X022396Y001280D01*
X022334Y001342D01*
X022211Y001342D01*
X022149Y001280D01*
X022518Y001280D02*
X022518Y001157D01*
X022579Y001095D01*
X022764Y001095D01*
X022764Y001466D01*
X022764Y001342D02*
X022579Y001342D01*
X022518Y001280D01*
X022886Y001157D02*
X022948Y001219D01*
X023133Y001219D01*
X023133Y001280D02*
X023133Y001095D01*
X022948Y001095D01*
X022886Y001157D01*
X022948Y001342D02*
X023071Y001342D01*
X023133Y001280D01*
X023254Y001342D02*
X023439Y001342D01*
X023501Y001280D01*
X023501Y001095D01*
X023623Y001095D02*
X023808Y001095D01*
X023869Y001157D01*
X023808Y001219D01*
X023684Y001219D01*
X023623Y001280D01*
X023684Y001342D01*
X023869Y001342D01*
X023991Y001342D02*
X024176Y001342D01*
X024238Y001280D01*
X024238Y001157D01*
X024176Y001095D01*
X023991Y001095D01*
X023991Y000972D02*
X023991Y001342D01*
X024359Y001157D02*
X024421Y001219D01*
X024606Y001219D01*
X024606Y001280D02*
X024606Y001095D01*
X024421Y001095D01*
X024359Y001157D01*
X024421Y001342D02*
X024544Y001342D01*
X024606Y001280D01*
X024727Y001219D02*
X024851Y001342D01*
X024913Y001342D01*
X025096Y001342D02*
X025220Y001342D01*
X025281Y001280D01*
X025281Y001095D01*
X025096Y001095D01*
X025034Y001157D01*
X025096Y001219D01*
X025281Y001219D01*
X025403Y001157D02*
X025403Y001280D01*
X025464Y001342D01*
X025650Y001342D01*
X025771Y001342D02*
X025833Y001342D01*
X025833Y001095D01*
X025894Y001095D02*
X025771Y001095D01*
X025650Y001095D02*
X025464Y001095D01*
X025403Y001157D01*
X025650Y001095D02*
X025650Y001466D01*
X025833Y001466D02*
X025833Y001527D01*
X026078Y001342D02*
X026263Y001342D01*
X026202Y001219D02*
X026263Y001157D01*
X026202Y001095D01*
X026017Y001095D01*
X026078Y001219D02*
X026017Y001280D01*
X026078Y001342D01*
X026078Y001219D02*
X026202Y001219D01*
X026385Y001157D02*
X026447Y001157D01*
X026447Y001095D01*
X026385Y001095D01*
X026385Y001157D01*
X026569Y001157D02*
X026569Y001280D01*
X026631Y001342D01*
X026816Y001342D01*
X026937Y001280D02*
X026937Y001157D01*
X026999Y001095D01*
X027123Y001095D01*
X027184Y001157D01*
X027184Y001280D01*
X027123Y001342D01*
X026999Y001342D01*
X026937Y001280D01*
X026816Y001095D02*
X026631Y001095D01*
X026569Y001157D01*
X027306Y001095D02*
X027306Y001342D01*
X027367Y001342D01*
X027429Y001280D01*
X027491Y001342D01*
X027553Y001280D01*
X027553Y001095D01*
X027429Y001095D02*
X027429Y001280D01*
X024727Y001342D02*
X024727Y001095D01*
X023254Y001095D02*
X023254Y001342D01*
X022748Y002645D02*
X022686Y002645D01*
X023433Y013635D02*
X023371Y013697D01*
X023433Y013635D02*
X023556Y013635D01*
X023618Y013697D01*
X023618Y013759D01*
X023556Y013820D01*
X023433Y013820D01*
X023371Y013882D01*
X023371Y013944D01*
X023433Y014006D01*
X023556Y014006D01*
X023618Y013944D01*
X023739Y014006D02*
X023986Y014006D01*
X023863Y014006D02*
X023863Y013635D01*
X024108Y013635D02*
X024108Y013882D01*
X024231Y014006D01*
X024354Y013882D01*
X024354Y013635D01*
X024354Y013820D02*
X024108Y013820D01*
X024476Y014006D02*
X024723Y014006D01*
X024844Y014006D02*
X024844Y013697D01*
X024906Y013635D01*
X025029Y013635D01*
X025091Y013697D01*
X025091Y014006D01*
X025213Y013944D02*
X025213Y013882D01*
X025274Y013820D01*
X025398Y013820D01*
X025459Y013759D01*
X025459Y013697D01*
X025398Y013635D01*
X025274Y013635D01*
X025213Y013697D01*
X025213Y013944D02*
X025274Y014006D01*
X025398Y014006D01*
X025459Y013944D01*
X024599Y014006D02*
X024599Y013635D01*
D12*
X027012Y013086D02*
X027049Y013123D01*
X027086Y013123D01*
X027122Y013086D01*
X027122Y013013D01*
X027086Y012976D01*
X027049Y012976D01*
X027012Y013013D01*
X027012Y013086D01*
X027122Y013086D02*
X027159Y013123D01*
X027196Y013123D01*
X027233Y013086D01*
X027233Y013013D01*
X027196Y012976D01*
X027159Y012976D01*
X027122Y013013D01*
X027122Y012902D02*
X027049Y012902D01*
X027012Y012865D01*
X027012Y012755D01*
X027233Y012755D01*
X027159Y012755D02*
X027159Y012865D01*
X027122Y012902D01*
X027159Y012829D02*
X027233Y012902D01*
X027737Y015994D02*
X027830Y015994D01*
X027884Y015994D02*
X027954Y015994D01*
X027978Y016018D01*
X027978Y016111D01*
X027954Y016134D01*
X027884Y016134D01*
X027884Y015994D01*
X027737Y015994D02*
X027737Y016134D01*
X028032Y016088D02*
X028078Y016134D01*
X028078Y015994D01*
X028032Y015994D02*
X028125Y015994D01*
X022057Y015009D02*
X022020Y015046D01*
X021947Y015046D01*
X021910Y015009D01*
X021836Y015009D02*
X021836Y014862D01*
X021799Y014825D01*
X021689Y014825D01*
X021689Y015046D01*
X021799Y015046D01*
X021836Y015009D01*
X021910Y014825D02*
X022057Y014972D01*
X022057Y015009D01*
X022057Y014825D02*
X021910Y014825D01*
X018395Y015433D02*
X018358Y015396D01*
X018285Y015396D01*
X018248Y015433D01*
X018174Y015433D02*
X018137Y015396D01*
X018064Y015396D01*
X018027Y015433D01*
X018027Y015580D01*
X018064Y015616D01*
X018137Y015616D01*
X018174Y015580D01*
X018248Y015580D02*
X018285Y015616D01*
X018358Y015616D01*
X018395Y015580D01*
X018395Y015543D01*
X018358Y015506D01*
X018395Y015469D01*
X018395Y015433D01*
X018358Y015506D02*
X018322Y015506D01*
X018168Y014522D02*
X018204Y014485D01*
X018204Y014412D01*
X018168Y014375D01*
X018094Y014375D02*
X018057Y014449D01*
X018057Y014485D01*
X018094Y014522D01*
X018168Y014522D01*
X018094Y014375D02*
X017984Y014375D01*
X017984Y014522D01*
X018021Y014301D02*
X018094Y014301D01*
X018131Y014264D01*
X018131Y014154D01*
X018204Y014154D02*
X017984Y014154D01*
X017984Y014264D01*
X018021Y014301D01*
X018131Y014228D02*
X018204Y014301D01*
X016230Y013057D02*
X016230Y013020D01*
X016083Y012874D01*
X016083Y012837D01*
X016009Y012874D02*
X015972Y012837D01*
X015899Y012837D01*
X015862Y012874D01*
X015862Y013020D01*
X015899Y013057D01*
X015972Y013057D01*
X016009Y013020D01*
X016083Y013057D02*
X016230Y013057D01*
X017100Y012689D02*
X017210Y012689D01*
X017247Y012653D01*
X017247Y012579D01*
X017210Y012542D01*
X017100Y012542D01*
X017100Y012469D02*
X017100Y012689D01*
X017174Y012542D02*
X017247Y012469D01*
X017321Y012469D02*
X017468Y012469D01*
X017395Y012469D02*
X017395Y012689D01*
X017321Y012616D01*
X019693Y011215D02*
X019766Y011215D01*
X019729Y011215D02*
X019729Y010995D01*
X019693Y010995D02*
X019766Y010995D01*
X019840Y011031D02*
X019840Y011178D01*
X019877Y011215D01*
X019950Y011215D01*
X019987Y011178D01*
X020061Y011178D02*
X020098Y011215D01*
X020171Y011215D01*
X020208Y011178D01*
X020208Y011141D01*
X020171Y011105D01*
X020208Y011068D01*
X020208Y011031D01*
X020171Y010995D01*
X020098Y010995D01*
X020061Y011031D01*
X019987Y011031D02*
X019950Y010995D01*
X019877Y010995D01*
X019840Y011031D01*
X020134Y011105D02*
X020171Y011105D01*
X019146Y009986D02*
X019182Y009950D01*
X019036Y009803D01*
X019072Y009766D01*
X019146Y009766D01*
X019182Y009803D01*
X019182Y009950D01*
X019146Y009986D02*
X019072Y009986D01*
X019036Y009950D01*
X019036Y009803D01*
X018961Y009766D02*
X018815Y009766D01*
X018888Y009766D02*
X018888Y009986D01*
X018815Y009913D01*
X018740Y009950D02*
X018704Y009986D01*
X018630Y009986D01*
X018594Y009950D01*
X018594Y009803D01*
X018630Y009766D01*
X018704Y009766D01*
X018740Y009803D01*
X019444Y009625D02*
X019444Y009405D01*
X019444Y009478D02*
X019554Y009478D01*
X019591Y009515D01*
X019591Y009589D01*
X019554Y009625D01*
X019444Y009625D01*
X019517Y009478D02*
X019591Y009405D01*
X019665Y009405D02*
X019812Y009405D01*
X019738Y009405D02*
X019738Y009625D01*
X019665Y009552D01*
X019886Y009625D02*
X020033Y009625D01*
X020033Y009589D01*
X019886Y009442D01*
X019886Y009405D01*
X017734Y009985D02*
X017587Y009985D01*
X017697Y010095D01*
X017697Y009875D01*
X017513Y009912D02*
X017476Y009875D01*
X017402Y009875D01*
X017366Y009912D01*
X017366Y010059D01*
X017402Y010095D01*
X017476Y010095D01*
X017513Y010059D01*
X015623Y008197D02*
X015623Y007977D01*
X015550Y007977D02*
X015697Y007977D01*
X015550Y008123D02*
X015623Y008197D01*
X015476Y008160D02*
X015439Y008197D01*
X015366Y008197D01*
X015329Y008160D01*
X015329Y008013D01*
X015366Y007977D01*
X015439Y007977D01*
X015476Y008013D01*
X013965Y009003D02*
X013818Y009003D01*
X013891Y009003D02*
X013891Y009223D01*
X013818Y009150D01*
X013744Y009186D02*
X013707Y009223D01*
X013634Y009223D01*
X013597Y009186D01*
X013597Y009040D01*
X013634Y009003D01*
X013707Y009003D01*
X013744Y009040D01*
X013523Y009003D02*
X013450Y009003D01*
X013486Y009003D02*
X013486Y009223D01*
X013450Y009223D02*
X013523Y009223D01*
X010320Y008944D02*
X010320Y008797D01*
X010174Y008944D01*
X010137Y008944D01*
X010100Y008907D01*
X010100Y008834D01*
X010137Y008797D01*
X010137Y008723D02*
X010210Y008723D01*
X010247Y008686D01*
X010247Y008576D01*
X010247Y008649D02*
X010320Y008723D01*
X010320Y008576D02*
X010100Y008576D01*
X010100Y008686D01*
X010137Y008723D01*
X006898Y011240D02*
X006678Y011240D01*
X006678Y011350D01*
X006715Y011387D01*
X006788Y011387D01*
X006825Y011350D01*
X006825Y011240D01*
X006825Y011314D02*
X006898Y011387D01*
X006898Y011461D02*
X006861Y011461D01*
X006715Y011608D01*
X006678Y011608D01*
X006678Y011461D01*
X006114Y012050D02*
X006151Y012086D01*
X006151Y012233D01*
X006114Y012270D01*
X006041Y012270D01*
X006004Y012233D01*
X006004Y012196D01*
X006041Y012160D01*
X006151Y012160D01*
X006114Y012050D02*
X006041Y012050D01*
X006004Y012086D01*
X005930Y012086D02*
X005893Y012050D01*
X005820Y012050D01*
X005783Y012086D01*
X005783Y012233D01*
X005820Y012270D01*
X005893Y012270D01*
X005930Y012233D01*
X007387Y013524D02*
X007387Y013634D01*
X007423Y013671D01*
X007497Y013671D01*
X007533Y013634D01*
X007533Y013524D01*
X007533Y013597D02*
X007607Y013671D01*
X007570Y013745D02*
X007607Y013782D01*
X007607Y013855D01*
X007570Y013892D01*
X007533Y013892D01*
X007497Y013855D01*
X007497Y013745D01*
X007570Y013745D01*
X007497Y013745D02*
X007423Y013818D01*
X007387Y013892D01*
X007387Y013524D02*
X007607Y013524D01*
X009664Y014716D02*
X009700Y014679D01*
X009774Y014679D01*
X009810Y014716D01*
X009885Y014716D02*
X009921Y014679D01*
X009995Y014679D01*
X010031Y014716D01*
X010031Y014789D01*
X009995Y014826D01*
X009958Y014826D01*
X009885Y014789D01*
X009885Y014899D01*
X010031Y014899D01*
X009810Y014863D02*
X009774Y014899D01*
X009700Y014899D01*
X009664Y014863D01*
X009664Y014716D01*
X004339Y014691D02*
X004339Y014544D01*
X004339Y014617D02*
X004119Y014617D01*
X004192Y014544D01*
X004339Y014470D02*
X004339Y014323D01*
X004119Y014323D01*
X003758Y014299D02*
X003758Y014262D01*
X003611Y014116D01*
X003611Y014079D01*
X003537Y014116D02*
X003500Y014079D01*
X003427Y014079D01*
X003390Y014116D01*
X003390Y014262D01*
X003427Y014299D01*
X003500Y014299D01*
X003537Y014262D01*
X003611Y014299D02*
X003758Y014299D01*
X003316Y014299D02*
X003243Y014299D01*
X003280Y014299D02*
X003280Y014079D01*
X003316Y014079D02*
X003243Y014079D01*
X001626Y012191D02*
X001663Y012154D01*
X001663Y012118D01*
X001626Y012081D01*
X001553Y012081D01*
X001516Y012118D01*
X001516Y012154D01*
X001553Y012191D01*
X001626Y012191D01*
X001626Y012081D02*
X001663Y012044D01*
X001663Y012008D01*
X001626Y011971D01*
X001553Y011971D01*
X001516Y012008D01*
X001516Y012044D01*
X001553Y012081D01*
X001442Y012154D02*
X001405Y012191D01*
X001332Y012191D01*
X001295Y012154D01*
X001295Y012008D01*
X001332Y011971D01*
X001405Y011971D01*
X001442Y012008D01*
X001485Y011345D02*
X001375Y011235D01*
X001522Y011235D01*
X001485Y011125D02*
X001485Y011345D01*
X001301Y011345D02*
X001227Y011345D01*
X001264Y011345D02*
X001264Y011161D01*
X001227Y011125D01*
X001190Y011125D01*
X001154Y011161D01*
X004308Y004389D02*
X004381Y004389D01*
X004344Y004389D02*
X004344Y004168D01*
X004308Y004168D02*
X004381Y004168D01*
X004455Y004205D02*
X004492Y004168D01*
X004565Y004168D01*
X004602Y004205D01*
X004676Y004205D02*
X004713Y004168D01*
X004786Y004168D01*
X004823Y004205D01*
X004823Y004242D01*
X004786Y004278D01*
X004676Y004278D01*
X004676Y004205D01*
X004676Y004278D02*
X004749Y004352D01*
X004823Y004389D01*
X004602Y004352D02*
X004565Y004389D01*
X004492Y004389D01*
X004455Y004352D01*
X004455Y004205D01*
X002399Y003915D02*
X002363Y003951D01*
X002289Y003951D01*
X002253Y003915D01*
X002178Y003915D02*
X002142Y003951D01*
X002068Y003951D01*
X002032Y003915D01*
X002032Y003768D01*
X002068Y003731D01*
X002142Y003731D01*
X002178Y003768D01*
X002253Y003731D02*
X002399Y003878D01*
X002399Y003915D01*
X002399Y003731D02*
X002253Y003731D01*
X014025Y003595D02*
X014098Y003595D01*
X014062Y003595D02*
X014062Y003374D01*
X014098Y003374D02*
X014025Y003374D01*
X014172Y003411D02*
X014209Y003374D01*
X014282Y003374D01*
X014319Y003411D01*
X014393Y003374D02*
X014540Y003521D01*
X014540Y003558D01*
X014503Y003595D01*
X014430Y003595D01*
X014393Y003558D01*
X014319Y003558D02*
X014282Y003595D01*
X014209Y003595D01*
X014172Y003558D01*
X014172Y003411D01*
X014393Y003374D02*
X014540Y003374D01*
X015832Y001464D02*
X015869Y001391D01*
X015942Y001317D01*
X015942Y001427D01*
X015979Y001464D01*
X016015Y001464D01*
X016052Y001427D01*
X016052Y001354D01*
X016015Y001317D01*
X015942Y001317D01*
X016015Y001243D02*
X016052Y001206D01*
X016052Y001133D01*
X016015Y001096D01*
X015869Y001096D01*
X015832Y001133D01*
X015832Y001206D01*
X015869Y001243D01*
X018168Y005000D02*
X018131Y005037D01*
X018131Y005110D01*
X018168Y005147D01*
X018315Y005147D01*
X018352Y005110D01*
X018352Y005037D01*
X018315Y005000D01*
X018168Y005000D01*
X018278Y005074D02*
X018352Y005147D01*
X018352Y005221D02*
X018352Y005368D01*
X018352Y005295D02*
X018131Y005295D01*
X018205Y005221D01*
X024788Y004382D02*
X024825Y004345D01*
X024862Y004345D01*
X024898Y004382D01*
X024898Y004565D01*
X024862Y004565D02*
X024935Y004565D01*
X025009Y004565D02*
X025009Y004455D01*
X025082Y004492D01*
X025119Y004492D01*
X025156Y004455D01*
X025156Y004382D01*
X025119Y004345D01*
X025046Y004345D01*
X025009Y004382D01*
X025009Y004565D02*
X025156Y004565D01*
X027763Y005061D02*
X027800Y005025D01*
X027837Y005025D01*
X027874Y005061D01*
X027874Y005245D01*
X027910Y005245D02*
X027837Y005245D01*
X027984Y005208D02*
X028021Y005245D01*
X028095Y005245D01*
X028131Y005208D01*
X028131Y005172D01*
X027984Y005025D01*
X028131Y005025D01*
D13*
X026921Y004122D02*
X026731Y004122D01*
X026681Y003882D01*
X026501Y003812D02*
X026311Y003942D01*
X026171Y003802D01*
X026301Y003612D01*
X026221Y003422D02*
X025991Y003382D01*
X025991Y003182D01*
X026211Y003142D01*
X026711Y003042D02*
X026561Y002702D01*
X026491Y002742D01*
X026311Y002622D01*
X026171Y002762D01*
X026291Y002942D01*
X026293Y002947D02*
X026268Y002989D01*
X026246Y003033D01*
X026228Y003079D01*
X026213Y003126D01*
X026503Y003808D02*
X026545Y003831D01*
X026588Y003850D01*
X026633Y003867D01*
X026679Y003879D01*
X026971Y003882D02*
X026921Y004122D01*
X027151Y003812D02*
X027351Y003942D01*
X027491Y003802D01*
X027351Y003612D01*
X027441Y003422D02*
X027661Y003382D01*
X027661Y003182D01*
X027441Y003142D01*
X027361Y002942D02*
X027491Y002762D01*
X027351Y002622D01*
X027171Y002742D01*
X027091Y002702D01*
X026951Y003042D01*
X027443Y003423D02*
X027431Y003463D01*
X027416Y003502D01*
X027398Y003540D01*
X027378Y003576D01*
X027356Y003611D01*
X026951Y003042D02*
X026979Y003058D01*
X027006Y003077D01*
X027029Y003099D01*
X027050Y003124D01*
X027068Y003152D01*
X027083Y003181D01*
X027093Y003212D01*
X027101Y003243D01*
X027104Y003276D01*
X027103Y003308D01*
X027099Y003341D01*
X027090Y003372D01*
X027078Y003402D01*
X027063Y003431D01*
X027044Y003458D01*
X027022Y003482D01*
X026998Y003503D01*
X026971Y003522D01*
X026942Y003537D01*
X026911Y003548D01*
X026880Y003556D01*
X026847Y003560D01*
X026815Y003560D01*
X026782Y003556D01*
X026751Y003548D01*
X026720Y003537D01*
X026691Y003522D01*
X026664Y003503D01*
X026640Y003482D01*
X026618Y003458D01*
X026599Y003431D01*
X026584Y003402D01*
X026572Y003372D01*
X026563Y003341D01*
X026559Y003308D01*
X026558Y003276D01*
X026561Y003243D01*
X026569Y003212D01*
X026579Y003181D01*
X026594Y003152D01*
X026612Y003124D01*
X026633Y003099D01*
X026656Y003077D01*
X026683Y003058D01*
X026711Y003042D01*
X026219Y003424D02*
X026230Y003464D01*
X026244Y003503D01*
X026260Y003540D01*
X026279Y003577D01*
X026300Y003612D01*
X027440Y003143D02*
X027430Y003101D01*
X027417Y003060D01*
X027401Y003020D01*
X027382Y002981D01*
X027360Y002944D01*
X027150Y003812D02*
X027107Y003835D01*
X027063Y003855D01*
X027017Y003871D01*
X026971Y003883D01*
X024762Y003671D02*
X024512Y003421D01*
X024012Y003421D01*
X023762Y003671D01*
X023512Y003421D01*
X023012Y003421D01*
X022762Y003671D01*
X022512Y003421D01*
X022012Y003421D01*
X021762Y003671D01*
X021512Y003421D01*
X021012Y003421D01*
X020762Y003671D01*
X020762Y004171D01*
X021012Y004421D01*
X021512Y004421D01*
X021762Y004171D01*
X022012Y004421D01*
X022512Y004421D01*
X022762Y004171D01*
X023012Y004421D01*
X023512Y004421D01*
X023762Y004171D01*
X024012Y004421D01*
X024512Y004421D01*
X024762Y004171D01*
X024762Y003671D01*
X020779Y005487D02*
X020679Y005487D01*
X020779Y005487D02*
X020779Y005587D01*
X020779Y005987D02*
X020779Y006087D01*
X020679Y006087D01*
X020680Y006483D02*
X020780Y006483D01*
X020780Y006583D01*
X020280Y006483D02*
X020180Y006483D01*
X020180Y006583D01*
X020179Y006087D02*
X020179Y005987D01*
X020179Y006087D02*
X020279Y006087D01*
X020179Y005587D02*
X020179Y005487D01*
X020279Y005487D01*
X020180Y006983D02*
X020180Y007083D01*
X020280Y007083D01*
X020680Y007083D02*
X020780Y007083D01*
X020780Y006983D01*
X014638Y008209D02*
X014638Y003759D01*
X011738Y003759D01*
X011738Y008209D01*
X014638Y008209D01*
X014839Y009353D02*
X011629Y009353D01*
X011629Y016303D01*
X014839Y016303D01*
X014839Y009353D01*
X014239Y009723D02*
X014241Y009752D01*
X014247Y009780D01*
X014256Y009807D01*
X014270Y009832D01*
X014286Y009856D01*
X014306Y009876D01*
X014328Y009895D01*
X014352Y009909D01*
X014379Y009921D01*
X014406Y009929D01*
X014435Y009933D01*
X014463Y009933D01*
X014492Y009929D01*
X014519Y009921D01*
X014546Y009909D01*
X014570Y009895D01*
X014592Y009876D01*
X014612Y009856D01*
X014628Y009832D01*
X014642Y009807D01*
X014651Y009780D01*
X014657Y009752D01*
X014659Y009723D01*
X014657Y009694D01*
X014651Y009666D01*
X014642Y009639D01*
X014628Y009614D01*
X014612Y009590D01*
X014592Y009570D01*
X014570Y009551D01*
X014546Y009537D01*
X014519Y009525D01*
X014492Y009517D01*
X014463Y009513D01*
X014435Y009513D01*
X014406Y009517D01*
X014379Y009525D01*
X014352Y009537D01*
X014328Y009551D01*
X014306Y009570D01*
X014286Y009590D01*
X014270Y009614D01*
X014256Y009639D01*
X014247Y009666D01*
X014241Y009694D01*
X014239Y009723D01*
X021692Y013613D02*
X022012Y013613D01*
X022012Y013833D01*
X022012Y014513D02*
X022012Y014733D01*
X021692Y014733D01*
X025484Y015442D02*
X025507Y015500D01*
X025534Y015557D01*
X025564Y015612D01*
X025598Y015665D01*
X025635Y015716D01*
X025675Y015764D01*
X025718Y015810D01*
X025763Y015853D01*
X025812Y015893D01*
X025863Y015929D01*
X025916Y015963D01*
X025971Y015993D01*
X026027Y016020D01*
X026086Y016043D01*
X026145Y016062D01*
X026206Y016078D01*
X026268Y016090D01*
X026330Y016098D01*
X026393Y016102D01*
X026455Y016102D01*
X026518Y016098D01*
X026580Y016090D01*
X026642Y016078D01*
X026703Y016062D01*
X026762Y016043D01*
X026821Y016020D01*
X026877Y015993D01*
X026932Y015963D01*
X026985Y015929D01*
X027036Y015893D01*
X027085Y015853D01*
X027130Y015810D01*
X027173Y015764D01*
X027213Y015716D01*
X027250Y015665D01*
X027284Y015612D01*
X027314Y015557D01*
X027341Y015500D01*
X027364Y015442D01*
X027364Y014762D02*
X027341Y014704D01*
X027314Y014647D01*
X027284Y014592D01*
X027250Y014539D01*
X027213Y014488D01*
X027173Y014440D01*
X027130Y014394D01*
X027085Y014351D01*
X027036Y014311D01*
X026985Y014275D01*
X026932Y014241D01*
X026877Y014211D01*
X026821Y014184D01*
X026762Y014161D01*
X026703Y014142D01*
X026642Y014126D01*
X026580Y014114D01*
X026518Y014106D01*
X026455Y014102D01*
X026393Y014102D01*
X026330Y014106D01*
X026268Y014114D01*
X026206Y014126D01*
X026145Y014142D01*
X026086Y014161D01*
X026027Y014184D01*
X025971Y014211D01*
X025916Y014241D01*
X025863Y014275D01*
X025812Y014311D01*
X025763Y014351D01*
X025718Y014394D01*
X025675Y014440D01*
X025635Y014488D01*
X025598Y014539D01*
X025564Y014592D01*
X025534Y014647D01*
X025507Y014704D01*
X025484Y014762D01*
X014068Y004149D02*
X014070Y004178D01*
X014076Y004206D01*
X014085Y004233D01*
X014099Y004258D01*
X014115Y004282D01*
X014135Y004302D01*
X014157Y004321D01*
X014181Y004335D01*
X014208Y004347D01*
X014235Y004355D01*
X014264Y004359D01*
X014292Y004359D01*
X014321Y004355D01*
X014348Y004347D01*
X014375Y004335D01*
X014399Y004321D01*
X014421Y004302D01*
X014441Y004282D01*
X014457Y004258D01*
X014471Y004233D01*
X014480Y004206D01*
X014486Y004178D01*
X014488Y004149D01*
X014486Y004120D01*
X014480Y004092D01*
X014471Y004065D01*
X014457Y004040D01*
X014441Y004016D01*
X014421Y003996D01*
X014399Y003977D01*
X014375Y003963D01*
X014348Y003951D01*
X014321Y003943D01*
X014292Y003939D01*
X014264Y003939D01*
X014235Y003943D01*
X014208Y003951D01*
X014181Y003963D01*
X014157Y003977D01*
X014135Y003996D01*
X014115Y004016D01*
X014099Y004040D01*
X014085Y004065D01*
X014076Y004092D01*
X014070Y004120D01*
X014068Y004149D01*
X013993Y002579D02*
X013493Y002579D01*
X013243Y002329D01*
X012993Y002579D01*
X012493Y002579D01*
X012243Y002329D01*
X011993Y002579D01*
X011493Y002579D01*
X011243Y002329D01*
X010993Y002579D01*
X010493Y002579D01*
X010243Y002329D01*
X009993Y002579D01*
X009493Y002579D01*
X009243Y002329D01*
X009243Y001829D01*
X009493Y001579D01*
X009993Y001579D01*
X010243Y001829D01*
X010493Y001579D01*
X010993Y001579D01*
X011243Y001829D01*
X011493Y001579D01*
X011993Y001579D01*
X012243Y001829D01*
X012493Y001579D01*
X012993Y001579D01*
X013243Y001829D01*
X013493Y001579D01*
X013993Y001579D01*
X014243Y001829D01*
X014493Y001579D01*
X014993Y001579D01*
X015243Y001829D01*
X015243Y002329D01*
X014993Y002579D01*
X014493Y002579D01*
X014243Y002329D01*
X013993Y002579D01*
X003790Y012850D02*
X003152Y012850D01*
X003152Y012887D01*
X003152Y013204D02*
X003152Y013241D01*
X003152Y013578D02*
X003152Y013615D01*
X003152Y013932D02*
X003152Y013969D01*
X003790Y013969D01*
X003790Y013932D01*
X003790Y013615D02*
X003790Y013204D01*
X003790Y012887D02*
X003790Y012850D01*
D14*
X004262Y011522D02*
X004184Y011443D01*
X004184Y010931D01*
X001034Y010931D01*
X001034Y006207D01*
X004184Y006207D01*
X004184Y005695D01*
X004262Y005616D01*
X004380Y005616D01*
X004577Y005813D01*
X005129Y005813D01*
X005325Y005616D01*
X005443Y005616D01*
X005522Y005695D01*
X005522Y006207D01*
X007333Y006207D01*
X007333Y010931D01*
X005522Y010931D01*
X005522Y011443D01*
X005443Y011522D01*
X005325Y011522D01*
X005129Y011325D01*
X004577Y011325D01*
X004380Y011522D01*
X004262Y011522D01*
X004184Y010931D02*
X005522Y010931D01*
X006546Y008766D02*
X006546Y008372D01*
X005522Y006207D02*
X004184Y006207D01*
X009707Y001329D02*
X009858Y001404D01*
X009707Y001329D02*
X009557Y001179D01*
X009782Y001179D01*
X009858Y001104D01*
X009858Y001029D01*
X009782Y000954D01*
X009632Y000954D01*
X009557Y001029D01*
X009557Y001179D01*
X014557Y002754D02*
X014858Y002754D01*
X014707Y002754D02*
X014707Y003204D01*
X014557Y003054D01*
X020337Y003696D02*
X020638Y003696D01*
X020487Y003696D02*
X020487Y004147D01*
X020337Y003997D01*
X021377Y005532D02*
X028235Y005532D01*
X028215Y005532D02*
X028215Y011602D01*
X021377Y011602D01*
X021377Y005532D01*
X024887Y003922D02*
X025188Y003922D01*
X025113Y004147D02*
X025113Y003696D01*
X024887Y003922D02*
X025113Y004147D01*
D15*
X006940Y008372D02*
X006546Y008372D01*
X006546Y008766D02*
X006940Y008766D01*
D16*
X001606Y014152D03*
X001606Y014522D03*
X001286Y015622D03*
X002706Y016532D03*
D17*
X002696Y016522D03*
X002656Y014652D03*
X002656Y014152D03*
X001616Y014662D03*
D18*
X001606Y014692D03*
X001496Y014422D03*
X001486Y014412D03*
X001476Y014382D03*
X001476Y014282D03*
X001486Y014262D03*
X001716Y014252D03*
X001726Y014262D03*
X001736Y014282D03*
X001736Y014392D03*
X001726Y014412D03*
X001956Y014342D03*
X001956Y014302D03*
X001956Y014262D03*
X001956Y014222D03*
X001956Y014182D03*
X001956Y014502D03*
X001956Y014542D03*
X001956Y014582D03*
X001956Y014622D03*
X002516Y014532D03*
X002526Y014552D03*
X002506Y014312D03*
X002506Y014302D03*
X002806Y014302D03*
X002786Y014512D03*
X002786Y014522D03*
X001256Y014492D03*
X001256Y014482D03*
X001256Y014472D03*
X000966Y014482D03*
X000966Y014442D03*
X000966Y014522D03*
X000966Y014322D03*
X000966Y014282D03*
X000966Y014242D03*
X000966Y014202D03*
X000966Y014162D03*
X002666Y016492D03*
D19*
X002651Y016462D03*
X002761Y014562D03*
X002781Y014352D03*
X002531Y014262D03*
X001611Y014162D03*
X001281Y014162D03*
X001281Y014172D03*
X001271Y014182D03*
X001271Y014192D03*
X001261Y014202D03*
X001251Y014222D03*
X001241Y014232D03*
X001241Y014242D03*
X001231Y014252D03*
X001231Y014262D03*
X001221Y014272D03*
X001221Y014282D03*
X001211Y014292D03*
X001211Y014302D03*
X001201Y014312D03*
X001191Y014322D03*
X001181Y014332D03*
X001171Y014342D03*
X001241Y014532D03*
D20*
X001251Y014512D03*
X001261Y014502D03*
X001251Y014462D03*
X001501Y014432D03*
X001491Y014252D03*
X001501Y014242D03*
X001711Y014242D03*
X001721Y014422D03*
X001711Y014432D03*
X001951Y014482D03*
X001951Y014492D03*
X001951Y014512D03*
X001951Y014522D03*
X001951Y014532D03*
X001951Y014552D03*
X001951Y014562D03*
X001951Y014572D03*
X001951Y014592D03*
X001951Y014602D03*
X001951Y014612D03*
X001951Y014632D03*
X001951Y014642D03*
X002271Y014642D03*
X002271Y014632D03*
X002271Y014622D03*
X002271Y014612D03*
X002271Y014602D03*
X002271Y014592D03*
X002271Y014582D03*
X002271Y014572D03*
X002271Y014562D03*
X002271Y014552D03*
X002271Y014542D03*
X002271Y014532D03*
X002271Y014522D03*
X002271Y014512D03*
X002271Y014502D03*
X002271Y014492D03*
X002271Y014482D03*
X002271Y014352D03*
X002271Y014342D03*
X002271Y014332D03*
X002271Y014322D03*
X002271Y014312D03*
X002271Y014302D03*
X002271Y014292D03*
X002271Y014282D03*
X002271Y014272D03*
X002271Y014262D03*
X002271Y014252D03*
X002271Y014242D03*
X002271Y014232D03*
X002271Y014222D03*
X002271Y014212D03*
X002271Y014202D03*
X002271Y014192D03*
X002271Y014182D03*
X002271Y014172D03*
X002271Y014162D03*
X002511Y014292D03*
X002531Y014502D03*
X002521Y014512D03*
X002771Y014552D03*
X002781Y014542D03*
X002781Y014532D03*
X002801Y014332D03*
X002801Y014322D03*
X002801Y014312D03*
X002801Y014292D03*
X002801Y014282D03*
X002791Y014272D03*
X001951Y014272D03*
X001951Y014282D03*
X001951Y014292D03*
X001951Y014312D03*
X001951Y014322D03*
X001951Y014332D03*
X001951Y014352D03*
X001951Y014252D03*
X001951Y014242D03*
X001951Y014232D03*
X001951Y014212D03*
X001951Y014202D03*
X001951Y014192D03*
X001951Y014172D03*
X001951Y014162D03*
X000971Y014182D03*
X000961Y014172D03*
X000961Y014192D03*
X000961Y014212D03*
X000971Y014222D03*
X000961Y014232D03*
X000961Y014252D03*
X000971Y014262D03*
X000961Y014272D03*
X000961Y014292D03*
X000971Y014302D03*
X000961Y014312D03*
X000961Y014332D03*
X000971Y014342D03*
X000961Y014452D03*
X000971Y014462D03*
X000961Y014472D03*
X000961Y014492D03*
X000971Y014502D03*
X000961Y014512D03*
X000961Y014532D03*
X001271Y015592D03*
X002671Y016482D03*
D21*
X002636Y016442D03*
X002656Y014642D03*
X002766Y014362D03*
X002656Y014162D03*
D22*
X001606Y014172D03*
X001606Y014742D03*
D23*
X001601Y014762D03*
X001611Y014182D03*
X002651Y014172D03*
X002741Y014372D03*
X002651Y014632D03*
X001241Y015542D03*
X002601Y016392D03*
X002611Y016402D03*
D24*
X002576Y016352D03*
X001596Y014792D03*
X001606Y014472D03*
X001606Y014202D03*
X001046Y014642D03*
X002656Y014182D03*
X002706Y014392D03*
D25*
X002656Y014622D03*
X001606Y014482D03*
X001606Y014192D03*
X001236Y015532D03*
X002586Y016362D03*
X002586Y016372D03*
D26*
X002561Y016322D03*
X001591Y014812D03*
X002651Y014602D03*
X002651Y014432D03*
X002671Y014422D03*
X002671Y014412D03*
X002651Y014192D03*
D27*
X002656Y014202D03*
X001606Y014222D03*
X001606Y014232D03*
X001606Y014442D03*
X001606Y014452D03*
X001216Y015502D03*
X002546Y016312D03*
D28*
X001606Y014712D03*
X001256Y014212D03*
X002546Y014492D03*
D29*
X002636Y014442D03*
X001606Y014462D03*
X001606Y014212D03*
X001056Y014362D03*
X001596Y014802D03*
X001226Y015512D03*
X002566Y016332D03*
D30*
X002536Y016292D03*
X001216Y015492D03*
X001066Y014632D03*
X002656Y014582D03*
X002656Y014212D03*
D31*
X002656Y014222D03*
X001086Y014622D03*
X001206Y015482D03*
X002526Y016262D03*
X002526Y016272D03*
D32*
X001591Y014842D03*
X001091Y014402D03*
X001081Y014392D03*
X002651Y014232D03*
D33*
X002656Y014242D03*
X001586Y014852D03*
X001796Y015132D03*
X001096Y014602D03*
X001086Y014612D03*
X002516Y016242D03*
X002516Y016252D03*
D34*
X001201Y015472D03*
X001811Y015152D03*
X001101Y014422D03*
X001091Y014412D03*
X002651Y014252D03*
D35*
X002786Y014262D03*
X002796Y014342D03*
X002516Y014282D03*
X002516Y014272D03*
X002536Y014562D03*
X001606Y014512D03*
X001606Y014702D03*
X001256Y014522D03*
X001246Y014452D03*
X001236Y014442D03*
X001266Y015582D03*
X002656Y016472D03*
D36*
X002681Y016502D03*
X001611Y014682D03*
X001731Y014402D03*
X001741Y014382D03*
X001741Y014372D03*
X001741Y014362D03*
X001741Y014352D03*
X001741Y014342D03*
X001741Y014332D03*
X001741Y014322D03*
X001741Y014312D03*
X001741Y014302D03*
X001741Y014292D03*
X001731Y014272D03*
X001481Y014272D03*
X001471Y014292D03*
X001471Y014302D03*
X001471Y014312D03*
X001471Y014322D03*
X001471Y014332D03*
X001471Y014342D03*
X001471Y014352D03*
X001471Y014362D03*
X001471Y014372D03*
X001481Y014392D03*
X001481Y014402D03*
X002521Y014522D03*
X002521Y014542D03*
D37*
X002551Y014322D03*
X002721Y016552D03*
D38*
X002551Y016302D03*
X001591Y014822D03*
X001061Y014372D03*
X001061Y014352D03*
X002651Y014592D03*
D39*
X002111Y014472D03*
X002111Y014452D03*
X002111Y014442D03*
X002111Y014432D03*
X002111Y014412D03*
X002111Y014402D03*
X002111Y014382D03*
X002111Y014372D03*
X002111Y014362D03*
X001581Y014892D03*
X001901Y015292D03*
X001911Y015302D03*
X001191Y015442D03*
X002481Y016172D03*
D40*
X002541Y016282D03*
X001591Y014832D03*
X001081Y014382D03*
X002651Y014572D03*
D41*
X002721Y014382D03*
X001601Y014772D03*
X002601Y016382D03*
D42*
X002486Y016182D03*
X001896Y015282D03*
X001886Y015272D03*
X001886Y015262D03*
X002116Y014462D03*
X002116Y014422D03*
X002116Y014392D03*
D43*
X002621Y014452D03*
X002691Y014402D03*
X002651Y014612D03*
X002571Y016342D03*
D44*
X002501Y016212D03*
X001831Y015182D03*
X001101Y014572D03*
X001111Y014562D03*
X001111Y014542D03*
X001101Y014432D03*
D45*
X001601Y014782D03*
X002611Y014462D03*
X001231Y015522D03*
D46*
X002586Y014472D03*
D47*
X002571Y014482D03*
X001601Y014752D03*
X002621Y016422D03*
D48*
X002616Y016412D03*
X001246Y015552D03*
X001606Y014492D03*
D49*
X001611Y014502D03*
X001601Y014732D03*
X001251Y015562D03*
X002631Y016432D03*
D50*
X001616Y014622D03*
X002736Y014502D03*
D51*
X001846Y015202D03*
X001846Y015212D03*
X001856Y015222D03*
X001586Y014872D03*
X001106Y014552D03*
X002496Y016202D03*
D52*
X002506Y016222D03*
X002506Y016232D03*
X001196Y015462D03*
X001816Y015162D03*
X001826Y015172D03*
X001836Y015192D03*
X001806Y015142D03*
X001586Y014862D03*
X001106Y014582D03*
X001096Y014592D03*
D53*
X001621Y014602D03*
X002741Y016572D03*
D54*
X002731Y016562D03*
X001301Y015642D03*
X001621Y014612D03*
D55*
X001616Y014632D03*
X001296Y015632D03*
X002716Y016542D03*
D56*
X001621Y014642D03*
D57*
X001611Y014652D03*
D58*
X001611Y014672D03*
X001281Y015612D03*
X002691Y016512D03*
D59*
X002641Y016452D03*
X001261Y015572D03*
X001611Y014722D03*
D60*
X001581Y014882D03*
X001861Y015232D03*
X001871Y015242D03*
X001871Y015252D03*
X001191Y015452D03*
X002491Y016192D03*
D61*
X002471Y016152D03*
X001941Y015352D03*
X001941Y015342D03*
X001181Y015432D03*
X001581Y014902D03*
D62*
X001576Y014912D03*
X001956Y015362D03*
X001956Y015372D03*
X001966Y015382D03*
X002466Y016142D03*
D63*
X002456Y016112D03*
X001996Y015422D03*
X001986Y015412D03*
X001576Y014922D03*
X001316Y015142D03*
X001176Y015422D03*
D64*
X001166Y015412D03*
X001296Y015162D03*
X001576Y014932D03*
X002026Y015462D03*
X002036Y015472D03*
X002446Y016092D03*
D65*
X002436Y016072D03*
X002076Y015522D03*
X002066Y015512D03*
X002056Y015502D03*
X001576Y014942D03*
X001276Y015182D03*
X001166Y015402D03*
D66*
X001261Y015192D03*
X001571Y014952D03*
X002081Y015532D03*
X002091Y015542D03*
X002431Y016052D03*
X002441Y016062D03*
D67*
X002431Y016042D03*
X002121Y015582D03*
X002111Y015572D03*
X001571Y014962D03*
X001241Y015212D03*
D68*
X001216Y015242D03*
X001146Y015372D03*
X001566Y014972D03*
X002156Y015622D03*
X002166Y015632D03*
X002176Y015642D03*
D69*
X002181Y015652D03*
X002411Y015992D03*
X002421Y016002D03*
X001571Y014982D03*
D70*
X001561Y014992D03*
X001191Y015262D03*
X001141Y015362D03*
X002211Y015682D03*
X002411Y015972D03*
D71*
X002401Y015952D03*
X002241Y015712D03*
X002231Y015702D03*
X001561Y015002D03*
X001131Y015352D03*
D72*
X001131Y015342D03*
X001561Y015012D03*
X002261Y015732D03*
X002271Y015742D03*
X002401Y015932D03*
D73*
X002391Y015912D03*
X002291Y015762D03*
X002281Y015752D03*
X001561Y015022D03*
X001121Y015332D03*
D74*
X001121Y015312D03*
X001551Y015032D03*
X002391Y015892D03*
D75*
X002331Y015792D03*
X001561Y015042D03*
D76*
X001551Y015052D03*
X002381Y015852D03*
D77*
X002381Y015842D03*
X002381Y015832D03*
X001551Y015062D03*
D78*
X001551Y015072D03*
X002381Y015822D03*
D79*
X001551Y015082D03*
D80*
X001541Y015092D03*
D81*
X001541Y015102D03*
D82*
X001541Y015112D03*
D83*
X001536Y015122D03*
D84*
X001321Y015132D03*
X001971Y015392D03*
X001981Y015402D03*
X002461Y016122D03*
X002461Y016132D03*
D85*
X002451Y016102D03*
X002021Y015452D03*
X002011Y015442D03*
X002001Y015432D03*
X001301Y015152D03*
D86*
X001281Y015172D03*
X002041Y015482D03*
X002051Y015492D03*
X002441Y016082D03*
D87*
X002106Y015562D03*
X002096Y015552D03*
X001256Y015202D03*
X001156Y015392D03*
D88*
X001156Y015382D03*
X001236Y015222D03*
X002126Y015592D03*
X002146Y015612D03*
X002426Y016022D03*
X002426Y016032D03*
D89*
X002421Y016012D03*
X002141Y015602D03*
X001221Y015232D03*
D90*
X001196Y015252D03*
X002196Y015662D03*
X002196Y015672D03*
X002416Y015982D03*
D91*
X002406Y015962D03*
X002216Y015692D03*
X001176Y015272D03*
D92*
X001166Y015282D03*
X002246Y015722D03*
X002406Y015942D03*
D93*
X002396Y015922D03*
X001146Y015292D03*
D94*
X001136Y015302D03*
X002306Y015772D03*
X002396Y015902D03*
D95*
X002476Y016162D03*
X001926Y015332D03*
X001926Y015322D03*
X001916Y015312D03*
D96*
X002316Y015782D03*
X002386Y015882D03*
X001116Y015322D03*
D97*
X001276Y015602D03*
D98*
X001306Y015652D03*
D99*
X002346Y015802D03*
X002386Y015862D03*
X002386Y015872D03*
D100*
X002356Y015812D03*
D101*
X025324Y015443D02*
X025346Y015506D01*
X025371Y015568D01*
X025400Y015628D01*
X025432Y015687D01*
X025468Y015744D01*
X025507Y015798D01*
X025548Y015850D01*
X025593Y015900D01*
X025641Y015947D01*
X025691Y015991D01*
X025744Y016032D01*
X025799Y016070D01*
X025856Y016104D01*
X025915Y016136D01*
X025976Y016163D01*
X026038Y016188D01*
X026102Y016208D01*
X026167Y016225D01*
X026232Y016238D01*
X026299Y016247D01*
X026365Y016253D01*
X026432Y016254D01*
X026499Y016252D01*
X026566Y016245D01*
X026632Y016235D01*
X026697Y016221D01*
X026761Y016203D01*
X026825Y016182D01*
X026887Y016157D01*
X026947Y016128D01*
X027006Y016096D01*
X027062Y016061D01*
X027117Y016022D01*
X027169Y015980D01*
X027219Y015935D01*
X027266Y015888D01*
X027310Y015838D01*
X027351Y015785D01*
X027389Y015730D01*
X027424Y015673D01*
X027424Y015672D02*
X027424Y015452D01*
X027424Y014752D02*
X027424Y014532D01*
X027424Y014533D02*
X027389Y014476D01*
X027351Y014421D01*
X027310Y014368D01*
X027266Y014318D01*
X027219Y014270D01*
X027169Y014226D01*
X027117Y014184D01*
X027062Y014145D01*
X027006Y014110D01*
X026947Y014078D01*
X026887Y014049D01*
X026825Y014024D01*
X026761Y014003D01*
X026697Y013985D01*
X026632Y013971D01*
X026565Y013961D01*
X026499Y013954D01*
X026432Y013952D01*
X026365Y013953D01*
X026299Y013959D01*
X026232Y013968D01*
X026167Y013981D01*
X026102Y013998D01*
X026039Y014018D01*
X025976Y014043D01*
X025915Y014070D01*
X025856Y014102D01*
X025799Y014136D01*
X025744Y014174D01*
X025691Y014215D01*
X025641Y014259D01*
X025593Y014306D01*
X025548Y014356D01*
X025507Y014408D01*
X025468Y014462D01*
X025432Y014519D01*
X025400Y014578D01*
X025371Y014638D01*
X025346Y014700D01*
X025324Y014763D01*
M02*
