%TF.GenerationSoftware,KiCad,Pcbnew,10.0.1*%
%TF.CreationDate,2026-05-08T11:49:03+02:00*%
%TF.ProjectId,vscp-din-stm32h552-can-z102,76736370-2d64-4696-9e2d-73746d333268,B*%
%TF.SameCoordinates,Original*%
%TF.FileFunction,Copper,L4,Bot*%
%TF.FilePolarity,Positive*%
%FSLAX46Y46*%
G04 Gerber Fmt 4.6, Leading zero omitted, Abs format (unit mm)*
G04 Created by KiCad (PCBNEW 10.0.1) date 2026-05-08 11:49:03*
%MOMM*%
%LPD*%
G01*
G04 APERTURE LIST*
G04 Aperture macros list*
%AMRoundRect*
0 Rectangle with rounded corners*
0 $1 Rounding radius*
0 $2 $3 $4 $5 $6 $7 $8 $9 X,Y pos of 4 corners*
0 Add a 4 corners polygon primitive as box body*
4,1,4,$2,$3,$4,$5,$6,$7,$8,$9,$2,$3,0*
0 Add four circle primitives for the rounded corners*
1,1,$1+$1,$2,$3*
1,1,$1+$1,$4,$5*
1,1,$1+$1,$6,$7*
1,1,$1+$1,$8,$9*
0 Add four rect primitives between the rounded corners*
20,1,$1+$1,$2,$3,$4,$5,0*
20,1,$1+$1,$4,$5,$6,$7,0*
20,1,$1+$1,$6,$7,$8,$9,0*
20,1,$1+$1,$8,$9,$2,$3,0*%
G04 Aperture macros list end*
%TA.AperFunction,WasherPad*%
%ADD10O,1.092200X1.600200*%
%TD*%
%TA.AperFunction,ComponentPad*%
%ADD11C,1.700000*%
%TD*%
%TA.AperFunction,ComponentPad*%
%ADD12RoundRect,0.250000X1.550000X-0.650000X1.550000X0.650000X-1.550000X0.650000X-1.550000X-0.650000X0*%
%TD*%
%TA.AperFunction,ComponentPad*%
%ADD13O,3.600000X1.800000*%
%TD*%
%TA.AperFunction,ComponentPad*%
%ADD14R,1.000000X1.000000*%
%TD*%
%TA.AperFunction,ComponentPad*%
%ADD15C,1.000000*%
%TD*%
%TA.AperFunction,ComponentPad*%
%ADD16R,1.700000X1.700000*%
%TD*%
%TA.AperFunction,ComponentPad*%
%ADD17RoundRect,0.250000X0.550000X-0.550000X0.550000X0.550000X-0.550000X0.550000X-0.550000X-0.550000X0*%
%TD*%
%TA.AperFunction,ComponentPad*%
%ADD18C,1.600000*%
%TD*%
%TA.AperFunction,ViaPad*%
%ADD19C,0.800000*%
%TD*%
%TA.AperFunction,Conductor*%
%ADD20C,0.200000*%
%TD*%
%TA.AperFunction,Conductor*%
%ADD21C,0.250000*%
%TD*%
%TA.AperFunction,Conductor*%
%ADD22C,0.300000*%
%TD*%
%ADD23C,0.150000*%
%ADD24C,0.050000*%
G04 APERTURE END LIST*
D10*
%TO.P,J5,*%
%TO.N,*%
X109674999Y-95290001D03*
X112534999Y-95290001D03*
X109674999Y-87290001D03*
X112534999Y-87290001D03*
%TD*%
D11*
%TO.P,Y4,1,1_1*%
%TO.N,GND*%
X141620000Y-87312000D03*
%TO.P,Y4,2,2_2*%
X146620000Y-87312000D03*
%TD*%
D12*
%TO.P,J8,1,Pin_1_1*%
%TO.N,unconnected-(J8-Pin_1-Pad1)*%
X172957500Y-88070000D03*
D13*
%TO.P,J8,2,Pin_2_2*%
%TO.N,/CAN/CANH*%
X172957500Y-84260000D03*
%TO.P,J8,3,Pin_3_3*%
%TO.N,/CAN/CANL*%
X172957500Y-80450000D03*
%TO.P,J8,4,Pin_4_4*%
%TO.N,GNDD*%
X172957500Y-76640000D03*
%TD*%
D14*
%TO.P,J7,1,VTref_1*%
%TO.N,+3.3V*%
X162060000Y-84222000D03*
D15*
%TO.P,J7,2,SWDIO/TMS_2*%
%TO.N,/MCU/SWDIO*%
X162060000Y-82952000D03*
%TO.P,J7,3,GND_3*%
%TO.N,GND*%
X163330000Y-84222000D03*
%TO.P,J7,4,SWCLK/TCK_4*%
%TO.N,/MCU/SWCLK*%
X163330000Y-82952000D03*
%TO.P,J7,5,GND_5*%
%TO.N,GND*%
X164600000Y-84222000D03*
%TO.P,J7,6,SWO/TDO_6*%
%TO.N,/MCU/SWO*%
X164600000Y-82952000D03*
%TO.P,J7,7,KEY_7*%
%TO.N,unconnected-(J7-KEY-Pad7)*%
X165870000Y-84222000D03*
%TO.P,J7,8,NC/TDI_8*%
%TO.N,unconnected-(J7-NC{slash}TDI-Pad8)*%
X165870000Y-82952000D03*
%TO.P,J7,9,GNDDetect_9*%
%TO.N,GND*%
X167140000Y-84222000D03*
%TO.P,J7,10,~{RESET}_10*%
%TO.N,/MCU/NRST*%
X167140000Y-82952000D03*
%TD*%
D16*
%TO.P,J3,1,Pin_1_1*%
%TO.N,Net-(J3-Pin_1)*%
X174850000Y-107835000D03*
D11*
%TO.P,J3,2,Pin_2_2*%
%TO.N,/CAN/CANH*%
X174850000Y-110375000D03*
%TD*%
D16*
%TO.P,J4,1,Pin_1_1*%
%TO.N,/MCU/BOOT0*%
X168545000Y-75320000D03*
D11*
%TO.P,J4,2,Pin_2_2*%
%TO.N,GND*%
X166005000Y-75320000D03*
%TD*%
D17*
%TO.P,IC5,1,-Vin_1*%
%TO.N,GND*%
X119920000Y-78370000D03*
D18*
%TO.P,IC5,2,+Vin_2*%
%TO.N,+5V*%
X122460000Y-78370000D03*
%TO.P,IC5,3,-Vout_3*%
%TO.N,GNDD*%
X125000000Y-78370000D03*
%TO.P,IC5,4,+Vout_4*%
%TO.N,+5VP*%
X127540000Y-78370000D03*
%TD*%
D19*
%TO.N,+5V*%
X111100000Y-89330000D03*
X108290000Y-92780000D03*
%TO.N,+3.3V*%
X116430000Y-79890000D03*
X160580000Y-75480000D03*
X111320000Y-77370000D03*
X150810000Y-100920000D03*
X165980000Y-95150000D03*
X174520000Y-96450000D03*
X159590000Y-87730000D03*
X145320000Y-73030000D03*
X114630000Y-81800000D03*
X162890000Y-75510000D03*
X170420000Y-107910000D03*
X153340000Y-73150000D03*
X150070000Y-76180000D03*
X176920000Y-94900000D03*
%TO.N,+5V*%
X117680000Y-86610000D03*
X115600000Y-86610000D03*
%TO.N,GND*%
X167060000Y-110710000D03*
X146810000Y-76000000D03*
X168980000Y-93910000D03*
X119000000Y-84820000D03*
X114120000Y-94080000D03*
X141110000Y-90620000D03*
X117320000Y-103740000D03*
X111310000Y-75160000D03*
X176590000Y-92800000D03*
X161210000Y-80290000D03*
X156020000Y-110700000D03*
X110910000Y-93380000D03*
X146760000Y-103680000D03*
X114020000Y-88180000D03*
X171590000Y-92620000D03*
X151440000Y-73130000D03*
X110930000Y-103840000D03*
X140220000Y-80760000D03*
X148200000Y-78880000D03*
X108190000Y-88460000D03*
X156367500Y-104820000D03*
X119010000Y-82520000D03*
X155460000Y-73140000D03*
X118100000Y-111120000D03*
X139670000Y-110620000D03*
X125510000Y-84790000D03*
X117300000Y-91720000D03*
X111970000Y-82540000D03*
X111990000Y-84670000D03*
X161710000Y-110750000D03*
X144920000Y-110650000D03*
X155200000Y-88860000D03*
X144370000Y-84770000D03*
X149960000Y-90600000D03*
X169010000Y-102200000D03*
X150610000Y-110770000D03*
%TO.N,Net-(IC1-PC15-OSC32_OUT)*%
X151760000Y-82530000D03*
X151760000Y-80430000D03*
%TO.N,Net-(IC6-D+_in)*%
X115690000Y-93540000D03*
X111310000Y-91840001D03*
%TO.N,Net-(IC6-D-_in)*%
X113956924Y-91093076D03*
%TO.N,USB_DN*%
X156192437Y-81610025D03*
X117170000Y-89595000D03*
%TO.N,USB_DP*%
X155449975Y-80867563D03*
X117170000Y-88545000D03*
%TO.N,/MCU/SWCLK*%
X157580000Y-76350000D03*
%TO.N,/MCU/SWO*%
X155430000Y-78440000D03*
%TO.N,+5VP*%
X175980000Y-97130000D03*
%TO.N,Net-(IC1-PC14-OSC32_IN)*%
X151352140Y-79228598D03*
X148050000Y-85010000D03*
%TD*%
%TO.N,+5V*%
D20*
X108290000Y-92780000D02*
X108290000Y-92140000D01*
X108290000Y-92140000D02*
X111100000Y-89330000D01*
X117680000Y-86610000D02*
X115600000Y-86610000D01*
%TO.N,Net-(IC1-PC15-OSC32_OUT)*%
D21*
X151760000Y-82530000D02*
X151760000Y-80430000D01*
%TO.N,Net-(IC6-D+_in)*%
X115490000Y-93000000D02*
X115490000Y-93340000D01*
D20*
X111310000Y-91840001D02*
X114330001Y-91840001D01*
D21*
X115490000Y-93000000D02*
X114330001Y-91840001D01*
X115490000Y-93340000D02*
X115690000Y-93540000D01*
%TO.N,Net-(IC6-D-_in)*%
D20*
X114010000Y-91040000D02*
X113956924Y-91093076D01*
%TO.N,USB_DN*%
X156192437Y-81610025D02*
X155768174Y-81610025D01*
X117469999Y-89295001D02*
X117170000Y-89595000D01*
X148083198Y-89295001D02*
X117469999Y-89295001D01*
X155768174Y-81610025D02*
X148083198Y-89295001D01*
%TO.N,USB_DP*%
X155449975Y-80867563D02*
X155449975Y-81291826D01*
X155449975Y-81291826D02*
X147896801Y-88845000D01*
X147896800Y-88844999D02*
X117469999Y-88844999D01*
X147896801Y-88845000D02*
X147896800Y-88844999D01*
X117469999Y-88844999D02*
X117170000Y-88545000D01*
%TO.N,/MCU/SWCLK*%
D22*
X162610000Y-78690000D02*
X163330000Y-79410000D01*
X159920000Y-78690000D02*
X162610000Y-78690000D01*
X157580000Y-76350000D02*
X159920000Y-78690000D01*
X163330000Y-79410000D02*
X163330000Y-82952000D01*
%TO.N,/MCU/SWO*%
X155430000Y-78440000D02*
X155430000Y-77439339D01*
X155430000Y-77439339D02*
X157269339Y-75600000D01*
X157269339Y-75600000D02*
X157890661Y-75600000D01*
X160480661Y-78190000D02*
X162817106Y-78190000D01*
X162817106Y-78190000D02*
X164600000Y-79972894D01*
X164600000Y-79972894D02*
X164600000Y-82952000D01*
X157890661Y-75600000D02*
X160480661Y-78190000D01*
%TO.N,Net-(IC1-PC14-OSC32_IN)*%
D21*
X151020000Y-79350000D02*
X151340000Y-79350000D01*
X148050000Y-85010000D02*
X148050000Y-82320000D01*
X148050000Y-82320000D02*
X151020000Y-79350000D01*
%TD*%
%TA.AperFunction,Conductor*%
%TO.N,+5VP*%
G36*
X177742539Y-71840185D02*
G01*
X177788294Y-71892989D01*
X177799500Y-71944500D01*
X177799500Y-113635500D01*
X177779815Y-113702539D01*
X177727011Y-113748294D01*
X177675500Y-113759500D01*
X105864500Y-113759500D01*
X105797461Y-113739815D01*
X105751706Y-113687011D01*
X105740500Y-113635500D01*
X105740500Y-111040943D01*
X117499500Y-111040943D01*
X117499500Y-111199057D01*
X117534473Y-111329576D01*
X117540423Y-111351783D01*
X117540426Y-111351790D01*
X117619475Y-111488709D01*
X117619479Y-111488714D01*
X117619480Y-111488716D01*
X117731284Y-111600520D01*
X117731286Y-111600521D01*
X117731290Y-111600524D01*
X117868209Y-111679573D01*
X117868216Y-111679577D01*
X118020943Y-111720500D01*
X118020945Y-111720500D01*
X118179055Y-111720500D01*
X118179057Y-111720500D01*
X118331784Y-111679577D01*
X118468716Y-111600520D01*
X118580520Y-111488716D01*
X118659577Y-111351784D01*
X118700500Y-111199057D01*
X118700500Y-111040943D01*
X118659577Y-110888216D01*
X118625422Y-110829057D01*
X118580524Y-110751290D01*
X118580518Y-110751282D01*
X118468717Y-110639481D01*
X118468716Y-110639480D01*
X118331784Y-110560423D01*
X118259084Y-110540943D01*
X139069500Y-110540943D01*
X139069500Y-110699057D01*
X139109693Y-110849057D01*
X139110423Y-110851783D01*
X139110426Y-110851790D01*
X139189475Y-110988709D01*
X139189479Y-110988714D01*
X139189480Y-110988716D01*
X139301284Y-111100520D01*
X139301286Y-111100521D01*
X139301290Y-111100524D01*
X139438209Y-111179573D01*
X139438216Y-111179577D01*
X139590943Y-111220500D01*
X139590945Y-111220500D01*
X139749055Y-111220500D01*
X139749057Y-111220500D01*
X139901784Y-111179577D01*
X140038716Y-111100520D01*
X140150520Y-110988716D01*
X140229577Y-110851784D01*
X140270500Y-110699057D01*
X140270500Y-110570943D01*
X144319500Y-110570943D01*
X144319500Y-110729057D01*
X144352385Y-110851783D01*
X144360423Y-110881783D01*
X144360426Y-110881790D01*
X144439475Y-111018709D01*
X144439479Y-111018714D01*
X144439480Y-111018716D01*
X144551284Y-111130520D01*
X144551286Y-111130521D01*
X144551290Y-111130524D01*
X144688209Y-111209573D01*
X144688216Y-111209577D01*
X144840943Y-111250500D01*
X144840945Y-111250500D01*
X144999055Y-111250500D01*
X144999057Y-111250500D01*
X145151784Y-111209577D01*
X145288716Y-111130520D01*
X145400520Y-111018716D01*
X145479577Y-110881784D01*
X145520500Y-110729057D01*
X145520500Y-110690943D01*
X150009500Y-110690943D01*
X150009500Y-110849057D01*
X150046922Y-110988716D01*
X150050423Y-111001783D01*
X150050426Y-111001790D01*
X150129475Y-111138709D01*
X150129479Y-111138714D01*
X150129480Y-111138716D01*
X150241284Y-111250520D01*
X150241286Y-111250521D01*
X150241290Y-111250524D01*
X150345173Y-111310500D01*
X150378216Y-111329577D01*
X150530943Y-111370500D01*
X150530945Y-111370500D01*
X150689055Y-111370500D01*
X150689057Y-111370500D01*
X150841784Y-111329577D01*
X150978716Y-111250520D01*
X151090520Y-111138716D01*
X151169577Y-111001784D01*
X151210500Y-110849057D01*
X151210500Y-110690943D01*
X151191744Y-110620943D01*
X155419500Y-110620943D01*
X155419500Y-110779057D01*
X155447026Y-110881783D01*
X155460423Y-110931783D01*
X155460426Y-110931790D01*
X155539475Y-111068709D01*
X155539479Y-111068714D01*
X155539480Y-111068716D01*
X155651284Y-111180520D01*
X155651286Y-111180521D01*
X155651290Y-111180524D01*
X155788209Y-111259573D01*
X155788216Y-111259577D01*
X155940943Y-111300500D01*
X155940945Y-111300500D01*
X156099055Y-111300500D01*
X156099057Y-111300500D01*
X156251784Y-111259577D01*
X156388716Y-111180520D01*
X156500520Y-111068716D01*
X156579577Y-110931784D01*
X156620500Y-110779057D01*
X156620500Y-110670943D01*
X161109500Y-110670943D01*
X161109500Y-110829057D01*
X161137026Y-110931783D01*
X161150423Y-110981783D01*
X161150426Y-110981790D01*
X161229475Y-111118709D01*
X161229479Y-111118714D01*
X161229480Y-111118716D01*
X161341284Y-111230520D01*
X161341286Y-111230521D01*
X161341290Y-111230524D01*
X161408933Y-111269577D01*
X161478216Y-111309577D01*
X161630943Y-111350500D01*
X161630945Y-111350500D01*
X161789055Y-111350500D01*
X161789057Y-111350500D01*
X161941784Y-111309577D01*
X162078716Y-111230520D01*
X162190520Y-111118716D01*
X162269577Y-110981784D01*
X162310500Y-110829057D01*
X162310500Y-110670943D01*
X162299782Y-110630943D01*
X166459500Y-110630943D01*
X166459500Y-110789057D01*
X166497744Y-110931783D01*
X166500423Y-110941783D01*
X166500426Y-110941790D01*
X166579475Y-111078709D01*
X166579479Y-111078714D01*
X166579480Y-111078716D01*
X166691284Y-111190520D01*
X166691286Y-111190521D01*
X166691290Y-111190524D01*
X166810895Y-111259577D01*
X166828216Y-111269577D01*
X166980943Y-111310500D01*
X166980945Y-111310500D01*
X167139055Y-111310500D01*
X167139057Y-111310500D01*
X167291784Y-111269577D01*
X167428716Y-111190520D01*
X167540520Y-111078716D01*
X167619577Y-110941784D01*
X167660500Y-110789057D01*
X167660500Y-110630943D01*
X167619577Y-110478216D01*
X167613800Y-110468209D01*
X167540523Y-110341287D01*
X167470766Y-110271530D01*
X173799500Y-110271530D01*
X173799500Y-110478469D01*
X173839868Y-110681412D01*
X173839870Y-110681420D01*
X173919058Y-110872596D01*
X174034024Y-111044657D01*
X174180342Y-111190975D01*
X174180345Y-111190977D01*
X174352402Y-111305941D01*
X174543580Y-111385130D01*
X174746530Y-111425499D01*
X174746534Y-111425500D01*
X174746535Y-111425500D01*
X174953466Y-111425500D01*
X174953467Y-111425499D01*
X175156420Y-111385130D01*
X175347598Y-111305941D01*
X175519655Y-111190977D01*
X175665977Y-111044655D01*
X175780941Y-110872598D01*
X175860130Y-110681420D01*
X175900500Y-110478465D01*
X175900500Y-110271535D01*
X175860130Y-110068580D01*
X175780941Y-109877402D01*
X175665977Y-109705345D01*
X175665975Y-109705342D01*
X175519657Y-109559024D01*
X175433626Y-109501541D01*
X175347598Y-109444059D01*
X175156420Y-109364870D01*
X175156412Y-109364868D01*
X174953469Y-109324500D01*
X174953465Y-109324500D01*
X174746535Y-109324500D01*
X174746530Y-109324500D01*
X174543587Y-109364868D01*
X174543579Y-109364870D01*
X174352403Y-109444058D01*
X174180342Y-109559024D01*
X174034024Y-109705342D01*
X173919058Y-109877403D01*
X173839870Y-110068579D01*
X173839868Y-110068587D01*
X173799500Y-110271530D01*
X167470766Y-110271530D01*
X167428717Y-110229481D01*
X167428709Y-110229475D01*
X167291790Y-110150426D01*
X167291786Y-110150424D01*
X167291784Y-110150423D01*
X167139057Y-110109500D01*
X166980943Y-110109500D01*
X166828216Y-110150423D01*
X166828209Y-110150426D01*
X166691290Y-110229475D01*
X166691282Y-110229481D01*
X166579481Y-110341282D01*
X166579475Y-110341290D01*
X166500426Y-110478209D01*
X166500423Y-110478216D01*
X166459500Y-110630943D01*
X162299782Y-110630943D01*
X162269577Y-110518216D01*
X162211843Y-110418216D01*
X162190524Y-110381290D01*
X162190518Y-110381282D01*
X162078717Y-110269481D01*
X162078709Y-110269475D01*
X161941790Y-110190426D01*
X161941786Y-110190424D01*
X161941784Y-110190423D01*
X161789057Y-110149500D01*
X161630943Y-110149500D01*
X161478216Y-110190423D01*
X161478209Y-110190426D01*
X161341290Y-110269475D01*
X161341282Y-110269481D01*
X161229481Y-110381282D01*
X161229475Y-110381290D01*
X161150426Y-110518209D01*
X161150423Y-110518216D01*
X161109500Y-110670943D01*
X156620500Y-110670943D01*
X156620500Y-110620943D01*
X156579577Y-110468216D01*
X156540933Y-110401282D01*
X156500524Y-110331290D01*
X156500518Y-110331282D01*
X156388717Y-110219481D01*
X156388709Y-110219475D01*
X156251790Y-110140426D01*
X156251786Y-110140424D01*
X156251784Y-110140423D01*
X156099057Y-110099500D01*
X155940943Y-110099500D01*
X155788216Y-110140423D01*
X155788209Y-110140426D01*
X155651290Y-110219475D01*
X155651282Y-110219481D01*
X155539481Y-110331282D01*
X155539475Y-110331290D01*
X155460426Y-110468209D01*
X155460423Y-110468216D01*
X155419500Y-110620943D01*
X151191744Y-110620943D01*
X151169577Y-110538216D01*
X151169573Y-110538209D01*
X151090524Y-110401290D01*
X151090518Y-110401282D01*
X150978717Y-110289481D01*
X150978709Y-110289475D01*
X150841790Y-110210426D01*
X150841786Y-110210424D01*
X150841784Y-110210423D01*
X150689057Y-110169500D01*
X150530943Y-110169500D01*
X150378216Y-110210423D01*
X150378209Y-110210426D01*
X150241290Y-110289475D01*
X150241282Y-110289481D01*
X150129481Y-110401282D01*
X150129475Y-110401290D01*
X150050426Y-110538209D01*
X150050424Y-110538214D01*
X150050423Y-110538216D01*
X150009500Y-110690943D01*
X145520500Y-110690943D01*
X145520500Y-110570943D01*
X145479577Y-110418216D01*
X145458258Y-110381290D01*
X145400524Y-110281290D01*
X145400518Y-110281282D01*
X145288717Y-110169481D01*
X145288709Y-110169475D01*
X145151790Y-110090426D01*
X145151786Y-110090424D01*
X145151784Y-110090423D01*
X144999057Y-110049500D01*
X144840943Y-110049500D01*
X144688216Y-110090423D01*
X144688209Y-110090426D01*
X144551290Y-110169475D01*
X144551282Y-110169481D01*
X144439481Y-110281282D01*
X144439475Y-110281290D01*
X144360426Y-110418209D01*
X144360423Y-110418216D01*
X144319500Y-110570943D01*
X140270500Y-110570943D01*
X140270500Y-110540943D01*
X140229577Y-110388216D01*
X140196708Y-110331284D01*
X140150524Y-110251290D01*
X140150518Y-110251282D01*
X140038717Y-110139481D01*
X140038709Y-110139475D01*
X139901790Y-110060426D01*
X139901786Y-110060424D01*
X139901784Y-110060423D01*
X139749057Y-110019500D01*
X139590943Y-110019500D01*
X139438216Y-110060423D01*
X139438209Y-110060426D01*
X139301290Y-110139475D01*
X139301282Y-110139481D01*
X139189481Y-110251282D01*
X139189475Y-110251290D01*
X139110426Y-110388209D01*
X139110423Y-110388216D01*
X139069500Y-110540943D01*
X118259084Y-110540943D01*
X118179057Y-110519500D01*
X118020943Y-110519500D01*
X117868216Y-110560423D01*
X117868209Y-110560426D01*
X117731290Y-110639475D01*
X117731282Y-110639481D01*
X117619481Y-110751282D01*
X117619475Y-110751290D01*
X117540426Y-110888209D01*
X117540423Y-110888216D01*
X117499500Y-111040943D01*
X105740500Y-111040943D01*
X105740500Y-107830943D01*
X169819500Y-107830943D01*
X169819500Y-107989056D01*
X169860423Y-108141783D01*
X169860426Y-108141790D01*
X169939475Y-108278709D01*
X169939479Y-108278714D01*
X169939480Y-108278716D01*
X170051284Y-108390520D01*
X170051286Y-108390521D01*
X170051290Y-108390524D01*
X170188209Y-108469573D01*
X170188216Y-108469577D01*
X170340943Y-108510500D01*
X170340945Y-108510500D01*
X170499055Y-108510500D01*
X170499057Y-108510500D01*
X170651784Y-108469577D01*
X170788716Y-108390520D01*
X170900520Y-108278716D01*
X170979577Y-108141784D01*
X171020500Y-107989057D01*
X171020500Y-107830943D01*
X170979577Y-107678216D01*
X170979573Y-107678209D01*
X170900524Y-107541290D01*
X170900518Y-107541282D01*
X170788717Y-107429481D01*
X170788709Y-107429475D01*
X170651790Y-107350426D01*
X170651786Y-107350424D01*
X170651784Y-107350423D01*
X170499057Y-107309500D01*
X170340943Y-107309500D01*
X170188216Y-107350423D01*
X170188209Y-107350426D01*
X170051290Y-107429475D01*
X170051282Y-107429481D01*
X169939481Y-107541282D01*
X169939475Y-107541290D01*
X169860426Y-107678209D01*
X169860423Y-107678216D01*
X169819500Y-107830943D01*
X105740500Y-107830943D01*
X105740500Y-106965247D01*
X173799500Y-106965247D01*
X173799500Y-108704752D01*
X173811131Y-108763229D01*
X173811132Y-108763230D01*
X173855447Y-108829552D01*
X173921769Y-108873867D01*
X173921770Y-108873868D01*
X173980247Y-108885499D01*
X173980250Y-108885500D01*
X173980252Y-108885500D01*
X175719750Y-108885500D01*
X175719751Y-108885499D01*
X175734568Y-108882552D01*
X175778229Y-108873868D01*
X175778229Y-108873867D01*
X175778231Y-108873867D01*
X175844552Y-108829552D01*
X175888867Y-108763231D01*
X175888867Y-108763229D01*
X175888868Y-108763229D01*
X175900499Y-108704752D01*
X175900500Y-108704750D01*
X175900500Y-106965249D01*
X175900499Y-106965247D01*
X175888868Y-106906770D01*
X175888867Y-106906769D01*
X175844552Y-106840447D01*
X175778230Y-106796132D01*
X175778229Y-106796131D01*
X175719752Y-106784500D01*
X175719748Y-106784500D01*
X173980252Y-106784500D01*
X173980247Y-106784500D01*
X173921770Y-106796131D01*
X173921769Y-106796132D01*
X173855447Y-106840447D01*
X173811132Y-106906769D01*
X173811131Y-106906770D01*
X173799500Y-106965247D01*
X105740500Y-106965247D01*
X105740500Y-104740943D01*
X155767000Y-104740943D01*
X155767000Y-104899056D01*
X155807923Y-105051783D01*
X155807926Y-105051790D01*
X155886975Y-105188709D01*
X155886979Y-105188714D01*
X155886980Y-105188716D01*
X155998784Y-105300520D01*
X155998786Y-105300521D01*
X155998790Y-105300524D01*
X156135709Y-105379573D01*
X156135716Y-105379577D01*
X156288443Y-105420500D01*
X156288445Y-105420500D01*
X156446555Y-105420500D01*
X156446557Y-105420500D01*
X156599284Y-105379577D01*
X156736216Y-105300520D01*
X156848020Y-105188716D01*
X156927077Y-105051784D01*
X156968000Y-104899057D01*
X156968000Y-104740943D01*
X156927077Y-104588216D01*
X156927073Y-104588209D01*
X156848024Y-104451290D01*
X156848018Y-104451282D01*
X156736217Y-104339481D01*
X156736209Y-104339475D01*
X156599290Y-104260426D01*
X156599286Y-104260424D01*
X156599284Y-104260423D01*
X156446557Y-104219500D01*
X156288443Y-104219500D01*
X156135716Y-104260423D01*
X156135709Y-104260426D01*
X155998790Y-104339475D01*
X155998782Y-104339481D01*
X155886981Y-104451282D01*
X155886975Y-104451290D01*
X155807926Y-104588209D01*
X155807923Y-104588216D01*
X155767000Y-104740943D01*
X105740500Y-104740943D01*
X105740500Y-103760943D01*
X110329500Y-103760943D01*
X110329500Y-103919056D01*
X110370423Y-104071783D01*
X110370426Y-104071790D01*
X110449475Y-104208709D01*
X110449479Y-104208714D01*
X110449480Y-104208716D01*
X110561284Y-104320520D01*
X110561286Y-104320521D01*
X110561290Y-104320524D01*
X110698209Y-104399573D01*
X110698216Y-104399577D01*
X110850943Y-104440500D01*
X110850945Y-104440500D01*
X111009055Y-104440500D01*
X111009057Y-104440500D01*
X111161784Y-104399577D01*
X111298716Y-104320520D01*
X111410520Y-104208716D01*
X111489577Y-104071784D01*
X111530500Y-103919057D01*
X111530500Y-103760943D01*
X111503705Y-103660943D01*
X116719500Y-103660943D01*
X116719500Y-103819057D01*
X116746295Y-103919055D01*
X116760423Y-103971783D01*
X116760426Y-103971790D01*
X116839475Y-104108709D01*
X116839479Y-104108714D01*
X116839480Y-104108716D01*
X116951284Y-104220520D01*
X116951286Y-104220521D01*
X116951290Y-104220524D01*
X117055173Y-104280500D01*
X117088216Y-104299577D01*
X117240943Y-104340500D01*
X117240945Y-104340500D01*
X117399055Y-104340500D01*
X117399057Y-104340500D01*
X117551784Y-104299577D01*
X117688716Y-104220520D01*
X117800520Y-104108716D01*
X117879577Y-103971784D01*
X117920500Y-103819057D01*
X117920500Y-103660943D01*
X117904423Y-103600943D01*
X146159500Y-103600943D01*
X146159500Y-103759057D01*
X146175577Y-103819055D01*
X146200423Y-103911783D01*
X146200426Y-103911790D01*
X146279475Y-104048709D01*
X146279479Y-104048714D01*
X146279480Y-104048716D01*
X146391284Y-104160520D01*
X146391286Y-104160521D01*
X146391290Y-104160524D01*
X146495208Y-104220520D01*
X146528216Y-104239577D01*
X146680943Y-104280500D01*
X146680945Y-104280500D01*
X146839055Y-104280500D01*
X146839057Y-104280500D01*
X146991784Y-104239577D01*
X147128716Y-104160520D01*
X147240520Y-104048716D01*
X147319577Y-103911784D01*
X147360500Y-103759057D01*
X147360500Y-103600943D01*
X147319577Y-103448216D01*
X147275160Y-103371282D01*
X147240524Y-103311290D01*
X147240518Y-103311282D01*
X147128717Y-103199481D01*
X147128709Y-103199475D01*
X146991790Y-103120426D01*
X146991786Y-103120424D01*
X146991784Y-103120423D01*
X146839057Y-103079500D01*
X146680943Y-103079500D01*
X146528216Y-103120423D01*
X146528209Y-103120426D01*
X146391290Y-103199475D01*
X146391282Y-103199481D01*
X146279481Y-103311282D01*
X146279475Y-103311290D01*
X146200426Y-103448209D01*
X146200423Y-103448216D01*
X146159500Y-103600943D01*
X117904423Y-103600943D01*
X117879577Y-103508216D01*
X117858258Y-103471290D01*
X117800524Y-103371290D01*
X117800518Y-103371282D01*
X117688717Y-103259481D01*
X117688709Y-103259475D01*
X117551790Y-103180426D01*
X117551786Y-103180424D01*
X117551784Y-103180423D01*
X117399057Y-103139500D01*
X117240943Y-103139500D01*
X117088216Y-103180423D01*
X117088209Y-103180426D01*
X116951290Y-103259475D01*
X116951282Y-103259481D01*
X116839481Y-103371282D01*
X116839475Y-103371290D01*
X116760426Y-103508209D01*
X116760423Y-103508216D01*
X116719500Y-103660943D01*
X111503705Y-103660943D01*
X111489577Y-103608216D01*
X111431843Y-103508216D01*
X111410524Y-103471290D01*
X111410518Y-103471282D01*
X111298717Y-103359481D01*
X111298709Y-103359475D01*
X111161790Y-103280426D01*
X111161786Y-103280424D01*
X111161784Y-103280423D01*
X111009057Y-103239500D01*
X110850943Y-103239500D01*
X110698216Y-103280423D01*
X110698209Y-103280426D01*
X110561290Y-103359475D01*
X110561282Y-103359481D01*
X110449481Y-103471282D01*
X110449475Y-103471290D01*
X110370426Y-103608209D01*
X110370423Y-103608216D01*
X110329500Y-103760943D01*
X105740500Y-103760943D01*
X105740500Y-102120943D01*
X168409500Y-102120943D01*
X168409500Y-102279056D01*
X168450423Y-102431783D01*
X168450426Y-102431790D01*
X168529475Y-102568709D01*
X168529479Y-102568714D01*
X168529480Y-102568716D01*
X168641284Y-102680520D01*
X168641286Y-102680521D01*
X168641290Y-102680524D01*
X168778209Y-102759573D01*
X168778216Y-102759577D01*
X168930943Y-102800500D01*
X168930945Y-102800500D01*
X169089055Y-102800500D01*
X169089057Y-102800500D01*
X169241784Y-102759577D01*
X169378716Y-102680520D01*
X169490520Y-102568716D01*
X169569577Y-102431784D01*
X169610500Y-102279057D01*
X169610500Y-102120943D01*
X169569577Y-101968216D01*
X169569573Y-101968209D01*
X169490524Y-101831290D01*
X169490518Y-101831282D01*
X169378717Y-101719481D01*
X169378709Y-101719475D01*
X169241790Y-101640426D01*
X169241786Y-101640424D01*
X169241784Y-101640423D01*
X169089057Y-101599500D01*
X168930943Y-101599500D01*
X168778216Y-101640423D01*
X168778209Y-101640426D01*
X168641290Y-101719475D01*
X168641282Y-101719481D01*
X168529481Y-101831282D01*
X168529475Y-101831290D01*
X168450426Y-101968209D01*
X168450423Y-101968216D01*
X168409500Y-102120943D01*
X105740500Y-102120943D01*
X105740500Y-100840943D01*
X150209500Y-100840943D01*
X150209500Y-100999056D01*
X150250423Y-101151783D01*
X150250426Y-101151790D01*
X150329475Y-101288709D01*
X150329479Y-101288714D01*
X150329480Y-101288716D01*
X150441284Y-101400520D01*
X150441286Y-101400521D01*
X150441290Y-101400524D01*
X150578209Y-101479573D01*
X150578216Y-101479577D01*
X150730943Y-101520500D01*
X150730945Y-101520500D01*
X150889055Y-101520500D01*
X150889057Y-101520500D01*
X151041784Y-101479577D01*
X151178716Y-101400520D01*
X151290520Y-101288716D01*
X151369577Y-101151784D01*
X151410500Y-100999057D01*
X151410500Y-100840943D01*
X151369577Y-100688216D01*
X151369573Y-100688209D01*
X151290524Y-100551290D01*
X151290518Y-100551282D01*
X151178717Y-100439481D01*
X151178709Y-100439475D01*
X151041790Y-100360426D01*
X151041786Y-100360424D01*
X151041784Y-100360423D01*
X150889057Y-100319500D01*
X150730943Y-100319500D01*
X150578216Y-100360423D01*
X150578209Y-100360426D01*
X150441290Y-100439475D01*
X150441282Y-100439481D01*
X150329481Y-100551282D01*
X150329475Y-100551290D01*
X150250426Y-100688209D01*
X150250423Y-100688216D01*
X150209500Y-100840943D01*
X105740500Y-100840943D01*
X105740500Y-96370943D01*
X173919500Y-96370943D01*
X173919500Y-96529056D01*
X173960423Y-96681783D01*
X173960426Y-96681790D01*
X174039475Y-96818709D01*
X174039479Y-96818714D01*
X174039480Y-96818716D01*
X174151284Y-96930520D01*
X174151286Y-96930521D01*
X174151290Y-96930524D01*
X174288209Y-97009573D01*
X174288216Y-97009577D01*
X174440943Y-97050500D01*
X174440945Y-97050500D01*
X174599055Y-97050500D01*
X174599057Y-97050500D01*
X174751784Y-97009577D01*
X174888716Y-96930520D01*
X175000520Y-96818716D01*
X175079577Y-96681784D01*
X175120500Y-96529057D01*
X175120500Y-96370943D01*
X175079577Y-96218216D01*
X175072308Y-96205625D01*
X175000524Y-96081290D01*
X175000518Y-96081282D01*
X174888717Y-95969481D01*
X174888709Y-95969475D01*
X174751790Y-95890426D01*
X174751786Y-95890424D01*
X174751784Y-95890423D01*
X174599057Y-95849500D01*
X174440943Y-95849500D01*
X174288216Y-95890423D01*
X174288209Y-95890426D01*
X174151290Y-95969475D01*
X174151282Y-95969481D01*
X174039481Y-96081282D01*
X174039475Y-96081290D01*
X173960426Y-96218209D01*
X173960423Y-96218216D01*
X173919500Y-96370943D01*
X105740500Y-96370943D01*
X105740500Y-95617537D01*
X108928398Y-95617537D01*
X108957089Y-95761770D01*
X108957092Y-95761780D01*
X109013367Y-95897641D01*
X109013374Y-95897654D01*
X109095076Y-96019929D01*
X109095079Y-96019933D01*
X109199066Y-96123920D01*
X109199070Y-96123923D01*
X109321345Y-96205625D01*
X109321358Y-96205632D01*
X109424260Y-96248255D01*
X109457224Y-96261909D01*
X109457228Y-96261909D01*
X109457229Y-96261910D01*
X109601462Y-96290601D01*
X109601465Y-96290601D01*
X109748535Y-96290601D01*
X109845570Y-96271298D01*
X109892774Y-96261909D01*
X110028646Y-96205629D01*
X110150928Y-96123923D01*
X110254921Y-96019930D01*
X110336627Y-95897648D01*
X110339619Y-95890426D01*
X110349378Y-95866862D01*
X110392907Y-95761776D01*
X110409077Y-95680486D01*
X110441462Y-95618575D01*
X110502177Y-95584001D01*
X110571947Y-95587740D01*
X110628619Y-95628606D01*
X110638080Y-95642675D01*
X110640320Y-95646555D01*
X110640322Y-95646558D01*
X110640323Y-95646559D01*
X110748441Y-95754677D01*
X110748442Y-95754678D01*
X110748444Y-95754679D01*
X110814649Y-95792902D01*
X110880857Y-95831127D01*
X111028548Y-95870701D01*
X111028551Y-95870701D01*
X111181447Y-95870701D01*
X111181450Y-95870701D01*
X111329141Y-95831127D01*
X111461557Y-95754677D01*
X111569675Y-95646559D01*
X111571913Y-95642681D01*
X111622478Y-95594464D01*
X111691084Y-95581238D01*
X111755950Y-95607203D01*
X111796481Y-95664115D01*
X111800920Y-95680485D01*
X111817089Y-95761770D01*
X111817092Y-95761780D01*
X111873367Y-95897641D01*
X111873374Y-95897654D01*
X111955076Y-96019929D01*
X111955079Y-96019933D01*
X112059066Y-96123920D01*
X112059070Y-96123923D01*
X112181345Y-96205625D01*
X112181358Y-96205632D01*
X112284260Y-96248255D01*
X112317224Y-96261909D01*
X112317228Y-96261909D01*
X112317229Y-96261910D01*
X112461462Y-96290601D01*
X112461465Y-96290601D01*
X112608535Y-96290601D01*
X112705570Y-96271298D01*
X112752774Y-96261909D01*
X112888646Y-96205629D01*
X113010928Y-96123923D01*
X113114921Y-96019930D01*
X113196627Y-95897648D01*
X113199619Y-95890426D01*
X113209378Y-95866862D01*
X113252907Y-95761776D01*
X113269077Y-95680485D01*
X113281599Y-95617537D01*
X113281599Y-95070943D01*
X165379500Y-95070943D01*
X165379500Y-95229057D01*
X165420086Y-95380524D01*
X165420423Y-95381783D01*
X165420426Y-95381790D01*
X165499475Y-95518709D01*
X165499479Y-95518714D01*
X165499480Y-95518716D01*
X165611284Y-95630520D01*
X165611286Y-95630521D01*
X165611290Y-95630524D01*
X165697828Y-95680486D01*
X165748216Y-95709577D01*
X165900943Y-95750500D01*
X165900945Y-95750500D01*
X166059055Y-95750500D01*
X166059057Y-95750500D01*
X166211784Y-95709577D01*
X166348716Y-95630520D01*
X166460520Y-95518716D01*
X166539577Y-95381784D01*
X166580500Y-95229057D01*
X166580500Y-95070943D01*
X166539577Y-94918216D01*
X166483417Y-94820943D01*
X176319500Y-94820943D01*
X176319500Y-94979057D01*
X176344122Y-95070945D01*
X176360423Y-95131783D01*
X176360426Y-95131790D01*
X176439475Y-95268709D01*
X176439479Y-95268714D01*
X176439480Y-95268716D01*
X176551284Y-95380520D01*
X176551286Y-95380521D01*
X176551290Y-95380524D01*
X176688209Y-95459573D01*
X176688216Y-95459577D01*
X176840943Y-95500500D01*
X176840945Y-95500500D01*
X176999055Y-95500500D01*
X176999057Y-95500500D01*
X177151784Y-95459577D01*
X177288716Y-95380520D01*
X177400520Y-95268716D01*
X177479577Y-95131784D01*
X177520500Y-94979057D01*
X177520500Y-94820943D01*
X177479577Y-94668216D01*
X177479573Y-94668209D01*
X177400524Y-94531290D01*
X177400518Y-94531282D01*
X177288717Y-94419481D01*
X177288709Y-94419475D01*
X177151790Y-94340426D01*
X177151786Y-94340424D01*
X177151784Y-94340423D01*
X176999057Y-94299500D01*
X176840943Y-94299500D01*
X176688216Y-94340423D01*
X176688209Y-94340426D01*
X176551290Y-94419475D01*
X176551282Y-94419481D01*
X176439481Y-94531282D01*
X176439475Y-94531290D01*
X176360426Y-94668209D01*
X176360423Y-94668216D01*
X176319500Y-94820943D01*
X166483417Y-94820943D01*
X166460520Y-94781284D01*
X166348716Y-94669480D01*
X166348714Y-94669479D01*
X166348709Y-94669475D01*
X166211790Y-94590426D01*
X166211786Y-94590424D01*
X166211784Y-94590423D01*
X166059057Y-94549500D01*
X165900943Y-94549500D01*
X165748216Y-94590423D01*
X165748209Y-94590426D01*
X165611290Y-94669475D01*
X165611282Y-94669481D01*
X165499481Y-94781282D01*
X165499475Y-94781290D01*
X165420426Y-94918209D01*
X165420423Y-94918216D01*
X165379500Y-95070943D01*
X113281599Y-95070943D01*
X113281599Y-94962464D01*
X113252908Y-94818231D01*
X113252907Y-94818230D01*
X113252907Y-94818226D01*
X113237604Y-94781282D01*
X113196630Y-94682360D01*
X113196623Y-94682347D01*
X113114921Y-94560072D01*
X113114918Y-94560068D01*
X113010931Y-94456081D01*
X113010927Y-94456078D01*
X112888652Y-94374376D01*
X112888639Y-94374369D01*
X112752778Y-94318094D01*
X112752768Y-94318091D01*
X112608535Y-94289401D01*
X112608533Y-94289401D01*
X112461465Y-94289401D01*
X112461463Y-94289401D01*
X112317229Y-94318091D01*
X112317219Y-94318094D01*
X112181358Y-94374369D01*
X112181345Y-94374376D01*
X112059070Y-94456078D01*
X112059066Y-94456081D01*
X111955079Y-94560068D01*
X111955076Y-94560072D01*
X111873374Y-94682347D01*
X111873367Y-94682360D01*
X111817092Y-94818221D01*
X111817089Y-94818230D01*
X111800920Y-94899517D01*
X111768534Y-94961427D01*
X111707818Y-94996001D01*
X111638049Y-94992260D01*
X111581377Y-94951393D01*
X111571915Y-94937323D01*
X111569678Y-94933449D01*
X111569675Y-94933443D01*
X111461557Y-94825325D01*
X111461556Y-94825324D01*
X111461553Y-94825322D01*
X111329143Y-94748876D01*
X111329142Y-94748875D01*
X111292218Y-94738981D01*
X111181450Y-94709301D01*
X111028548Y-94709301D01*
X110939933Y-94733045D01*
X110880855Y-94748875D01*
X110880854Y-94748876D01*
X110748444Y-94825322D01*
X110748439Y-94825326D01*
X110640324Y-94933441D01*
X110640318Y-94933449D01*
X110638077Y-94937331D01*
X110587507Y-94985543D01*
X110518899Y-94998762D01*
X110454036Y-94972790D01*
X110413511Y-94915873D01*
X110409077Y-94899515D01*
X110394319Y-94825325D01*
X110392907Y-94818226D01*
X110377604Y-94781282D01*
X110336630Y-94682360D01*
X110336623Y-94682347D01*
X110254921Y-94560072D01*
X110254918Y-94560068D01*
X110150931Y-94456081D01*
X110150927Y-94456078D01*
X110028652Y-94374376D01*
X110028639Y-94374369D01*
X109892778Y-94318094D01*
X109892768Y-94318091D01*
X109748535Y-94289401D01*
X109748533Y-94289401D01*
X109601465Y-94289401D01*
X109601463Y-94289401D01*
X109457229Y-94318091D01*
X109457219Y-94318094D01*
X109321358Y-94374369D01*
X109321345Y-94374376D01*
X109199070Y-94456078D01*
X109199066Y-94456081D01*
X109095079Y-94560068D01*
X109095076Y-94560072D01*
X109013374Y-94682347D01*
X109013367Y-94682360D01*
X108957092Y-94818221D01*
X108957089Y-94818231D01*
X108928399Y-94962464D01*
X108928399Y-94962467D01*
X108928399Y-95617535D01*
X108928399Y-95617537D01*
X108928398Y-95617537D01*
X105740500Y-95617537D01*
X105740500Y-94000943D01*
X113519500Y-94000943D01*
X113519500Y-94159057D01*
X113551563Y-94278716D01*
X113560423Y-94311783D01*
X113560426Y-94311790D01*
X113639475Y-94448709D01*
X113639479Y-94448714D01*
X113639480Y-94448716D01*
X113751284Y-94560520D01*
X113751286Y-94560521D01*
X113751290Y-94560524D01*
X113803083Y-94590426D01*
X113888216Y-94639577D01*
X114040943Y-94680500D01*
X114040945Y-94680500D01*
X114199055Y-94680500D01*
X114199057Y-94680500D01*
X114351784Y-94639577D01*
X114488716Y-94560520D01*
X114600520Y-94448716D01*
X114679577Y-94311784D01*
X114720500Y-94159057D01*
X114720500Y-94000943D01*
X114679577Y-93848216D01*
X114635453Y-93771790D01*
X114600524Y-93711290D01*
X114600518Y-93711282D01*
X114488717Y-93599481D01*
X114488709Y-93599475D01*
X114351790Y-93520426D01*
X114351786Y-93520424D01*
X114351784Y-93520423D01*
X114199057Y-93479500D01*
X114040943Y-93479500D01*
X113888216Y-93520423D01*
X113888209Y-93520426D01*
X113751290Y-93599475D01*
X113751282Y-93599481D01*
X113639481Y-93711282D01*
X113639475Y-93711290D01*
X113560426Y-93848209D01*
X113560423Y-93848216D01*
X113519500Y-94000943D01*
X105740500Y-94000943D01*
X105740500Y-92700943D01*
X107689500Y-92700943D01*
X107689500Y-92859057D01*
X107730289Y-93011282D01*
X107730423Y-93011783D01*
X107730426Y-93011790D01*
X107809475Y-93148709D01*
X107809479Y-93148714D01*
X107809480Y-93148716D01*
X107921284Y-93260520D01*
X107921286Y-93260521D01*
X107921290Y-93260524D01*
X108058209Y-93339573D01*
X108058216Y-93339577D01*
X108210943Y-93380500D01*
X108210945Y-93380500D01*
X108369055Y-93380500D01*
X108369057Y-93380500D01*
X108521784Y-93339577D01*
X108588701Y-93300943D01*
X110309500Y-93300943D01*
X110309500Y-93459057D01*
X110347127Y-93599481D01*
X110350423Y-93611783D01*
X110350426Y-93611790D01*
X110429475Y-93748709D01*
X110429479Y-93748714D01*
X110429480Y-93748716D01*
X110541284Y-93860520D01*
X110541286Y-93860521D01*
X110541290Y-93860524D01*
X110624764Y-93908717D01*
X110678216Y-93939577D01*
X110830943Y-93980500D01*
X110830945Y-93980500D01*
X110989055Y-93980500D01*
X110989057Y-93980500D01*
X111141784Y-93939577D01*
X111278716Y-93860520D01*
X111390520Y-93748716D01*
X111469577Y-93611784D01*
X111510500Y-93459057D01*
X111510500Y-93300943D01*
X111469577Y-93148216D01*
X111442039Y-93100518D01*
X111390524Y-93011290D01*
X111390518Y-93011282D01*
X111278717Y-92899481D01*
X111278709Y-92899475D01*
X111141790Y-92820426D01*
X111141786Y-92820424D01*
X111141784Y-92820423D01*
X110989057Y-92779500D01*
X110830943Y-92779500D01*
X110678216Y-92820423D01*
X110678209Y-92820426D01*
X110541290Y-92899475D01*
X110541282Y-92899481D01*
X110429481Y-93011282D01*
X110429475Y-93011290D01*
X110350426Y-93148209D01*
X110350423Y-93148216D01*
X110309500Y-93300943D01*
X108588701Y-93300943D01*
X108658716Y-93260520D01*
X108770520Y-93148716D01*
X108849577Y-93011784D01*
X108890500Y-92859057D01*
X108890500Y-92700943D01*
X108849577Y-92548216D01*
X108845378Y-92540943D01*
X108770524Y-92411290D01*
X108770518Y-92411282D01*
X108694784Y-92335548D01*
X108661299Y-92274225D01*
X108666283Y-92204533D01*
X108694784Y-92160186D01*
X109094026Y-91760944D01*
X110709500Y-91760944D01*
X110709500Y-91919058D01*
X110747380Y-92060426D01*
X110750423Y-92071784D01*
X110750426Y-92071791D01*
X110829475Y-92208710D01*
X110829479Y-92208715D01*
X110829480Y-92208717D01*
X110941284Y-92320521D01*
X110941286Y-92320522D01*
X110941290Y-92320525D01*
X111058524Y-92388209D01*
X111078216Y-92399578D01*
X111230943Y-92440501D01*
X111230945Y-92440501D01*
X111389055Y-92440501D01*
X111389057Y-92440501D01*
X111541784Y-92399578D01*
X111678716Y-92320521D01*
X111790520Y-92208717D01*
X111794108Y-92202501D01*
X111844675Y-92154286D01*
X111901496Y-92140501D01*
X114118812Y-92140501D01*
X114185851Y-92160186D01*
X114206493Y-92176820D01*
X115128181Y-93098508D01*
X115142884Y-93125435D01*
X115159477Y-93151254D01*
X115160368Y-93157454D01*
X115161666Y-93159831D01*
X115164500Y-93186189D01*
X115164500Y-93215966D01*
X115147888Y-93277964D01*
X115130425Y-93308211D01*
X115130423Y-93308216D01*
X115089500Y-93460943D01*
X115089500Y-93619056D01*
X115130423Y-93771783D01*
X115130426Y-93771790D01*
X115209475Y-93908709D01*
X115209479Y-93908714D01*
X115209480Y-93908716D01*
X115321284Y-94020520D01*
X115321286Y-94020521D01*
X115321290Y-94020524D01*
X115458209Y-94099573D01*
X115458216Y-94099577D01*
X115610943Y-94140500D01*
X115610945Y-94140500D01*
X115769055Y-94140500D01*
X115769057Y-94140500D01*
X115921784Y-94099577D01*
X116058716Y-94020520D01*
X116170520Y-93908716D01*
X116215422Y-93830943D01*
X168379500Y-93830943D01*
X168379500Y-93989057D01*
X168409114Y-94099576D01*
X168420423Y-94141783D01*
X168420426Y-94141790D01*
X168499475Y-94278709D01*
X168499479Y-94278714D01*
X168499480Y-94278716D01*
X168611284Y-94390520D01*
X168611286Y-94390521D01*
X168611290Y-94390524D01*
X168724840Y-94456081D01*
X168748216Y-94469577D01*
X168900943Y-94510500D01*
X168900945Y-94510500D01*
X169059055Y-94510500D01*
X169059057Y-94510500D01*
X169211784Y-94469577D01*
X169348716Y-94390520D01*
X169460520Y-94278716D01*
X169539577Y-94141784D01*
X169580500Y-93989057D01*
X169580500Y-93830943D01*
X169539577Y-93678216D01*
X169505422Y-93619057D01*
X169460524Y-93541290D01*
X169460518Y-93541282D01*
X169348717Y-93429481D01*
X169348709Y-93429475D01*
X169211790Y-93350426D01*
X169211786Y-93350424D01*
X169211784Y-93350423D01*
X169059057Y-93309500D01*
X168900943Y-93309500D01*
X168748216Y-93350423D01*
X168748209Y-93350426D01*
X168611290Y-93429475D01*
X168611282Y-93429481D01*
X168499481Y-93541282D01*
X168499475Y-93541290D01*
X168420426Y-93678209D01*
X168420423Y-93678216D01*
X168379500Y-93830943D01*
X116215422Y-93830943D01*
X116249577Y-93771784D01*
X116290500Y-93619057D01*
X116290500Y-93460943D01*
X116249577Y-93308216D01*
X116190064Y-93205135D01*
X116170524Y-93171290D01*
X116170518Y-93171282D01*
X116058717Y-93059481D01*
X116058709Y-93059475D01*
X115921790Y-92980426D01*
X115921787Y-92980424D01*
X115921784Y-92980423D01*
X115921780Y-92980422D01*
X115921778Y-92980421D01*
X115883147Y-92970069D01*
X115823487Y-92933703D01*
X115795468Y-92882387D01*
X115794575Y-92879056D01*
X115793318Y-92874362D01*
X115780282Y-92851783D01*
X115750469Y-92800144D01*
X115750463Y-92800136D01*
X115491270Y-92540943D01*
X170989500Y-92540943D01*
X170989500Y-92699057D01*
X170995365Y-92720943D01*
X171030423Y-92851783D01*
X171030426Y-92851790D01*
X171109475Y-92988709D01*
X171109479Y-92988714D01*
X171109480Y-92988716D01*
X171221284Y-93100520D01*
X171221286Y-93100521D01*
X171221290Y-93100524D01*
X171343852Y-93171284D01*
X171358216Y-93179577D01*
X171510943Y-93220500D01*
X171510945Y-93220500D01*
X171669055Y-93220500D01*
X171669057Y-93220500D01*
X171821784Y-93179577D01*
X171958716Y-93100520D01*
X172070520Y-92988716D01*
X172149577Y-92851784D01*
X172184636Y-92720943D01*
X175989500Y-92720943D01*
X175989500Y-92879057D01*
X176018884Y-92988717D01*
X176030423Y-93031783D01*
X176030426Y-93031790D01*
X176109475Y-93168709D01*
X176109479Y-93168714D01*
X176109480Y-93168716D01*
X176221284Y-93280520D01*
X176221286Y-93280521D01*
X176221290Y-93280524D01*
X176342366Y-93350426D01*
X176358216Y-93359577D01*
X176510943Y-93400500D01*
X176510945Y-93400500D01*
X176669055Y-93400500D01*
X176669057Y-93400500D01*
X176821784Y-93359577D01*
X176958716Y-93280520D01*
X177070520Y-93168716D01*
X177149577Y-93031784D01*
X177190500Y-92879057D01*
X177190500Y-92720943D01*
X177149577Y-92568216D01*
X177133831Y-92540943D01*
X177070524Y-92431290D01*
X177070518Y-92431282D01*
X176958717Y-92319481D01*
X176958709Y-92319475D01*
X176821790Y-92240426D01*
X176821786Y-92240424D01*
X176821784Y-92240423D01*
X176669057Y-92199500D01*
X176510943Y-92199500D01*
X176358216Y-92240423D01*
X176358209Y-92240426D01*
X176221290Y-92319475D01*
X176221282Y-92319481D01*
X176109481Y-92431282D01*
X176109475Y-92431290D01*
X176030426Y-92568209D01*
X176030423Y-92568216D01*
X175989500Y-92720943D01*
X172184636Y-92720943D01*
X172190500Y-92699057D01*
X172190500Y-92540943D01*
X172149577Y-92388216D01*
X172149573Y-92388209D01*
X172070524Y-92251290D01*
X172070518Y-92251282D01*
X171958717Y-92139481D01*
X171958709Y-92139475D01*
X171821790Y-92060426D01*
X171821786Y-92060424D01*
X171821784Y-92060423D01*
X171669057Y-92019500D01*
X171510943Y-92019500D01*
X171358216Y-92060423D01*
X171358209Y-92060426D01*
X171221290Y-92139475D01*
X171221282Y-92139481D01*
X171109481Y-92251282D01*
X171109475Y-92251290D01*
X171030426Y-92388209D01*
X171030423Y-92388216D01*
X170989500Y-92540943D01*
X115491270Y-92540943D01*
X114672260Y-91721933D01*
X114591270Y-91640943D01*
X116699500Y-91640943D01*
X116699500Y-91799057D01*
X116726425Y-91899540D01*
X116740423Y-91951783D01*
X116740426Y-91951790D01*
X116819475Y-92088709D01*
X116819479Y-92088714D01*
X116819480Y-92088716D01*
X116931284Y-92200520D01*
X116931286Y-92200521D01*
X116931290Y-92200524D01*
X117058946Y-92274225D01*
X117068216Y-92279577D01*
X117220943Y-92320500D01*
X117220945Y-92320500D01*
X117379055Y-92320500D01*
X117379057Y-92320500D01*
X117531784Y-92279577D01*
X117668716Y-92200520D01*
X117780520Y-92088716D01*
X117859577Y-91951784D01*
X117900500Y-91799057D01*
X117900500Y-91640943D01*
X117859577Y-91488216D01*
X117851240Y-91473776D01*
X117780524Y-91351290D01*
X117780518Y-91351282D01*
X117668717Y-91239481D01*
X117668709Y-91239475D01*
X117531790Y-91160426D01*
X117531786Y-91160424D01*
X117531784Y-91160423D01*
X117379057Y-91119500D01*
X117220943Y-91119500D01*
X117068216Y-91160423D01*
X117068209Y-91160426D01*
X116931290Y-91239475D01*
X116931282Y-91239481D01*
X116819481Y-91351282D01*
X116819475Y-91351290D01*
X116740426Y-91488209D01*
X116740423Y-91488216D01*
X116699500Y-91640943D01*
X114591270Y-91640943D01*
X114529863Y-91579536D01*
X114504606Y-91564954D01*
X114494199Y-91555209D01*
X114483403Y-91536897D01*
X114468735Y-91521513D01*
X114466015Y-91507402D01*
X114458716Y-91495020D01*
X114459535Y-91473776D01*
X114455513Y-91452906D01*
X114461001Y-91435735D01*
X114461408Y-91425202D01*
X114466867Y-91417386D01*
X114471564Y-91402694D01*
X114496512Y-91359482D01*
X114516501Y-91324860D01*
X114557424Y-91172133D01*
X114557424Y-91014019D01*
X114516501Y-90861292D01*
X114499464Y-90831783D01*
X114437448Y-90724366D01*
X114437442Y-90724358D01*
X114325641Y-90612557D01*
X114325633Y-90612551D01*
X114201602Y-90540943D01*
X140509500Y-90540943D01*
X140509500Y-90699057D01*
X140516280Y-90724358D01*
X140550423Y-90851783D01*
X140550426Y-90851790D01*
X140629475Y-90988709D01*
X140629479Y-90988714D01*
X140629480Y-90988716D01*
X140741284Y-91100520D01*
X140741286Y-91100521D01*
X140741290Y-91100524D01*
X140845040Y-91160423D01*
X140878216Y-91179577D01*
X141030943Y-91220500D01*
X141030945Y-91220500D01*
X141189055Y-91220500D01*
X141189057Y-91220500D01*
X141341784Y-91179577D01*
X141478716Y-91100520D01*
X141590520Y-90988716D01*
X141669577Y-90851784D01*
X141710500Y-90699057D01*
X141710500Y-90540943D01*
X141705141Y-90520943D01*
X149359500Y-90520943D01*
X149359500Y-90679057D01*
X149371641Y-90724366D01*
X149400423Y-90831783D01*
X149400426Y-90831790D01*
X149479475Y-90968709D01*
X149479479Y-90968714D01*
X149479480Y-90968716D01*
X149591284Y-91080520D01*
X149591286Y-91080521D01*
X149591290Y-91080524D01*
X149728209Y-91159573D01*
X149728216Y-91159577D01*
X149880943Y-91200500D01*
X149880945Y-91200500D01*
X150039055Y-91200500D01*
X150039057Y-91200500D01*
X150191784Y-91159577D01*
X150328716Y-91080520D01*
X150440520Y-90968716D01*
X150519577Y-90831784D01*
X150560500Y-90679057D01*
X150560500Y-90520943D01*
X150519577Y-90368216D01*
X150519573Y-90368209D01*
X150440524Y-90231290D01*
X150440518Y-90231282D01*
X150328717Y-90119481D01*
X150328709Y-90119475D01*
X150191790Y-90040426D01*
X150191786Y-90040424D01*
X150191784Y-90040423D01*
X150039057Y-89999500D01*
X149880943Y-89999500D01*
X149728216Y-90040423D01*
X149728209Y-90040426D01*
X149591290Y-90119475D01*
X149591282Y-90119481D01*
X149479481Y-90231282D01*
X149479475Y-90231290D01*
X149400426Y-90368209D01*
X149400423Y-90368216D01*
X149359500Y-90520943D01*
X141705141Y-90520943D01*
X141669577Y-90388216D01*
X141658026Y-90368209D01*
X141590524Y-90251290D01*
X141590518Y-90251282D01*
X141478717Y-90139481D01*
X141478709Y-90139475D01*
X141341790Y-90060426D01*
X141341786Y-90060424D01*
X141341784Y-90060423D01*
X141189057Y-90019500D01*
X141030943Y-90019500D01*
X140878216Y-90060423D01*
X140878209Y-90060426D01*
X140741290Y-90139475D01*
X140741282Y-90139481D01*
X140629481Y-90251282D01*
X140629475Y-90251290D01*
X140550426Y-90388209D01*
X140550423Y-90388216D01*
X140509500Y-90540943D01*
X114201602Y-90540943D01*
X114188714Y-90533502D01*
X114188710Y-90533500D01*
X114188708Y-90533499D01*
X114035981Y-90492576D01*
X113877867Y-90492576D01*
X113725140Y-90533499D01*
X113725133Y-90533502D01*
X113588214Y-90612551D01*
X113588206Y-90612557D01*
X113476405Y-90724358D01*
X113476399Y-90724366D01*
X113397350Y-90861285D01*
X113397347Y-90861292D01*
X113356424Y-91014019D01*
X113356424Y-91172133D01*
X113385442Y-91280427D01*
X113397347Y-91324859D01*
X113397348Y-91324862D01*
X113413883Y-91353501D01*
X113430356Y-91421401D01*
X113407504Y-91487428D01*
X113352582Y-91530618D01*
X113306496Y-91539501D01*
X111901496Y-91539501D01*
X111834457Y-91519816D01*
X111794108Y-91477500D01*
X111790520Y-91471285D01*
X111678717Y-91359482D01*
X111678709Y-91359476D01*
X111541790Y-91280427D01*
X111541786Y-91280425D01*
X111541784Y-91280424D01*
X111389057Y-91239501D01*
X111230943Y-91239501D01*
X111078216Y-91280424D01*
X111078209Y-91280427D01*
X110941290Y-91359476D01*
X110941282Y-91359482D01*
X110829481Y-91471283D01*
X110829475Y-91471291D01*
X110750426Y-91608210D01*
X110750423Y-91608217D01*
X110709500Y-91760944D01*
X109094026Y-91760944D01*
X109189834Y-91665136D01*
X110023187Y-90831783D01*
X110894236Y-89960733D01*
X110955557Y-89927250D01*
X111014008Y-89928641D01*
X111020943Y-89930500D01*
X111020945Y-89930500D01*
X111179055Y-89930500D01*
X111179057Y-89930500D01*
X111331784Y-89889577D01*
X111468716Y-89810520D01*
X111580520Y-89698716D01*
X111659577Y-89561784D01*
X111700500Y-89409057D01*
X111700500Y-89250943D01*
X111659577Y-89098216D01*
X111627207Y-89042149D01*
X111580524Y-88961290D01*
X111580518Y-88961282D01*
X111468717Y-88849481D01*
X111468709Y-88849475D01*
X111331790Y-88770426D01*
X111331786Y-88770424D01*
X111331784Y-88770423D01*
X111179057Y-88729500D01*
X111020943Y-88729500D01*
X110868216Y-88770423D01*
X110868209Y-88770426D01*
X110731290Y-88849475D01*
X110731282Y-88849481D01*
X110619481Y-88961282D01*
X110619475Y-88961290D01*
X110540426Y-89098209D01*
X110540423Y-89098216D01*
X110499500Y-89250943D01*
X110499500Y-89409057D01*
X110501358Y-89415992D01*
X110499693Y-89485842D01*
X110469263Y-89535764D01*
X108105489Y-91899540D01*
X108049541Y-91955487D01*
X108049535Y-91955495D01*
X108009982Y-92024004D01*
X108009979Y-92024009D01*
X107989500Y-92100439D01*
X107989500Y-92188504D01*
X107969815Y-92255543D01*
X107927501Y-92295890D01*
X107921290Y-92299475D01*
X107921281Y-92299482D01*
X107809481Y-92411282D01*
X107809475Y-92411290D01*
X107730426Y-92548209D01*
X107730423Y-92548216D01*
X107689500Y-92700943D01*
X105740500Y-92700943D01*
X105740500Y-88380943D01*
X107589500Y-88380943D01*
X107589500Y-88539057D01*
X107622046Y-88660518D01*
X107630423Y-88691783D01*
X107630426Y-88691790D01*
X107709475Y-88828709D01*
X107709479Y-88828714D01*
X107709480Y-88828716D01*
X107821284Y-88940520D01*
X107821286Y-88940521D01*
X107821290Y-88940524D01*
X107958209Y-89019573D01*
X107958216Y-89019577D01*
X108110943Y-89060500D01*
X108110945Y-89060500D01*
X108269055Y-89060500D01*
X108269057Y-89060500D01*
X108421784Y-89019577D01*
X108558716Y-88940520D01*
X108670520Y-88828716D01*
X108749577Y-88691784D01*
X108790500Y-88539057D01*
X108790500Y-88380943D01*
X108749577Y-88228216D01*
X108719598Y-88176290D01*
X108670524Y-88091290D01*
X108670518Y-88091282D01*
X108558717Y-87979481D01*
X108558709Y-87979475D01*
X108421790Y-87900426D01*
X108421786Y-87900424D01*
X108421784Y-87900423D01*
X108269057Y-87859500D01*
X108110943Y-87859500D01*
X107958216Y-87900423D01*
X107958209Y-87900426D01*
X107821290Y-87979475D01*
X107821282Y-87979481D01*
X107709481Y-88091282D01*
X107709475Y-88091290D01*
X107630426Y-88228209D01*
X107630423Y-88228216D01*
X107589500Y-88380943D01*
X105740500Y-88380943D01*
X105740500Y-87617537D01*
X108928398Y-87617537D01*
X108957089Y-87761770D01*
X108957092Y-87761780D01*
X109013367Y-87897641D01*
X109013374Y-87897654D01*
X109095076Y-88019929D01*
X109095079Y-88019933D01*
X109199066Y-88123920D01*
X109199070Y-88123923D01*
X109321345Y-88205625D01*
X109321358Y-88205632D01*
X109451408Y-88259500D01*
X109457224Y-88261909D01*
X109457228Y-88261909D01*
X109457229Y-88261910D01*
X109601462Y-88290601D01*
X109601465Y-88290601D01*
X109748535Y-88290601D01*
X109845570Y-88271298D01*
X109892774Y-88261909D01*
X109997860Y-88218380D01*
X110028639Y-88205632D01*
X110028639Y-88205631D01*
X110028646Y-88205629D01*
X110150928Y-88123923D01*
X110254921Y-88019930D01*
X110336627Y-87897648D01*
X110392907Y-87761776D01*
X110394045Y-87756053D01*
X110426429Y-87694142D01*
X110487144Y-87659566D01*
X110556913Y-87663304D01*
X110613586Y-87704169D01*
X110623050Y-87718242D01*
X110640320Y-87748155D01*
X110640322Y-87748158D01*
X110640323Y-87748159D01*
X110748441Y-87856277D01*
X110880857Y-87932727D01*
X111028548Y-87972301D01*
X111028551Y-87972301D01*
X111181447Y-87972301D01*
X111181450Y-87972301D01*
X111329141Y-87932727D01*
X111461557Y-87856277D01*
X111569675Y-87748159D01*
X111586946Y-87718243D01*
X111637512Y-87670028D01*
X111706118Y-87656803D01*
X111770984Y-87682770D01*
X111811513Y-87739683D01*
X111815950Y-87756044D01*
X111817089Y-87761768D01*
X111817092Y-87761780D01*
X111873367Y-87897641D01*
X111873374Y-87897654D01*
X111955076Y-88019929D01*
X111955079Y-88019933D01*
X112059066Y-88123920D01*
X112059070Y-88123923D01*
X112181345Y-88205625D01*
X112181358Y-88205632D01*
X112311408Y-88259500D01*
X112317224Y-88261909D01*
X112317228Y-88261909D01*
X112317229Y-88261910D01*
X112461462Y-88290601D01*
X112461465Y-88290601D01*
X112608535Y-88290601D01*
X112705570Y-88271298D01*
X112752774Y-88261909D01*
X112857860Y-88218380D01*
X112888639Y-88205632D01*
X112888639Y-88205631D01*
X112888646Y-88205629D01*
X113010928Y-88123923D01*
X113033908Y-88100943D01*
X113419500Y-88100943D01*
X113419500Y-88259057D01*
X113451768Y-88379481D01*
X113460423Y-88411783D01*
X113460426Y-88411790D01*
X113539475Y-88548709D01*
X113539479Y-88548714D01*
X113539480Y-88548716D01*
X113651284Y-88660520D01*
X113651286Y-88660521D01*
X113651290Y-88660524D01*
X113770762Y-88729500D01*
X113788216Y-88739577D01*
X113940943Y-88780500D01*
X113940945Y-88780500D01*
X114099055Y-88780500D01*
X114099057Y-88780500D01*
X114251784Y-88739577D01*
X114388716Y-88660520D01*
X114500520Y-88548716D01*
X114548309Y-88465943D01*
X116569500Y-88465943D01*
X116569500Y-88624057D01*
X116609749Y-88774266D01*
X116610423Y-88776783D01*
X116610426Y-88776790D01*
X116689475Y-88913709D01*
X116689481Y-88913717D01*
X116758083Y-88982319D01*
X116791568Y-89043642D01*
X116786584Y-89113334D01*
X116758083Y-89157681D01*
X116689481Y-89226282D01*
X116689475Y-89226290D01*
X116610426Y-89363209D01*
X116610423Y-89363216D01*
X116569500Y-89515943D01*
X116569500Y-89674057D01*
X116576108Y-89698716D01*
X116610423Y-89826783D01*
X116610426Y-89826790D01*
X116689475Y-89963709D01*
X116689479Y-89963714D01*
X116689480Y-89963716D01*
X116801284Y-90075520D01*
X116801286Y-90075521D01*
X116801290Y-90075524D01*
X116938209Y-90154573D01*
X116938216Y-90154577D01*
X117090943Y-90195500D01*
X117090945Y-90195500D01*
X117249055Y-90195500D01*
X117249057Y-90195500D01*
X117401784Y-90154577D01*
X117538716Y-90075520D01*
X117650520Y-89963716D01*
X117729577Y-89826784D01*
X117766923Y-89687406D01*
X117803287Y-89627747D01*
X117866134Y-89597218D01*
X117886697Y-89595501D01*
X148122758Y-89595501D01*
X148122760Y-89595501D01*
X148199187Y-89575022D01*
X148267709Y-89535461D01*
X148323658Y-89479512D01*
X149022227Y-88780943D01*
X154599500Y-88780943D01*
X154599500Y-88939057D01*
X154632041Y-89060500D01*
X154640423Y-89091783D01*
X154640426Y-89091790D01*
X154719475Y-89228709D01*
X154719479Y-89228714D01*
X154719480Y-89228716D01*
X154831284Y-89340520D01*
X154831286Y-89340521D01*
X154831290Y-89340524D01*
X154968209Y-89419573D01*
X154968216Y-89419577D01*
X155120943Y-89460500D01*
X155120945Y-89460500D01*
X155279055Y-89460500D01*
X155279057Y-89460500D01*
X155431784Y-89419577D01*
X155568716Y-89340520D01*
X155680520Y-89228716D01*
X155759577Y-89091784D01*
X155800500Y-88939057D01*
X155800500Y-88780943D01*
X155759577Y-88628216D01*
X155713674Y-88548709D01*
X155680524Y-88491290D01*
X155680518Y-88491282D01*
X155568717Y-88379481D01*
X155568709Y-88379475D01*
X155431790Y-88300426D01*
X155431786Y-88300424D01*
X155431784Y-88300423D01*
X155279057Y-88259500D01*
X155120943Y-88259500D01*
X154968216Y-88300423D01*
X154968209Y-88300426D01*
X154831290Y-88379475D01*
X154831282Y-88379481D01*
X154719481Y-88491282D01*
X154719475Y-88491290D01*
X154640426Y-88628209D01*
X154640423Y-88628216D01*
X154599500Y-88780943D01*
X149022227Y-88780943D01*
X150152227Y-87650943D01*
X158989500Y-87650943D01*
X158989500Y-87809057D01*
X159026788Y-87948216D01*
X159030423Y-87961783D01*
X159030426Y-87961790D01*
X159109475Y-88098709D01*
X159109479Y-88098714D01*
X159109480Y-88098716D01*
X159221284Y-88210520D01*
X159221286Y-88210521D01*
X159221290Y-88210524D01*
X159310293Y-88261909D01*
X159358216Y-88289577D01*
X159510943Y-88330500D01*
X159510945Y-88330500D01*
X159669055Y-88330500D01*
X159669057Y-88330500D01*
X159821784Y-88289577D01*
X159958716Y-88210520D01*
X160070520Y-88098716D01*
X160149577Y-87961784D01*
X160190500Y-87809057D01*
X160190500Y-87650943D01*
X160149577Y-87498216D01*
X160149575Y-87498212D01*
X160149574Y-87498209D01*
X160107212Y-87424836D01*
X160107210Y-87424834D01*
X160101803Y-87415469D01*
X160073087Y-87365730D01*
X170957000Y-87365730D01*
X170957000Y-88774269D01*
X170959853Y-88804699D01*
X170959853Y-88804701D01*
X171004706Y-88932880D01*
X171004707Y-88932882D01*
X171085350Y-89042150D01*
X171194618Y-89122793D01*
X171237345Y-89137744D01*
X171322799Y-89167646D01*
X171353230Y-89170500D01*
X171353234Y-89170500D01*
X174561770Y-89170500D01*
X174592199Y-89167646D01*
X174592201Y-89167646D01*
X174656290Y-89145219D01*
X174720382Y-89122793D01*
X174829650Y-89042150D01*
X174910293Y-88932882D01*
X174946742Y-88828717D01*
X174955146Y-88804701D01*
X174955146Y-88804699D01*
X174958000Y-88774269D01*
X174958000Y-87365730D01*
X174955146Y-87335300D01*
X174955146Y-87335298D01*
X174911476Y-87210499D01*
X174910293Y-87207118D01*
X174829650Y-87097850D01*
X174720382Y-87017207D01*
X174720380Y-87017206D01*
X174592200Y-86972353D01*
X174561770Y-86969500D01*
X174561766Y-86969500D01*
X171353234Y-86969500D01*
X171353230Y-86969500D01*
X171322800Y-86972353D01*
X171322798Y-86972353D01*
X171194619Y-87017206D01*
X171194617Y-87017207D01*
X171085350Y-87097850D01*
X171004707Y-87207117D01*
X171004706Y-87207119D01*
X170959853Y-87335298D01*
X170959853Y-87335300D01*
X170957000Y-87365730D01*
X160073087Y-87365730D01*
X160070520Y-87361284D01*
X159958716Y-87249480D01*
X159958714Y-87249479D01*
X159958709Y-87249475D01*
X159821790Y-87170426D01*
X159821786Y-87170424D01*
X159821784Y-87170423D01*
X159669057Y-87129500D01*
X159510943Y-87129500D01*
X159358216Y-87170423D01*
X159358209Y-87170426D01*
X159221290Y-87249475D01*
X159221282Y-87249481D01*
X159109481Y-87361282D01*
X159109475Y-87361290D01*
X159030426Y-87498209D01*
X159030423Y-87498216D01*
X158989500Y-87650943D01*
X150152227Y-87650943D01*
X155686010Y-82117159D01*
X155747331Y-82083676D01*
X155817023Y-82088660D01*
X155835688Y-82097455D01*
X155946256Y-82161290D01*
X155960653Y-82169602D01*
X156113380Y-82210525D01*
X156113382Y-82210525D01*
X156271492Y-82210525D01*
X156271494Y-82210525D01*
X156424221Y-82169602D01*
X156561153Y-82090545D01*
X156672957Y-81978741D01*
X156752014Y-81841809D01*
X156792937Y-81689082D01*
X156792937Y-81530968D01*
X156752014Y-81378241D01*
X156718144Y-81319576D01*
X156672961Y-81241315D01*
X156672955Y-81241307D01*
X156561154Y-81129506D01*
X156561146Y-81129500D01*
X156424227Y-81050451D01*
X156424223Y-81050449D01*
X156424221Y-81050448D01*
X156271494Y-81009525D01*
X156174475Y-81009525D01*
X156107436Y-80989840D01*
X156061681Y-80937036D01*
X156050475Y-80885525D01*
X156050475Y-80788508D01*
X156050475Y-80788506D01*
X156009552Y-80635779D01*
X155952298Y-80536611D01*
X155930499Y-80498853D01*
X155930493Y-80498845D01*
X155818692Y-80387044D01*
X155818691Y-80387043D01*
X155681759Y-80307986D01*
X155529032Y-80267063D01*
X155370918Y-80267063D01*
X155218191Y-80307986D01*
X155218184Y-80307989D01*
X155081265Y-80387038D01*
X155081257Y-80387044D01*
X154969456Y-80498845D01*
X154969450Y-80498853D01*
X154890401Y-80635772D01*
X154890398Y-80635779D01*
X154849475Y-80788506D01*
X154849475Y-80946620D01*
X154877297Y-81050451D01*
X154890398Y-81099346D01*
X154890398Y-81099347D01*
X154962545Y-81224311D01*
X154979017Y-81292211D01*
X154956164Y-81358238D01*
X154942838Y-81373991D01*
X147808650Y-88508180D01*
X147747327Y-88541665D01*
X147720969Y-88544499D01*
X147012963Y-88544499D01*
X146945924Y-88524814D01*
X146900169Y-88472010D01*
X146890225Y-88402852D01*
X146919250Y-88339296D01*
X146965509Y-88305938D01*
X147117598Y-88242941D01*
X147289655Y-88127977D01*
X147435977Y-87981655D01*
X147550941Y-87809598D01*
X147630130Y-87618420D01*
X147670500Y-87415465D01*
X147670500Y-87208535D01*
X147630130Y-87005580D01*
X147550941Y-86814402D01*
X147435977Y-86642345D01*
X147435975Y-86642342D01*
X147289657Y-86496024D01*
X147203626Y-86438541D01*
X147117598Y-86381059D01*
X147110734Y-86378216D01*
X146926420Y-86301870D01*
X146926412Y-86301868D01*
X146723469Y-86261500D01*
X146723465Y-86261500D01*
X146516535Y-86261500D01*
X146516530Y-86261500D01*
X146313587Y-86301868D01*
X146313579Y-86301870D01*
X146122403Y-86381058D01*
X145950342Y-86496024D01*
X145804024Y-86642342D01*
X145689058Y-86814403D01*
X145609870Y-87005579D01*
X145609868Y-87005587D01*
X145569500Y-87208530D01*
X145569500Y-87415469D01*
X145609694Y-87617535D01*
X145609870Y-87618420D01*
X145689059Y-87809598D01*
X145720249Y-87856277D01*
X145804024Y-87981657D01*
X145950342Y-88127975D01*
X145950345Y-88127977D01*
X146122402Y-88242941D01*
X146274490Y-88305938D01*
X146328893Y-88349779D01*
X146350958Y-88416073D01*
X146333679Y-88483772D01*
X146282542Y-88531383D01*
X146227037Y-88544499D01*
X142012963Y-88544499D01*
X141945924Y-88524814D01*
X141900169Y-88472010D01*
X141890225Y-88402852D01*
X141919250Y-88339296D01*
X141965509Y-88305938D01*
X142117598Y-88242941D01*
X142289655Y-88127977D01*
X142435977Y-87981655D01*
X142550941Y-87809598D01*
X142630130Y-87618420D01*
X142670500Y-87415465D01*
X142670500Y-87208535D01*
X142630130Y-87005580D01*
X142550941Y-86814402D01*
X142435977Y-86642345D01*
X142435975Y-86642342D01*
X142289657Y-86496024D01*
X142203626Y-86438541D01*
X142117598Y-86381059D01*
X142110734Y-86378216D01*
X141926420Y-86301870D01*
X141926412Y-86301868D01*
X141723469Y-86261500D01*
X141723465Y-86261500D01*
X141516535Y-86261500D01*
X141516530Y-86261500D01*
X141313587Y-86301868D01*
X141313579Y-86301870D01*
X141122403Y-86381058D01*
X140950342Y-86496024D01*
X140804024Y-86642342D01*
X140689058Y-86814403D01*
X140609870Y-87005579D01*
X140609868Y-87005587D01*
X140569500Y-87208530D01*
X140569500Y-87415469D01*
X140609694Y-87617535D01*
X140609870Y-87618420D01*
X140689059Y-87809598D01*
X140720249Y-87856277D01*
X140804024Y-87981657D01*
X140950342Y-88127975D01*
X140950345Y-88127977D01*
X141122402Y-88242941D01*
X141274490Y-88305938D01*
X141328893Y-88349779D01*
X141350958Y-88416073D01*
X141333679Y-88483772D01*
X141282542Y-88531383D01*
X141227037Y-88544499D01*
X117886697Y-88544499D01*
X117819658Y-88524814D01*
X117773903Y-88472010D01*
X117766924Y-88452598D01*
X117729577Y-88313216D01*
X117699954Y-88261907D01*
X117650524Y-88176290D01*
X117650518Y-88176282D01*
X117538717Y-88064481D01*
X117538709Y-88064475D01*
X117401790Y-87985426D01*
X117401786Y-87985424D01*
X117401784Y-87985423D01*
X117249057Y-87944500D01*
X117090943Y-87944500D01*
X116938216Y-87985423D01*
X116938209Y-87985426D01*
X116801290Y-88064475D01*
X116801282Y-88064481D01*
X116689481Y-88176282D01*
X116689475Y-88176290D01*
X116610426Y-88313209D01*
X116610423Y-88313216D01*
X116569500Y-88465943D01*
X114548309Y-88465943D01*
X114579577Y-88411784D01*
X114620500Y-88259057D01*
X114620500Y-88100943D01*
X114579577Y-87948216D01*
X114551984Y-87900423D01*
X114500524Y-87811290D01*
X114500518Y-87811282D01*
X114388717Y-87699481D01*
X114388709Y-87699475D01*
X114251790Y-87620426D01*
X114251786Y-87620424D01*
X114251784Y-87620423D01*
X114099057Y-87579500D01*
X113940943Y-87579500D01*
X113788216Y-87620423D01*
X113788209Y-87620426D01*
X113651290Y-87699475D01*
X113651282Y-87699481D01*
X113539481Y-87811282D01*
X113539475Y-87811290D01*
X113460426Y-87948209D01*
X113460423Y-87948216D01*
X113419500Y-88100943D01*
X113033908Y-88100943D01*
X113114921Y-88019930D01*
X113196627Y-87897648D01*
X113252907Y-87761776D01*
X113272495Y-87663304D01*
X113281599Y-87617537D01*
X113281599Y-86962464D01*
X113252908Y-86818231D01*
X113252907Y-86818230D01*
X113252907Y-86818226D01*
X113252905Y-86818221D01*
X113196630Y-86682360D01*
X113196623Y-86682347D01*
X113136059Y-86591707D01*
X113136058Y-86591705D01*
X113114924Y-86560076D01*
X113114918Y-86560068D01*
X113085793Y-86530943D01*
X114999500Y-86530943D01*
X114999500Y-86689057D01*
X115037760Y-86831843D01*
X115040423Y-86841783D01*
X115040426Y-86841790D01*
X115119475Y-86978709D01*
X115119479Y-86978714D01*
X115119480Y-86978716D01*
X115231284Y-87090520D01*
X115231286Y-87090521D01*
X115231290Y-87090524D01*
X115368209Y-87169573D01*
X115368216Y-87169577D01*
X115520943Y-87210500D01*
X115520945Y-87210500D01*
X115679055Y-87210500D01*
X115679057Y-87210500D01*
X115831784Y-87169577D01*
X115968716Y-87090520D01*
X116080520Y-86978716D01*
X116084108Y-86972500D01*
X116134675Y-86924285D01*
X116191496Y-86910500D01*
X117088504Y-86910500D01*
X117155543Y-86930185D01*
X117195891Y-86972500D01*
X117199480Y-86978716D01*
X117311284Y-87090520D01*
X117311286Y-87090521D01*
X117311290Y-87090524D01*
X117448209Y-87169573D01*
X117448216Y-87169577D01*
X117600943Y-87210500D01*
X117600945Y-87210500D01*
X117759055Y-87210500D01*
X117759057Y-87210500D01*
X117911784Y-87169577D01*
X118048716Y-87090520D01*
X118160520Y-86978716D01*
X118239577Y-86841784D01*
X118280500Y-86689057D01*
X118280500Y-86530943D01*
X118239577Y-86378216D01*
X118204866Y-86318094D01*
X118160524Y-86241290D01*
X118160518Y-86241282D01*
X118048717Y-86129481D01*
X118048709Y-86129475D01*
X117911790Y-86050426D01*
X117911786Y-86050424D01*
X117911784Y-86050423D01*
X117759057Y-86009500D01*
X117600943Y-86009500D01*
X117448216Y-86050423D01*
X117448209Y-86050426D01*
X117311290Y-86129475D01*
X117311282Y-86129481D01*
X117199479Y-86241284D01*
X117195892Y-86247499D01*
X117145325Y-86295715D01*
X117088504Y-86309500D01*
X116191496Y-86309500D01*
X116124457Y-86289815D01*
X116084108Y-86247499D01*
X116080520Y-86241284D01*
X115968717Y-86129481D01*
X115968709Y-86129475D01*
X115831790Y-86050426D01*
X115831786Y-86050424D01*
X115831784Y-86050423D01*
X115679057Y-86009500D01*
X115520943Y-86009500D01*
X115368216Y-86050423D01*
X115368209Y-86050426D01*
X115231290Y-86129475D01*
X115231282Y-86129481D01*
X115119481Y-86241282D01*
X115119475Y-86241290D01*
X115040426Y-86378209D01*
X115040423Y-86378216D01*
X114999500Y-86530943D01*
X113085793Y-86530943D01*
X113010931Y-86456081D01*
X113010927Y-86456078D01*
X112888652Y-86374376D01*
X112888639Y-86374369D01*
X112752778Y-86318094D01*
X112752768Y-86318091D01*
X112608535Y-86289401D01*
X112608533Y-86289401D01*
X112461465Y-86289401D01*
X112461463Y-86289401D01*
X112317229Y-86318091D01*
X112317219Y-86318094D01*
X112181358Y-86374369D01*
X112181345Y-86374376D01*
X112059070Y-86456078D01*
X112059066Y-86456081D01*
X111955079Y-86560068D01*
X111955076Y-86560072D01*
X111873374Y-86682347D01*
X111873367Y-86682360D01*
X111817092Y-86818221D01*
X111817089Y-86818230D01*
X111815950Y-86823959D01*
X111783560Y-86885868D01*
X111722841Y-86920438D01*
X111653072Y-86916693D01*
X111596403Y-86875822D01*
X111586946Y-86861758D01*
X111569675Y-86831843D01*
X111461557Y-86723725D01*
X111461556Y-86723724D01*
X111461553Y-86723722D01*
X111329143Y-86647276D01*
X111329142Y-86647275D01*
X111292218Y-86637381D01*
X111181450Y-86607701D01*
X111028548Y-86607701D01*
X110939933Y-86631445D01*
X110880855Y-86647275D01*
X110880854Y-86647276D01*
X110748444Y-86723722D01*
X110748439Y-86723726D01*
X110640324Y-86831841D01*
X110640318Y-86831849D01*
X110623049Y-86861760D01*
X110572482Y-86909975D01*
X110503875Y-86923197D01*
X110439010Y-86897229D01*
X110398482Y-86840314D01*
X110394045Y-86823949D01*
X110392907Y-86818226D01*
X110392905Y-86818221D01*
X110336630Y-86682360D01*
X110336623Y-86682347D01*
X110254921Y-86560072D01*
X110254918Y-86560068D01*
X110150931Y-86456081D01*
X110150927Y-86456078D01*
X110028652Y-86374376D01*
X110028639Y-86374369D01*
X109892778Y-86318094D01*
X109892768Y-86318091D01*
X109748535Y-86289401D01*
X109748533Y-86289401D01*
X109601465Y-86289401D01*
X109601463Y-86289401D01*
X109457229Y-86318091D01*
X109457219Y-86318094D01*
X109321358Y-86374369D01*
X109321345Y-86374376D01*
X109199070Y-86456078D01*
X109199066Y-86456081D01*
X109095079Y-86560068D01*
X109095076Y-86560072D01*
X109013374Y-86682347D01*
X109013367Y-86682360D01*
X108957092Y-86818221D01*
X108957089Y-86818231D01*
X108928399Y-86962464D01*
X108928399Y-86962467D01*
X108928399Y-87617535D01*
X108928399Y-87617537D01*
X108928398Y-87617537D01*
X105740500Y-87617537D01*
X105740500Y-84590943D01*
X111389500Y-84590943D01*
X111389500Y-84749057D01*
X111429693Y-84899057D01*
X111430423Y-84901783D01*
X111430426Y-84901790D01*
X111509475Y-85038709D01*
X111509479Y-85038714D01*
X111509480Y-85038716D01*
X111621284Y-85150520D01*
X111621286Y-85150521D01*
X111621290Y-85150524D01*
X111758209Y-85229573D01*
X111758216Y-85229577D01*
X111910943Y-85270500D01*
X111910945Y-85270500D01*
X112069055Y-85270500D01*
X112069057Y-85270500D01*
X112221784Y-85229577D01*
X112358716Y-85150520D01*
X112470520Y-85038716D01*
X112549577Y-84901784D01*
X112590500Y-84749057D01*
X112590500Y-84740943D01*
X118399500Y-84740943D01*
X118399500Y-84899057D01*
X118436922Y-85038716D01*
X118440423Y-85051783D01*
X118440426Y-85051790D01*
X118519475Y-85188709D01*
X118519479Y-85188714D01*
X118519480Y-85188716D01*
X118631284Y-85300520D01*
X118631286Y-85300521D01*
X118631290Y-85300524D01*
X118766725Y-85378716D01*
X118768216Y-85379577D01*
X118920943Y-85420500D01*
X118920945Y-85420500D01*
X119079055Y-85420500D01*
X119079057Y-85420500D01*
X119231784Y-85379577D01*
X119368716Y-85300520D01*
X119480520Y-85188716D01*
X119559577Y-85051784D01*
X119600500Y-84899057D01*
X119600500Y-84740943D01*
X119592462Y-84710943D01*
X124909500Y-84710943D01*
X124909500Y-84869057D01*
X124938405Y-84976930D01*
X124950423Y-85021783D01*
X124950426Y-85021790D01*
X125029475Y-85158709D01*
X125029479Y-85158714D01*
X125029480Y-85158716D01*
X125141284Y-85270520D01*
X125141286Y-85270521D01*
X125141290Y-85270524D01*
X125250200Y-85333402D01*
X125278216Y-85349577D01*
X125430943Y-85390500D01*
X125430945Y-85390500D01*
X125589055Y-85390500D01*
X125589057Y-85390500D01*
X125741784Y-85349577D01*
X125878716Y-85270520D01*
X125990520Y-85158716D01*
X126069577Y-85021784D01*
X126110500Y-84869057D01*
X126110500Y-84710943D01*
X126105141Y-84690943D01*
X143769500Y-84690943D01*
X143769500Y-84849057D01*
X143803764Y-84976930D01*
X143810423Y-85001783D01*
X143810426Y-85001790D01*
X143889475Y-85138709D01*
X143889479Y-85138714D01*
X143889480Y-85138716D01*
X144001284Y-85250520D01*
X144001286Y-85250521D01*
X144001290Y-85250524D01*
X144087887Y-85300520D01*
X144138216Y-85329577D01*
X144290943Y-85370500D01*
X144290945Y-85370500D01*
X144449055Y-85370500D01*
X144449057Y-85370500D01*
X144601784Y-85329577D01*
X144738716Y-85250520D01*
X144850520Y-85138716D01*
X144929577Y-85001784D01*
X144948559Y-84930943D01*
X147449500Y-84930943D01*
X147449500Y-85089057D01*
X147476204Y-85188716D01*
X147490423Y-85241783D01*
X147490426Y-85241790D01*
X147569475Y-85378709D01*
X147569479Y-85378714D01*
X147569480Y-85378716D01*
X147681284Y-85490520D01*
X147681286Y-85490521D01*
X147681290Y-85490524D01*
X147818209Y-85569573D01*
X147818216Y-85569577D01*
X147970943Y-85610500D01*
X147970945Y-85610500D01*
X148129055Y-85610500D01*
X148129057Y-85610500D01*
X148281784Y-85569577D01*
X148418716Y-85490520D01*
X148530520Y-85378716D01*
X148609577Y-85241784D01*
X148650500Y-85089057D01*
X148650500Y-84930943D01*
X148609577Y-84778216D01*
X148588525Y-84741752D01*
X148530524Y-84641290D01*
X148530518Y-84641282D01*
X148412969Y-84523733D01*
X148415207Y-84521494D01*
X148382798Y-84477080D01*
X148375500Y-84435169D01*
X148375500Y-82506188D01*
X148395185Y-82439149D01*
X148411814Y-82418512D01*
X151008056Y-79822269D01*
X151018589Y-79816518D01*
X151026232Y-79807262D01*
X151048687Y-79800083D01*
X151069377Y-79788786D01*
X151083012Y-79789110D01*
X151092783Y-79785987D01*
X151127827Y-79790176D01*
X151253793Y-79823929D01*
X151313452Y-79860293D01*
X151343981Y-79923139D01*
X151335687Y-79992515D01*
X151309380Y-80031383D01*
X151279481Y-80061282D01*
X151279475Y-80061290D01*
X151200426Y-80198209D01*
X151200423Y-80198216D01*
X151159500Y-80350943D01*
X151159500Y-80509056D01*
X151200423Y-80661783D01*
X151200426Y-80661790D01*
X151279475Y-80798709D01*
X151279481Y-80798717D01*
X151397031Y-80916267D01*
X151394785Y-80918512D01*
X151427179Y-80962855D01*
X151434500Y-81004830D01*
X151434500Y-81955169D01*
X151414815Y-82022208D01*
X151395982Y-82042684D01*
X151397031Y-82043733D01*
X151279481Y-82161282D01*
X151279475Y-82161290D01*
X151200426Y-82298209D01*
X151200423Y-82298216D01*
X151159500Y-82450943D01*
X151159500Y-82609057D01*
X151197744Y-82751783D01*
X151200423Y-82761783D01*
X151200426Y-82761790D01*
X151279475Y-82898709D01*
X151279479Y-82898714D01*
X151279480Y-82898716D01*
X151391284Y-83010520D01*
X151391286Y-83010521D01*
X151391290Y-83010524D01*
X151510895Y-83079577D01*
X151528216Y-83089577D01*
X151680943Y-83130500D01*
X151680945Y-83130500D01*
X151839055Y-83130500D01*
X151839057Y-83130500D01*
X151991784Y-83089577D01*
X152128716Y-83010520D01*
X152240520Y-82898716D01*
X152319577Y-82761784D01*
X152360500Y-82609057D01*
X152360500Y-82450943D01*
X152319577Y-82298216D01*
X152309359Y-82280518D01*
X152240524Y-82161290D01*
X152240518Y-82161282D01*
X152122969Y-82043733D01*
X152125207Y-82041494D01*
X152092798Y-81997080D01*
X152085500Y-81955169D01*
X152085500Y-81004830D01*
X152105185Y-80937791D01*
X152124022Y-80917320D01*
X152122969Y-80916267D01*
X152166791Y-80872445D01*
X152240520Y-80798716D01*
X152319577Y-80661784D01*
X152360500Y-80509057D01*
X152360500Y-80350943D01*
X152322987Y-80210943D01*
X160609500Y-80210943D01*
X160609500Y-80369057D01*
X160647013Y-80509055D01*
X160650423Y-80521783D01*
X160650426Y-80521790D01*
X160729475Y-80658709D01*
X160729479Y-80658714D01*
X160729480Y-80658716D01*
X160841284Y-80770520D01*
X160841286Y-80770521D01*
X160841290Y-80770524D01*
X160978209Y-80849573D01*
X160978216Y-80849577D01*
X161130943Y-80890500D01*
X161130945Y-80890500D01*
X161289055Y-80890500D01*
X161289057Y-80890500D01*
X161441784Y-80849577D01*
X161578716Y-80770520D01*
X161690520Y-80658716D01*
X161769577Y-80521784D01*
X161810500Y-80369057D01*
X161810500Y-80210943D01*
X161769577Y-80058216D01*
X161718101Y-79969056D01*
X161690524Y-79921290D01*
X161690518Y-79921282D01*
X161578717Y-79809481D01*
X161578709Y-79809475D01*
X161441790Y-79730426D01*
X161441786Y-79730424D01*
X161441784Y-79730423D01*
X161289057Y-79689500D01*
X161130943Y-79689500D01*
X160978216Y-79730423D01*
X160978209Y-79730426D01*
X160841290Y-79809475D01*
X160841282Y-79809481D01*
X160729481Y-79921282D01*
X160729475Y-79921290D01*
X160650426Y-80058209D01*
X160650423Y-80058216D01*
X160609500Y-80210943D01*
X152322987Y-80210943D01*
X152319577Y-80198216D01*
X152275453Y-80121790D01*
X152240524Y-80061290D01*
X152240518Y-80061282D01*
X152128717Y-79949481D01*
X152128709Y-79949475D01*
X151991790Y-79870426D01*
X151991785Y-79870423D01*
X151925285Y-79852604D01*
X151858346Y-79834668D01*
X151798687Y-79798304D01*
X151768158Y-79735457D01*
X151776453Y-79666081D01*
X151802758Y-79627215D01*
X151832660Y-79597314D01*
X151911717Y-79460382D01*
X151952640Y-79307655D01*
X151952640Y-79149541D01*
X151911717Y-78996814D01*
X151896509Y-78970472D01*
X151832664Y-78859888D01*
X151832658Y-78859880D01*
X151720857Y-78748079D01*
X151720849Y-78748073D01*
X151583930Y-78669024D01*
X151583926Y-78669022D01*
X151583924Y-78669021D01*
X151431197Y-78628098D01*
X151273083Y-78628098D01*
X151120356Y-78669021D01*
X151120349Y-78669024D01*
X150983430Y-78748073D01*
X150983422Y-78748079D01*
X150871621Y-78859880D01*
X150871615Y-78859888D01*
X150792566Y-78996807D01*
X150792563Y-78996812D01*
X150757131Y-79129048D01*
X150725037Y-79184635D01*
X147789537Y-82120135D01*
X147789533Y-82120141D01*
X147746681Y-82194361D01*
X147746682Y-82194362D01*
X147724500Y-82277147D01*
X147724500Y-84435169D01*
X147704815Y-84502208D01*
X147685982Y-84522684D01*
X147687031Y-84523733D01*
X147569481Y-84641282D01*
X147569475Y-84641290D01*
X147490426Y-84778209D01*
X147490423Y-84778216D01*
X147449500Y-84930943D01*
X144948559Y-84930943D01*
X144970500Y-84849057D01*
X144970500Y-84690943D01*
X144929577Y-84538216D01*
X144917733Y-84517701D01*
X144850524Y-84401290D01*
X144850518Y-84401282D01*
X144738717Y-84289481D01*
X144738709Y-84289475D01*
X144601790Y-84210426D01*
X144601786Y-84210424D01*
X144601784Y-84210423D01*
X144449057Y-84169500D01*
X144290943Y-84169500D01*
X144138216Y-84210423D01*
X144138209Y-84210426D01*
X144001290Y-84289475D01*
X144001282Y-84289481D01*
X143889481Y-84401282D01*
X143889475Y-84401290D01*
X143810426Y-84538209D01*
X143810423Y-84538216D01*
X143769500Y-84690943D01*
X126105141Y-84690943D01*
X126069577Y-84558216D01*
X126058026Y-84538209D01*
X125990524Y-84421290D01*
X125990518Y-84421282D01*
X125878717Y-84309481D01*
X125878709Y-84309475D01*
X125741790Y-84230426D01*
X125741786Y-84230424D01*
X125741784Y-84230423D01*
X125589057Y-84189500D01*
X125430943Y-84189500D01*
X125278216Y-84230423D01*
X125278209Y-84230426D01*
X125141290Y-84309475D01*
X125141282Y-84309481D01*
X125029481Y-84421282D01*
X125029475Y-84421290D01*
X124950426Y-84558209D01*
X124950423Y-84558216D01*
X124909500Y-84710943D01*
X119592462Y-84710943D01*
X119559577Y-84588216D01*
X119539717Y-84553817D01*
X119480524Y-84451290D01*
X119480518Y-84451282D01*
X119368717Y-84339481D01*
X119368709Y-84339475D01*
X119231790Y-84260426D01*
X119231786Y-84260424D01*
X119231784Y-84260423D01*
X119079057Y-84219500D01*
X118920943Y-84219500D01*
X118768216Y-84260423D01*
X118768209Y-84260426D01*
X118631290Y-84339475D01*
X118631282Y-84339481D01*
X118519481Y-84451282D01*
X118519475Y-84451290D01*
X118440426Y-84588209D01*
X118440424Y-84588214D01*
X118440423Y-84588216D01*
X118399500Y-84740943D01*
X112590500Y-84740943D01*
X112590500Y-84590943D01*
X112549577Y-84438216D01*
X112528258Y-84401290D01*
X112470524Y-84301290D01*
X112470518Y-84301282D01*
X112358717Y-84189481D01*
X112358709Y-84189475D01*
X112221790Y-84110426D01*
X112221786Y-84110424D01*
X112221784Y-84110423D01*
X112069057Y-84069500D01*
X111910943Y-84069500D01*
X111758216Y-84110423D01*
X111758209Y-84110426D01*
X111621290Y-84189475D01*
X111621282Y-84189481D01*
X111509481Y-84301282D01*
X111509475Y-84301290D01*
X111430426Y-84438209D01*
X111430423Y-84438216D01*
X111389500Y-84590943D01*
X105740500Y-84590943D01*
X105740500Y-82460943D01*
X111369500Y-82460943D01*
X111369500Y-82619057D01*
X111407744Y-82761783D01*
X111410423Y-82771783D01*
X111410426Y-82771790D01*
X111489475Y-82908709D01*
X111489479Y-82908714D01*
X111489480Y-82908716D01*
X111601284Y-83020520D01*
X111601286Y-83020521D01*
X111601290Y-83020524D01*
X111720895Y-83089577D01*
X111738216Y-83099577D01*
X111890943Y-83140500D01*
X111890945Y-83140500D01*
X112049055Y-83140500D01*
X112049057Y-83140500D01*
X112201784Y-83099577D01*
X112338716Y-83020520D01*
X112450520Y-82908716D01*
X112529577Y-82771784D01*
X112570500Y-82619057D01*
X112570500Y-82460943D01*
X112565141Y-82440943D01*
X118409500Y-82440943D01*
X118409500Y-82599057D01*
X118415163Y-82620189D01*
X118450423Y-82751783D01*
X118450426Y-82751790D01*
X118529475Y-82888709D01*
X118529479Y-82888714D01*
X118529480Y-82888716D01*
X118641284Y-83000520D01*
X118641286Y-83000521D01*
X118641290Y-83000524D01*
X118778209Y-83079573D01*
X118778216Y-83079577D01*
X118930943Y-83120500D01*
X118930945Y-83120500D01*
X119089055Y-83120500D01*
X119089057Y-83120500D01*
X119241784Y-83079577D01*
X119378716Y-83000520D01*
X119490520Y-82888716D01*
X119569577Y-82751784D01*
X119610500Y-82599057D01*
X119610500Y-82440943D01*
X119569577Y-82288216D01*
X119548379Y-82251500D01*
X119490524Y-82151290D01*
X119490518Y-82151282D01*
X119378717Y-82039481D01*
X119378709Y-82039475D01*
X119241790Y-81960426D01*
X119241786Y-81960424D01*
X119241784Y-81960423D01*
X119089057Y-81919500D01*
X118930943Y-81919500D01*
X118778216Y-81960423D01*
X118778209Y-81960426D01*
X118641290Y-82039475D01*
X118641282Y-82039481D01*
X118529481Y-82151282D01*
X118529475Y-82151290D01*
X118450426Y-82288209D01*
X118450423Y-82288216D01*
X118409500Y-82440943D01*
X112565141Y-82440943D01*
X112529577Y-82308216D01*
X112512375Y-82278421D01*
X112450524Y-82171290D01*
X112450518Y-82171282D01*
X112338717Y-82059481D01*
X112338709Y-82059475D01*
X112201790Y-81980426D01*
X112201786Y-81980424D01*
X112201784Y-81980423D01*
X112049057Y-81939500D01*
X111890943Y-81939500D01*
X111738216Y-81980423D01*
X111738209Y-81980426D01*
X111601290Y-82059475D01*
X111601282Y-82059481D01*
X111489481Y-82171282D01*
X111489475Y-82171290D01*
X111410426Y-82308209D01*
X111410423Y-82308216D01*
X111369500Y-82460943D01*
X105740500Y-82460943D01*
X105740500Y-81720943D01*
X114029500Y-81720943D01*
X114029500Y-81879057D01*
X114056211Y-81978742D01*
X114070423Y-82031783D01*
X114070426Y-82031790D01*
X114149475Y-82168709D01*
X114149479Y-82168714D01*
X114149480Y-82168716D01*
X114261284Y-82280520D01*
X114261286Y-82280521D01*
X114261290Y-82280524D01*
X114369200Y-82342825D01*
X114398216Y-82359577D01*
X114550943Y-82400500D01*
X114550945Y-82400500D01*
X114709055Y-82400500D01*
X114709057Y-82400500D01*
X114861784Y-82359577D01*
X114920932Y-82325427D01*
X114920935Y-82325427D01*
X114998709Y-82280524D01*
X114998708Y-82280524D01*
X114998716Y-82280520D01*
X115110520Y-82168716D01*
X115189577Y-82031784D01*
X115230500Y-81879057D01*
X115230500Y-81720943D01*
X115189577Y-81568216D01*
X115163704Y-81523402D01*
X115110524Y-81431290D01*
X115110518Y-81431282D01*
X114998717Y-81319481D01*
X114998709Y-81319475D01*
X114861790Y-81240426D01*
X114861786Y-81240424D01*
X114861784Y-81240423D01*
X114709057Y-81199500D01*
X114550943Y-81199500D01*
X114398216Y-81240423D01*
X114398209Y-81240426D01*
X114261290Y-81319475D01*
X114261282Y-81319481D01*
X114149481Y-81431282D01*
X114149475Y-81431290D01*
X114070426Y-81568209D01*
X114070423Y-81568216D01*
X114029500Y-81720943D01*
X105740500Y-81720943D01*
X105740500Y-80680943D01*
X139619500Y-80680943D01*
X139619500Y-80839057D01*
X139648322Y-80946620D01*
X139660423Y-80991783D01*
X139660426Y-80991790D01*
X139739475Y-81128709D01*
X139739479Y-81128714D01*
X139739480Y-81128716D01*
X139851284Y-81240520D01*
X139851286Y-81240521D01*
X139851290Y-81240524D01*
X139940151Y-81291827D01*
X139988216Y-81319577D01*
X140140943Y-81360500D01*
X140140945Y-81360500D01*
X140299055Y-81360500D01*
X140299057Y-81360500D01*
X140451784Y-81319577D01*
X140588716Y-81240520D01*
X140700520Y-81128716D01*
X140779577Y-80991784D01*
X140820500Y-80839057D01*
X140820500Y-80680943D01*
X140779577Y-80528216D01*
X140768515Y-80509056D01*
X140700524Y-80391290D01*
X140700518Y-80391282D01*
X140588717Y-80279481D01*
X140588709Y-80279475D01*
X140451790Y-80200426D01*
X140451786Y-80200424D01*
X140451784Y-80200423D01*
X140299057Y-80159500D01*
X140140943Y-80159500D01*
X139988216Y-80200423D01*
X139988209Y-80200426D01*
X139851290Y-80279475D01*
X139851282Y-80279481D01*
X139739481Y-80391282D01*
X139739475Y-80391290D01*
X139660426Y-80528209D01*
X139660423Y-80528216D01*
X139619500Y-80680943D01*
X105740500Y-80680943D01*
X105740500Y-79810943D01*
X115829500Y-79810943D01*
X115829500Y-79969057D01*
X115869430Y-80118076D01*
X115870423Y-80121783D01*
X115870426Y-80121790D01*
X115949475Y-80258709D01*
X115949479Y-80258714D01*
X115949480Y-80258716D01*
X116061284Y-80370520D01*
X116061286Y-80370521D01*
X116061290Y-80370524D01*
X116198209Y-80449573D01*
X116198216Y-80449577D01*
X116350943Y-80490500D01*
X116350945Y-80490500D01*
X116509055Y-80490500D01*
X116509057Y-80490500D01*
X116661784Y-80449577D01*
X116798716Y-80370520D01*
X116910520Y-80258716D01*
X116989577Y-80121784D01*
X117030500Y-79969057D01*
X117030500Y-79810943D01*
X116989577Y-79658216D01*
X116962078Y-79610586D01*
X116910524Y-79521290D01*
X116910518Y-79521282D01*
X116798717Y-79409481D01*
X116798709Y-79409475D01*
X116661790Y-79330426D01*
X116661786Y-79330424D01*
X116661784Y-79330423D01*
X116509057Y-79289500D01*
X116350943Y-79289500D01*
X116198216Y-79330423D01*
X116198209Y-79330426D01*
X116061290Y-79409475D01*
X116061282Y-79409481D01*
X115949481Y-79521282D01*
X115949475Y-79521290D01*
X115870426Y-79658209D01*
X115870423Y-79658216D01*
X115829500Y-79810943D01*
X105740500Y-79810943D01*
X105740500Y-77290943D01*
X110719500Y-77290943D01*
X110719500Y-77449057D01*
X110755798Y-77584521D01*
X110760423Y-77601783D01*
X110760426Y-77601790D01*
X110839475Y-77738709D01*
X110839479Y-77738714D01*
X110839480Y-77738716D01*
X110951284Y-77850520D01*
X110951286Y-77850521D01*
X110951290Y-77850524D01*
X111053488Y-77909527D01*
X111088216Y-77929577D01*
X111240943Y-77970500D01*
X111240945Y-77970500D01*
X111399055Y-77970500D01*
X111399057Y-77970500D01*
X111551784Y-77929577D01*
X111688716Y-77850520D01*
X111773506Y-77765730D01*
X118919500Y-77765730D01*
X118919500Y-78974269D01*
X118922353Y-79004699D01*
X118922353Y-79004701D01*
X118965865Y-79129048D01*
X118967207Y-79132882D01*
X119047850Y-79242150D01*
X119157118Y-79322793D01*
X119183576Y-79332051D01*
X119285299Y-79367646D01*
X119315730Y-79370500D01*
X119315734Y-79370500D01*
X120524270Y-79370500D01*
X120554699Y-79367646D01*
X120554701Y-79367646D01*
X120618790Y-79345219D01*
X120682882Y-79322793D01*
X120792150Y-79242150D01*
X120872793Y-79132882D01*
X120913477Y-79016614D01*
X120917646Y-79004701D01*
X120917646Y-79004699D01*
X120920500Y-78974269D01*
X120920500Y-78468543D01*
X121459499Y-78468543D01*
X121497947Y-78661829D01*
X121497950Y-78661839D01*
X121573364Y-78843907D01*
X121573371Y-78843920D01*
X121682860Y-79007781D01*
X121682863Y-79007785D01*
X121822214Y-79147136D01*
X121822218Y-79147139D01*
X121986079Y-79256628D01*
X121986092Y-79256635D01*
X122164242Y-79330426D01*
X122168165Y-79332051D01*
X122168169Y-79332051D01*
X122168170Y-79332052D01*
X122361456Y-79370500D01*
X122361459Y-79370500D01*
X122558543Y-79370500D01*
X122688582Y-79344632D01*
X122751835Y-79332051D01*
X122933914Y-79256632D01*
X123097782Y-79147139D01*
X123237139Y-79007782D01*
X123346632Y-78843914D01*
X123422051Y-78661835D01*
X123460500Y-78468543D01*
X123999499Y-78468543D01*
X124037947Y-78661829D01*
X124037950Y-78661839D01*
X124113364Y-78843907D01*
X124113371Y-78843920D01*
X124222860Y-79007781D01*
X124222863Y-79007785D01*
X124362214Y-79147136D01*
X124362218Y-79147139D01*
X124526079Y-79256628D01*
X124526092Y-79256635D01*
X124704242Y-79330426D01*
X124708165Y-79332051D01*
X124708169Y-79332051D01*
X124708170Y-79332052D01*
X124901456Y-79370500D01*
X124901459Y-79370500D01*
X125098543Y-79370500D01*
X125228582Y-79344632D01*
X125291835Y-79332051D01*
X125350735Y-79307654D01*
X125399021Y-79287654D01*
X125473907Y-79256635D01*
X125473907Y-79256634D01*
X125473914Y-79256632D01*
X125637782Y-79147139D01*
X125777139Y-79007782D01*
X125886632Y-78843914D01*
X125962051Y-78661835D01*
X125998034Y-78480937D01*
X126030419Y-78419027D01*
X126091134Y-78384453D01*
X126160904Y-78388192D01*
X126217576Y-78429059D01*
X126242124Y-78485731D01*
X126272009Y-78674417D01*
X126335244Y-78869031D01*
X126428141Y-79051350D01*
X126428147Y-79051359D01*
X126460523Y-79095921D01*
X126460524Y-79095922D01*
X127057037Y-78499409D01*
X127074075Y-78562993D01*
X127139901Y-78677007D01*
X127232993Y-78770099D01*
X127347007Y-78835925D01*
X127410590Y-78852962D01*
X126814076Y-79449474D01*
X126858650Y-79481859D01*
X127040968Y-79574755D01*
X127235582Y-79637990D01*
X127437683Y-79670000D01*
X127642317Y-79670000D01*
X127844417Y-79637990D01*
X128039031Y-79574755D01*
X128221349Y-79481859D01*
X128265921Y-79449474D01*
X127669409Y-78852962D01*
X127732993Y-78835925D01*
X127847007Y-78770099D01*
X127940099Y-78677007D01*
X128005925Y-78562993D01*
X128022962Y-78499410D01*
X128619474Y-79095922D01*
X128619474Y-79095921D01*
X128651859Y-79051349D01*
X128744754Y-78869031D01*
X128766878Y-78800943D01*
X147599500Y-78800943D01*
X147599500Y-78959057D01*
X147621323Y-79040499D01*
X147640423Y-79111783D01*
X147640426Y-79111790D01*
X147719475Y-79248709D01*
X147719479Y-79248714D01*
X147719480Y-79248716D01*
X147831284Y-79360520D01*
X147831286Y-79360521D01*
X147831290Y-79360524D01*
X147951848Y-79430127D01*
X147968216Y-79439577D01*
X148120943Y-79480500D01*
X148120945Y-79480500D01*
X148279055Y-79480500D01*
X148279057Y-79480500D01*
X148431784Y-79439577D01*
X148568716Y-79360520D01*
X148680520Y-79248716D01*
X148759577Y-79111784D01*
X148800500Y-78959057D01*
X148800500Y-78800943D01*
X148759577Y-78648216D01*
X148685008Y-78519057D01*
X148680524Y-78511290D01*
X148680518Y-78511282D01*
X148568717Y-78399481D01*
X148568709Y-78399475D01*
X148501969Y-78360943D01*
X154829500Y-78360943D01*
X154829500Y-78519057D01*
X154869684Y-78669024D01*
X154870423Y-78671783D01*
X154870426Y-78671790D01*
X154949475Y-78808709D01*
X154949479Y-78808714D01*
X154949480Y-78808716D01*
X155061284Y-78920520D01*
X155061286Y-78920521D01*
X155061290Y-78920524D01*
X155154381Y-78974269D01*
X155198216Y-78999577D01*
X155350943Y-79040500D01*
X155350945Y-79040500D01*
X155509055Y-79040500D01*
X155509057Y-79040500D01*
X155661784Y-78999577D01*
X155798716Y-78920520D01*
X155910520Y-78808716D01*
X155989577Y-78671784D01*
X156030500Y-78519057D01*
X156030500Y-78360943D01*
X155989577Y-78208216D01*
X155914490Y-78078160D01*
X155910524Y-78071290D01*
X155910518Y-78071282D01*
X155816819Y-77977583D01*
X155783334Y-77916260D01*
X155780500Y-77889902D01*
X155780500Y-77635883D01*
X155800185Y-77568844D01*
X155816819Y-77548202D01*
X156302576Y-77062445D01*
X156819730Y-76545290D01*
X156881051Y-76511807D01*
X156950743Y-76516791D01*
X157006676Y-76558663D01*
X157015965Y-76574973D01*
X157016359Y-76574746D01*
X157099475Y-76718709D01*
X157099479Y-76718714D01*
X157099480Y-76718716D01*
X157211284Y-76830520D01*
X157211286Y-76830521D01*
X157211290Y-76830524D01*
X157313408Y-76889481D01*
X157348216Y-76909577D01*
X157500943Y-76950500D01*
X157500945Y-76950500D01*
X157633456Y-76950500D01*
X157700495Y-76970185D01*
X157721137Y-76986819D01*
X159704788Y-78970470D01*
X159704789Y-78970471D01*
X159704791Y-78970472D01*
X159711368Y-78974269D01*
X159784712Y-79016614D01*
X159873856Y-79040500D01*
X159873857Y-79040500D01*
X159966144Y-79040500D01*
X162413456Y-79040500D01*
X162480495Y-79060185D01*
X162501137Y-79076819D01*
X162943181Y-79518863D01*
X162976666Y-79580186D01*
X162979500Y-79606544D01*
X162979500Y-82277432D01*
X162969923Y-82310047D01*
X162960855Y-82342825D01*
X162960055Y-82343651D01*
X162959815Y-82344471D01*
X162938165Y-82369858D01*
X162931650Y-82375684D01*
X162883458Y-82407886D01*
X162785886Y-82505458D01*
X162784895Y-82506939D01*
X162777665Y-82513407D01*
X162749101Y-82526998D01*
X162721358Y-82542147D01*
X162717798Y-82541892D01*
X162714573Y-82543427D01*
X162683207Y-82539418D01*
X162651666Y-82537163D01*
X162648218Y-82534947D01*
X162645266Y-82534570D01*
X162637536Y-82528082D01*
X162607319Y-82508662D01*
X162506545Y-82407888D01*
X162506541Y-82407885D01*
X162391817Y-82331228D01*
X162391804Y-82331221D01*
X162264332Y-82278421D01*
X162264322Y-82278418D01*
X162128995Y-82251500D01*
X162128993Y-82251500D01*
X161991007Y-82251500D01*
X161991005Y-82251500D01*
X161855677Y-82278418D01*
X161855667Y-82278421D01*
X161728195Y-82331221D01*
X161728182Y-82331228D01*
X161613458Y-82407885D01*
X161613454Y-82407888D01*
X161515888Y-82505454D01*
X161515885Y-82505458D01*
X161439228Y-82620182D01*
X161439221Y-82620195D01*
X161386421Y-82747667D01*
X161386418Y-82747677D01*
X161359500Y-82883004D01*
X161359500Y-82883007D01*
X161359500Y-83020993D01*
X161359500Y-83020995D01*
X161359499Y-83020995D01*
X161386418Y-83156322D01*
X161386421Y-83156332D01*
X161439221Y-83283804D01*
X161439228Y-83283817D01*
X161498637Y-83372728D01*
X161519515Y-83439406D01*
X161501031Y-83506786D01*
X161464426Y-83544721D01*
X161415447Y-83577447D01*
X161371132Y-83643769D01*
X161371131Y-83643770D01*
X161359500Y-83702247D01*
X161359500Y-84741752D01*
X161371131Y-84800229D01*
X161371132Y-84800230D01*
X161415447Y-84866552D01*
X161481769Y-84910867D01*
X161481770Y-84910868D01*
X161540247Y-84922499D01*
X161540250Y-84922500D01*
X161540252Y-84922500D01*
X162579750Y-84922500D01*
X162579751Y-84922499D01*
X162594568Y-84919552D01*
X162638229Y-84910868D01*
X162638229Y-84910867D01*
X162638231Y-84910867D01*
X162704552Y-84866552D01*
X162737279Y-84817573D01*
X162790889Y-84772769D01*
X162860213Y-84764060D01*
X162909271Y-84783362D01*
X162998182Y-84842771D01*
X162998195Y-84842778D01*
X163113946Y-84890723D01*
X163125672Y-84895580D01*
X163125676Y-84895580D01*
X163125677Y-84895581D01*
X163261004Y-84922500D01*
X163261007Y-84922500D01*
X163398995Y-84922500D01*
X163503108Y-84901790D01*
X163534328Y-84895580D01*
X163661811Y-84842775D01*
X163776542Y-84766114D01*
X163807746Y-84734910D01*
X163877319Y-84665338D01*
X163938642Y-84631853D01*
X164008334Y-84636837D01*
X164052681Y-84665338D01*
X164153454Y-84766111D01*
X164153458Y-84766114D01*
X164268182Y-84842771D01*
X164268195Y-84842778D01*
X164383946Y-84890723D01*
X164395672Y-84895580D01*
X164395676Y-84895580D01*
X164395677Y-84895581D01*
X164531004Y-84922500D01*
X164531007Y-84922500D01*
X164668995Y-84922500D01*
X164773108Y-84901790D01*
X164804328Y-84895580D01*
X164931811Y-84842775D01*
X165046542Y-84766114D01*
X165077746Y-84734910D01*
X165147319Y-84665338D01*
X165208642Y-84631853D01*
X165278334Y-84636837D01*
X165322681Y-84665338D01*
X165423454Y-84766111D01*
X165423458Y-84766114D01*
X165538182Y-84842771D01*
X165538195Y-84842778D01*
X165653946Y-84890723D01*
X165665672Y-84895580D01*
X165665676Y-84895580D01*
X165665677Y-84895581D01*
X165801004Y-84922500D01*
X165801007Y-84922500D01*
X165938995Y-84922500D01*
X166043108Y-84901790D01*
X166074328Y-84895580D01*
X166201811Y-84842775D01*
X166316542Y-84766114D01*
X166347746Y-84734910D01*
X166417319Y-84665338D01*
X166478642Y-84631853D01*
X166548334Y-84636837D01*
X166592681Y-84665338D01*
X166693454Y-84766111D01*
X166693458Y-84766114D01*
X166808182Y-84842771D01*
X166808195Y-84842778D01*
X166923946Y-84890723D01*
X166935672Y-84895580D01*
X166935676Y-84895580D01*
X166935677Y-84895581D01*
X167071004Y-84922500D01*
X167071007Y-84922500D01*
X167208995Y-84922500D01*
X167313108Y-84901790D01*
X167344328Y-84895580D01*
X167471811Y-84842775D01*
X167586542Y-84766114D01*
X167684114Y-84668542D01*
X167760775Y-84553811D01*
X167813580Y-84426328D01*
X167830856Y-84339475D01*
X167840500Y-84290995D01*
X167840500Y-84173389D01*
X170957000Y-84173389D01*
X170957000Y-84346610D01*
X170982011Y-84504529D01*
X170984098Y-84517701D01*
X171037627Y-84682445D01*
X171116268Y-84836788D01*
X171218086Y-84976928D01*
X171340572Y-85099414D01*
X171480712Y-85201232D01*
X171635055Y-85279873D01*
X171799799Y-85333402D01*
X171970889Y-85360500D01*
X171970890Y-85360500D01*
X173944110Y-85360500D01*
X173944111Y-85360500D01*
X174115201Y-85333402D01*
X174279945Y-85279873D01*
X174434288Y-85201232D01*
X174574428Y-85099414D01*
X174696914Y-84976928D01*
X174798732Y-84836788D01*
X174877373Y-84682445D01*
X174930902Y-84517701D01*
X174958000Y-84346611D01*
X174958000Y-84173389D01*
X174930902Y-84002299D01*
X174877373Y-83837555D01*
X174798732Y-83683212D01*
X174696914Y-83543072D01*
X174574428Y-83420586D01*
X174434288Y-83318768D01*
X174279945Y-83240127D01*
X174115201Y-83186598D01*
X174115199Y-83186597D01*
X174115198Y-83186597D01*
X173983771Y-83165781D01*
X173944111Y-83159500D01*
X171970889Y-83159500D01*
X171931228Y-83165781D01*
X171799802Y-83186597D01*
X171635052Y-83240128D01*
X171480711Y-83318768D01*
X171406443Y-83372728D01*
X171340572Y-83420586D01*
X171340570Y-83420588D01*
X171340569Y-83420588D01*
X171218088Y-83543069D01*
X171218088Y-83543070D01*
X171218086Y-83543072D01*
X171186170Y-83587000D01*
X171116268Y-83683211D01*
X171037628Y-83837552D01*
X170984097Y-84002302D01*
X170957000Y-84173389D01*
X167840500Y-84173389D01*
X167840500Y-84153004D01*
X167813581Y-84017677D01*
X167813580Y-84017676D01*
X167813580Y-84017672D01*
X167775000Y-83924531D01*
X167760778Y-83890195D01*
X167760771Y-83890182D01*
X167684114Y-83775458D01*
X167684111Y-83775454D01*
X167583338Y-83674681D01*
X167549853Y-83613358D01*
X167554837Y-83543666D01*
X167583338Y-83499319D01*
X167684111Y-83398545D01*
X167684114Y-83398542D01*
X167760775Y-83283811D01*
X167813580Y-83156328D01*
X167826858Y-83089576D01*
X167840500Y-83020995D01*
X167840500Y-82883004D01*
X167813581Y-82747677D01*
X167813580Y-82747676D01*
X167813580Y-82747672D01*
X167775000Y-82654531D01*
X167760778Y-82620195D01*
X167760771Y-82620182D01*
X167684114Y-82505458D01*
X167684111Y-82505454D01*
X167586545Y-82407888D01*
X167586541Y-82407885D01*
X167471817Y-82331228D01*
X167471804Y-82331221D01*
X167344332Y-82278421D01*
X167344322Y-82278418D01*
X167208995Y-82251500D01*
X167208993Y-82251500D01*
X167071007Y-82251500D01*
X167071005Y-82251500D01*
X166935677Y-82278418D01*
X166935667Y-82278421D01*
X166808195Y-82331221D01*
X166808182Y-82331228D01*
X166693458Y-82407885D01*
X166693454Y-82407888D01*
X166592681Y-82508662D01*
X166531358Y-82542147D01*
X166461666Y-82537163D01*
X166417319Y-82508662D01*
X166316545Y-82407888D01*
X166316541Y-82407885D01*
X166201817Y-82331228D01*
X166201804Y-82331221D01*
X166074332Y-82278421D01*
X166074322Y-82278418D01*
X165938995Y-82251500D01*
X165938993Y-82251500D01*
X165801007Y-82251500D01*
X165801005Y-82251500D01*
X165665677Y-82278418D01*
X165665667Y-82278421D01*
X165538195Y-82331221D01*
X165538182Y-82331228D01*
X165423458Y-82407885D01*
X165423454Y-82407888D01*
X165322681Y-82508662D01*
X165317801Y-82511326D01*
X165314721Y-82515958D01*
X165287464Y-82527891D01*
X165261358Y-82542147D01*
X165255811Y-82541750D01*
X165250717Y-82543981D01*
X165221341Y-82539285D01*
X165191666Y-82537163D01*
X165185763Y-82533597D01*
X165181723Y-82532952D01*
X165164132Y-82520532D01*
X165152335Y-82513407D01*
X165145104Y-82506939D01*
X165144114Y-82505458D01*
X165046542Y-82407886D01*
X164998349Y-82375684D01*
X164991835Y-82369858D01*
X164977830Y-82347294D01*
X164960803Y-82326920D01*
X164958591Y-82316298D01*
X164954989Y-82310494D01*
X164955156Y-82299800D01*
X164950500Y-82277432D01*
X164950500Y-80363389D01*
X170957000Y-80363389D01*
X170957000Y-80536610D01*
X170976339Y-80658717D01*
X170984098Y-80707701D01*
X171037627Y-80872445D01*
X171116268Y-81026788D01*
X171218086Y-81166928D01*
X171340572Y-81289414D01*
X171480712Y-81391232D01*
X171635055Y-81469873D01*
X171799799Y-81523402D01*
X171970889Y-81550500D01*
X171970890Y-81550500D01*
X173944110Y-81550500D01*
X173944111Y-81550500D01*
X174115201Y-81523402D01*
X174279945Y-81469873D01*
X174434288Y-81391232D01*
X174574428Y-81289414D01*
X174696914Y-81166928D01*
X174798732Y-81026788D01*
X174877373Y-80872445D01*
X174930902Y-80707701D01*
X174958000Y-80536611D01*
X174958000Y-80363389D01*
X174930902Y-80192299D01*
X174877373Y-80027555D01*
X174798732Y-79873212D01*
X174696914Y-79733072D01*
X174574428Y-79610586D01*
X174434288Y-79508768D01*
X174279945Y-79430127D01*
X174115201Y-79376598D01*
X174115199Y-79376597D01*
X174115198Y-79376597D01*
X173983771Y-79355781D01*
X173944111Y-79349500D01*
X171970889Y-79349500D01*
X171931228Y-79355781D01*
X171799802Y-79376597D01*
X171635052Y-79430128D01*
X171480711Y-79508768D01*
X171425233Y-79549076D01*
X171340572Y-79610586D01*
X171340570Y-79610588D01*
X171340569Y-79610588D01*
X171218088Y-79733069D01*
X171218088Y-79733070D01*
X171218086Y-79733072D01*
X171200206Y-79757682D01*
X171116268Y-79873211D01*
X171037628Y-80027552D01*
X170984097Y-80192302D01*
X170957000Y-80363389D01*
X164950500Y-80363389D01*
X164950500Y-79926752D01*
X164950500Y-79926750D01*
X164926614Y-79837606D01*
X164924918Y-79834669D01*
X164898768Y-79789375D01*
X164898766Y-79789372D01*
X164880472Y-79757685D01*
X164880468Y-79757680D01*
X163032319Y-77909531D01*
X163032314Y-77909527D01*
X162952396Y-77863387D01*
X162952395Y-77863386D01*
X162952394Y-77863386D01*
X162863250Y-77839500D01*
X162863249Y-77839500D01*
X160677205Y-77839500D01*
X160610166Y-77819815D01*
X160589524Y-77803181D01*
X159339732Y-76553389D01*
X170957000Y-76553389D01*
X170957000Y-76726611D01*
X170959054Y-76739577D01*
X170973457Y-76830520D01*
X170984098Y-76897701D01*
X171037627Y-77062445D01*
X171116268Y-77216788D01*
X171218086Y-77356928D01*
X171340572Y-77479414D01*
X171480712Y-77581232D01*
X171635055Y-77659873D01*
X171799799Y-77713402D01*
X171970889Y-77740500D01*
X171970890Y-77740500D01*
X173944110Y-77740500D01*
X173944111Y-77740500D01*
X174115201Y-77713402D01*
X174279945Y-77659873D01*
X174434288Y-77581232D01*
X174574428Y-77479414D01*
X174696914Y-77356928D01*
X174798732Y-77216788D01*
X174877373Y-77062445D01*
X174930902Y-76897701D01*
X174958000Y-76726611D01*
X174958000Y-76553389D01*
X174930902Y-76382299D01*
X174877373Y-76217555D01*
X174798732Y-76063212D01*
X174696914Y-75923072D01*
X174574428Y-75800586D01*
X174434288Y-75698768D01*
X174279945Y-75620127D01*
X174115201Y-75566598D01*
X174115199Y-75566597D01*
X174115198Y-75566597D01*
X173983771Y-75545781D01*
X173944111Y-75539500D01*
X171970889Y-75539500D01*
X171931228Y-75545781D01*
X171799802Y-75566597D01*
X171635052Y-75620128D01*
X171480711Y-75698768D01*
X171421497Y-75741790D01*
X171340572Y-75800586D01*
X171340570Y-75800588D01*
X171340569Y-75800588D01*
X171218088Y-75923069D01*
X171218088Y-75923070D01*
X171218086Y-75923072D01*
X171174359Y-75983256D01*
X171116268Y-76063211D01*
X171037628Y-76217552D01*
X170984097Y-76382302D01*
X170958282Y-76545292D01*
X170957000Y-76553389D01*
X159339732Y-76553389D01*
X158187286Y-75400943D01*
X159979500Y-75400943D01*
X159979500Y-75559057D01*
X160017127Y-75699481D01*
X160020423Y-75711783D01*
X160020426Y-75711790D01*
X160099475Y-75848709D01*
X160099479Y-75848714D01*
X160099480Y-75848716D01*
X160211284Y-75960520D01*
X160211286Y-75960521D01*
X160211290Y-75960524D01*
X160348209Y-76039573D01*
X160348216Y-76039577D01*
X160500943Y-76080500D01*
X160500945Y-76080500D01*
X160659055Y-76080500D01*
X160659057Y-76080500D01*
X160811784Y-76039577D01*
X160948716Y-75960520D01*
X161060520Y-75848716D01*
X161139577Y-75711784D01*
X161180500Y-75559057D01*
X161180500Y-75430943D01*
X162289500Y-75430943D01*
X162289500Y-75589057D01*
X162324473Y-75719576D01*
X162330423Y-75741783D01*
X162330426Y-75741790D01*
X162409475Y-75878709D01*
X162409479Y-75878714D01*
X162409480Y-75878716D01*
X162521284Y-75990520D01*
X162521286Y-75990521D01*
X162521290Y-75990524D01*
X162606247Y-76039573D01*
X162658216Y-76069577D01*
X162810943Y-76110500D01*
X162810945Y-76110500D01*
X162969055Y-76110500D01*
X162969057Y-76110500D01*
X163121784Y-76069577D01*
X163258716Y-75990520D01*
X163370520Y-75878716D01*
X163449577Y-75741784D01*
X163490500Y-75589057D01*
X163490500Y-75430943D01*
X163449577Y-75278216D01*
X163413963Y-75216530D01*
X164954500Y-75216530D01*
X164954500Y-75423469D01*
X164994868Y-75626412D01*
X164994870Y-75626420D01*
X165071443Y-75811284D01*
X165074059Y-75817598D01*
X165114897Y-75878717D01*
X165189024Y-75989657D01*
X165335342Y-76135975D01*
X165335345Y-76135977D01*
X165507402Y-76250941D01*
X165698580Y-76330130D01*
X165843052Y-76358867D01*
X165901530Y-76370499D01*
X165901534Y-76370500D01*
X165901535Y-76370500D01*
X166108466Y-76370500D01*
X166108467Y-76370499D01*
X166311420Y-76330130D01*
X166502598Y-76250941D01*
X166674655Y-76135977D01*
X166820977Y-75989655D01*
X166935941Y-75817598D01*
X167015130Y-75626420D01*
X167055500Y-75423465D01*
X167055500Y-75216535D01*
X167015130Y-75013580D01*
X166935941Y-74822402D01*
X166820977Y-74650345D01*
X166820975Y-74650342D01*
X166674657Y-74504024D01*
X166594173Y-74450247D01*
X167494500Y-74450247D01*
X167494500Y-76189752D01*
X167506131Y-76248229D01*
X167506132Y-76248230D01*
X167550447Y-76314552D01*
X167616769Y-76358867D01*
X167616770Y-76358868D01*
X167675247Y-76370499D01*
X167675250Y-76370500D01*
X167675252Y-76370500D01*
X169414750Y-76370500D01*
X169414751Y-76370499D01*
X169429568Y-76367552D01*
X169473229Y-76358868D01*
X169473229Y-76358867D01*
X169473231Y-76358867D01*
X169539552Y-76314552D01*
X169583867Y-76248231D01*
X169583867Y-76248229D01*
X169583868Y-76248229D01*
X169595499Y-76189752D01*
X169595500Y-76189750D01*
X169595500Y-74450249D01*
X169595499Y-74450247D01*
X169583868Y-74391770D01*
X169583867Y-74391769D01*
X169539552Y-74325447D01*
X169473230Y-74281132D01*
X169473229Y-74281131D01*
X169414752Y-74269500D01*
X169414748Y-74269500D01*
X167675252Y-74269500D01*
X167675247Y-74269500D01*
X167616770Y-74281131D01*
X167616769Y-74281132D01*
X167550447Y-74325447D01*
X167506132Y-74391769D01*
X167506131Y-74391770D01*
X167494500Y-74450247D01*
X166594173Y-74450247D01*
X166506655Y-74391770D01*
X166502598Y-74389059D01*
X166311420Y-74309870D01*
X166311412Y-74309868D01*
X166108469Y-74269500D01*
X166108465Y-74269500D01*
X165901535Y-74269500D01*
X165901530Y-74269500D01*
X165698587Y-74309868D01*
X165698579Y-74309870D01*
X165507403Y-74389058D01*
X165335342Y-74504024D01*
X165189024Y-74650342D01*
X165074058Y-74822403D01*
X164994870Y-75013579D01*
X164994868Y-75013587D01*
X164954500Y-75216530D01*
X163413963Y-75216530D01*
X163370520Y-75141284D01*
X163258716Y-75029480D01*
X163258714Y-75029479D01*
X163258709Y-75029475D01*
X163121790Y-74950426D01*
X163121786Y-74950424D01*
X163121784Y-74950423D01*
X162969057Y-74909500D01*
X162810943Y-74909500D01*
X162658216Y-74950423D01*
X162658209Y-74950426D01*
X162521290Y-75029475D01*
X162521282Y-75029481D01*
X162409481Y-75141282D01*
X162409475Y-75141290D01*
X162330426Y-75278209D01*
X162330423Y-75278216D01*
X162289500Y-75430943D01*
X161180500Y-75430943D01*
X161180500Y-75400943D01*
X161139577Y-75248216D01*
X161077841Y-75141285D01*
X161060524Y-75111290D01*
X161060518Y-75111282D01*
X160948717Y-74999481D01*
X160948709Y-74999475D01*
X160811790Y-74920426D01*
X160811786Y-74920424D01*
X160811784Y-74920423D01*
X160659057Y-74879500D01*
X160500943Y-74879500D01*
X160348216Y-74920423D01*
X160348209Y-74920426D01*
X160211290Y-74999475D01*
X160211282Y-74999481D01*
X160099481Y-75111282D01*
X160099475Y-75111290D01*
X160020426Y-75248209D01*
X160020423Y-75248216D01*
X159979500Y-75400943D01*
X158187286Y-75400943D01*
X158105874Y-75319531D01*
X158105869Y-75319527D01*
X158025951Y-75273387D01*
X158025950Y-75273386D01*
X158025949Y-75273386D01*
X157936805Y-75249500D01*
X157223195Y-75249500D01*
X157134051Y-75273386D01*
X157134048Y-75273387D01*
X157054130Y-75319527D01*
X157054125Y-75319531D01*
X155149531Y-77224125D01*
X155149527Y-77224130D01*
X155110954Y-77290942D01*
X155103387Y-77304047D01*
X155103387Y-77304048D01*
X155079500Y-77393195D01*
X155079500Y-77889902D01*
X155059815Y-77956941D01*
X155043181Y-77977583D01*
X154949481Y-78071282D01*
X154949475Y-78071290D01*
X154870426Y-78208209D01*
X154870423Y-78208216D01*
X154829500Y-78360943D01*
X148501969Y-78360943D01*
X148431790Y-78320426D01*
X148431786Y-78320424D01*
X148431784Y-78320423D01*
X148279057Y-78279500D01*
X148120943Y-78279500D01*
X147968216Y-78320423D01*
X147968209Y-78320426D01*
X147831290Y-78399475D01*
X147831282Y-78399481D01*
X147719481Y-78511282D01*
X147719475Y-78511290D01*
X147640426Y-78648209D01*
X147640423Y-78648216D01*
X147599500Y-78800943D01*
X128766878Y-78800943D01*
X128781970Y-78754497D01*
X128807990Y-78674417D01*
X128840000Y-78472317D01*
X128840000Y-78267682D01*
X128807990Y-78065582D01*
X128744755Y-77870968D01*
X128651859Y-77688650D01*
X128619474Y-77644077D01*
X128619474Y-77644076D01*
X128022962Y-78240589D01*
X128005925Y-78177007D01*
X127940099Y-78062993D01*
X127847007Y-77969901D01*
X127732993Y-77904075D01*
X127669408Y-77887037D01*
X128265922Y-77290524D01*
X128265921Y-77290523D01*
X128221359Y-77258147D01*
X128221350Y-77258141D01*
X128039031Y-77165244D01*
X127844417Y-77102009D01*
X127642317Y-77070000D01*
X127437683Y-77070000D01*
X127235582Y-77102009D01*
X127040968Y-77165244D01*
X126858644Y-77258143D01*
X126814077Y-77290523D01*
X126814077Y-77290524D01*
X127410591Y-77887037D01*
X127347007Y-77904075D01*
X127232993Y-77969901D01*
X127139901Y-78062993D01*
X127074075Y-78177007D01*
X127057037Y-78240590D01*
X126460524Y-77644077D01*
X126460523Y-77644077D01*
X126428143Y-77688644D01*
X126335244Y-77870968D01*
X126272010Y-78065581D01*
X126242124Y-78254269D01*
X126212194Y-78317403D01*
X126152883Y-78354334D01*
X126083020Y-78353336D01*
X126024788Y-78314726D01*
X125998034Y-78259061D01*
X125962052Y-78078172D01*
X125962052Y-78078170D01*
X125962051Y-78078165D01*
X125955767Y-78062993D01*
X125886635Y-77896092D01*
X125886628Y-77896079D01*
X125777139Y-77732218D01*
X125777136Y-77732214D01*
X125637785Y-77592863D01*
X125637781Y-77592860D01*
X125473920Y-77483371D01*
X125473907Y-77483364D01*
X125399016Y-77452344D01*
X125291839Y-77407950D01*
X125291829Y-77407947D01*
X125098543Y-77369500D01*
X125098541Y-77369500D01*
X124901459Y-77369500D01*
X124901457Y-77369500D01*
X124708170Y-77407947D01*
X124708160Y-77407950D01*
X124526092Y-77483364D01*
X124526079Y-77483371D01*
X124362218Y-77592860D01*
X124362214Y-77592863D01*
X124222863Y-77732214D01*
X124222860Y-77732218D01*
X124113371Y-77896079D01*
X124113364Y-77896092D01*
X124037950Y-78078160D01*
X124037947Y-78078170D01*
X123999500Y-78271456D01*
X123999500Y-78271459D01*
X123999500Y-78468541D01*
X123999500Y-78468543D01*
X123999499Y-78468543D01*
X123460500Y-78468543D01*
X123460500Y-78468541D01*
X123460500Y-78271459D01*
X123460500Y-78271456D01*
X123422052Y-78078170D01*
X123422051Y-78078169D01*
X123422051Y-78078165D01*
X123415767Y-78062993D01*
X123346635Y-77896092D01*
X123346628Y-77896079D01*
X123237139Y-77732218D01*
X123237136Y-77732214D01*
X123097785Y-77592863D01*
X123097781Y-77592860D01*
X122933920Y-77483371D01*
X122933907Y-77483364D01*
X122751839Y-77407950D01*
X122751829Y-77407947D01*
X122558543Y-77369500D01*
X122558541Y-77369500D01*
X122361459Y-77369500D01*
X122361457Y-77369500D01*
X122168170Y-77407947D01*
X122168160Y-77407950D01*
X121986092Y-77483364D01*
X121986079Y-77483371D01*
X121822218Y-77592860D01*
X121822214Y-77592863D01*
X121682863Y-77732214D01*
X121682860Y-77732218D01*
X121573371Y-77896079D01*
X121573364Y-77896092D01*
X121497950Y-78078160D01*
X121497947Y-78078170D01*
X121459500Y-78271456D01*
X121459500Y-78271459D01*
X121459500Y-78468541D01*
X121459500Y-78468543D01*
X121459499Y-78468543D01*
X120920500Y-78468543D01*
X120920500Y-77765730D01*
X120917646Y-77735300D01*
X120917646Y-77735298D01*
X120872793Y-77607119D01*
X120872792Y-77607117D01*
X120792150Y-77497850D01*
X120682882Y-77417207D01*
X120682880Y-77417206D01*
X120554700Y-77372353D01*
X120524270Y-77369500D01*
X120524266Y-77369500D01*
X119315734Y-77369500D01*
X119315730Y-77369500D01*
X119285300Y-77372353D01*
X119285298Y-77372353D01*
X119157119Y-77417206D01*
X119157117Y-77417207D01*
X119047850Y-77497850D01*
X118967207Y-77607117D01*
X118967206Y-77607119D01*
X118922353Y-77735298D01*
X118922353Y-77735300D01*
X118919500Y-77765730D01*
X111773506Y-77765730D01*
X111800520Y-77738716D01*
X111815135Y-77713402D01*
X111822391Y-77700835D01*
X111859890Y-77635883D01*
X111879577Y-77601784D01*
X111920500Y-77449057D01*
X111920500Y-77290943D01*
X111879577Y-77138216D01*
X111835831Y-77062445D01*
X111800524Y-77001290D01*
X111800518Y-77001282D01*
X111688717Y-76889481D01*
X111688709Y-76889475D01*
X111551790Y-76810426D01*
X111551786Y-76810424D01*
X111551784Y-76810423D01*
X111399057Y-76769500D01*
X111240943Y-76769500D01*
X111088216Y-76810423D01*
X111088209Y-76810426D01*
X110951290Y-76889475D01*
X110951282Y-76889481D01*
X110839481Y-77001282D01*
X110839475Y-77001290D01*
X110760426Y-77138209D01*
X110760423Y-77138216D01*
X110719500Y-77290943D01*
X105740500Y-77290943D01*
X105740500Y-75920943D01*
X146209500Y-75920943D01*
X146209500Y-76079057D01*
X146246611Y-76217555D01*
X146250423Y-76231783D01*
X146250426Y-76231790D01*
X146329475Y-76368709D01*
X146329479Y-76368714D01*
X146329480Y-76368716D01*
X146441284Y-76480520D01*
X146441286Y-76480521D01*
X146441290Y-76480524D01*
X146553473Y-76545292D01*
X146578216Y-76559577D01*
X146730943Y-76600500D01*
X146730945Y-76600500D01*
X146889055Y-76600500D01*
X146889057Y-76600500D01*
X147041784Y-76559577D01*
X147178716Y-76480520D01*
X147290520Y-76368716D01*
X147369577Y-76231784D01*
X147404636Y-76100943D01*
X149469500Y-76100943D01*
X149469500Y-76259057D01*
X149502524Y-76382302D01*
X149510423Y-76411783D01*
X149510426Y-76411790D01*
X149589475Y-76548709D01*
X149589479Y-76548714D01*
X149589480Y-76548716D01*
X149701284Y-76660520D01*
X149701286Y-76660521D01*
X149701290Y-76660524D01*
X149802071Y-76718709D01*
X149838216Y-76739577D01*
X149990943Y-76780500D01*
X149990945Y-76780500D01*
X150149055Y-76780500D01*
X150149057Y-76780500D01*
X150301784Y-76739577D01*
X150438716Y-76660520D01*
X150550520Y-76548716D01*
X150629577Y-76411784D01*
X150670500Y-76259057D01*
X150670500Y-76100943D01*
X150629577Y-75948216D01*
X150589452Y-75878716D01*
X150550524Y-75811290D01*
X150550518Y-75811282D01*
X150438717Y-75699481D01*
X150438709Y-75699475D01*
X150301790Y-75620426D01*
X150301786Y-75620424D01*
X150301784Y-75620423D01*
X150149057Y-75579500D01*
X149990943Y-75579500D01*
X149838216Y-75620423D01*
X149838209Y-75620426D01*
X149701290Y-75699475D01*
X149701282Y-75699481D01*
X149589481Y-75811282D01*
X149589475Y-75811290D01*
X149510426Y-75948209D01*
X149510423Y-75948216D01*
X149469500Y-76100943D01*
X147404636Y-76100943D01*
X147410500Y-76079057D01*
X147410500Y-75920943D01*
X147369577Y-75768216D01*
X147337000Y-75711790D01*
X147290524Y-75631290D01*
X147290518Y-75631282D01*
X147178717Y-75519481D01*
X147178709Y-75519475D01*
X147041790Y-75440426D01*
X147041786Y-75440424D01*
X147041784Y-75440423D01*
X146889057Y-75399500D01*
X146730943Y-75399500D01*
X146578216Y-75440423D01*
X146578209Y-75440426D01*
X146441290Y-75519475D01*
X146441282Y-75519481D01*
X146329481Y-75631282D01*
X146329475Y-75631290D01*
X146250426Y-75768209D01*
X146250423Y-75768216D01*
X146209500Y-75920943D01*
X105740500Y-75920943D01*
X105740500Y-75080943D01*
X110709500Y-75080943D01*
X110709500Y-75239057D01*
X110718699Y-75273386D01*
X110750423Y-75391783D01*
X110750426Y-75391790D01*
X110829475Y-75528709D01*
X110829479Y-75528714D01*
X110829480Y-75528716D01*
X110941284Y-75640520D01*
X110941286Y-75640521D01*
X110941290Y-75640524D01*
X111043408Y-75699481D01*
X111078216Y-75719577D01*
X111230943Y-75760500D01*
X111230945Y-75760500D01*
X111389055Y-75760500D01*
X111389057Y-75760500D01*
X111541784Y-75719577D01*
X111678716Y-75640520D01*
X111790520Y-75528716D01*
X111869577Y-75391784D01*
X111910500Y-75239057D01*
X111910500Y-75080943D01*
X111869577Y-74928216D01*
X111869573Y-74928209D01*
X111790524Y-74791290D01*
X111790518Y-74791282D01*
X111678717Y-74679481D01*
X111678709Y-74679475D01*
X111541790Y-74600426D01*
X111541786Y-74600424D01*
X111541784Y-74600423D01*
X111389057Y-74559500D01*
X111230943Y-74559500D01*
X111078216Y-74600423D01*
X111078209Y-74600426D01*
X110941290Y-74679475D01*
X110941282Y-74679481D01*
X110829481Y-74791282D01*
X110829475Y-74791290D01*
X110750426Y-74928209D01*
X110750423Y-74928216D01*
X110709500Y-75080943D01*
X105740500Y-75080943D01*
X105740500Y-72950943D01*
X144719500Y-72950943D01*
X144719500Y-73109057D01*
X144751654Y-73229055D01*
X144760423Y-73261783D01*
X144760426Y-73261790D01*
X144839475Y-73398709D01*
X144839479Y-73398714D01*
X144839480Y-73398716D01*
X144951284Y-73510520D01*
X144951286Y-73510521D01*
X144951290Y-73510524D01*
X145088209Y-73589573D01*
X145088216Y-73589577D01*
X145240943Y-73630500D01*
X145240945Y-73630500D01*
X145399055Y-73630500D01*
X145399057Y-73630500D01*
X145551784Y-73589577D01*
X145688716Y-73510520D01*
X145800520Y-73398716D01*
X145879577Y-73261784D01*
X145920500Y-73109057D01*
X145920500Y-73050943D01*
X150839500Y-73050943D01*
X150839500Y-73209057D01*
X150844859Y-73229055D01*
X150880423Y-73361783D01*
X150880426Y-73361790D01*
X150959475Y-73498709D01*
X150959479Y-73498714D01*
X150959480Y-73498716D01*
X151071284Y-73610520D01*
X151071286Y-73610521D01*
X151071290Y-73610524D01*
X151105925Y-73630520D01*
X151208216Y-73689577D01*
X151360943Y-73730500D01*
X151360945Y-73730500D01*
X151519055Y-73730500D01*
X151519057Y-73730500D01*
X151671784Y-73689577D01*
X151808716Y-73610520D01*
X151920520Y-73498716D01*
X151999577Y-73361784D01*
X152040500Y-73209057D01*
X152040500Y-73070943D01*
X152739500Y-73070943D01*
X152739500Y-73229057D01*
X152777744Y-73371783D01*
X152780423Y-73381783D01*
X152780426Y-73381790D01*
X152859475Y-73518709D01*
X152859479Y-73518714D01*
X152859480Y-73518716D01*
X152971284Y-73630520D01*
X152971286Y-73630521D01*
X152971290Y-73630524D01*
X153090895Y-73699577D01*
X153108216Y-73709577D01*
X153260943Y-73750500D01*
X153260945Y-73750500D01*
X153419055Y-73750500D01*
X153419057Y-73750500D01*
X153571784Y-73709577D01*
X153708716Y-73630520D01*
X153820520Y-73518716D01*
X153899577Y-73381784D01*
X153940500Y-73229057D01*
X153940500Y-73070943D01*
X153937821Y-73060943D01*
X154859500Y-73060943D01*
X154859500Y-73219057D01*
X154897744Y-73361783D01*
X154900423Y-73371783D01*
X154900426Y-73371790D01*
X154979475Y-73508709D01*
X154979479Y-73508714D01*
X154979480Y-73508716D01*
X155091284Y-73620520D01*
X155091286Y-73620521D01*
X155091290Y-73620524D01*
X155210895Y-73689577D01*
X155228216Y-73699577D01*
X155380943Y-73740500D01*
X155380945Y-73740500D01*
X155539055Y-73740500D01*
X155539057Y-73740500D01*
X155691784Y-73699577D01*
X155828716Y-73620520D01*
X155940520Y-73508716D01*
X156019577Y-73371784D01*
X156060500Y-73219057D01*
X156060500Y-73060943D01*
X156019577Y-72908216D01*
X155946297Y-72781290D01*
X155940524Y-72771290D01*
X155940518Y-72771282D01*
X155828717Y-72659481D01*
X155828709Y-72659475D01*
X155691790Y-72580426D01*
X155691786Y-72580424D01*
X155691784Y-72580423D01*
X155539057Y-72539500D01*
X155380943Y-72539500D01*
X155228216Y-72580423D01*
X155228209Y-72580426D01*
X155091290Y-72659475D01*
X155091282Y-72659481D01*
X154979481Y-72771282D01*
X154979475Y-72771290D01*
X154900426Y-72908209D01*
X154900423Y-72908216D01*
X154859500Y-73060943D01*
X153937821Y-73060943D01*
X153899577Y-72918216D01*
X153830292Y-72798209D01*
X153820524Y-72781290D01*
X153820518Y-72781282D01*
X153708717Y-72669481D01*
X153708709Y-72669475D01*
X153571790Y-72590426D01*
X153571786Y-72590424D01*
X153571784Y-72590423D01*
X153419057Y-72549500D01*
X153260943Y-72549500D01*
X153108216Y-72590423D01*
X153108209Y-72590426D01*
X152971290Y-72669475D01*
X152971282Y-72669481D01*
X152859481Y-72781282D01*
X152859475Y-72781290D01*
X152780426Y-72918209D01*
X152780423Y-72918216D01*
X152739500Y-73070943D01*
X152040500Y-73070943D01*
X152040500Y-73050943D01*
X151999577Y-72898216D01*
X151941843Y-72798216D01*
X151920524Y-72761290D01*
X151920518Y-72761282D01*
X151808717Y-72649481D01*
X151808709Y-72649475D01*
X151671790Y-72570426D01*
X151671786Y-72570424D01*
X151671784Y-72570423D01*
X151519057Y-72529500D01*
X151360943Y-72529500D01*
X151208216Y-72570423D01*
X151208209Y-72570426D01*
X151071290Y-72649475D01*
X151071282Y-72649481D01*
X150959481Y-72761282D01*
X150959475Y-72761290D01*
X150880426Y-72898209D01*
X150880423Y-72898216D01*
X150839500Y-73050943D01*
X145920500Y-73050943D01*
X145920500Y-72950943D01*
X145879577Y-72798216D01*
X145869800Y-72781282D01*
X145800524Y-72661290D01*
X145800518Y-72661282D01*
X145688717Y-72549481D01*
X145688709Y-72549475D01*
X145551790Y-72470426D01*
X145551786Y-72470424D01*
X145551784Y-72470423D01*
X145399057Y-72429500D01*
X145240943Y-72429500D01*
X145088216Y-72470423D01*
X145088209Y-72470426D01*
X144951290Y-72549475D01*
X144951282Y-72549481D01*
X144839481Y-72661282D01*
X144839475Y-72661290D01*
X144760426Y-72798209D01*
X144760423Y-72798216D01*
X144719500Y-72950943D01*
X105740500Y-72950943D01*
X105740500Y-71944500D01*
X105760185Y-71877461D01*
X105812989Y-71831706D01*
X105864500Y-71820500D01*
X177675500Y-71820500D01*
X177742539Y-71840185D01*
G37*
%TD.AperFunction*%
%TD*%
D23*
X188588152Y-96932856D02*
X189254819Y-96932856D01*
X188207200Y-97170951D02*
X188921485Y-97409046D01*
X188921485Y-97409046D02*
X188921485Y-96789999D01*
X189254819Y-95885237D02*
X189254819Y-96456665D01*
X189254819Y-96170951D02*
X188254819Y-96170951D01*
X188254819Y-96170951D02*
X188397676Y-96266189D01*
X188397676Y-96266189D02*
X188492914Y-96361427D01*
X188492914Y-96361427D02*
X188540533Y-96456665D01*
X189159580Y-95456665D02*
X189207200Y-95409046D01*
X189207200Y-95409046D02*
X189254819Y-95456665D01*
X189254819Y-95456665D02*
X189207200Y-95504284D01*
X189207200Y-95504284D02*
X189159580Y-95456665D01*
X189159580Y-95456665D02*
X189254819Y-95456665D01*
X189254819Y-94932856D02*
X189254819Y-94742380D01*
X189254819Y-94742380D02*
X189207200Y-94647142D01*
X189207200Y-94647142D02*
X189159580Y-94599523D01*
X189159580Y-94599523D02*
X189016723Y-94504285D01*
X189016723Y-94504285D02*
X188826247Y-94456666D01*
X188826247Y-94456666D02*
X188445295Y-94456666D01*
X188445295Y-94456666D02*
X188350057Y-94504285D01*
X188350057Y-94504285D02*
X188302438Y-94551904D01*
X188302438Y-94551904D02*
X188254819Y-94647142D01*
X188254819Y-94647142D02*
X188254819Y-94837618D01*
X188254819Y-94837618D02*
X188302438Y-94932856D01*
X188302438Y-94932856D02*
X188350057Y-94980475D01*
X188350057Y-94980475D02*
X188445295Y-95028094D01*
X188445295Y-95028094D02*
X188683390Y-95028094D01*
X188683390Y-95028094D02*
X188778628Y-94980475D01*
X188778628Y-94980475D02*
X188826247Y-94932856D01*
X188826247Y-94932856D02*
X188873866Y-94837618D01*
X188873866Y-94837618D02*
X188873866Y-94647142D01*
X188873866Y-94647142D02*
X188826247Y-94551904D01*
X188826247Y-94551904D02*
X188778628Y-94504285D01*
X188778628Y-94504285D02*
X188683390Y-94456666D01*
X188254819Y-93599523D02*
X188254819Y-93789999D01*
X188254819Y-93789999D02*
X188302438Y-93885237D01*
X188302438Y-93885237D02*
X188350057Y-93932856D01*
X188350057Y-93932856D02*
X188492914Y-94028094D01*
X188492914Y-94028094D02*
X188683390Y-94075713D01*
X188683390Y-94075713D02*
X189064342Y-94075713D01*
X189064342Y-94075713D02*
X189159580Y-94028094D01*
X189159580Y-94028094D02*
X189207200Y-93980475D01*
X189207200Y-93980475D02*
X189254819Y-93885237D01*
X189254819Y-93885237D02*
X189254819Y-93694761D01*
X189254819Y-93694761D02*
X189207200Y-93599523D01*
X189207200Y-93599523D02*
X189159580Y-93551904D01*
X189159580Y-93551904D02*
X189064342Y-93504285D01*
X189064342Y-93504285D02*
X188826247Y-93504285D01*
X188826247Y-93504285D02*
X188731009Y-93551904D01*
X188731009Y-93551904D02*
X188683390Y-93599523D01*
X188683390Y-93599523D02*
X188635771Y-93694761D01*
X188635771Y-93694761D02*
X188635771Y-93885237D01*
X188635771Y-93885237D02*
X188683390Y-93980475D01*
X188683390Y-93980475D02*
X188731009Y-94028094D01*
X188731009Y-94028094D02*
X188826247Y-94075713D01*
X188254819Y-92885237D02*
X188254819Y-92789999D01*
X188254819Y-92789999D02*
X188302438Y-92694761D01*
X188302438Y-92694761D02*
X188350057Y-92647142D01*
X188350057Y-92647142D02*
X188445295Y-92599523D01*
X188445295Y-92599523D02*
X188635771Y-92551904D01*
X188635771Y-92551904D02*
X188873866Y-92551904D01*
X188873866Y-92551904D02*
X189064342Y-92599523D01*
X189064342Y-92599523D02*
X189159580Y-92647142D01*
X189159580Y-92647142D02*
X189207200Y-92694761D01*
X189207200Y-92694761D02*
X189254819Y-92789999D01*
X189254819Y-92789999D02*
X189254819Y-92885237D01*
X189254819Y-92885237D02*
X189207200Y-92980475D01*
X189207200Y-92980475D02*
X189159580Y-93028094D01*
X189159580Y-93028094D02*
X189064342Y-93075713D01*
X189064342Y-93075713D02*
X188873866Y-93123332D01*
X188873866Y-93123332D02*
X188635771Y-93123332D01*
X188635771Y-93123332D02*
X188445295Y-93075713D01*
X188445295Y-93075713D02*
X188350057Y-93028094D01*
X188350057Y-93028094D02*
X188302438Y-92980475D01*
X188302438Y-92980475D02*
X188254819Y-92885237D01*
X188254819Y-91932856D02*
X188254819Y-91837618D01*
X188254819Y-91837618D02*
X188302438Y-91742380D01*
X188302438Y-91742380D02*
X188350057Y-91694761D01*
X188350057Y-91694761D02*
X188445295Y-91647142D01*
X188445295Y-91647142D02*
X188635771Y-91599523D01*
X188635771Y-91599523D02*
X188873866Y-91599523D01*
X188873866Y-91599523D02*
X189064342Y-91647142D01*
X189064342Y-91647142D02*
X189159580Y-91694761D01*
X189159580Y-91694761D02*
X189207200Y-91742380D01*
X189207200Y-91742380D02*
X189254819Y-91837618D01*
X189254819Y-91837618D02*
X189254819Y-91932856D01*
X189254819Y-91932856D02*
X189207200Y-92028094D01*
X189207200Y-92028094D02*
X189159580Y-92075713D01*
X189159580Y-92075713D02*
X189064342Y-92123332D01*
X189064342Y-92123332D02*
X188873866Y-92170951D01*
X188873866Y-92170951D02*
X188635771Y-92170951D01*
X188635771Y-92170951D02*
X188445295Y-92123332D01*
X188445295Y-92123332D02*
X188350057Y-92075713D01*
X188350057Y-92075713D02*
X188302438Y-92028094D01*
X188302438Y-92028094D02*
X188254819Y-91932856D01*
X189254819Y-90409046D02*
X188588152Y-90409046D01*
X188683390Y-90409046D02*
X188635771Y-90361427D01*
X188635771Y-90361427D02*
X188588152Y-90266189D01*
X188588152Y-90266189D02*
X188588152Y-90123332D01*
X188588152Y-90123332D02*
X188635771Y-90028094D01*
X188635771Y-90028094D02*
X188731009Y-89980475D01*
X188731009Y-89980475D02*
X189254819Y-89980475D01*
X188731009Y-89980475D02*
X188635771Y-89932856D01*
X188635771Y-89932856D02*
X188588152Y-89837618D01*
X188588152Y-89837618D02*
X188588152Y-89694761D01*
X188588152Y-89694761D02*
X188635771Y-89599522D01*
X188635771Y-89599522D02*
X188731009Y-89551903D01*
X188731009Y-89551903D02*
X189254819Y-89551903D01*
X189254819Y-89075713D02*
X188588152Y-89075713D01*
X188683390Y-89075713D02*
X188635771Y-89028094D01*
X188635771Y-89028094D02*
X188588152Y-88932856D01*
X188588152Y-88932856D02*
X188588152Y-88789999D01*
X188588152Y-88789999D02*
X188635771Y-88694761D01*
X188635771Y-88694761D02*
X188731009Y-88647142D01*
X188731009Y-88647142D02*
X189254819Y-88647142D01*
X188731009Y-88647142D02*
X188635771Y-88599523D01*
X188635771Y-88599523D02*
X188588152Y-88504285D01*
X188588152Y-88504285D02*
X188588152Y-88361428D01*
X188588152Y-88361428D02*
X188635771Y-88266189D01*
X188635771Y-88266189D02*
X188731009Y-88218570D01*
X188731009Y-88218570D02*
X189254819Y-88218570D01*
D24*
X178310000Y-113770000D02*
X190536420Y-113770000D01*
X190536420Y-71810000D02*
X178310000Y-71810000D01*
X189950000Y-113770000D02*
X189950000Y-71810000D01*
X189950000Y-113770000D02*
X189363579Y-112643496D01*
X189950000Y-113770000D02*
X190536421Y-112643496D01*
X189950000Y-71810000D02*
X190536421Y-72936504D01*
X189950000Y-71810000D02*
X189363579Y-72936504D01*
D23*
X137103334Y-125964819D02*
X137770000Y-125964819D01*
X137770000Y-125964819D02*
X137341429Y-126964819D01*
X138103334Y-126060057D02*
X138150953Y-126012438D01*
X138150953Y-126012438D02*
X138246191Y-125964819D01*
X138246191Y-125964819D02*
X138484286Y-125964819D01*
X138484286Y-125964819D02*
X138579524Y-126012438D01*
X138579524Y-126012438D02*
X138627143Y-126060057D01*
X138627143Y-126060057D02*
X138674762Y-126155295D01*
X138674762Y-126155295D02*
X138674762Y-126250533D01*
X138674762Y-126250533D02*
X138627143Y-126393390D01*
X138627143Y-126393390D02*
X138055715Y-126964819D01*
X138055715Y-126964819D02*
X138674762Y-126964819D01*
X139103334Y-126869580D02*
X139150953Y-126917200D01*
X139150953Y-126917200D02*
X139103334Y-126964819D01*
X139103334Y-126964819D02*
X139055715Y-126917200D01*
X139055715Y-126917200D02*
X139103334Y-126869580D01*
X139103334Y-126869580D02*
X139103334Y-126964819D01*
X139770000Y-125964819D02*
X139865238Y-125964819D01*
X139865238Y-125964819D02*
X139960476Y-126012438D01*
X139960476Y-126012438D02*
X140008095Y-126060057D01*
X140008095Y-126060057D02*
X140055714Y-126155295D01*
X140055714Y-126155295D02*
X140103333Y-126345771D01*
X140103333Y-126345771D02*
X140103333Y-126583866D01*
X140103333Y-126583866D02*
X140055714Y-126774342D01*
X140055714Y-126774342D02*
X140008095Y-126869580D01*
X140008095Y-126869580D02*
X139960476Y-126917200D01*
X139960476Y-126917200D02*
X139865238Y-126964819D01*
X139865238Y-126964819D02*
X139770000Y-126964819D01*
X139770000Y-126964819D02*
X139674762Y-126917200D01*
X139674762Y-126917200D02*
X139627143Y-126869580D01*
X139627143Y-126869580D02*
X139579524Y-126774342D01*
X139579524Y-126774342D02*
X139531905Y-126583866D01*
X139531905Y-126583866D02*
X139531905Y-126345771D01*
X139531905Y-126345771D02*
X139579524Y-126155295D01*
X139579524Y-126155295D02*
X139627143Y-126060057D01*
X139627143Y-126060057D02*
X139674762Y-126012438D01*
X139674762Y-126012438D02*
X139770000Y-125964819D01*
X140674762Y-126393390D02*
X140579524Y-126345771D01*
X140579524Y-126345771D02*
X140531905Y-126298152D01*
X140531905Y-126298152D02*
X140484286Y-126202914D01*
X140484286Y-126202914D02*
X140484286Y-126155295D01*
X140484286Y-126155295D02*
X140531905Y-126060057D01*
X140531905Y-126060057D02*
X140579524Y-126012438D01*
X140579524Y-126012438D02*
X140674762Y-125964819D01*
X140674762Y-125964819D02*
X140865238Y-125964819D01*
X140865238Y-125964819D02*
X140960476Y-126012438D01*
X140960476Y-126012438D02*
X141008095Y-126060057D01*
X141008095Y-126060057D02*
X141055714Y-126155295D01*
X141055714Y-126155295D02*
X141055714Y-126202914D01*
X141055714Y-126202914D02*
X141008095Y-126298152D01*
X141008095Y-126298152D02*
X140960476Y-126345771D01*
X140960476Y-126345771D02*
X140865238Y-126393390D01*
X140865238Y-126393390D02*
X140674762Y-126393390D01*
X140674762Y-126393390D02*
X140579524Y-126441009D01*
X140579524Y-126441009D02*
X140531905Y-126488628D01*
X140531905Y-126488628D02*
X140484286Y-126583866D01*
X140484286Y-126583866D02*
X140484286Y-126774342D01*
X140484286Y-126774342D02*
X140531905Y-126869580D01*
X140531905Y-126869580D02*
X140579524Y-126917200D01*
X140579524Y-126917200D02*
X140674762Y-126964819D01*
X140674762Y-126964819D02*
X140865238Y-126964819D01*
X140865238Y-126964819D02*
X140960476Y-126917200D01*
X140960476Y-126917200D02*
X141008095Y-126869580D01*
X141008095Y-126869580D02*
X141055714Y-126774342D01*
X141055714Y-126774342D02*
X141055714Y-126583866D01*
X141055714Y-126583866D02*
X141008095Y-126488628D01*
X141008095Y-126488628D02*
X140960476Y-126441009D01*
X140960476Y-126441009D02*
X140865238Y-126393390D01*
X141674762Y-125964819D02*
X141770000Y-125964819D01*
X141770000Y-125964819D02*
X141865238Y-126012438D01*
X141865238Y-126012438D02*
X141912857Y-126060057D01*
X141912857Y-126060057D02*
X141960476Y-126155295D01*
X141960476Y-126155295D02*
X142008095Y-126345771D01*
X142008095Y-126345771D02*
X142008095Y-126583866D01*
X142008095Y-126583866D02*
X141960476Y-126774342D01*
X141960476Y-126774342D02*
X141912857Y-126869580D01*
X141912857Y-126869580D02*
X141865238Y-126917200D01*
X141865238Y-126917200D02*
X141770000Y-126964819D01*
X141770000Y-126964819D02*
X141674762Y-126964819D01*
X141674762Y-126964819D02*
X141579524Y-126917200D01*
X141579524Y-126917200D02*
X141531905Y-126869580D01*
X141531905Y-126869580D02*
X141484286Y-126774342D01*
X141484286Y-126774342D02*
X141436667Y-126583866D01*
X141436667Y-126583866D02*
X141436667Y-126345771D01*
X141436667Y-126345771D02*
X141484286Y-126155295D01*
X141484286Y-126155295D02*
X141531905Y-126060057D01*
X141531905Y-126060057D02*
X141579524Y-126012438D01*
X141579524Y-126012438D02*
X141674762Y-125964819D01*
X142627143Y-125964819D02*
X142722381Y-125964819D01*
X142722381Y-125964819D02*
X142817619Y-126012438D01*
X142817619Y-126012438D02*
X142865238Y-126060057D01*
X142865238Y-126060057D02*
X142912857Y-126155295D01*
X142912857Y-126155295D02*
X142960476Y-126345771D01*
X142960476Y-126345771D02*
X142960476Y-126583866D01*
X142960476Y-126583866D02*
X142912857Y-126774342D01*
X142912857Y-126774342D02*
X142865238Y-126869580D01*
X142865238Y-126869580D02*
X142817619Y-126917200D01*
X142817619Y-126917200D02*
X142722381Y-126964819D01*
X142722381Y-126964819D02*
X142627143Y-126964819D01*
X142627143Y-126964819D02*
X142531905Y-126917200D01*
X142531905Y-126917200D02*
X142484286Y-126869580D01*
X142484286Y-126869580D02*
X142436667Y-126774342D01*
X142436667Y-126774342D02*
X142389048Y-126583866D01*
X142389048Y-126583866D02*
X142389048Y-126345771D01*
X142389048Y-126345771D02*
X142436667Y-126155295D01*
X142436667Y-126155295D02*
X142484286Y-126060057D01*
X142484286Y-126060057D02*
X142531905Y-126012438D01*
X142531905Y-126012438D02*
X142627143Y-125964819D01*
X144150953Y-126964819D02*
X144150953Y-126298152D01*
X144150953Y-126393390D02*
X144198572Y-126345771D01*
X144198572Y-126345771D02*
X144293810Y-126298152D01*
X144293810Y-126298152D02*
X144436667Y-126298152D01*
X144436667Y-126298152D02*
X144531905Y-126345771D01*
X144531905Y-126345771D02*
X144579524Y-126441009D01*
X144579524Y-126441009D02*
X144579524Y-126964819D01*
X144579524Y-126441009D02*
X144627143Y-126345771D01*
X144627143Y-126345771D02*
X144722381Y-126298152D01*
X144722381Y-126298152D02*
X144865238Y-126298152D01*
X144865238Y-126298152D02*
X144960477Y-126345771D01*
X144960477Y-126345771D02*
X145008096Y-126441009D01*
X145008096Y-126441009D02*
X145008096Y-126964819D01*
X145484286Y-126964819D02*
X145484286Y-126298152D01*
X145484286Y-126393390D02*
X145531905Y-126345771D01*
X145531905Y-126345771D02*
X145627143Y-126298152D01*
X145627143Y-126298152D02*
X145770000Y-126298152D01*
X145770000Y-126298152D02*
X145865238Y-126345771D01*
X145865238Y-126345771D02*
X145912857Y-126441009D01*
X145912857Y-126441009D02*
X145912857Y-126964819D01*
X145912857Y-126441009D02*
X145960476Y-126345771D01*
X145960476Y-126345771D02*
X146055714Y-126298152D01*
X146055714Y-126298152D02*
X146198571Y-126298152D01*
X146198571Y-126298152D02*
X146293810Y-126345771D01*
X146293810Y-126345771D02*
X146341429Y-126441009D01*
X146341429Y-126441009D02*
X146341429Y-126964819D01*
D24*
X105730000Y-113560000D02*
X105730000Y-128246420D01*
X177810000Y-128246420D02*
X177810000Y-113560000D01*
X105730000Y-127660000D02*
X177810000Y-127660000D01*
X105730000Y-127660000D02*
X106856504Y-127073579D01*
X105730000Y-127660000D02*
X106856504Y-128246421D01*
X177810000Y-127660000D02*
X176683496Y-128246421D01*
X177810000Y-127660000D02*
X176683496Y-127073579D01*
M02*
