%TF.GenerationSoftware,KiCad,Pcbnew,10.0.1*%
%TF.CreationDate,2026-05-08T11:49:03+02:00*%
%TF.ProjectId,vscp-din-stm32h552-can-z102,76736370-2d64-4696-9e2d-73746d333268,B*%
%TF.SameCoordinates,Original*%
%TF.FileFunction,Soldermask,Top*%
%TF.FilePolarity,Negative*%
%FSLAX46Y46*%
G04 Gerber Fmt 4.6, Leading zero omitted, Abs format (unit mm)*
G04 Created by KiCad (PCBNEW 10.0.1) date 2026-05-08 11:49:03*
%MOMM*%
%LPD*%
G01*
G04 APERTURE LIST*
G04 Aperture macros list*
%AMRoundRect*
0 Rectangle with rounded corners*
0 $1 Rounding radius*
0 $2 $3 $4 $5 $6 $7 $8 $9 X,Y pos of 4 corners*
0 Add a 4 corners polygon primitive as box body*
4,1,4,$2,$3,$4,$5,$6,$7,$8,$9,$2,$3,0*
0 Add four circle primitives for the rounded corners*
1,1,$1+$1,$2,$3*
1,1,$1+$1,$4,$5*
1,1,$1+$1,$6,$7*
1,1,$1+$1,$8,$9*
0 Add four rect primitives between the rounded corners*
20,1,$1+$1,$2,$3,$4,$5,0*
20,1,$1+$1,$4,$5,$6,$7,0*
20,1,$1+$1,$6,$7,$8,$9,0*
20,1,$1+$1,$8,$9,$2,$3,0*%
G04 Aperture macros list end*
%ADD10RoundRect,0.250000X0.450000X-0.350000X0.450000X0.350000X-0.450000X0.350000X-0.450000X-0.350000X0*%
%ADD11RoundRect,0.250000X-0.262500X-0.450000X0.262500X-0.450000X0.262500X0.450000X-0.262500X0.450000X0*%
%ADD12RoundRect,0.250000X-0.350000X-0.450000X0.350000X-0.450000X0.350000X0.450000X-0.350000X0.450000X0*%
%ADD13RoundRect,0.375000X-0.625000X-0.375000X0.625000X-0.375000X0.625000X0.375000X-0.625000X0.375000X0*%
%ADD14RoundRect,0.500000X-0.500000X-1.400000X0.500000X-1.400000X0.500000X1.400000X-0.500000X1.400000X0*%
%ADD15RoundRect,0.150000X-0.587500X-0.150000X0.587500X-0.150000X0.587500X0.150000X-0.587500X0.150000X0*%
%ADD16RoundRect,0.250000X0.475000X-0.337500X0.475000X0.337500X-0.475000X0.337500X-0.475000X-0.337500X0*%
%ADD17RoundRect,0.150000X0.587500X0.150000X-0.587500X0.150000X-0.587500X-0.150000X0.587500X-0.150000X0*%
%ADD18RoundRect,0.250000X-0.337500X-0.475000X0.337500X-0.475000X0.337500X0.475000X-0.337500X0.475000X0*%
%ADD19RoundRect,0.243750X-0.243750X-0.456250X0.243750X-0.456250X0.243750X0.456250X-0.243750X0.456250X0*%
%ADD20R,1.600000X1.400000*%
%ADD21RoundRect,0.250000X-0.250000X-0.475000X0.250000X-0.475000X0.250000X0.475000X-0.250000X0.475000X0*%
%ADD22RoundRect,0.250000X0.350000X0.450000X-0.350000X0.450000X-0.350000X-0.450000X0.350000X-0.450000X0*%
%ADD23RoundRect,0.250000X-0.450000X0.262500X-0.450000X-0.262500X0.450000X-0.262500X0.450000X0.262500X0*%
%ADD24RoundRect,0.250000X-0.650000X0.800000X-0.650000X-0.800000X0.650000X-0.800000X0.650000X0.800000X0*%
%ADD25RoundRect,0.062500X0.062500X-0.350000X0.062500X0.350000X-0.062500X0.350000X-0.062500X-0.350000X0*%
%ADD26RoundRect,0.250000X-0.475000X0.337500X-0.475000X-0.337500X0.475000X-0.337500X0.475000X0.337500X0*%
%ADD27O,1.092200X1.600200*%
%ADD28C,0.660400*%
%ADD29R,1.143000X0.304800*%
%ADD30C,1.700000*%
%ADD31RoundRect,0.250000X1.550000X-0.650000X1.550000X0.650000X-1.550000X0.650000X-1.550000X-0.650000X0*%
%ADD32O,3.600000X1.800000*%
%ADD33RoundRect,0.243750X0.243750X0.456250X-0.243750X0.456250X-0.243750X-0.456250X0.243750X-0.456250X0*%
%ADD34R,1.528000X0.650000*%
%ADD35R,1.000000X1.000000*%
%ADD36C,1.000000*%
%ADD37R,1.700000X1.700000*%
%ADD38RoundRect,0.250000X0.337500X0.475000X-0.337500X0.475000X-0.337500X-0.475000X0.337500X-0.475000X0*%
%ADD39RoundRect,0.250000X0.450000X-0.262500X0.450000X0.262500X-0.450000X0.262500X-0.450000X-0.262500X0*%
%ADD40RoundRect,0.250000X-0.450000X0.350000X-0.450000X-0.350000X0.450000X-0.350000X0.450000X0.350000X0*%
%ADD41R,1.475000X0.300000*%
%ADD42R,0.300000X1.475000*%
%ADD43RoundRect,0.250000X0.550000X-0.550000X0.550000X0.550000X-0.550000X0.550000X-0.550000X-0.550000X0*%
%ADD44C,1.600000*%
%ADD45C,0.150000*%
%ADD46C,0.050000*%
G04 APERTURE END LIST*
D10*
%TO.C,R10*%
X171800000Y-111340000D03*
X171800000Y-109340000D03*
%TD*%
D11*
%TO.C,R8*%
X145677500Y-74472000D03*
X147502500Y-74472000D03*
%TD*%
D12*
%TO.C,R14*%
X114730000Y-108890000D03*
X116730000Y-108890000D03*
%TD*%
D13*
%TO.C,IC4*%
X109520000Y-75007500D03*
X109520000Y-77307500D03*
D14*
X115820000Y-77307500D03*
D13*
X109520000Y-79607500D03*
%TD*%
D12*
%TO.C,R20*%
X122240000Y-84740000D03*
X124240000Y-84740000D03*
%TD*%
D15*
%TO.C,Q2*%
X114920000Y-101420000D03*
X114920000Y-103320000D03*
X116795000Y-102370000D03*
%TD*%
D16*
%TO.C,C16*%
X175340000Y-94827500D03*
X175340000Y-92752500D03*
%TD*%
D11*
%TO.C,R7*%
X160457500Y-103590000D03*
X162282500Y-103590000D03*
%TD*%
D15*
%TO.C,Q3*%
X114870000Y-105080000D03*
X114870000Y-106980000D03*
X116745000Y-106030000D03*
%TD*%
D17*
%TO.C,D6*%
X168617500Y-89330000D03*
X168617500Y-87430000D03*
X166742500Y-88380000D03*
%TD*%
D18*
%TO.C,C18*%
X114672500Y-111120000D03*
X116747500Y-111120000D03*
%TD*%
D19*
%TO.C,D2*%
X156270000Y-103590000D03*
X158145000Y-103590000D03*
%TD*%
D20*
%TO.C,SW4*%
X146290000Y-110620000D03*
X138290000Y-110620000D03*
X146290000Y-106120000D03*
X138290000Y-106120000D03*
%TD*%
%TO.C,SW2*%
X149260000Y-106220000D03*
X157260000Y-106220000D03*
X149260000Y-110720000D03*
X157260000Y-110720000D03*
%TD*%
D21*
%TO.C,C7*%
X115930000Y-84760000D03*
X117830000Y-84760000D03*
%TD*%
D18*
%TO.C,C11*%
X144682500Y-77600000D03*
X146757500Y-77600000D03*
%TD*%
D22*
%TO.C,R18*%
X148440000Y-90622000D03*
X146440000Y-90622000D03*
%TD*%
D23*
%TO.C,R9*%
X150750000Y-102157500D03*
X150750000Y-103982500D03*
%TD*%
D24*
%TO.C,Y1*%
X144440000Y-80112000D03*
X144440000Y-83012000D03*
X146740000Y-83012000D03*
X146740000Y-80112000D03*
%TD*%
D25*
%TO.C,IC6*%
X115215000Y-91727500D03*
X115715000Y-91727500D03*
X116215000Y-91727500D03*
X116215000Y-90352500D03*
X115715000Y-90352500D03*
X115215000Y-90352500D03*
%TD*%
D11*
%TO.C,R15*%
X108985000Y-82470000D03*
X110810000Y-82470000D03*
%TD*%
D26*
%TO.C,C17*%
X112280000Y-101702500D03*
X112280000Y-103777500D03*
%TD*%
D27*
%TO.C,J5*%
X109674999Y-95290001D03*
D28*
X111104999Y-95290001D03*
D27*
X112534999Y-95290001D03*
D28*
X111104999Y-87391601D03*
D27*
X109674999Y-87290001D03*
X112534999Y-87290001D03*
D28*
X111104999Y-87188401D03*
D29*
X109619998Y-94040001D03*
X109619998Y-92540001D03*
X109619998Y-92040002D03*
X109619998Y-91540001D03*
X109619998Y-91040001D03*
X109619998Y-90540000D03*
X109619998Y-90040001D03*
X109619998Y-88540001D03*
X112590000Y-88540001D03*
X112590000Y-90040001D03*
X112590000Y-90540000D03*
X112590000Y-91040001D03*
X112590000Y-91540001D03*
X112590000Y-92040002D03*
X112590000Y-92540001D03*
X112590000Y-94040001D03*
%TD*%
D30*
%TO.C,Y4*%
X141620000Y-87312000D03*
X146620000Y-87312000D03*
%TD*%
D31*
%TO.C,J8*%
X172957500Y-88070000D03*
D32*
X172957500Y-84260000D03*
X172957500Y-80450000D03*
X172957500Y-76640000D03*
%TD*%
D33*
%TO.C,D1*%
X145355000Y-103520000D03*
X143480000Y-103520000D03*
%TD*%
D21*
%TO.C,C8*%
X115930000Y-82490000D03*
X117830000Y-82490000D03*
%TD*%
D34*
%TO.C,IC2*%
X167539000Y-92615000D03*
X167539000Y-93885000D03*
X167539000Y-95155000D03*
X167539000Y-96425000D03*
X172961000Y-96425000D03*
X172961000Y-95155000D03*
X172961000Y-93885000D03*
X172961000Y-92615000D03*
%TD*%
D16*
%TO.C,C26*%
X160500000Y-78902000D03*
X160500000Y-76827000D03*
%TD*%
D35*
%TO.C,J7*%
X162060000Y-84222000D03*
D36*
X162060000Y-82952000D03*
X163330000Y-84222000D03*
X163330000Y-82952000D03*
X164600000Y-84222000D03*
X164600000Y-82952000D03*
X165870000Y-84222000D03*
X165870000Y-82952000D03*
X167140000Y-84222000D03*
X167140000Y-82952000D03*
%TD*%
D11*
%TO.C,R11*%
X139795000Y-103540000D03*
X141620000Y-103540000D03*
%TD*%
D16*
%TO.C,C12*%
X142070000Y-82727500D03*
X142070000Y-80652500D03*
%TD*%
D37*
%TO.C,J3*%
X174850000Y-107835000D03*
D30*
X174850000Y-110375000D03*
%TD*%
D34*
%TO.C,IC3*%
X167539000Y-98385000D03*
X167539000Y-99655000D03*
X167539000Y-100925000D03*
X167539000Y-102195000D03*
X172961000Y-102195000D03*
X172961000Y-100925000D03*
X172961000Y-99655000D03*
X172961000Y-98385000D03*
%TD*%
D38*
%TO.C,C28*%
X158217500Y-87702000D03*
X156142500Y-87702000D03*
%TD*%
D20*
%TO.C,SW3*%
X160380000Y-106220000D03*
X168380000Y-106220000D03*
X160380000Y-110720000D03*
X168380000Y-110720000D03*
%TD*%
D39*
%TO.C,R21*%
X171830000Y-106910000D03*
X171830000Y-105085000D03*
%TD*%
D26*
%TO.C,C19*%
X175340000Y-98462500D03*
X175340000Y-100537500D03*
%TD*%
D40*
%TO.C,R12*%
X112280000Y-105800000D03*
X112280000Y-107800000D03*
%TD*%
D10*
%TO.C,R13*%
X122150000Y-106970000D03*
X122150000Y-104970000D03*
%TD*%
D38*
%TO.C,C27*%
X155437500Y-74542000D03*
X153362500Y-74542000D03*
%TD*%
D11*
%TO.C,R16*%
X109007500Y-84650000D03*
X110832500Y-84650000D03*
%TD*%
D18*
%TO.C,C6*%
X149342500Y-74542000D03*
X151417500Y-74542000D03*
%TD*%
D37*
%TO.C,J4*%
X168545000Y-75320000D03*
D30*
X166005000Y-75320000D03*
%TD*%
D12*
%TO.C,R17*%
X142530000Y-90592000D03*
X144530000Y-90592000D03*
%TD*%
D41*
%TO.C,IC1*%
X149642000Y-78450000D03*
X149642000Y-78950000D03*
X149642000Y-79450000D03*
X149642000Y-79950000D03*
X149642000Y-80450000D03*
X149642000Y-80950000D03*
X149642000Y-81450000D03*
X149642000Y-81950000D03*
X149642000Y-82450000D03*
X149642000Y-82950000D03*
X149642000Y-83450000D03*
X149642000Y-83950000D03*
D42*
X151130000Y-85438000D03*
X151630000Y-85438000D03*
X152130000Y-85438000D03*
X152630000Y-85438000D03*
X153130000Y-85438000D03*
X153630000Y-85438000D03*
X154130000Y-85438000D03*
X154630000Y-85438000D03*
X155130000Y-85438000D03*
X155630000Y-85438000D03*
X156130000Y-85438000D03*
X156630000Y-85438000D03*
D41*
X158118000Y-83950000D03*
X158118000Y-83450000D03*
X158118000Y-82950000D03*
X158118000Y-82450000D03*
X158118000Y-81950000D03*
X158118000Y-81450000D03*
X158118000Y-80950000D03*
X158118000Y-80450000D03*
X158118000Y-79950000D03*
X158118000Y-79450000D03*
X158118000Y-78950000D03*
X158118000Y-78450000D03*
D42*
X156630000Y-76962000D03*
X156130000Y-76962000D03*
X155630000Y-76962000D03*
X155130000Y-76962000D03*
X154630000Y-76962000D03*
X154130000Y-76962000D03*
X153630000Y-76962000D03*
X153130000Y-76962000D03*
X152630000Y-76962000D03*
X152130000Y-76962000D03*
X151630000Y-76962000D03*
X151130000Y-76962000D03*
%TD*%
D10*
%TO.C,R19*%
X162840000Y-78862000D03*
X162840000Y-76862000D03*
%TD*%
D43*
%TO.C,IC5*%
X119920000Y-78370000D03*
D44*
X122460000Y-78370000D03*
X125000000Y-78370000D03*
X127540000Y-78370000D03*
%TD*%
D45*
X188588152Y-96932856D02*
X189254819Y-96932856D01*
X188207200Y-97170951D02*
X188921485Y-97409046D01*
X188921485Y-97409046D02*
X188921485Y-96789999D01*
X189254819Y-95885237D02*
X189254819Y-96456665D01*
X189254819Y-96170951D02*
X188254819Y-96170951D01*
X188254819Y-96170951D02*
X188397676Y-96266189D01*
X188397676Y-96266189D02*
X188492914Y-96361427D01*
X188492914Y-96361427D02*
X188540533Y-96456665D01*
X189159580Y-95456665D02*
X189207200Y-95409046D01*
X189207200Y-95409046D02*
X189254819Y-95456665D01*
X189254819Y-95456665D02*
X189207200Y-95504284D01*
X189207200Y-95504284D02*
X189159580Y-95456665D01*
X189159580Y-95456665D02*
X189254819Y-95456665D01*
X189254819Y-94932856D02*
X189254819Y-94742380D01*
X189254819Y-94742380D02*
X189207200Y-94647142D01*
X189207200Y-94647142D02*
X189159580Y-94599523D01*
X189159580Y-94599523D02*
X189016723Y-94504285D01*
X189016723Y-94504285D02*
X188826247Y-94456666D01*
X188826247Y-94456666D02*
X188445295Y-94456666D01*
X188445295Y-94456666D02*
X188350057Y-94504285D01*
X188350057Y-94504285D02*
X188302438Y-94551904D01*
X188302438Y-94551904D02*
X188254819Y-94647142D01*
X188254819Y-94647142D02*
X188254819Y-94837618D01*
X188254819Y-94837618D02*
X188302438Y-94932856D01*
X188302438Y-94932856D02*
X188350057Y-94980475D01*
X188350057Y-94980475D02*
X188445295Y-95028094D01*
X188445295Y-95028094D02*
X188683390Y-95028094D01*
X188683390Y-95028094D02*
X188778628Y-94980475D01*
X188778628Y-94980475D02*
X188826247Y-94932856D01*
X188826247Y-94932856D02*
X188873866Y-94837618D01*
X188873866Y-94837618D02*
X188873866Y-94647142D01*
X188873866Y-94647142D02*
X188826247Y-94551904D01*
X188826247Y-94551904D02*
X188778628Y-94504285D01*
X188778628Y-94504285D02*
X188683390Y-94456666D01*
X188254819Y-93599523D02*
X188254819Y-93789999D01*
X188254819Y-93789999D02*
X188302438Y-93885237D01*
X188302438Y-93885237D02*
X188350057Y-93932856D01*
X188350057Y-93932856D02*
X188492914Y-94028094D01*
X188492914Y-94028094D02*
X188683390Y-94075713D01*
X188683390Y-94075713D02*
X189064342Y-94075713D01*
X189064342Y-94075713D02*
X189159580Y-94028094D01*
X189159580Y-94028094D02*
X189207200Y-93980475D01*
X189207200Y-93980475D02*
X189254819Y-93885237D01*
X189254819Y-93885237D02*
X189254819Y-93694761D01*
X189254819Y-93694761D02*
X189207200Y-93599523D01*
X189207200Y-93599523D02*
X189159580Y-93551904D01*
X189159580Y-93551904D02*
X189064342Y-93504285D01*
X189064342Y-93504285D02*
X188826247Y-93504285D01*
X188826247Y-93504285D02*
X188731009Y-93551904D01*
X188731009Y-93551904D02*
X188683390Y-93599523D01*
X188683390Y-93599523D02*
X188635771Y-93694761D01*
X188635771Y-93694761D02*
X188635771Y-93885237D01*
X188635771Y-93885237D02*
X188683390Y-93980475D01*
X188683390Y-93980475D02*
X188731009Y-94028094D01*
X188731009Y-94028094D02*
X188826247Y-94075713D01*
X188254819Y-92885237D02*
X188254819Y-92789999D01*
X188254819Y-92789999D02*
X188302438Y-92694761D01*
X188302438Y-92694761D02*
X188350057Y-92647142D01*
X188350057Y-92647142D02*
X188445295Y-92599523D01*
X188445295Y-92599523D02*
X188635771Y-92551904D01*
X188635771Y-92551904D02*
X188873866Y-92551904D01*
X188873866Y-92551904D02*
X189064342Y-92599523D01*
X189064342Y-92599523D02*
X189159580Y-92647142D01*
X189159580Y-92647142D02*
X189207200Y-92694761D01*
X189207200Y-92694761D02*
X189254819Y-92789999D01*
X189254819Y-92789999D02*
X189254819Y-92885237D01*
X189254819Y-92885237D02*
X189207200Y-92980475D01*
X189207200Y-92980475D02*
X189159580Y-93028094D01*
X189159580Y-93028094D02*
X189064342Y-93075713D01*
X189064342Y-93075713D02*
X188873866Y-93123332D01*
X188873866Y-93123332D02*
X188635771Y-93123332D01*
X188635771Y-93123332D02*
X188445295Y-93075713D01*
X188445295Y-93075713D02*
X188350057Y-93028094D01*
X188350057Y-93028094D02*
X188302438Y-92980475D01*
X188302438Y-92980475D02*
X188254819Y-92885237D01*
X188254819Y-91932856D02*
X188254819Y-91837618D01*
X188254819Y-91837618D02*
X188302438Y-91742380D01*
X188302438Y-91742380D02*
X188350057Y-91694761D01*
X188350057Y-91694761D02*
X188445295Y-91647142D01*
X188445295Y-91647142D02*
X188635771Y-91599523D01*
X188635771Y-91599523D02*
X188873866Y-91599523D01*
X188873866Y-91599523D02*
X189064342Y-91647142D01*
X189064342Y-91647142D02*
X189159580Y-91694761D01*
X189159580Y-91694761D02*
X189207200Y-91742380D01*
X189207200Y-91742380D02*
X189254819Y-91837618D01*
X189254819Y-91837618D02*
X189254819Y-91932856D01*
X189254819Y-91932856D02*
X189207200Y-92028094D01*
X189207200Y-92028094D02*
X189159580Y-92075713D01*
X189159580Y-92075713D02*
X189064342Y-92123332D01*
X189064342Y-92123332D02*
X188873866Y-92170951D01*
X188873866Y-92170951D02*
X188635771Y-92170951D01*
X188635771Y-92170951D02*
X188445295Y-92123332D01*
X188445295Y-92123332D02*
X188350057Y-92075713D01*
X188350057Y-92075713D02*
X188302438Y-92028094D01*
X188302438Y-92028094D02*
X188254819Y-91932856D01*
X189254819Y-90409046D02*
X188588152Y-90409046D01*
X188683390Y-90409046D02*
X188635771Y-90361427D01*
X188635771Y-90361427D02*
X188588152Y-90266189D01*
X188588152Y-90266189D02*
X188588152Y-90123332D01*
X188588152Y-90123332D02*
X188635771Y-90028094D01*
X188635771Y-90028094D02*
X188731009Y-89980475D01*
X188731009Y-89980475D02*
X189254819Y-89980475D01*
X188731009Y-89980475D02*
X188635771Y-89932856D01*
X188635771Y-89932856D02*
X188588152Y-89837618D01*
X188588152Y-89837618D02*
X188588152Y-89694761D01*
X188588152Y-89694761D02*
X188635771Y-89599522D01*
X188635771Y-89599522D02*
X188731009Y-89551903D01*
X188731009Y-89551903D02*
X189254819Y-89551903D01*
X189254819Y-89075713D02*
X188588152Y-89075713D01*
X188683390Y-89075713D02*
X188635771Y-89028094D01*
X188635771Y-89028094D02*
X188588152Y-88932856D01*
X188588152Y-88932856D02*
X188588152Y-88789999D01*
X188588152Y-88789999D02*
X188635771Y-88694761D01*
X188635771Y-88694761D02*
X188731009Y-88647142D01*
X188731009Y-88647142D02*
X189254819Y-88647142D01*
X188731009Y-88647142D02*
X188635771Y-88599523D01*
X188635771Y-88599523D02*
X188588152Y-88504285D01*
X188588152Y-88504285D02*
X188588152Y-88361428D01*
X188588152Y-88361428D02*
X188635771Y-88266189D01*
X188635771Y-88266189D02*
X188731009Y-88218570D01*
X188731009Y-88218570D02*
X189254819Y-88218570D01*
D46*
X178310000Y-113770000D02*
X190536420Y-113770000D01*
X190536420Y-71810000D02*
X178310000Y-71810000D01*
X189950000Y-113770000D02*
X189950000Y-71810000D01*
X189950000Y-113770000D02*
X189363579Y-112643496D01*
X189950000Y-113770000D02*
X190536421Y-112643496D01*
X189950000Y-71810000D02*
X190536421Y-72936504D01*
X189950000Y-71810000D02*
X189363579Y-72936504D01*
D45*
X137103334Y-125964819D02*
X137770000Y-125964819D01*
X137770000Y-125964819D02*
X137341429Y-126964819D01*
X138103334Y-126060057D02*
X138150953Y-126012438D01*
X138150953Y-126012438D02*
X138246191Y-125964819D01*
X138246191Y-125964819D02*
X138484286Y-125964819D01*
X138484286Y-125964819D02*
X138579524Y-126012438D01*
X138579524Y-126012438D02*
X138627143Y-126060057D01*
X138627143Y-126060057D02*
X138674762Y-126155295D01*
X138674762Y-126155295D02*
X138674762Y-126250533D01*
X138674762Y-126250533D02*
X138627143Y-126393390D01*
X138627143Y-126393390D02*
X138055715Y-126964819D01*
X138055715Y-126964819D02*
X138674762Y-126964819D01*
X139103334Y-126869580D02*
X139150953Y-126917200D01*
X139150953Y-126917200D02*
X139103334Y-126964819D01*
X139103334Y-126964819D02*
X139055715Y-126917200D01*
X139055715Y-126917200D02*
X139103334Y-126869580D01*
X139103334Y-126869580D02*
X139103334Y-126964819D01*
X139770000Y-125964819D02*
X139865238Y-125964819D01*
X139865238Y-125964819D02*
X139960476Y-126012438D01*
X139960476Y-126012438D02*
X140008095Y-126060057D01*
X140008095Y-126060057D02*
X140055714Y-126155295D01*
X140055714Y-126155295D02*
X140103333Y-126345771D01*
X140103333Y-126345771D02*
X140103333Y-126583866D01*
X140103333Y-126583866D02*
X140055714Y-126774342D01*
X140055714Y-126774342D02*
X140008095Y-126869580D01*
X140008095Y-126869580D02*
X139960476Y-126917200D01*
X139960476Y-126917200D02*
X139865238Y-126964819D01*
X139865238Y-126964819D02*
X139770000Y-126964819D01*
X139770000Y-126964819D02*
X139674762Y-126917200D01*
X139674762Y-126917200D02*
X139627143Y-126869580D01*
X139627143Y-126869580D02*
X139579524Y-126774342D01*
X139579524Y-126774342D02*
X139531905Y-126583866D01*
X139531905Y-126583866D02*
X139531905Y-126345771D01*
X139531905Y-126345771D02*
X139579524Y-126155295D01*
X139579524Y-126155295D02*
X139627143Y-126060057D01*
X139627143Y-126060057D02*
X139674762Y-126012438D01*
X139674762Y-126012438D02*
X139770000Y-125964819D01*
X140674762Y-126393390D02*
X140579524Y-126345771D01*
X140579524Y-126345771D02*
X140531905Y-126298152D01*
X140531905Y-126298152D02*
X140484286Y-126202914D01*
X140484286Y-126202914D02*
X140484286Y-126155295D01*
X140484286Y-126155295D02*
X140531905Y-126060057D01*
X140531905Y-126060057D02*
X140579524Y-126012438D01*
X140579524Y-126012438D02*
X140674762Y-125964819D01*
X140674762Y-125964819D02*
X140865238Y-125964819D01*
X140865238Y-125964819D02*
X140960476Y-126012438D01*
X140960476Y-126012438D02*
X141008095Y-126060057D01*
X141008095Y-126060057D02*
X141055714Y-126155295D01*
X141055714Y-126155295D02*
X141055714Y-126202914D01*
X141055714Y-126202914D02*
X141008095Y-126298152D01*
X141008095Y-126298152D02*
X140960476Y-126345771D01*
X140960476Y-126345771D02*
X140865238Y-126393390D01*
X140865238Y-126393390D02*
X140674762Y-126393390D01*
X140674762Y-126393390D02*
X140579524Y-126441009D01*
X140579524Y-126441009D02*
X140531905Y-126488628D01*
X140531905Y-126488628D02*
X140484286Y-126583866D01*
X140484286Y-126583866D02*
X140484286Y-126774342D01*
X140484286Y-126774342D02*
X140531905Y-126869580D01*
X140531905Y-126869580D02*
X140579524Y-126917200D01*
X140579524Y-126917200D02*
X140674762Y-126964819D01*
X140674762Y-126964819D02*
X140865238Y-126964819D01*
X140865238Y-126964819D02*
X140960476Y-126917200D01*
X140960476Y-126917200D02*
X141008095Y-126869580D01*
X141008095Y-126869580D02*
X141055714Y-126774342D01*
X141055714Y-126774342D02*
X141055714Y-126583866D01*
X141055714Y-126583866D02*
X141008095Y-126488628D01*
X141008095Y-126488628D02*
X140960476Y-126441009D01*
X140960476Y-126441009D02*
X140865238Y-126393390D01*
X141674762Y-125964819D02*
X141770000Y-125964819D01*
X141770000Y-125964819D02*
X141865238Y-126012438D01*
X141865238Y-126012438D02*
X141912857Y-126060057D01*
X141912857Y-126060057D02*
X141960476Y-126155295D01*
X141960476Y-126155295D02*
X142008095Y-126345771D01*
X142008095Y-126345771D02*
X142008095Y-126583866D01*
X142008095Y-126583866D02*
X141960476Y-126774342D01*
X141960476Y-126774342D02*
X141912857Y-126869580D01*
X141912857Y-126869580D02*
X141865238Y-126917200D01*
X141865238Y-126917200D02*
X141770000Y-126964819D01*
X141770000Y-126964819D02*
X141674762Y-126964819D01*
X141674762Y-126964819D02*
X141579524Y-126917200D01*
X141579524Y-126917200D02*
X141531905Y-126869580D01*
X141531905Y-126869580D02*
X141484286Y-126774342D01*
X141484286Y-126774342D02*
X141436667Y-126583866D01*
X141436667Y-126583866D02*
X141436667Y-126345771D01*
X141436667Y-126345771D02*
X141484286Y-126155295D01*
X141484286Y-126155295D02*
X141531905Y-126060057D01*
X141531905Y-126060057D02*
X141579524Y-126012438D01*
X141579524Y-126012438D02*
X141674762Y-125964819D01*
X142627143Y-125964819D02*
X142722381Y-125964819D01*
X142722381Y-125964819D02*
X142817619Y-126012438D01*
X142817619Y-126012438D02*
X142865238Y-126060057D01*
X142865238Y-126060057D02*
X142912857Y-126155295D01*
X142912857Y-126155295D02*
X142960476Y-126345771D01*
X142960476Y-126345771D02*
X142960476Y-126583866D01*
X142960476Y-126583866D02*
X142912857Y-126774342D01*
X142912857Y-126774342D02*
X142865238Y-126869580D01*
X142865238Y-126869580D02*
X142817619Y-126917200D01*
X142817619Y-126917200D02*
X142722381Y-126964819D01*
X142722381Y-126964819D02*
X142627143Y-126964819D01*
X142627143Y-126964819D02*
X142531905Y-126917200D01*
X142531905Y-126917200D02*
X142484286Y-126869580D01*
X142484286Y-126869580D02*
X142436667Y-126774342D01*
X142436667Y-126774342D02*
X142389048Y-126583866D01*
X142389048Y-126583866D02*
X142389048Y-126345771D01*
X142389048Y-126345771D02*
X142436667Y-126155295D01*
X142436667Y-126155295D02*
X142484286Y-126060057D01*
X142484286Y-126060057D02*
X142531905Y-126012438D01*
X142531905Y-126012438D02*
X142627143Y-125964819D01*
X144150953Y-126964819D02*
X144150953Y-126298152D01*
X144150953Y-126393390D02*
X144198572Y-126345771D01*
X144198572Y-126345771D02*
X144293810Y-126298152D01*
X144293810Y-126298152D02*
X144436667Y-126298152D01*
X144436667Y-126298152D02*
X144531905Y-126345771D01*
X144531905Y-126345771D02*
X144579524Y-126441009D01*
X144579524Y-126441009D02*
X144579524Y-126964819D01*
X144579524Y-126441009D02*
X144627143Y-126345771D01*
X144627143Y-126345771D02*
X144722381Y-126298152D01*
X144722381Y-126298152D02*
X144865238Y-126298152D01*
X144865238Y-126298152D02*
X144960477Y-126345771D01*
X144960477Y-126345771D02*
X145008096Y-126441009D01*
X145008096Y-126441009D02*
X145008096Y-126964819D01*
X145484286Y-126964819D02*
X145484286Y-126298152D01*
X145484286Y-126393390D02*
X145531905Y-126345771D01*
X145531905Y-126345771D02*
X145627143Y-126298152D01*
X145627143Y-126298152D02*
X145770000Y-126298152D01*
X145770000Y-126298152D02*
X145865238Y-126345771D01*
X145865238Y-126345771D02*
X145912857Y-126441009D01*
X145912857Y-126441009D02*
X145912857Y-126964819D01*
X145912857Y-126441009D02*
X145960476Y-126345771D01*
X145960476Y-126345771D02*
X146055714Y-126298152D01*
X146055714Y-126298152D02*
X146198571Y-126298152D01*
X146198571Y-126298152D02*
X146293810Y-126345771D01*
X146293810Y-126345771D02*
X146341429Y-126441009D01*
X146341429Y-126441009D02*
X146341429Y-126964819D01*
D46*
X105730000Y-113560000D02*
X105730000Y-128246420D01*
X177810000Y-128246420D02*
X177810000Y-113560000D01*
X105730000Y-127660000D02*
X177810000Y-127660000D01*
X105730000Y-127660000D02*
X106856504Y-127073579D01*
X105730000Y-127660000D02*
X106856504Y-128246421D01*
X177810000Y-127660000D02*
X176683496Y-128246421D01*
X177810000Y-127660000D02*
X176683496Y-127073579D01*
M02*
