%TF.GenerationSoftware,KiCad,Pcbnew,10.0.1*%
%TF.CreationDate,2026-05-08T14:49:58+02:00*%
%TF.ProjectId,vscp-din-stm32h552-can-z102,76736370-2d64-4696-9e2d-73746d333268,B*%
%TF.SameCoordinates,Original*%
%TF.FileFunction,Profile,NP*%
%FSLAX46Y46*%
G04 Gerber Fmt 4.6, Leading zero omitted, Abs format (unit mm)*
G04 Created by KiCad (PCBNEW 10.0.1) date 2026-05-08 14:49:58*
%MOMM*%
%LPD*%
G01*
G04 APERTURE LIST*
%TA.AperFunction,Profile*%
%ADD10C,0.050000*%
%TD*%
%TA.AperFunction,Profile*%
%ADD11C,0.660400*%
%TD*%
%ADD12C,0.150000*%
%ADD13C,0.050000*%
G04 APERTURE END LIST*
D10*
X105730000Y-71810000D02*
X177810000Y-71810000D01*
X177810000Y-113770000D01*
X105730000Y-113770000D01*
X105730000Y-71810000D01*
%TO.C,J5*%
D11*
X111104999Y-87391601D02*
X111104999Y-87188401D01*
%TD*%
D12*
X188588152Y-96932856D02*
X189254819Y-96932856D01*
X188207200Y-97170951D02*
X188921485Y-97409046D01*
X188921485Y-97409046D02*
X188921485Y-96789999D01*
X189254819Y-95885237D02*
X189254819Y-96456665D01*
X189254819Y-96170951D02*
X188254819Y-96170951D01*
X188254819Y-96170951D02*
X188397676Y-96266189D01*
X188397676Y-96266189D02*
X188492914Y-96361427D01*
X188492914Y-96361427D02*
X188540533Y-96456665D01*
X189159580Y-95456665D02*
X189207200Y-95409046D01*
X189207200Y-95409046D02*
X189254819Y-95456665D01*
X189254819Y-95456665D02*
X189207200Y-95504284D01*
X189207200Y-95504284D02*
X189159580Y-95456665D01*
X189159580Y-95456665D02*
X189254819Y-95456665D01*
X189254819Y-94932856D02*
X189254819Y-94742380D01*
X189254819Y-94742380D02*
X189207200Y-94647142D01*
X189207200Y-94647142D02*
X189159580Y-94599523D01*
X189159580Y-94599523D02*
X189016723Y-94504285D01*
X189016723Y-94504285D02*
X188826247Y-94456666D01*
X188826247Y-94456666D02*
X188445295Y-94456666D01*
X188445295Y-94456666D02*
X188350057Y-94504285D01*
X188350057Y-94504285D02*
X188302438Y-94551904D01*
X188302438Y-94551904D02*
X188254819Y-94647142D01*
X188254819Y-94647142D02*
X188254819Y-94837618D01*
X188254819Y-94837618D02*
X188302438Y-94932856D01*
X188302438Y-94932856D02*
X188350057Y-94980475D01*
X188350057Y-94980475D02*
X188445295Y-95028094D01*
X188445295Y-95028094D02*
X188683390Y-95028094D01*
X188683390Y-95028094D02*
X188778628Y-94980475D01*
X188778628Y-94980475D02*
X188826247Y-94932856D01*
X188826247Y-94932856D02*
X188873866Y-94837618D01*
X188873866Y-94837618D02*
X188873866Y-94647142D01*
X188873866Y-94647142D02*
X188826247Y-94551904D01*
X188826247Y-94551904D02*
X188778628Y-94504285D01*
X188778628Y-94504285D02*
X188683390Y-94456666D01*
X188254819Y-93599523D02*
X188254819Y-93789999D01*
X188254819Y-93789999D02*
X188302438Y-93885237D01*
X188302438Y-93885237D02*
X188350057Y-93932856D01*
X188350057Y-93932856D02*
X188492914Y-94028094D01*
X188492914Y-94028094D02*
X188683390Y-94075713D01*
X188683390Y-94075713D02*
X189064342Y-94075713D01*
X189064342Y-94075713D02*
X189159580Y-94028094D01*
X189159580Y-94028094D02*
X189207200Y-93980475D01*
X189207200Y-93980475D02*
X189254819Y-93885237D01*
X189254819Y-93885237D02*
X189254819Y-93694761D01*
X189254819Y-93694761D02*
X189207200Y-93599523D01*
X189207200Y-93599523D02*
X189159580Y-93551904D01*
X189159580Y-93551904D02*
X189064342Y-93504285D01*
X189064342Y-93504285D02*
X188826247Y-93504285D01*
X188826247Y-93504285D02*
X188731009Y-93551904D01*
X188731009Y-93551904D02*
X188683390Y-93599523D01*
X188683390Y-93599523D02*
X188635771Y-93694761D01*
X188635771Y-93694761D02*
X188635771Y-93885237D01*
X188635771Y-93885237D02*
X188683390Y-93980475D01*
X188683390Y-93980475D02*
X188731009Y-94028094D01*
X188731009Y-94028094D02*
X188826247Y-94075713D01*
X188254819Y-92885237D02*
X188254819Y-92789999D01*
X188254819Y-92789999D02*
X188302438Y-92694761D01*
X188302438Y-92694761D02*
X188350057Y-92647142D01*
X188350057Y-92647142D02*
X188445295Y-92599523D01*
X188445295Y-92599523D02*
X188635771Y-92551904D01*
X188635771Y-92551904D02*
X188873866Y-92551904D01*
X188873866Y-92551904D02*
X189064342Y-92599523D01*
X189064342Y-92599523D02*
X189159580Y-92647142D01*
X189159580Y-92647142D02*
X189207200Y-92694761D01*
X189207200Y-92694761D02*
X189254819Y-92789999D01*
X189254819Y-92789999D02*
X189254819Y-92885237D01*
X189254819Y-92885237D02*
X189207200Y-92980475D01*
X189207200Y-92980475D02*
X189159580Y-93028094D01*
X189159580Y-93028094D02*
X189064342Y-93075713D01*
X189064342Y-93075713D02*
X188873866Y-93123332D01*
X188873866Y-93123332D02*
X188635771Y-93123332D01*
X188635771Y-93123332D02*
X188445295Y-93075713D01*
X188445295Y-93075713D02*
X188350057Y-93028094D01*
X188350057Y-93028094D02*
X188302438Y-92980475D01*
X188302438Y-92980475D02*
X188254819Y-92885237D01*
X188254819Y-91932856D02*
X188254819Y-91837618D01*
X188254819Y-91837618D02*
X188302438Y-91742380D01*
X188302438Y-91742380D02*
X188350057Y-91694761D01*
X188350057Y-91694761D02*
X188445295Y-91647142D01*
X188445295Y-91647142D02*
X188635771Y-91599523D01*
X188635771Y-91599523D02*
X188873866Y-91599523D01*
X188873866Y-91599523D02*
X189064342Y-91647142D01*
X189064342Y-91647142D02*
X189159580Y-91694761D01*
X189159580Y-91694761D02*
X189207200Y-91742380D01*
X189207200Y-91742380D02*
X189254819Y-91837618D01*
X189254819Y-91837618D02*
X189254819Y-91932856D01*
X189254819Y-91932856D02*
X189207200Y-92028094D01*
X189207200Y-92028094D02*
X189159580Y-92075713D01*
X189159580Y-92075713D02*
X189064342Y-92123332D01*
X189064342Y-92123332D02*
X188873866Y-92170951D01*
X188873866Y-92170951D02*
X188635771Y-92170951D01*
X188635771Y-92170951D02*
X188445295Y-92123332D01*
X188445295Y-92123332D02*
X188350057Y-92075713D01*
X188350057Y-92075713D02*
X188302438Y-92028094D01*
X188302438Y-92028094D02*
X188254819Y-91932856D01*
X189254819Y-90409046D02*
X188588152Y-90409046D01*
X188683390Y-90409046D02*
X188635771Y-90361427D01*
X188635771Y-90361427D02*
X188588152Y-90266189D01*
X188588152Y-90266189D02*
X188588152Y-90123332D01*
X188588152Y-90123332D02*
X188635771Y-90028094D01*
X188635771Y-90028094D02*
X188731009Y-89980475D01*
X188731009Y-89980475D02*
X189254819Y-89980475D01*
X188731009Y-89980475D02*
X188635771Y-89932856D01*
X188635771Y-89932856D02*
X188588152Y-89837618D01*
X188588152Y-89837618D02*
X188588152Y-89694761D01*
X188588152Y-89694761D02*
X188635771Y-89599522D01*
X188635771Y-89599522D02*
X188731009Y-89551903D01*
X188731009Y-89551903D02*
X189254819Y-89551903D01*
X189254819Y-89075713D02*
X188588152Y-89075713D01*
X188683390Y-89075713D02*
X188635771Y-89028094D01*
X188635771Y-89028094D02*
X188588152Y-88932856D01*
X188588152Y-88932856D02*
X188588152Y-88789999D01*
X188588152Y-88789999D02*
X188635771Y-88694761D01*
X188635771Y-88694761D02*
X188731009Y-88647142D01*
X188731009Y-88647142D02*
X189254819Y-88647142D01*
X188731009Y-88647142D02*
X188635771Y-88599523D01*
X188635771Y-88599523D02*
X188588152Y-88504285D01*
X188588152Y-88504285D02*
X188588152Y-88361428D01*
X188588152Y-88361428D02*
X188635771Y-88266189D01*
X188635771Y-88266189D02*
X188731009Y-88218570D01*
X188731009Y-88218570D02*
X189254819Y-88218570D01*
D13*
X178310000Y-113770000D02*
X190536420Y-113770000D01*
X190536420Y-71810000D02*
X178310000Y-71810000D01*
X189950000Y-113770000D02*
X189950000Y-71810000D01*
X189950000Y-113770000D02*
X189363579Y-112643496D01*
X189950000Y-113770000D02*
X190536421Y-112643496D01*
X189950000Y-71810000D02*
X190536421Y-72936504D01*
X189950000Y-71810000D02*
X189363579Y-72936504D01*
D12*
X137103334Y-125964819D02*
X137770000Y-125964819D01*
X137770000Y-125964819D02*
X137341429Y-126964819D01*
X138103334Y-126060057D02*
X138150953Y-126012438D01*
X138150953Y-126012438D02*
X138246191Y-125964819D01*
X138246191Y-125964819D02*
X138484286Y-125964819D01*
X138484286Y-125964819D02*
X138579524Y-126012438D01*
X138579524Y-126012438D02*
X138627143Y-126060057D01*
X138627143Y-126060057D02*
X138674762Y-126155295D01*
X138674762Y-126155295D02*
X138674762Y-126250533D01*
X138674762Y-126250533D02*
X138627143Y-126393390D01*
X138627143Y-126393390D02*
X138055715Y-126964819D01*
X138055715Y-126964819D02*
X138674762Y-126964819D01*
X139103334Y-126869580D02*
X139150953Y-126917200D01*
X139150953Y-126917200D02*
X139103334Y-126964819D01*
X139103334Y-126964819D02*
X139055715Y-126917200D01*
X139055715Y-126917200D02*
X139103334Y-126869580D01*
X139103334Y-126869580D02*
X139103334Y-126964819D01*
X139770000Y-125964819D02*
X139865238Y-125964819D01*
X139865238Y-125964819D02*
X139960476Y-126012438D01*
X139960476Y-126012438D02*
X140008095Y-126060057D01*
X140008095Y-126060057D02*
X140055714Y-126155295D01*
X140055714Y-126155295D02*
X140103333Y-126345771D01*
X140103333Y-126345771D02*
X140103333Y-126583866D01*
X140103333Y-126583866D02*
X140055714Y-126774342D01*
X140055714Y-126774342D02*
X140008095Y-126869580D01*
X140008095Y-126869580D02*
X139960476Y-126917200D01*
X139960476Y-126917200D02*
X139865238Y-126964819D01*
X139865238Y-126964819D02*
X139770000Y-126964819D01*
X139770000Y-126964819D02*
X139674762Y-126917200D01*
X139674762Y-126917200D02*
X139627143Y-126869580D01*
X139627143Y-126869580D02*
X139579524Y-126774342D01*
X139579524Y-126774342D02*
X139531905Y-126583866D01*
X139531905Y-126583866D02*
X139531905Y-126345771D01*
X139531905Y-126345771D02*
X139579524Y-126155295D01*
X139579524Y-126155295D02*
X139627143Y-126060057D01*
X139627143Y-126060057D02*
X139674762Y-126012438D01*
X139674762Y-126012438D02*
X139770000Y-125964819D01*
X140674762Y-126393390D02*
X140579524Y-126345771D01*
X140579524Y-126345771D02*
X140531905Y-126298152D01*
X140531905Y-126298152D02*
X140484286Y-126202914D01*
X140484286Y-126202914D02*
X140484286Y-126155295D01*
X140484286Y-126155295D02*
X140531905Y-126060057D01*
X140531905Y-126060057D02*
X140579524Y-126012438D01*
X140579524Y-126012438D02*
X140674762Y-125964819D01*
X140674762Y-125964819D02*
X140865238Y-125964819D01*
X140865238Y-125964819D02*
X140960476Y-126012438D01*
X140960476Y-126012438D02*
X141008095Y-126060057D01*
X141008095Y-126060057D02*
X141055714Y-126155295D01*
X141055714Y-126155295D02*
X141055714Y-126202914D01*
X141055714Y-126202914D02*
X141008095Y-126298152D01*
X141008095Y-126298152D02*
X140960476Y-126345771D01*
X140960476Y-126345771D02*
X140865238Y-126393390D01*
X140865238Y-126393390D02*
X140674762Y-126393390D01*
X140674762Y-126393390D02*
X140579524Y-126441009D01*
X140579524Y-126441009D02*
X140531905Y-126488628D01*
X140531905Y-126488628D02*
X140484286Y-126583866D01*
X140484286Y-126583866D02*
X140484286Y-126774342D01*
X140484286Y-126774342D02*
X140531905Y-126869580D01*
X140531905Y-126869580D02*
X140579524Y-126917200D01*
X140579524Y-126917200D02*
X140674762Y-126964819D01*
X140674762Y-126964819D02*
X140865238Y-126964819D01*
X140865238Y-126964819D02*
X140960476Y-126917200D01*
X140960476Y-126917200D02*
X141008095Y-126869580D01*
X141008095Y-126869580D02*
X141055714Y-126774342D01*
X141055714Y-126774342D02*
X141055714Y-126583866D01*
X141055714Y-126583866D02*
X141008095Y-126488628D01*
X141008095Y-126488628D02*
X140960476Y-126441009D01*
X140960476Y-126441009D02*
X140865238Y-126393390D01*
X141674762Y-125964819D02*
X141770000Y-125964819D01*
X141770000Y-125964819D02*
X141865238Y-126012438D01*
X141865238Y-126012438D02*
X141912857Y-126060057D01*
X141912857Y-126060057D02*
X141960476Y-126155295D01*
X141960476Y-126155295D02*
X142008095Y-126345771D01*
X142008095Y-126345771D02*
X142008095Y-126583866D01*
X142008095Y-126583866D02*
X141960476Y-126774342D01*
X141960476Y-126774342D02*
X141912857Y-126869580D01*
X141912857Y-126869580D02*
X141865238Y-126917200D01*
X141865238Y-126917200D02*
X141770000Y-126964819D01*
X141770000Y-126964819D02*
X141674762Y-126964819D01*
X141674762Y-126964819D02*
X141579524Y-126917200D01*
X141579524Y-126917200D02*
X141531905Y-126869580D01*
X141531905Y-126869580D02*
X141484286Y-126774342D01*
X141484286Y-126774342D02*
X141436667Y-126583866D01*
X141436667Y-126583866D02*
X141436667Y-126345771D01*
X141436667Y-126345771D02*
X141484286Y-126155295D01*
X141484286Y-126155295D02*
X141531905Y-126060057D01*
X141531905Y-126060057D02*
X141579524Y-126012438D01*
X141579524Y-126012438D02*
X141674762Y-125964819D01*
X142627143Y-125964819D02*
X142722381Y-125964819D01*
X142722381Y-125964819D02*
X142817619Y-126012438D01*
X142817619Y-126012438D02*
X142865238Y-126060057D01*
X142865238Y-126060057D02*
X142912857Y-126155295D01*
X142912857Y-126155295D02*
X142960476Y-126345771D01*
X142960476Y-126345771D02*
X142960476Y-126583866D01*
X142960476Y-126583866D02*
X142912857Y-126774342D01*
X142912857Y-126774342D02*
X142865238Y-126869580D01*
X142865238Y-126869580D02*
X142817619Y-126917200D01*
X142817619Y-126917200D02*
X142722381Y-126964819D01*
X142722381Y-126964819D02*
X142627143Y-126964819D01*
X142627143Y-126964819D02*
X142531905Y-126917200D01*
X142531905Y-126917200D02*
X142484286Y-126869580D01*
X142484286Y-126869580D02*
X142436667Y-126774342D01*
X142436667Y-126774342D02*
X142389048Y-126583866D01*
X142389048Y-126583866D02*
X142389048Y-126345771D01*
X142389048Y-126345771D02*
X142436667Y-126155295D01*
X142436667Y-126155295D02*
X142484286Y-126060057D01*
X142484286Y-126060057D02*
X142531905Y-126012438D01*
X142531905Y-126012438D02*
X142627143Y-125964819D01*
X144150953Y-126964819D02*
X144150953Y-126298152D01*
X144150953Y-126393390D02*
X144198572Y-126345771D01*
X144198572Y-126345771D02*
X144293810Y-126298152D01*
X144293810Y-126298152D02*
X144436667Y-126298152D01*
X144436667Y-126298152D02*
X144531905Y-126345771D01*
X144531905Y-126345771D02*
X144579524Y-126441009D01*
X144579524Y-126441009D02*
X144579524Y-126964819D01*
X144579524Y-126441009D02*
X144627143Y-126345771D01*
X144627143Y-126345771D02*
X144722381Y-126298152D01*
X144722381Y-126298152D02*
X144865238Y-126298152D01*
X144865238Y-126298152D02*
X144960477Y-126345771D01*
X144960477Y-126345771D02*
X145008096Y-126441009D01*
X145008096Y-126441009D02*
X145008096Y-126964819D01*
X145484286Y-126964819D02*
X145484286Y-126298152D01*
X145484286Y-126393390D02*
X145531905Y-126345771D01*
X145531905Y-126345771D02*
X145627143Y-126298152D01*
X145627143Y-126298152D02*
X145770000Y-126298152D01*
X145770000Y-126298152D02*
X145865238Y-126345771D01*
X145865238Y-126345771D02*
X145912857Y-126441009D01*
X145912857Y-126441009D02*
X145912857Y-126964819D01*
X145912857Y-126441009D02*
X145960476Y-126345771D01*
X145960476Y-126345771D02*
X146055714Y-126298152D01*
X146055714Y-126298152D02*
X146198571Y-126298152D01*
X146198571Y-126298152D02*
X146293810Y-126345771D01*
X146293810Y-126345771D02*
X146341429Y-126441009D01*
X146341429Y-126441009D02*
X146341429Y-126964819D01*
D13*
X105730000Y-113560000D02*
X105730000Y-128246420D01*
X177810000Y-128246420D02*
X177810000Y-113560000D01*
X105730000Y-127660000D02*
X177810000Y-127660000D01*
X105730000Y-127660000D02*
X106856504Y-127073579D01*
X105730000Y-127660000D02*
X106856504Y-128246421D01*
X177810000Y-127660000D02*
X176683496Y-128246421D01*
X177810000Y-127660000D02*
X176683496Y-127073579D01*
M02*
