M48
; DRILL file KiCad 10.0.1 date 2026-05-08T11:49:15
; FORMAT={-:-/ absolute / metric / decimal}
; #@! TF.CreationDate,2026-05-08T11:49:15+02:00
; #@! TF.GenerationSoftware,Kicad,Pcbnew,10.0.1
; #@! TF.FileFunction,Plated,1,4,PTH
FMAT,2
METRIC
; #@! TA.AperFunction,Plated,PTH,ViaDrill
T1C0.400
; #@! TA.AperFunction,Plated,PTH,ComponentDrill
T2C0.650
; #@! TA.AperFunction,Plated,PTH,ComponentDrill
T3C1.000
; #@! TA.AperFunction,Plated,PTH,ComponentDrill
T4C1.200
%
G90
G05
T1
X108.19Y-88.46
X108.29Y-92.78
X110.91Y-93.38
X110.93Y-103.84
X111.1Y-89.33
X111.31Y-75.16
X111.31Y-91.84
X111.32Y-77.37
X111.97Y-82.54
X111.99Y-84.67
X113.957Y-91.093
X114.02Y-88.18
X114.12Y-94.08
X114.63Y-81.8
X115.6Y-86.61
X115.69Y-93.54
X116.43Y-79.89
X117.17Y-88.545
X117.17Y-89.595
X117.3Y-91.72
X117.32Y-103.74
X117.68Y-86.61
X118.1Y-111.12
X119.0Y-84.82
X119.01Y-82.52
X125.51Y-84.79
X139.67Y-110.62
X140.22Y-80.76
X141.11Y-90.62
X144.37Y-84.77
X144.92Y-110.65
X145.32Y-73.03
X146.76Y-103.68
X146.81Y-76.0
X148.05Y-85.01
X148.2Y-78.88
X149.96Y-90.6
X150.07Y-76.18
X150.61Y-110.77
X150.81Y-100.92
X151.352Y-79.229
X151.44Y-73.13
X151.76Y-80.43
X151.76Y-82.53
X153.34Y-73.15
X155.2Y-88.86
X155.43Y-78.44
X155.45Y-80.868
X155.46Y-73.14
X156.02Y-110.7
X156.192Y-81.61
X156.368Y-104.82
X157.58Y-76.35
X159.59Y-87.73
X160.58Y-75.48
X161.21Y-80.29
X161.71Y-110.75
X162.89Y-75.51
X165.98Y-95.15
X167.06Y-110.71
X168.98Y-93.91
X169.01Y-102.2
X170.42Y-107.91
X171.59Y-92.62
X174.52Y-96.45
X175.98Y-97.13
X176.59Y-92.8
X176.92Y-94.9
T2
X162.06Y-82.952
X162.06Y-84.222
X163.33Y-82.952
X163.33Y-84.222
X164.6Y-82.952
X164.6Y-84.222
X165.87Y-82.952
X165.87Y-84.222
X167.14Y-82.952
X167.14Y-84.222
T3
X119.92Y-78.37
X122.46Y-78.37
X125.0Y-78.37
X127.54Y-78.37
X141.62Y-87.312
X146.62Y-87.312
X166.005Y-75.32
X168.545Y-75.32
X174.85Y-107.835
X174.85Y-110.375
T4
X172.957Y-76.64
X172.957Y-80.45
X172.957Y-84.26
X172.957Y-88.07
M30
