%TF.GenerationSoftware,KiCad,Pcbnew,10.0.1*%
%TF.CreationDate,2026-05-08T14:49:57+02:00*%
%TF.ProjectId,vscp-din-stm32h552-can-z102,76736370-2d64-4696-9e2d-73746d333268,B*%
%TF.SameCoordinates,Original*%
%TF.FileFunction,Legend,Top*%
%TF.FilePolarity,Positive*%
%FSLAX46Y46*%
G04 Gerber Fmt 4.6, Leading zero omitted, Abs format (unit mm)*
G04 Created by KiCad (PCBNEW 10.0.1) date 2026-05-08 14:49:57*
%MOMM*%
%LPD*%
G01*
G04 APERTURE LIST*
%ADD10C,0.300000*%
%ADD11C,0.254000*%
%ADD12C,0.150000*%
%ADD13C,0.100000*%
%ADD14C,0.200000*%
%ADD15C,0.120000*%
%ADD16C,0.152400*%
%ADD17C,0.508000*%
%ADD18C,0.250000*%
%ADD19C,0.050000*%
G04 APERTURE END LIST*
D10*
X127541653Y-95653055D02*
X127470225Y-95724484D01*
X127470225Y-95724484D02*
X127255939Y-95795912D01*
X127255939Y-95795912D02*
X127113082Y-95795912D01*
X127113082Y-95795912D02*
X126898796Y-95724484D01*
X126898796Y-95724484D02*
X126755939Y-95581626D01*
X126755939Y-95581626D02*
X126684510Y-95438769D01*
X126684510Y-95438769D02*
X126613082Y-95153055D01*
X126613082Y-95153055D02*
X126613082Y-94938769D01*
X126613082Y-94938769D02*
X126684510Y-94653055D01*
X126684510Y-94653055D02*
X126755939Y-94510198D01*
X126755939Y-94510198D02*
X126898796Y-94367341D01*
X126898796Y-94367341D02*
X127113082Y-94295912D01*
X127113082Y-94295912D02*
X127255939Y-94295912D01*
X127255939Y-94295912D02*
X127470225Y-94367341D01*
X127470225Y-94367341D02*
X127541653Y-94438769D01*
X128113082Y-95367341D02*
X128827368Y-95367341D01*
X127970225Y-95795912D02*
X128470225Y-94295912D01*
X128470225Y-94295912D02*
X128970225Y-95795912D01*
X129470224Y-95795912D02*
X129470224Y-94295912D01*
X129470224Y-94295912D02*
X130327367Y-95795912D01*
X130327367Y-95795912D02*
X130327367Y-94295912D01*
X131684511Y-94795912D02*
X131684511Y-95795912D01*
X131327368Y-94224484D02*
X130970225Y-95295912D01*
X130970225Y-95295912D02*
X131898796Y-95295912D01*
X132255939Y-94295912D02*
X132755939Y-95795912D01*
X132755939Y-95795912D02*
X133255939Y-94295912D01*
X133684510Y-95724484D02*
X133898796Y-95795912D01*
X133898796Y-95795912D02*
X134255938Y-95795912D01*
X134255938Y-95795912D02*
X134398796Y-95724484D01*
X134398796Y-95724484D02*
X134470224Y-95653055D01*
X134470224Y-95653055D02*
X134541653Y-95510198D01*
X134541653Y-95510198D02*
X134541653Y-95367341D01*
X134541653Y-95367341D02*
X134470224Y-95224484D01*
X134470224Y-95224484D02*
X134398796Y-95153055D01*
X134398796Y-95153055D02*
X134255938Y-95081626D01*
X134255938Y-95081626D02*
X133970224Y-95010198D01*
X133970224Y-95010198D02*
X133827367Y-94938769D01*
X133827367Y-94938769D02*
X133755938Y-94867341D01*
X133755938Y-94867341D02*
X133684510Y-94724484D01*
X133684510Y-94724484D02*
X133684510Y-94581626D01*
X133684510Y-94581626D02*
X133755938Y-94438769D01*
X133755938Y-94438769D02*
X133827367Y-94367341D01*
X133827367Y-94367341D02*
X133970224Y-94295912D01*
X133970224Y-94295912D02*
X134327367Y-94295912D01*
X134327367Y-94295912D02*
X134541653Y-94367341D01*
X136041652Y-95653055D02*
X135970224Y-95724484D01*
X135970224Y-95724484D02*
X135755938Y-95795912D01*
X135755938Y-95795912D02*
X135613081Y-95795912D01*
X135613081Y-95795912D02*
X135398795Y-95724484D01*
X135398795Y-95724484D02*
X135255938Y-95581626D01*
X135255938Y-95581626D02*
X135184509Y-95438769D01*
X135184509Y-95438769D02*
X135113081Y-95153055D01*
X135113081Y-95153055D02*
X135113081Y-94938769D01*
X135113081Y-94938769D02*
X135184509Y-94653055D01*
X135184509Y-94653055D02*
X135255938Y-94510198D01*
X135255938Y-94510198D02*
X135398795Y-94367341D01*
X135398795Y-94367341D02*
X135613081Y-94295912D01*
X135613081Y-94295912D02*
X135755938Y-94295912D01*
X135755938Y-94295912D02*
X135970224Y-94367341D01*
X135970224Y-94367341D02*
X136041652Y-94438769D01*
X136684509Y-95795912D02*
X136684509Y-94295912D01*
X136684509Y-94295912D02*
X137255938Y-94295912D01*
X137255938Y-94295912D02*
X137398795Y-94367341D01*
X137398795Y-94367341D02*
X137470224Y-94438769D01*
X137470224Y-94438769D02*
X137541652Y-94581626D01*
X137541652Y-94581626D02*
X137541652Y-94795912D01*
X137541652Y-94795912D02*
X137470224Y-94938769D01*
X137470224Y-94938769D02*
X137398795Y-95010198D01*
X137398795Y-95010198D02*
X137255938Y-95081626D01*
X137255938Y-95081626D02*
X136684509Y-95081626D01*
X139827366Y-95010198D02*
X139327366Y-95010198D01*
X139327366Y-95795912D02*
X139327366Y-94295912D01*
X139327366Y-94295912D02*
X140041652Y-94295912D01*
X140613080Y-95795912D02*
X140613080Y-94795912D01*
X140613080Y-95081626D02*
X140684509Y-94938769D01*
X140684509Y-94938769D02*
X140755938Y-94867341D01*
X140755938Y-94867341D02*
X140898795Y-94795912D01*
X140898795Y-94795912D02*
X141041652Y-94795912D01*
X142184509Y-95795912D02*
X142184509Y-95010198D01*
X142184509Y-95010198D02*
X142113080Y-94867341D01*
X142113080Y-94867341D02*
X141970223Y-94795912D01*
X141970223Y-94795912D02*
X141684509Y-94795912D01*
X141684509Y-94795912D02*
X141541651Y-94867341D01*
X142184509Y-95724484D02*
X142041651Y-95795912D01*
X142041651Y-95795912D02*
X141684509Y-95795912D01*
X141684509Y-95795912D02*
X141541651Y-95724484D01*
X141541651Y-95724484D02*
X141470223Y-95581626D01*
X141470223Y-95581626D02*
X141470223Y-95438769D01*
X141470223Y-95438769D02*
X141541651Y-95295912D01*
X141541651Y-95295912D02*
X141684509Y-95224484D01*
X141684509Y-95224484D02*
X142041651Y-95224484D01*
X142041651Y-95224484D02*
X142184509Y-95153055D01*
X142898794Y-94795912D02*
X142898794Y-95795912D01*
X142898794Y-94938769D02*
X142970223Y-94867341D01*
X142970223Y-94867341D02*
X143113080Y-94795912D01*
X143113080Y-94795912D02*
X143327366Y-94795912D01*
X143327366Y-94795912D02*
X143470223Y-94867341D01*
X143470223Y-94867341D02*
X143541652Y-95010198D01*
X143541652Y-95010198D02*
X143541652Y-95795912D01*
X144255937Y-95795912D02*
X144255937Y-94295912D01*
X144398795Y-95224484D02*
X144827366Y-95795912D01*
X144827366Y-94795912D02*
X144255937Y-95367341D01*
X145255938Y-94795912D02*
X145827366Y-94795912D01*
X145470223Y-95795912D02*
X145470223Y-94510198D01*
X145470223Y-94510198D02*
X145541652Y-94367341D01*
X145541652Y-94367341D02*
X145684509Y-94295912D01*
X145684509Y-94295912D02*
X145827366Y-94295912D01*
X146970224Y-94795912D02*
X146970224Y-95795912D01*
X146327366Y-94795912D02*
X146327366Y-95581626D01*
X146327366Y-95581626D02*
X146398795Y-95724484D01*
X146398795Y-95724484D02*
X146541652Y-95795912D01*
X146541652Y-95795912D02*
X146755938Y-95795912D01*
X146755938Y-95795912D02*
X146898795Y-95724484D01*
X146898795Y-95724484D02*
X146970224Y-95653055D01*
X147684509Y-95795912D02*
X147684509Y-94795912D01*
X147684509Y-95081626D02*
X147755938Y-94938769D01*
X147755938Y-94938769D02*
X147827367Y-94867341D01*
X147827367Y-94867341D02*
X147970224Y-94795912D01*
X147970224Y-94795912D02*
X148113081Y-94795912D01*
X148398795Y-94795912D02*
X148970223Y-94795912D01*
X148613080Y-94295912D02*
X148613080Y-95581626D01*
X148613080Y-95581626D02*
X148684509Y-95724484D01*
X148684509Y-95724484D02*
X148827366Y-95795912D01*
X148827366Y-95795912D02*
X148970223Y-95795912D01*
X150613080Y-94295912D02*
X150613080Y-95510198D01*
X150613080Y-95510198D02*
X150684509Y-95653055D01*
X150684509Y-95653055D02*
X150755938Y-95724484D01*
X150755938Y-95724484D02*
X150898795Y-95795912D01*
X150898795Y-95795912D02*
X151184509Y-95795912D01*
X151184509Y-95795912D02*
X151327366Y-95724484D01*
X151327366Y-95724484D02*
X151398795Y-95653055D01*
X151398795Y-95653055D02*
X151470223Y-95510198D01*
X151470223Y-95510198D02*
X151470223Y-94295912D01*
X152113081Y-95724484D02*
X152327367Y-95795912D01*
X152327367Y-95795912D02*
X152684509Y-95795912D01*
X152684509Y-95795912D02*
X152827367Y-95724484D01*
X152827367Y-95724484D02*
X152898795Y-95653055D01*
X152898795Y-95653055D02*
X152970224Y-95510198D01*
X152970224Y-95510198D02*
X152970224Y-95367341D01*
X152970224Y-95367341D02*
X152898795Y-95224484D01*
X152898795Y-95224484D02*
X152827367Y-95153055D01*
X152827367Y-95153055D02*
X152684509Y-95081626D01*
X152684509Y-95081626D02*
X152398795Y-95010198D01*
X152398795Y-95010198D02*
X152255938Y-94938769D01*
X152255938Y-94938769D02*
X152184509Y-94867341D01*
X152184509Y-94867341D02*
X152113081Y-94724484D01*
X152113081Y-94724484D02*
X152113081Y-94581626D01*
X152113081Y-94581626D02*
X152184509Y-94438769D01*
X152184509Y-94438769D02*
X152255938Y-94367341D01*
X152255938Y-94367341D02*
X152398795Y-94295912D01*
X152398795Y-94295912D02*
X152755938Y-94295912D01*
X152755938Y-94295912D02*
X152970224Y-94367341D01*
X154113080Y-95010198D02*
X154327366Y-95081626D01*
X154327366Y-95081626D02*
X154398795Y-95153055D01*
X154398795Y-95153055D02*
X154470223Y-95295912D01*
X154470223Y-95295912D02*
X154470223Y-95510198D01*
X154470223Y-95510198D02*
X154398795Y-95653055D01*
X154398795Y-95653055D02*
X154327366Y-95724484D01*
X154327366Y-95724484D02*
X154184509Y-95795912D01*
X154184509Y-95795912D02*
X153613080Y-95795912D01*
X153613080Y-95795912D02*
X153613080Y-94295912D01*
X153613080Y-94295912D02*
X154113080Y-94295912D01*
X154113080Y-94295912D02*
X154255938Y-94367341D01*
X154255938Y-94367341D02*
X154327366Y-94438769D01*
X154327366Y-94438769D02*
X154398795Y-94581626D01*
X154398795Y-94581626D02*
X154398795Y-94724484D01*
X154398795Y-94724484D02*
X154327366Y-94867341D01*
X154327366Y-94867341D02*
X154255938Y-94938769D01*
X154255938Y-94938769D02*
X154113080Y-95010198D01*
X154113080Y-95010198D02*
X153613080Y-95010198D01*
X127470225Y-96782257D02*
X127327368Y-96710828D01*
X127327368Y-96710828D02*
X127113082Y-96710828D01*
X127113082Y-96710828D02*
X126898796Y-96782257D01*
X126898796Y-96782257D02*
X126755939Y-96925114D01*
X126755939Y-96925114D02*
X126684510Y-97067971D01*
X126684510Y-97067971D02*
X126613082Y-97353685D01*
X126613082Y-97353685D02*
X126613082Y-97567971D01*
X126613082Y-97567971D02*
X126684510Y-97853685D01*
X126684510Y-97853685D02*
X126755939Y-97996542D01*
X126755939Y-97996542D02*
X126898796Y-98139400D01*
X126898796Y-98139400D02*
X127113082Y-98210828D01*
X127113082Y-98210828D02*
X127255939Y-98210828D01*
X127255939Y-98210828D02*
X127470225Y-98139400D01*
X127470225Y-98139400D02*
X127541653Y-98067971D01*
X127541653Y-98067971D02*
X127541653Y-97567971D01*
X127541653Y-97567971D02*
X127255939Y-97567971D01*
X128184510Y-98210828D02*
X128184510Y-97210828D01*
X128184510Y-97496542D02*
X128255939Y-97353685D01*
X128255939Y-97353685D02*
X128327368Y-97282257D01*
X128327368Y-97282257D02*
X128470225Y-97210828D01*
X128470225Y-97210828D02*
X128613082Y-97210828D01*
X129327367Y-98210828D02*
X129184510Y-98139400D01*
X129184510Y-98139400D02*
X129113081Y-98067971D01*
X129113081Y-98067971D02*
X129041653Y-97925114D01*
X129041653Y-97925114D02*
X129041653Y-97496542D01*
X129041653Y-97496542D02*
X129113081Y-97353685D01*
X129113081Y-97353685D02*
X129184510Y-97282257D01*
X129184510Y-97282257D02*
X129327367Y-97210828D01*
X129327367Y-97210828D02*
X129541653Y-97210828D01*
X129541653Y-97210828D02*
X129684510Y-97282257D01*
X129684510Y-97282257D02*
X129755939Y-97353685D01*
X129755939Y-97353685D02*
X129827367Y-97496542D01*
X129827367Y-97496542D02*
X129827367Y-97925114D01*
X129827367Y-97925114D02*
X129755939Y-98067971D01*
X129755939Y-98067971D02*
X129684510Y-98139400D01*
X129684510Y-98139400D02*
X129541653Y-98210828D01*
X129541653Y-98210828D02*
X129327367Y-98210828D01*
X131113082Y-98210828D02*
X131113082Y-96710828D01*
X131113082Y-98139400D02*
X130970224Y-98210828D01*
X130970224Y-98210828D02*
X130684510Y-98210828D01*
X130684510Y-98210828D02*
X130541653Y-98139400D01*
X130541653Y-98139400D02*
X130470224Y-98067971D01*
X130470224Y-98067971D02*
X130398796Y-97925114D01*
X130398796Y-97925114D02*
X130398796Y-97496542D01*
X130398796Y-97496542D02*
X130470224Y-97353685D01*
X130470224Y-97353685D02*
X130541653Y-97282257D01*
X130541653Y-97282257D02*
X130684510Y-97210828D01*
X130684510Y-97210828D02*
X130970224Y-97210828D01*
X130970224Y-97210828D02*
X131113082Y-97282257D01*
X132470225Y-98210828D02*
X132470225Y-97425114D01*
X132470225Y-97425114D02*
X132398796Y-97282257D01*
X132398796Y-97282257D02*
X132255939Y-97210828D01*
X132255939Y-97210828D02*
X131970225Y-97210828D01*
X131970225Y-97210828D02*
X131827367Y-97282257D01*
X132470225Y-98139400D02*
X132327367Y-98210828D01*
X132327367Y-98210828D02*
X131970225Y-98210828D01*
X131970225Y-98210828D02*
X131827367Y-98139400D01*
X131827367Y-98139400D02*
X131755939Y-97996542D01*
X131755939Y-97996542D02*
X131755939Y-97853685D01*
X131755939Y-97853685D02*
X131827367Y-97710828D01*
X131827367Y-97710828D02*
X131970225Y-97639400D01*
X131970225Y-97639400D02*
X132327367Y-97639400D01*
X132327367Y-97639400D02*
X132470225Y-97567971D01*
X133184510Y-97210828D02*
X133184510Y-98210828D01*
X133184510Y-97353685D02*
X133255939Y-97282257D01*
X133255939Y-97282257D02*
X133398796Y-97210828D01*
X133398796Y-97210828D02*
X133613082Y-97210828D01*
X133613082Y-97210828D02*
X133755939Y-97282257D01*
X133755939Y-97282257D02*
X133827368Y-97425114D01*
X133827368Y-97425114D02*
X133827368Y-98210828D01*
X134470225Y-98139400D02*
X134613082Y-98210828D01*
X134613082Y-98210828D02*
X134898796Y-98210828D01*
X134898796Y-98210828D02*
X135041653Y-98139400D01*
X135041653Y-98139400D02*
X135113082Y-97996542D01*
X135113082Y-97996542D02*
X135113082Y-97925114D01*
X135113082Y-97925114D02*
X135041653Y-97782257D01*
X135041653Y-97782257D02*
X134898796Y-97710828D01*
X134898796Y-97710828D02*
X134684511Y-97710828D01*
X134684511Y-97710828D02*
X134541653Y-97639400D01*
X134541653Y-97639400D02*
X134470225Y-97496542D01*
X134470225Y-97496542D02*
X134470225Y-97425114D01*
X134470225Y-97425114D02*
X134541653Y-97282257D01*
X134541653Y-97282257D02*
X134684511Y-97210828D01*
X134684511Y-97210828D02*
X134898796Y-97210828D01*
X134898796Y-97210828D02*
X135041653Y-97282257D01*
X136898796Y-98210828D02*
X136898796Y-96710828D01*
X136898796Y-96710828D02*
X137470225Y-96710828D01*
X137470225Y-96710828D02*
X137613082Y-96782257D01*
X137613082Y-96782257D02*
X137684511Y-96853685D01*
X137684511Y-96853685D02*
X137755939Y-96996542D01*
X137755939Y-96996542D02*
X137755939Y-97210828D01*
X137755939Y-97210828D02*
X137684511Y-97353685D01*
X137684511Y-97353685D02*
X137613082Y-97425114D01*
X137613082Y-97425114D02*
X137470225Y-97496542D01*
X137470225Y-97496542D02*
X136898796Y-97496542D01*
X139041654Y-98210828D02*
X139041654Y-97425114D01*
X139041654Y-97425114D02*
X138970225Y-97282257D01*
X138970225Y-97282257D02*
X138827368Y-97210828D01*
X138827368Y-97210828D02*
X138541654Y-97210828D01*
X138541654Y-97210828D02*
X138398796Y-97282257D01*
X139041654Y-98139400D02*
X138898796Y-98210828D01*
X138898796Y-98210828D02*
X138541654Y-98210828D01*
X138541654Y-98210828D02*
X138398796Y-98139400D01*
X138398796Y-98139400D02*
X138327368Y-97996542D01*
X138327368Y-97996542D02*
X138327368Y-97853685D01*
X138327368Y-97853685D02*
X138398796Y-97710828D01*
X138398796Y-97710828D02*
X138541654Y-97639400D01*
X138541654Y-97639400D02*
X138898796Y-97639400D01*
X138898796Y-97639400D02*
X139041654Y-97567971D01*
X139755939Y-98210828D02*
X139755939Y-97210828D01*
X139755939Y-97496542D02*
X139827368Y-97353685D01*
X139827368Y-97353685D02*
X139898797Y-97282257D01*
X139898797Y-97282257D02*
X140041654Y-97210828D01*
X140041654Y-97210828D02*
X140184511Y-97210828D01*
X141327368Y-98210828D02*
X141327368Y-97425114D01*
X141327368Y-97425114D02*
X141255939Y-97282257D01*
X141255939Y-97282257D02*
X141113082Y-97210828D01*
X141113082Y-97210828D02*
X140827368Y-97210828D01*
X140827368Y-97210828D02*
X140684510Y-97282257D01*
X141327368Y-98139400D02*
X141184510Y-98210828D01*
X141184510Y-98210828D02*
X140827368Y-98210828D01*
X140827368Y-98210828D02*
X140684510Y-98139400D01*
X140684510Y-98139400D02*
X140613082Y-97996542D01*
X140613082Y-97996542D02*
X140613082Y-97853685D01*
X140613082Y-97853685D02*
X140684510Y-97710828D01*
X140684510Y-97710828D02*
X140827368Y-97639400D01*
X140827368Y-97639400D02*
X141184510Y-97639400D01*
X141184510Y-97639400D02*
X141327368Y-97567971D01*
X142684511Y-98210828D02*
X142684511Y-96710828D01*
X142684511Y-98139400D02*
X142541653Y-98210828D01*
X142541653Y-98210828D02*
X142255939Y-98210828D01*
X142255939Y-98210828D02*
X142113082Y-98139400D01*
X142113082Y-98139400D02*
X142041653Y-98067971D01*
X142041653Y-98067971D02*
X141970225Y-97925114D01*
X141970225Y-97925114D02*
X141970225Y-97496542D01*
X141970225Y-97496542D02*
X142041653Y-97353685D01*
X142041653Y-97353685D02*
X142113082Y-97282257D01*
X142113082Y-97282257D02*
X142255939Y-97210828D01*
X142255939Y-97210828D02*
X142541653Y-97210828D01*
X142541653Y-97210828D02*
X142684511Y-97282257D01*
X143398796Y-98210828D02*
X143398796Y-97210828D01*
X143398796Y-96710828D02*
X143327368Y-96782257D01*
X143327368Y-96782257D02*
X143398796Y-96853685D01*
X143398796Y-96853685D02*
X143470225Y-96782257D01*
X143470225Y-96782257D02*
X143398796Y-96710828D01*
X143398796Y-96710828D02*
X143398796Y-96853685D01*
X144041654Y-98139400D02*
X144184511Y-98210828D01*
X144184511Y-98210828D02*
X144470225Y-98210828D01*
X144470225Y-98210828D02*
X144613082Y-98139400D01*
X144613082Y-98139400D02*
X144684511Y-97996542D01*
X144684511Y-97996542D02*
X144684511Y-97925114D01*
X144684511Y-97925114D02*
X144613082Y-97782257D01*
X144613082Y-97782257D02*
X144470225Y-97710828D01*
X144470225Y-97710828D02*
X144255940Y-97710828D01*
X144255940Y-97710828D02*
X144113082Y-97639400D01*
X144113082Y-97639400D02*
X144041654Y-97496542D01*
X144041654Y-97496542D02*
X144041654Y-97425114D01*
X144041654Y-97425114D02*
X144113082Y-97282257D01*
X144113082Y-97282257D02*
X144255940Y-97210828D01*
X144255940Y-97210828D02*
X144470225Y-97210828D01*
X144470225Y-97210828D02*
X144613082Y-97282257D01*
X146398797Y-97782257D02*
X147113083Y-97782257D01*
X146255940Y-98210828D02*
X146755940Y-96710828D01*
X146755940Y-96710828D02*
X147255940Y-98210828D01*
X148255939Y-97425114D02*
X148470225Y-97496542D01*
X148470225Y-97496542D02*
X148541654Y-97567971D01*
X148541654Y-97567971D02*
X148613082Y-97710828D01*
X148613082Y-97710828D02*
X148613082Y-97925114D01*
X148613082Y-97925114D02*
X148541654Y-98067971D01*
X148541654Y-98067971D02*
X148470225Y-98139400D01*
X148470225Y-98139400D02*
X148327368Y-98210828D01*
X148327368Y-98210828D02*
X147755939Y-98210828D01*
X147755939Y-98210828D02*
X147755939Y-96710828D01*
X147755939Y-96710828D02*
X148255939Y-96710828D01*
X148255939Y-96710828D02*
X148398797Y-96782257D01*
X148398797Y-96782257D02*
X148470225Y-96853685D01*
X148470225Y-96853685D02*
X148541654Y-96996542D01*
X148541654Y-96996542D02*
X148541654Y-97139400D01*
X148541654Y-97139400D02*
X148470225Y-97282257D01*
X148470225Y-97282257D02*
X148398797Y-97353685D01*
X148398797Y-97353685D02*
X148255939Y-97425114D01*
X148255939Y-97425114D02*
X147755939Y-97425114D01*
X127621653Y-100630828D02*
X127121653Y-99916542D01*
X126764510Y-100630828D02*
X126764510Y-99130828D01*
X126764510Y-99130828D02*
X127335939Y-99130828D01*
X127335939Y-99130828D02*
X127478796Y-99202257D01*
X127478796Y-99202257D02*
X127550225Y-99273685D01*
X127550225Y-99273685D02*
X127621653Y-99416542D01*
X127621653Y-99416542D02*
X127621653Y-99630828D01*
X127621653Y-99630828D02*
X127550225Y-99773685D01*
X127550225Y-99773685D02*
X127478796Y-99845114D01*
X127478796Y-99845114D02*
X127335939Y-99916542D01*
X127335939Y-99916542D02*
X126764510Y-99916542D01*
X128835939Y-100559400D02*
X128693082Y-100630828D01*
X128693082Y-100630828D02*
X128407368Y-100630828D01*
X128407368Y-100630828D02*
X128264510Y-100559400D01*
X128264510Y-100559400D02*
X128193082Y-100416542D01*
X128193082Y-100416542D02*
X128193082Y-99845114D01*
X128193082Y-99845114D02*
X128264510Y-99702257D01*
X128264510Y-99702257D02*
X128407368Y-99630828D01*
X128407368Y-99630828D02*
X128693082Y-99630828D01*
X128693082Y-99630828D02*
X128835939Y-99702257D01*
X128835939Y-99702257D02*
X128907368Y-99845114D01*
X128907368Y-99845114D02*
X128907368Y-99987971D01*
X128907368Y-99987971D02*
X128193082Y-100130828D01*
X129407367Y-99630828D02*
X129764510Y-100630828D01*
X129764510Y-100630828D02*
X130121653Y-99630828D01*
X131764510Y-100202257D02*
X132478796Y-100202257D01*
X131621653Y-100630828D02*
X132121653Y-99130828D01*
X132121653Y-99130828D02*
X132621653Y-100630828D01*
D11*
X167870237Y-101224318D02*
X167870237Y-99954318D01*
X169200714Y-101103365D02*
X169140238Y-101163842D01*
X169140238Y-101163842D02*
X168958809Y-101224318D01*
X168958809Y-101224318D02*
X168837857Y-101224318D01*
X168837857Y-101224318D02*
X168656428Y-101163842D01*
X168656428Y-101163842D02*
X168535476Y-101042889D01*
X168535476Y-101042889D02*
X168474999Y-100921937D01*
X168474999Y-100921937D02*
X168414523Y-100680032D01*
X168414523Y-100680032D02*
X168414523Y-100498603D01*
X168414523Y-100498603D02*
X168474999Y-100256699D01*
X168474999Y-100256699D02*
X168535476Y-100135746D01*
X168535476Y-100135746D02*
X168656428Y-100014794D01*
X168656428Y-100014794D02*
X168837857Y-99954318D01*
X168837857Y-99954318D02*
X168958809Y-99954318D01*
X168958809Y-99954318D02*
X169140238Y-100014794D01*
X169140238Y-100014794D02*
X169200714Y-100075270D01*
X169624047Y-99954318D02*
X170410238Y-99954318D01*
X170410238Y-99954318D02*
X169986904Y-100438127D01*
X169986904Y-100438127D02*
X170168333Y-100438127D01*
X170168333Y-100438127D02*
X170289285Y-100498603D01*
X170289285Y-100498603D02*
X170349761Y-100559080D01*
X170349761Y-100559080D02*
X170410238Y-100680032D01*
X170410238Y-100680032D02*
X170410238Y-100982413D01*
X170410238Y-100982413D02*
X170349761Y-101103365D01*
X170349761Y-101103365D02*
X170289285Y-101163842D01*
X170289285Y-101163842D02*
X170168333Y-101224318D01*
X170168333Y-101224318D02*
X169805476Y-101224318D01*
X169805476Y-101224318D02*
X169684523Y-101163842D01*
X169684523Y-101163842D02*
X169624047Y-101103365D01*
D12*
X170604819Y-110982857D02*
X170128628Y-111316190D01*
X170604819Y-111554285D02*
X169604819Y-111554285D01*
X169604819Y-111554285D02*
X169604819Y-111173333D01*
X169604819Y-111173333D02*
X169652438Y-111078095D01*
X169652438Y-111078095D02*
X169700057Y-111030476D01*
X169700057Y-111030476D02*
X169795295Y-110982857D01*
X169795295Y-110982857D02*
X169938152Y-110982857D01*
X169938152Y-110982857D02*
X170033390Y-111030476D01*
X170033390Y-111030476D02*
X170081009Y-111078095D01*
X170081009Y-111078095D02*
X170128628Y-111173333D01*
X170128628Y-111173333D02*
X170128628Y-111554285D01*
X170604819Y-110030476D02*
X170604819Y-110601904D01*
X170604819Y-110316190D02*
X169604819Y-110316190D01*
X169604819Y-110316190D02*
X169747676Y-110411428D01*
X169747676Y-110411428D02*
X169842914Y-110506666D01*
X169842914Y-110506666D02*
X169890533Y-110601904D01*
X169604819Y-109411428D02*
X169604819Y-109316190D01*
X169604819Y-109316190D02*
X169652438Y-109220952D01*
X169652438Y-109220952D02*
X169700057Y-109173333D01*
X169700057Y-109173333D02*
X169795295Y-109125714D01*
X169795295Y-109125714D02*
X169985771Y-109078095D01*
X169985771Y-109078095D02*
X170223866Y-109078095D01*
X170223866Y-109078095D02*
X170414342Y-109125714D01*
X170414342Y-109125714D02*
X170509580Y-109173333D01*
X170509580Y-109173333D02*
X170557200Y-109220952D01*
X170557200Y-109220952D02*
X170604819Y-109316190D01*
X170604819Y-109316190D02*
X170604819Y-109411428D01*
X170604819Y-109411428D02*
X170557200Y-109506666D01*
X170557200Y-109506666D02*
X170509580Y-109554285D01*
X170509580Y-109554285D02*
X170414342Y-109601904D01*
X170414342Y-109601904D02*
X170223866Y-109649523D01*
X170223866Y-109649523D02*
X169985771Y-109649523D01*
X169985771Y-109649523D02*
X169795295Y-109601904D01*
X169795295Y-109601904D02*
X169700057Y-109554285D01*
X169700057Y-109554285D02*
X169652438Y-109506666D01*
X169652438Y-109506666D02*
X169604819Y-109411428D01*
X146423333Y-73276819D02*
X146090000Y-72800628D01*
X145851905Y-73276819D02*
X145851905Y-72276819D01*
X145851905Y-72276819D02*
X146232857Y-72276819D01*
X146232857Y-72276819D02*
X146328095Y-72324438D01*
X146328095Y-72324438D02*
X146375714Y-72372057D01*
X146375714Y-72372057D02*
X146423333Y-72467295D01*
X146423333Y-72467295D02*
X146423333Y-72610152D01*
X146423333Y-72610152D02*
X146375714Y-72705390D01*
X146375714Y-72705390D02*
X146328095Y-72753009D01*
X146328095Y-72753009D02*
X146232857Y-72800628D01*
X146232857Y-72800628D02*
X145851905Y-72800628D01*
X146994762Y-72705390D02*
X146899524Y-72657771D01*
X146899524Y-72657771D02*
X146851905Y-72610152D01*
X146851905Y-72610152D02*
X146804286Y-72514914D01*
X146804286Y-72514914D02*
X146804286Y-72467295D01*
X146804286Y-72467295D02*
X146851905Y-72372057D01*
X146851905Y-72372057D02*
X146899524Y-72324438D01*
X146899524Y-72324438D02*
X146994762Y-72276819D01*
X146994762Y-72276819D02*
X147185238Y-72276819D01*
X147185238Y-72276819D02*
X147280476Y-72324438D01*
X147280476Y-72324438D02*
X147328095Y-72372057D01*
X147328095Y-72372057D02*
X147375714Y-72467295D01*
X147375714Y-72467295D02*
X147375714Y-72514914D01*
X147375714Y-72514914D02*
X147328095Y-72610152D01*
X147328095Y-72610152D02*
X147280476Y-72657771D01*
X147280476Y-72657771D02*
X147185238Y-72705390D01*
X147185238Y-72705390D02*
X146994762Y-72705390D01*
X146994762Y-72705390D02*
X146899524Y-72753009D01*
X146899524Y-72753009D02*
X146851905Y-72800628D01*
X146851905Y-72800628D02*
X146804286Y-72895866D01*
X146804286Y-72895866D02*
X146804286Y-73086342D01*
X146804286Y-73086342D02*
X146851905Y-73181580D01*
X146851905Y-73181580D02*
X146899524Y-73229200D01*
X146899524Y-73229200D02*
X146994762Y-73276819D01*
X146994762Y-73276819D02*
X147185238Y-73276819D01*
X147185238Y-73276819D02*
X147280476Y-73229200D01*
X147280476Y-73229200D02*
X147328095Y-73181580D01*
X147328095Y-73181580D02*
X147375714Y-73086342D01*
X147375714Y-73086342D02*
X147375714Y-72895866D01*
X147375714Y-72895866D02*
X147328095Y-72800628D01*
X147328095Y-72800628D02*
X147280476Y-72753009D01*
X147280476Y-72753009D02*
X147185238Y-72705390D01*
X118547142Y-109414819D02*
X118213809Y-108938628D01*
X117975714Y-109414819D02*
X117975714Y-108414819D01*
X117975714Y-108414819D02*
X118356666Y-108414819D01*
X118356666Y-108414819D02*
X118451904Y-108462438D01*
X118451904Y-108462438D02*
X118499523Y-108510057D01*
X118499523Y-108510057D02*
X118547142Y-108605295D01*
X118547142Y-108605295D02*
X118547142Y-108748152D01*
X118547142Y-108748152D02*
X118499523Y-108843390D01*
X118499523Y-108843390D02*
X118451904Y-108891009D01*
X118451904Y-108891009D02*
X118356666Y-108938628D01*
X118356666Y-108938628D02*
X117975714Y-108938628D01*
X119499523Y-109414819D02*
X118928095Y-109414819D01*
X119213809Y-109414819D02*
X119213809Y-108414819D01*
X119213809Y-108414819D02*
X119118571Y-108557676D01*
X119118571Y-108557676D02*
X119023333Y-108652914D01*
X119023333Y-108652914D02*
X118928095Y-108700533D01*
X120356666Y-108748152D02*
X120356666Y-109414819D01*
X120118571Y-108367200D02*
X119880476Y-109081485D01*
X119880476Y-109081485D02*
X120499523Y-109081485D01*
X111693810Y-73262319D02*
X111693810Y-72262319D01*
X112741428Y-73167080D02*
X112693809Y-73214700D01*
X112693809Y-73214700D02*
X112550952Y-73262319D01*
X112550952Y-73262319D02*
X112455714Y-73262319D01*
X112455714Y-73262319D02*
X112312857Y-73214700D01*
X112312857Y-73214700D02*
X112217619Y-73119461D01*
X112217619Y-73119461D02*
X112170000Y-73024223D01*
X112170000Y-73024223D02*
X112122381Y-72833747D01*
X112122381Y-72833747D02*
X112122381Y-72690890D01*
X112122381Y-72690890D02*
X112170000Y-72500414D01*
X112170000Y-72500414D02*
X112217619Y-72405176D01*
X112217619Y-72405176D02*
X112312857Y-72309938D01*
X112312857Y-72309938D02*
X112455714Y-72262319D01*
X112455714Y-72262319D02*
X112550952Y-72262319D01*
X112550952Y-72262319D02*
X112693809Y-72309938D01*
X112693809Y-72309938D02*
X112741428Y-72357557D01*
X113598571Y-72595652D02*
X113598571Y-73262319D01*
X113360476Y-72214700D02*
X113122381Y-72928985D01*
X113122381Y-72928985D02*
X113741428Y-72928985D01*
X126077142Y-85224819D02*
X125743809Y-84748628D01*
X125505714Y-85224819D02*
X125505714Y-84224819D01*
X125505714Y-84224819D02*
X125886666Y-84224819D01*
X125886666Y-84224819D02*
X125981904Y-84272438D01*
X125981904Y-84272438D02*
X126029523Y-84320057D01*
X126029523Y-84320057D02*
X126077142Y-84415295D01*
X126077142Y-84415295D02*
X126077142Y-84558152D01*
X126077142Y-84558152D02*
X126029523Y-84653390D01*
X126029523Y-84653390D02*
X125981904Y-84701009D01*
X125981904Y-84701009D02*
X125886666Y-84748628D01*
X125886666Y-84748628D02*
X125505714Y-84748628D01*
X126458095Y-84320057D02*
X126505714Y-84272438D01*
X126505714Y-84272438D02*
X126600952Y-84224819D01*
X126600952Y-84224819D02*
X126839047Y-84224819D01*
X126839047Y-84224819D02*
X126934285Y-84272438D01*
X126934285Y-84272438D02*
X126981904Y-84320057D01*
X126981904Y-84320057D02*
X127029523Y-84415295D01*
X127029523Y-84415295D02*
X127029523Y-84510533D01*
X127029523Y-84510533D02*
X126981904Y-84653390D01*
X126981904Y-84653390D02*
X126410476Y-85224819D01*
X126410476Y-85224819D02*
X127029523Y-85224819D01*
X127648571Y-84224819D02*
X127743809Y-84224819D01*
X127743809Y-84224819D02*
X127839047Y-84272438D01*
X127839047Y-84272438D02*
X127886666Y-84320057D01*
X127886666Y-84320057D02*
X127934285Y-84415295D01*
X127934285Y-84415295D02*
X127981904Y-84605771D01*
X127981904Y-84605771D02*
X127981904Y-84843866D01*
X127981904Y-84843866D02*
X127934285Y-85034342D01*
X127934285Y-85034342D02*
X127886666Y-85129580D01*
X127886666Y-85129580D02*
X127839047Y-85177200D01*
X127839047Y-85177200D02*
X127743809Y-85224819D01*
X127743809Y-85224819D02*
X127648571Y-85224819D01*
X127648571Y-85224819D02*
X127553333Y-85177200D01*
X127553333Y-85177200D02*
X127505714Y-85129580D01*
X127505714Y-85129580D02*
X127458095Y-85034342D01*
X127458095Y-85034342D02*
X127410476Y-84843866D01*
X127410476Y-84843866D02*
X127410476Y-84605771D01*
X127410476Y-84605771D02*
X127458095Y-84415295D01*
X127458095Y-84415295D02*
X127505714Y-84320057D01*
X127505714Y-84320057D02*
X127553333Y-84272438D01*
X127553333Y-84272438D02*
X127648571Y-84224819D01*
X118804761Y-102970057D02*
X118709523Y-102922438D01*
X118709523Y-102922438D02*
X118614285Y-102827200D01*
X118614285Y-102827200D02*
X118471428Y-102684342D01*
X118471428Y-102684342D02*
X118376190Y-102636723D01*
X118376190Y-102636723D02*
X118280952Y-102636723D01*
X118328571Y-102874819D02*
X118233333Y-102827200D01*
X118233333Y-102827200D02*
X118138095Y-102731961D01*
X118138095Y-102731961D02*
X118090476Y-102541485D01*
X118090476Y-102541485D02*
X118090476Y-102208152D01*
X118090476Y-102208152D02*
X118138095Y-102017676D01*
X118138095Y-102017676D02*
X118233333Y-101922438D01*
X118233333Y-101922438D02*
X118328571Y-101874819D01*
X118328571Y-101874819D02*
X118519047Y-101874819D01*
X118519047Y-101874819D02*
X118614285Y-101922438D01*
X118614285Y-101922438D02*
X118709523Y-102017676D01*
X118709523Y-102017676D02*
X118757142Y-102208152D01*
X118757142Y-102208152D02*
X118757142Y-102541485D01*
X118757142Y-102541485D02*
X118709523Y-102731961D01*
X118709523Y-102731961D02*
X118614285Y-102827200D01*
X118614285Y-102827200D02*
X118519047Y-102874819D01*
X118519047Y-102874819D02*
X118328571Y-102874819D01*
X119138095Y-101970057D02*
X119185714Y-101922438D01*
X119185714Y-101922438D02*
X119280952Y-101874819D01*
X119280952Y-101874819D02*
X119519047Y-101874819D01*
X119519047Y-101874819D02*
X119614285Y-101922438D01*
X119614285Y-101922438D02*
X119661904Y-101970057D01*
X119661904Y-101970057D02*
X119709523Y-102065295D01*
X119709523Y-102065295D02*
X119709523Y-102160533D01*
X119709523Y-102160533D02*
X119661904Y-102303390D01*
X119661904Y-102303390D02*
X119090476Y-102874819D01*
X119090476Y-102874819D02*
X119709523Y-102874819D01*
X174019580Y-94432857D02*
X174067200Y-94480476D01*
X174067200Y-94480476D02*
X174114819Y-94623333D01*
X174114819Y-94623333D02*
X174114819Y-94718571D01*
X174114819Y-94718571D02*
X174067200Y-94861428D01*
X174067200Y-94861428D02*
X173971961Y-94956666D01*
X173971961Y-94956666D02*
X173876723Y-95004285D01*
X173876723Y-95004285D02*
X173686247Y-95051904D01*
X173686247Y-95051904D02*
X173543390Y-95051904D01*
X173543390Y-95051904D02*
X173352914Y-95004285D01*
X173352914Y-95004285D02*
X173257676Y-94956666D01*
X173257676Y-94956666D02*
X173162438Y-94861428D01*
X173162438Y-94861428D02*
X173114819Y-94718571D01*
X173114819Y-94718571D02*
X173114819Y-94623333D01*
X173114819Y-94623333D02*
X173162438Y-94480476D01*
X173162438Y-94480476D02*
X173210057Y-94432857D01*
X174114819Y-93480476D02*
X174114819Y-94051904D01*
X174114819Y-93766190D02*
X173114819Y-93766190D01*
X173114819Y-93766190D02*
X173257676Y-93861428D01*
X173257676Y-93861428D02*
X173352914Y-93956666D01*
X173352914Y-93956666D02*
X173400533Y-94051904D01*
X173114819Y-92623333D02*
X173114819Y-92813809D01*
X173114819Y-92813809D02*
X173162438Y-92909047D01*
X173162438Y-92909047D02*
X173210057Y-92956666D01*
X173210057Y-92956666D02*
X173352914Y-93051904D01*
X173352914Y-93051904D02*
X173543390Y-93099523D01*
X173543390Y-93099523D02*
X173924342Y-93099523D01*
X173924342Y-93099523D02*
X174019580Y-93051904D01*
X174019580Y-93051904D02*
X174067200Y-93004285D01*
X174067200Y-93004285D02*
X174114819Y-92909047D01*
X174114819Y-92909047D02*
X174114819Y-92718571D01*
X174114819Y-92718571D02*
X174067200Y-92623333D01*
X174067200Y-92623333D02*
X174019580Y-92575714D01*
X174019580Y-92575714D02*
X173924342Y-92528095D01*
X173924342Y-92528095D02*
X173686247Y-92528095D01*
X173686247Y-92528095D02*
X173591009Y-92575714D01*
X173591009Y-92575714D02*
X173543390Y-92623333D01*
X173543390Y-92623333D02*
X173495771Y-92718571D01*
X173495771Y-92718571D02*
X173495771Y-92909047D01*
X173495771Y-92909047D02*
X173543390Y-93004285D01*
X173543390Y-93004285D02*
X173591009Y-93051904D01*
X173591009Y-93051904D02*
X173686247Y-93099523D01*
X163070833Y-102244819D02*
X162737500Y-101768628D01*
X162499405Y-102244819D02*
X162499405Y-101244819D01*
X162499405Y-101244819D02*
X162880357Y-101244819D01*
X162880357Y-101244819D02*
X162975595Y-101292438D01*
X162975595Y-101292438D02*
X163023214Y-101340057D01*
X163023214Y-101340057D02*
X163070833Y-101435295D01*
X163070833Y-101435295D02*
X163070833Y-101578152D01*
X163070833Y-101578152D02*
X163023214Y-101673390D01*
X163023214Y-101673390D02*
X162975595Y-101721009D01*
X162975595Y-101721009D02*
X162880357Y-101768628D01*
X162880357Y-101768628D02*
X162499405Y-101768628D01*
X163404167Y-101244819D02*
X164070833Y-101244819D01*
X164070833Y-101244819D02*
X163642262Y-102244819D01*
X118804761Y-106520057D02*
X118709523Y-106472438D01*
X118709523Y-106472438D02*
X118614285Y-106377200D01*
X118614285Y-106377200D02*
X118471428Y-106234342D01*
X118471428Y-106234342D02*
X118376190Y-106186723D01*
X118376190Y-106186723D02*
X118280952Y-106186723D01*
X118328571Y-106424819D02*
X118233333Y-106377200D01*
X118233333Y-106377200D02*
X118138095Y-106281961D01*
X118138095Y-106281961D02*
X118090476Y-106091485D01*
X118090476Y-106091485D02*
X118090476Y-105758152D01*
X118090476Y-105758152D02*
X118138095Y-105567676D01*
X118138095Y-105567676D02*
X118233333Y-105472438D01*
X118233333Y-105472438D02*
X118328571Y-105424819D01*
X118328571Y-105424819D02*
X118519047Y-105424819D01*
X118519047Y-105424819D02*
X118614285Y-105472438D01*
X118614285Y-105472438D02*
X118709523Y-105567676D01*
X118709523Y-105567676D02*
X118757142Y-105758152D01*
X118757142Y-105758152D02*
X118757142Y-106091485D01*
X118757142Y-106091485D02*
X118709523Y-106281961D01*
X118709523Y-106281961D02*
X118614285Y-106377200D01*
X118614285Y-106377200D02*
X118519047Y-106424819D01*
X118519047Y-106424819D02*
X118328571Y-106424819D01*
X119090476Y-105424819D02*
X119709523Y-105424819D01*
X119709523Y-105424819D02*
X119376190Y-105805771D01*
X119376190Y-105805771D02*
X119519047Y-105805771D01*
X119519047Y-105805771D02*
X119614285Y-105853390D01*
X119614285Y-105853390D02*
X119661904Y-105901009D01*
X119661904Y-105901009D02*
X119709523Y-105996247D01*
X119709523Y-105996247D02*
X119709523Y-106234342D01*
X119709523Y-106234342D02*
X119661904Y-106329580D01*
X119661904Y-106329580D02*
X119614285Y-106377200D01*
X119614285Y-106377200D02*
X119519047Y-106424819D01*
X119519047Y-106424819D02*
X119233333Y-106424819D01*
X119233333Y-106424819D02*
X119138095Y-106377200D01*
X119138095Y-106377200D02*
X119090476Y-106329580D01*
X166941905Y-91234819D02*
X166941905Y-90234819D01*
X166941905Y-90234819D02*
X167180000Y-90234819D01*
X167180000Y-90234819D02*
X167322857Y-90282438D01*
X167322857Y-90282438D02*
X167418095Y-90377676D01*
X167418095Y-90377676D02*
X167465714Y-90472914D01*
X167465714Y-90472914D02*
X167513333Y-90663390D01*
X167513333Y-90663390D02*
X167513333Y-90806247D01*
X167513333Y-90806247D02*
X167465714Y-90996723D01*
X167465714Y-90996723D02*
X167418095Y-91091961D01*
X167418095Y-91091961D02*
X167322857Y-91187200D01*
X167322857Y-91187200D02*
X167180000Y-91234819D01*
X167180000Y-91234819D02*
X166941905Y-91234819D01*
X168370476Y-90234819D02*
X168180000Y-90234819D01*
X168180000Y-90234819D02*
X168084762Y-90282438D01*
X168084762Y-90282438D02*
X168037143Y-90330057D01*
X168037143Y-90330057D02*
X167941905Y-90472914D01*
X167941905Y-90472914D02*
X167894286Y-90663390D01*
X167894286Y-90663390D02*
X167894286Y-91044342D01*
X167894286Y-91044342D02*
X167941905Y-91139580D01*
X167941905Y-91139580D02*
X167989524Y-91187200D01*
X167989524Y-91187200D02*
X168084762Y-91234819D01*
X168084762Y-91234819D02*
X168275238Y-91234819D01*
X168275238Y-91234819D02*
X168370476Y-91187200D01*
X168370476Y-91187200D02*
X168418095Y-91139580D01*
X168418095Y-91139580D02*
X168465714Y-91044342D01*
X168465714Y-91044342D02*
X168465714Y-90806247D01*
X168465714Y-90806247D02*
X168418095Y-90711009D01*
X168418095Y-90711009D02*
X168370476Y-90663390D01*
X168370476Y-90663390D02*
X168275238Y-90615771D01*
X168275238Y-90615771D02*
X168084762Y-90615771D01*
X168084762Y-90615771D02*
X167989524Y-90663390D01*
X167989524Y-90663390D02*
X167941905Y-90711009D01*
X167941905Y-90711009D02*
X167894286Y-90806247D01*
X118547142Y-111479580D02*
X118499523Y-111527200D01*
X118499523Y-111527200D02*
X118356666Y-111574819D01*
X118356666Y-111574819D02*
X118261428Y-111574819D01*
X118261428Y-111574819D02*
X118118571Y-111527200D01*
X118118571Y-111527200D02*
X118023333Y-111431961D01*
X118023333Y-111431961D02*
X117975714Y-111336723D01*
X117975714Y-111336723D02*
X117928095Y-111146247D01*
X117928095Y-111146247D02*
X117928095Y-111003390D01*
X117928095Y-111003390D02*
X117975714Y-110812914D01*
X117975714Y-110812914D02*
X118023333Y-110717676D01*
X118023333Y-110717676D02*
X118118571Y-110622438D01*
X118118571Y-110622438D02*
X118261428Y-110574819D01*
X118261428Y-110574819D02*
X118356666Y-110574819D01*
X118356666Y-110574819D02*
X118499523Y-110622438D01*
X118499523Y-110622438D02*
X118547142Y-110670057D01*
X119499523Y-111574819D02*
X118928095Y-111574819D01*
X119213809Y-111574819D02*
X119213809Y-110574819D01*
X119213809Y-110574819D02*
X119118571Y-110717676D01*
X119118571Y-110717676D02*
X119023333Y-110812914D01*
X119023333Y-110812914D02*
X118928095Y-110860533D01*
X120070952Y-111003390D02*
X119975714Y-110955771D01*
X119975714Y-110955771D02*
X119928095Y-110908152D01*
X119928095Y-110908152D02*
X119880476Y-110812914D01*
X119880476Y-110812914D02*
X119880476Y-110765295D01*
X119880476Y-110765295D02*
X119928095Y-110670057D01*
X119928095Y-110670057D02*
X119975714Y-110622438D01*
X119975714Y-110622438D02*
X120070952Y-110574819D01*
X120070952Y-110574819D02*
X120261428Y-110574819D01*
X120261428Y-110574819D02*
X120356666Y-110622438D01*
X120356666Y-110622438D02*
X120404285Y-110670057D01*
X120404285Y-110670057D02*
X120451904Y-110765295D01*
X120451904Y-110765295D02*
X120451904Y-110812914D01*
X120451904Y-110812914D02*
X120404285Y-110908152D01*
X120404285Y-110908152D02*
X120356666Y-110955771D01*
X120356666Y-110955771D02*
X120261428Y-111003390D01*
X120261428Y-111003390D02*
X120070952Y-111003390D01*
X120070952Y-111003390D02*
X119975714Y-111051009D01*
X119975714Y-111051009D02*
X119928095Y-111098628D01*
X119928095Y-111098628D02*
X119880476Y-111193866D01*
X119880476Y-111193866D02*
X119880476Y-111384342D01*
X119880476Y-111384342D02*
X119928095Y-111479580D01*
X119928095Y-111479580D02*
X119975714Y-111527200D01*
X119975714Y-111527200D02*
X120070952Y-111574819D01*
X120070952Y-111574819D02*
X120261428Y-111574819D01*
X120261428Y-111574819D02*
X120356666Y-111527200D01*
X120356666Y-111527200D02*
X120404285Y-111479580D01*
X120404285Y-111479580D02*
X120451904Y-111384342D01*
X120451904Y-111384342D02*
X120451904Y-111193866D01*
X120451904Y-111193866D02*
X120404285Y-111098628D01*
X120404285Y-111098628D02*
X120356666Y-111051009D01*
X120356666Y-111051009D02*
X120261428Y-111003390D01*
X156909405Y-106064819D02*
X156909405Y-105064819D01*
X156909405Y-105064819D02*
X157147500Y-105064819D01*
X157147500Y-105064819D02*
X157290357Y-105112438D01*
X157290357Y-105112438D02*
X157385595Y-105207676D01*
X157385595Y-105207676D02*
X157433214Y-105302914D01*
X157433214Y-105302914D02*
X157480833Y-105493390D01*
X157480833Y-105493390D02*
X157480833Y-105636247D01*
X157480833Y-105636247D02*
X157433214Y-105826723D01*
X157433214Y-105826723D02*
X157385595Y-105921961D01*
X157385595Y-105921961D02*
X157290357Y-106017200D01*
X157290357Y-106017200D02*
X157147500Y-106064819D01*
X157147500Y-106064819D02*
X156909405Y-106064819D01*
X157861786Y-105160057D02*
X157909405Y-105112438D01*
X157909405Y-105112438D02*
X158004643Y-105064819D01*
X158004643Y-105064819D02*
X158242738Y-105064819D01*
X158242738Y-105064819D02*
X158337976Y-105112438D01*
X158337976Y-105112438D02*
X158385595Y-105160057D01*
X158385595Y-105160057D02*
X158433214Y-105255295D01*
X158433214Y-105255295D02*
X158433214Y-105350533D01*
X158433214Y-105350533D02*
X158385595Y-105493390D01*
X158385595Y-105493390D02*
X157814167Y-106064819D01*
X157814167Y-106064819D02*
X158433214Y-106064819D01*
X140896667Y-106457200D02*
X141039524Y-106504819D01*
X141039524Y-106504819D02*
X141277619Y-106504819D01*
X141277619Y-106504819D02*
X141372857Y-106457200D01*
X141372857Y-106457200D02*
X141420476Y-106409580D01*
X141420476Y-106409580D02*
X141468095Y-106314342D01*
X141468095Y-106314342D02*
X141468095Y-106219104D01*
X141468095Y-106219104D02*
X141420476Y-106123866D01*
X141420476Y-106123866D02*
X141372857Y-106076247D01*
X141372857Y-106076247D02*
X141277619Y-106028628D01*
X141277619Y-106028628D02*
X141087143Y-105981009D01*
X141087143Y-105981009D02*
X140991905Y-105933390D01*
X140991905Y-105933390D02*
X140944286Y-105885771D01*
X140944286Y-105885771D02*
X140896667Y-105790533D01*
X140896667Y-105790533D02*
X140896667Y-105695295D01*
X140896667Y-105695295D02*
X140944286Y-105600057D01*
X140944286Y-105600057D02*
X140991905Y-105552438D01*
X140991905Y-105552438D02*
X141087143Y-105504819D01*
X141087143Y-105504819D02*
X141325238Y-105504819D01*
X141325238Y-105504819D02*
X141468095Y-105552438D01*
X141801429Y-105504819D02*
X142039524Y-106504819D01*
X142039524Y-106504819D02*
X142230000Y-105790533D01*
X142230000Y-105790533D02*
X142420476Y-106504819D01*
X142420476Y-106504819D02*
X142658572Y-105504819D01*
X143468095Y-105838152D02*
X143468095Y-106504819D01*
X143230000Y-105457200D02*
X142991905Y-106171485D01*
X142991905Y-106171485D02*
X143610952Y-106171485D01*
X152166667Y-104707200D02*
X152309524Y-104754819D01*
X152309524Y-104754819D02*
X152547619Y-104754819D01*
X152547619Y-104754819D02*
X152642857Y-104707200D01*
X152642857Y-104707200D02*
X152690476Y-104659580D01*
X152690476Y-104659580D02*
X152738095Y-104564342D01*
X152738095Y-104564342D02*
X152738095Y-104469104D01*
X152738095Y-104469104D02*
X152690476Y-104373866D01*
X152690476Y-104373866D02*
X152642857Y-104326247D01*
X152642857Y-104326247D02*
X152547619Y-104278628D01*
X152547619Y-104278628D02*
X152357143Y-104231009D01*
X152357143Y-104231009D02*
X152261905Y-104183390D01*
X152261905Y-104183390D02*
X152214286Y-104135771D01*
X152214286Y-104135771D02*
X152166667Y-104040533D01*
X152166667Y-104040533D02*
X152166667Y-103945295D01*
X152166667Y-103945295D02*
X152214286Y-103850057D01*
X152214286Y-103850057D02*
X152261905Y-103802438D01*
X152261905Y-103802438D02*
X152357143Y-103754819D01*
X152357143Y-103754819D02*
X152595238Y-103754819D01*
X152595238Y-103754819D02*
X152738095Y-103802438D01*
X153071429Y-103754819D02*
X153309524Y-104754819D01*
X153309524Y-104754819D02*
X153500000Y-104040533D01*
X153500000Y-104040533D02*
X153690476Y-104754819D01*
X153690476Y-104754819D02*
X153928572Y-103754819D01*
X154261905Y-103850057D02*
X154309524Y-103802438D01*
X154309524Y-103802438D02*
X154404762Y-103754819D01*
X154404762Y-103754819D02*
X154642857Y-103754819D01*
X154642857Y-103754819D02*
X154738095Y-103802438D01*
X154738095Y-103802438D02*
X154785714Y-103850057D01*
X154785714Y-103850057D02*
X154833333Y-103945295D01*
X154833333Y-103945295D02*
X154833333Y-104040533D01*
X154833333Y-104040533D02*
X154785714Y-104183390D01*
X154785714Y-104183390D02*
X154214286Y-104754819D01*
X154214286Y-104754819D02*
X154833333Y-104754819D01*
X119593333Y-85089580D02*
X119545714Y-85137200D01*
X119545714Y-85137200D02*
X119402857Y-85184819D01*
X119402857Y-85184819D02*
X119307619Y-85184819D01*
X119307619Y-85184819D02*
X119164762Y-85137200D01*
X119164762Y-85137200D02*
X119069524Y-85041961D01*
X119069524Y-85041961D02*
X119021905Y-84946723D01*
X119021905Y-84946723D02*
X118974286Y-84756247D01*
X118974286Y-84756247D02*
X118974286Y-84613390D01*
X118974286Y-84613390D02*
X119021905Y-84422914D01*
X119021905Y-84422914D02*
X119069524Y-84327676D01*
X119069524Y-84327676D02*
X119164762Y-84232438D01*
X119164762Y-84232438D02*
X119307619Y-84184819D01*
X119307619Y-84184819D02*
X119402857Y-84184819D01*
X119402857Y-84184819D02*
X119545714Y-84232438D01*
X119545714Y-84232438D02*
X119593333Y-84280057D01*
X119926667Y-84184819D02*
X120593333Y-84184819D01*
X120593333Y-84184819D02*
X120164762Y-85184819D01*
X143459580Y-77952857D02*
X143507200Y-78000476D01*
X143507200Y-78000476D02*
X143554819Y-78143333D01*
X143554819Y-78143333D02*
X143554819Y-78238571D01*
X143554819Y-78238571D02*
X143507200Y-78381428D01*
X143507200Y-78381428D02*
X143411961Y-78476666D01*
X143411961Y-78476666D02*
X143316723Y-78524285D01*
X143316723Y-78524285D02*
X143126247Y-78571904D01*
X143126247Y-78571904D02*
X142983390Y-78571904D01*
X142983390Y-78571904D02*
X142792914Y-78524285D01*
X142792914Y-78524285D02*
X142697676Y-78476666D01*
X142697676Y-78476666D02*
X142602438Y-78381428D01*
X142602438Y-78381428D02*
X142554819Y-78238571D01*
X142554819Y-78238571D02*
X142554819Y-78143333D01*
X142554819Y-78143333D02*
X142602438Y-78000476D01*
X142602438Y-78000476D02*
X142650057Y-77952857D01*
X143554819Y-77000476D02*
X143554819Y-77571904D01*
X143554819Y-77286190D02*
X142554819Y-77286190D01*
X142554819Y-77286190D02*
X142697676Y-77381428D01*
X142697676Y-77381428D02*
X142792914Y-77476666D01*
X142792914Y-77476666D02*
X142840533Y-77571904D01*
X143554819Y-76048095D02*
X143554819Y-76619523D01*
X143554819Y-76333809D02*
X142554819Y-76333809D01*
X142554819Y-76333809D02*
X142697676Y-76429047D01*
X142697676Y-76429047D02*
X142792914Y-76524285D01*
X142792914Y-76524285D02*
X142840533Y-76619523D01*
X146767142Y-92884819D02*
X146433809Y-92408628D01*
X146195714Y-92884819D02*
X146195714Y-91884819D01*
X146195714Y-91884819D02*
X146576666Y-91884819D01*
X146576666Y-91884819D02*
X146671904Y-91932438D01*
X146671904Y-91932438D02*
X146719523Y-91980057D01*
X146719523Y-91980057D02*
X146767142Y-92075295D01*
X146767142Y-92075295D02*
X146767142Y-92218152D01*
X146767142Y-92218152D02*
X146719523Y-92313390D01*
X146719523Y-92313390D02*
X146671904Y-92361009D01*
X146671904Y-92361009D02*
X146576666Y-92408628D01*
X146576666Y-92408628D02*
X146195714Y-92408628D01*
X147719523Y-92884819D02*
X147148095Y-92884819D01*
X147433809Y-92884819D02*
X147433809Y-91884819D01*
X147433809Y-91884819D02*
X147338571Y-92027676D01*
X147338571Y-92027676D02*
X147243333Y-92122914D01*
X147243333Y-92122914D02*
X147148095Y-92170533D01*
X148290952Y-92313390D02*
X148195714Y-92265771D01*
X148195714Y-92265771D02*
X148148095Y-92218152D01*
X148148095Y-92218152D02*
X148100476Y-92122914D01*
X148100476Y-92122914D02*
X148100476Y-92075295D01*
X148100476Y-92075295D02*
X148148095Y-91980057D01*
X148148095Y-91980057D02*
X148195714Y-91932438D01*
X148195714Y-91932438D02*
X148290952Y-91884819D01*
X148290952Y-91884819D02*
X148481428Y-91884819D01*
X148481428Y-91884819D02*
X148576666Y-91932438D01*
X148576666Y-91932438D02*
X148624285Y-91980057D01*
X148624285Y-91980057D02*
X148671904Y-92075295D01*
X148671904Y-92075295D02*
X148671904Y-92122914D01*
X148671904Y-92122914D02*
X148624285Y-92218152D01*
X148624285Y-92218152D02*
X148576666Y-92265771D01*
X148576666Y-92265771D02*
X148481428Y-92313390D01*
X148481428Y-92313390D02*
X148290952Y-92313390D01*
X148290952Y-92313390D02*
X148195714Y-92361009D01*
X148195714Y-92361009D02*
X148148095Y-92408628D01*
X148148095Y-92408628D02*
X148100476Y-92503866D01*
X148100476Y-92503866D02*
X148100476Y-92694342D01*
X148100476Y-92694342D02*
X148148095Y-92789580D01*
X148148095Y-92789580D02*
X148195714Y-92837200D01*
X148195714Y-92837200D02*
X148290952Y-92884819D01*
X148290952Y-92884819D02*
X148481428Y-92884819D01*
X148481428Y-92884819D02*
X148576666Y-92837200D01*
X148576666Y-92837200D02*
X148624285Y-92789580D01*
X148624285Y-92789580D02*
X148671904Y-92694342D01*
X148671904Y-92694342D02*
X148671904Y-92503866D01*
X148671904Y-92503866D02*
X148624285Y-92408628D01*
X148624285Y-92408628D02*
X148576666Y-92361009D01*
X148576666Y-92361009D02*
X148481428Y-92313390D01*
X152944819Y-102556666D02*
X152468628Y-102889999D01*
X152944819Y-103128094D02*
X151944819Y-103128094D01*
X151944819Y-103128094D02*
X151944819Y-102747142D01*
X151944819Y-102747142D02*
X151992438Y-102651904D01*
X151992438Y-102651904D02*
X152040057Y-102604285D01*
X152040057Y-102604285D02*
X152135295Y-102556666D01*
X152135295Y-102556666D02*
X152278152Y-102556666D01*
X152278152Y-102556666D02*
X152373390Y-102604285D01*
X152373390Y-102604285D02*
X152421009Y-102651904D01*
X152421009Y-102651904D02*
X152468628Y-102747142D01*
X152468628Y-102747142D02*
X152468628Y-103128094D01*
X152944819Y-102080475D02*
X152944819Y-101889999D01*
X152944819Y-101889999D02*
X152897200Y-101794761D01*
X152897200Y-101794761D02*
X152849580Y-101747142D01*
X152849580Y-101747142D02*
X152706723Y-101651904D01*
X152706723Y-101651904D02*
X152516247Y-101604285D01*
X152516247Y-101604285D02*
X152135295Y-101604285D01*
X152135295Y-101604285D02*
X152040057Y-101651904D01*
X152040057Y-101651904D02*
X151992438Y-101699523D01*
X151992438Y-101699523D02*
X151944819Y-101794761D01*
X151944819Y-101794761D02*
X151944819Y-101985237D01*
X151944819Y-101985237D02*
X151992438Y-102080475D01*
X151992438Y-102080475D02*
X152040057Y-102128094D01*
X152040057Y-102128094D02*
X152135295Y-102175713D01*
X152135295Y-102175713D02*
X152373390Y-102175713D01*
X152373390Y-102175713D02*
X152468628Y-102128094D01*
X152468628Y-102128094D02*
X152516247Y-102080475D01*
X152516247Y-102080475D02*
X152563866Y-101985237D01*
X152563866Y-101985237D02*
X152563866Y-101794761D01*
X152563866Y-101794761D02*
X152516247Y-101699523D01*
X152516247Y-101699523D02*
X152468628Y-101651904D01*
X152468628Y-101651904D02*
X152373390Y-101604285D01*
X148708628Y-79878190D02*
X149184819Y-79878190D01*
X148184819Y-80211523D02*
X148708628Y-79878190D01*
X148708628Y-79878190D02*
X148184819Y-79544857D01*
X149184819Y-78687714D02*
X149184819Y-79259142D01*
X149184819Y-78973428D02*
X148184819Y-78973428D01*
X148184819Y-78973428D02*
X148327676Y-79068666D01*
X148327676Y-79068666D02*
X148422914Y-79163904D01*
X148422914Y-79163904D02*
X148470533Y-79259142D01*
X114369819Y-92016189D02*
X113369819Y-92016189D01*
X114274580Y-90968571D02*
X114322200Y-91016190D01*
X114322200Y-91016190D02*
X114369819Y-91159047D01*
X114369819Y-91159047D02*
X114369819Y-91254285D01*
X114369819Y-91254285D02*
X114322200Y-91397142D01*
X114322200Y-91397142D02*
X114226961Y-91492380D01*
X114226961Y-91492380D02*
X114131723Y-91539999D01*
X114131723Y-91539999D02*
X113941247Y-91587618D01*
X113941247Y-91587618D02*
X113798390Y-91587618D01*
X113798390Y-91587618D02*
X113607914Y-91539999D01*
X113607914Y-91539999D02*
X113512676Y-91492380D01*
X113512676Y-91492380D02*
X113417438Y-91397142D01*
X113417438Y-91397142D02*
X113369819Y-91254285D01*
X113369819Y-91254285D02*
X113369819Y-91159047D01*
X113369819Y-91159047D02*
X113417438Y-91016190D01*
X113417438Y-91016190D02*
X113465057Y-90968571D01*
X113369819Y-90111428D02*
X113369819Y-90301904D01*
X113369819Y-90301904D02*
X113417438Y-90397142D01*
X113417438Y-90397142D02*
X113465057Y-90444761D01*
X113465057Y-90444761D02*
X113607914Y-90539999D01*
X113607914Y-90539999D02*
X113798390Y-90587618D01*
X113798390Y-90587618D02*
X114179342Y-90587618D01*
X114179342Y-90587618D02*
X114274580Y-90539999D01*
X114274580Y-90539999D02*
X114322200Y-90492380D01*
X114322200Y-90492380D02*
X114369819Y-90397142D01*
X114369819Y-90397142D02*
X114369819Y-90206666D01*
X114369819Y-90206666D02*
X114322200Y-90111428D01*
X114322200Y-90111428D02*
X114274580Y-90063809D01*
X114274580Y-90063809D02*
X114179342Y-90016190D01*
X114179342Y-90016190D02*
X113941247Y-90016190D01*
X113941247Y-90016190D02*
X113846009Y-90063809D01*
X113846009Y-90063809D02*
X113798390Y-90111428D01*
X113798390Y-90111428D02*
X113750771Y-90206666D01*
X113750771Y-90206666D02*
X113750771Y-90397142D01*
X113750771Y-90397142D02*
X113798390Y-90492380D01*
X113798390Y-90492380D02*
X113846009Y-90539999D01*
X113846009Y-90539999D02*
X113941247Y-90587618D01*
X112647142Y-83454819D02*
X112313809Y-82978628D01*
X112075714Y-83454819D02*
X112075714Y-82454819D01*
X112075714Y-82454819D02*
X112456666Y-82454819D01*
X112456666Y-82454819D02*
X112551904Y-82502438D01*
X112551904Y-82502438D02*
X112599523Y-82550057D01*
X112599523Y-82550057D02*
X112647142Y-82645295D01*
X112647142Y-82645295D02*
X112647142Y-82788152D01*
X112647142Y-82788152D02*
X112599523Y-82883390D01*
X112599523Y-82883390D02*
X112551904Y-82931009D01*
X112551904Y-82931009D02*
X112456666Y-82978628D01*
X112456666Y-82978628D02*
X112075714Y-82978628D01*
X113599523Y-83454819D02*
X113028095Y-83454819D01*
X113313809Y-83454819D02*
X113313809Y-82454819D01*
X113313809Y-82454819D02*
X113218571Y-82597676D01*
X113218571Y-82597676D02*
X113123333Y-82692914D01*
X113123333Y-82692914D02*
X113028095Y-82740533D01*
X114504285Y-82454819D02*
X114028095Y-82454819D01*
X114028095Y-82454819D02*
X113980476Y-82931009D01*
X113980476Y-82931009D02*
X114028095Y-82883390D01*
X114028095Y-82883390D02*
X114123333Y-82835771D01*
X114123333Y-82835771D02*
X114361428Y-82835771D01*
X114361428Y-82835771D02*
X114456666Y-82883390D01*
X114456666Y-82883390D02*
X114504285Y-82931009D01*
X114504285Y-82931009D02*
X114551904Y-83026247D01*
X114551904Y-83026247D02*
X114551904Y-83264342D01*
X114551904Y-83264342D02*
X114504285Y-83359580D01*
X114504285Y-83359580D02*
X114456666Y-83407200D01*
X114456666Y-83407200D02*
X114361428Y-83454819D01*
X114361428Y-83454819D02*
X114123333Y-83454819D01*
X114123333Y-83454819D02*
X114028095Y-83407200D01*
X114028095Y-83407200D02*
X113980476Y-83359580D01*
X108897142Y-103469580D02*
X108849523Y-103517200D01*
X108849523Y-103517200D02*
X108706666Y-103564819D01*
X108706666Y-103564819D02*
X108611428Y-103564819D01*
X108611428Y-103564819D02*
X108468571Y-103517200D01*
X108468571Y-103517200D02*
X108373333Y-103421961D01*
X108373333Y-103421961D02*
X108325714Y-103326723D01*
X108325714Y-103326723D02*
X108278095Y-103136247D01*
X108278095Y-103136247D02*
X108278095Y-102993390D01*
X108278095Y-102993390D02*
X108325714Y-102802914D01*
X108325714Y-102802914D02*
X108373333Y-102707676D01*
X108373333Y-102707676D02*
X108468571Y-102612438D01*
X108468571Y-102612438D02*
X108611428Y-102564819D01*
X108611428Y-102564819D02*
X108706666Y-102564819D01*
X108706666Y-102564819D02*
X108849523Y-102612438D01*
X108849523Y-102612438D02*
X108897142Y-102660057D01*
X109849523Y-103564819D02*
X109278095Y-103564819D01*
X109563809Y-103564819D02*
X109563809Y-102564819D01*
X109563809Y-102564819D02*
X109468571Y-102707676D01*
X109468571Y-102707676D02*
X109373333Y-102802914D01*
X109373333Y-102802914D02*
X109278095Y-102850533D01*
X110182857Y-102564819D02*
X110849523Y-102564819D01*
X110849523Y-102564819D02*
X110420952Y-103564819D01*
X107254819Y-91533333D02*
X107969104Y-91533333D01*
X107969104Y-91533333D02*
X108111961Y-91580952D01*
X108111961Y-91580952D02*
X108207200Y-91676190D01*
X108207200Y-91676190D02*
X108254819Y-91819047D01*
X108254819Y-91819047D02*
X108254819Y-91914285D01*
X107254819Y-90580952D02*
X107254819Y-91057142D01*
X107254819Y-91057142D02*
X107731009Y-91104761D01*
X107731009Y-91104761D02*
X107683390Y-91057142D01*
X107683390Y-91057142D02*
X107635771Y-90961904D01*
X107635771Y-90961904D02*
X107635771Y-90723809D01*
X107635771Y-90723809D02*
X107683390Y-90628571D01*
X107683390Y-90628571D02*
X107731009Y-90580952D01*
X107731009Y-90580952D02*
X107826247Y-90533333D01*
X107826247Y-90533333D02*
X108064342Y-90533333D01*
X108064342Y-90533333D02*
X108159580Y-90580952D01*
X108159580Y-90580952D02*
X108207200Y-90628571D01*
X108207200Y-90628571D02*
X108254819Y-90723809D01*
X108254819Y-90723809D02*
X108254819Y-90961904D01*
X108254819Y-90961904D02*
X108207200Y-91057142D01*
X108207200Y-91057142D02*
X108159580Y-91104761D01*
X148213809Y-87858628D02*
X148213809Y-88334819D01*
X147880476Y-87334819D02*
X148213809Y-87858628D01*
X148213809Y-87858628D02*
X148547142Y-87334819D01*
X149309047Y-87668152D02*
X149309047Y-88334819D01*
X149070952Y-87287200D02*
X148832857Y-88001485D01*
X148832857Y-88001485D02*
X149451904Y-88001485D01*
X169412319Y-82683333D02*
X170126604Y-82683333D01*
X170126604Y-82683333D02*
X170269461Y-82730952D01*
X170269461Y-82730952D02*
X170364700Y-82826190D01*
X170364700Y-82826190D02*
X170412319Y-82969047D01*
X170412319Y-82969047D02*
X170412319Y-83064285D01*
X169840890Y-82064285D02*
X169793271Y-82159523D01*
X169793271Y-82159523D02*
X169745652Y-82207142D01*
X169745652Y-82207142D02*
X169650414Y-82254761D01*
X169650414Y-82254761D02*
X169602795Y-82254761D01*
X169602795Y-82254761D02*
X169507557Y-82207142D01*
X169507557Y-82207142D02*
X169459938Y-82159523D01*
X169459938Y-82159523D02*
X169412319Y-82064285D01*
X169412319Y-82064285D02*
X169412319Y-81873809D01*
X169412319Y-81873809D02*
X169459938Y-81778571D01*
X169459938Y-81778571D02*
X169507557Y-81730952D01*
X169507557Y-81730952D02*
X169602795Y-81683333D01*
X169602795Y-81683333D02*
X169650414Y-81683333D01*
X169650414Y-81683333D02*
X169745652Y-81730952D01*
X169745652Y-81730952D02*
X169793271Y-81778571D01*
X169793271Y-81778571D02*
X169840890Y-81873809D01*
X169840890Y-81873809D02*
X169840890Y-82064285D01*
X169840890Y-82064285D02*
X169888509Y-82159523D01*
X169888509Y-82159523D02*
X169936128Y-82207142D01*
X169936128Y-82207142D02*
X170031366Y-82254761D01*
X170031366Y-82254761D02*
X170221842Y-82254761D01*
X170221842Y-82254761D02*
X170317080Y-82207142D01*
X170317080Y-82207142D02*
X170364700Y-82159523D01*
X170364700Y-82159523D02*
X170412319Y-82064285D01*
X170412319Y-82064285D02*
X170412319Y-81873809D01*
X170412319Y-81873809D02*
X170364700Y-81778571D01*
X170364700Y-81778571D02*
X170317080Y-81730952D01*
X170317080Y-81730952D02*
X170221842Y-81683333D01*
X170221842Y-81683333D02*
X170031366Y-81683333D01*
X170031366Y-81683333D02*
X169936128Y-81730952D01*
X169936128Y-81730952D02*
X169888509Y-81778571D01*
X169888509Y-81778571D02*
X169840890Y-81873809D01*
X147301905Y-104214819D02*
X147301905Y-103214819D01*
X147301905Y-103214819D02*
X147540000Y-103214819D01*
X147540000Y-103214819D02*
X147682857Y-103262438D01*
X147682857Y-103262438D02*
X147778095Y-103357676D01*
X147778095Y-103357676D02*
X147825714Y-103452914D01*
X147825714Y-103452914D02*
X147873333Y-103643390D01*
X147873333Y-103643390D02*
X147873333Y-103786247D01*
X147873333Y-103786247D02*
X147825714Y-103976723D01*
X147825714Y-103976723D02*
X147778095Y-104071961D01*
X147778095Y-104071961D02*
X147682857Y-104167200D01*
X147682857Y-104167200D02*
X147540000Y-104214819D01*
X147540000Y-104214819D02*
X147301905Y-104214819D01*
X148825714Y-104214819D02*
X148254286Y-104214819D01*
X148540000Y-104214819D02*
X148540000Y-103214819D01*
X148540000Y-103214819D02*
X148444762Y-103357676D01*
X148444762Y-103357676D02*
X148349524Y-103452914D01*
X148349524Y-103452914D02*
X148254286Y-103500533D01*
X119573333Y-82929580D02*
X119525714Y-82977200D01*
X119525714Y-82977200D02*
X119382857Y-83024819D01*
X119382857Y-83024819D02*
X119287619Y-83024819D01*
X119287619Y-83024819D02*
X119144762Y-82977200D01*
X119144762Y-82977200D02*
X119049524Y-82881961D01*
X119049524Y-82881961D02*
X119001905Y-82786723D01*
X119001905Y-82786723D02*
X118954286Y-82596247D01*
X118954286Y-82596247D02*
X118954286Y-82453390D01*
X118954286Y-82453390D02*
X119001905Y-82262914D01*
X119001905Y-82262914D02*
X119049524Y-82167676D01*
X119049524Y-82167676D02*
X119144762Y-82072438D01*
X119144762Y-82072438D02*
X119287619Y-82024819D01*
X119287619Y-82024819D02*
X119382857Y-82024819D01*
X119382857Y-82024819D02*
X119525714Y-82072438D01*
X119525714Y-82072438D02*
X119573333Y-82120057D01*
X120144762Y-82453390D02*
X120049524Y-82405771D01*
X120049524Y-82405771D02*
X120001905Y-82358152D01*
X120001905Y-82358152D02*
X119954286Y-82262914D01*
X119954286Y-82262914D02*
X119954286Y-82215295D01*
X119954286Y-82215295D02*
X120001905Y-82120057D01*
X120001905Y-82120057D02*
X120049524Y-82072438D01*
X120049524Y-82072438D02*
X120144762Y-82024819D01*
X120144762Y-82024819D02*
X120335238Y-82024819D01*
X120335238Y-82024819D02*
X120430476Y-82072438D01*
X120430476Y-82072438D02*
X120478095Y-82120057D01*
X120478095Y-82120057D02*
X120525714Y-82215295D01*
X120525714Y-82215295D02*
X120525714Y-82262914D01*
X120525714Y-82262914D02*
X120478095Y-82358152D01*
X120478095Y-82358152D02*
X120430476Y-82405771D01*
X120430476Y-82405771D02*
X120335238Y-82453390D01*
X120335238Y-82453390D02*
X120144762Y-82453390D01*
X120144762Y-82453390D02*
X120049524Y-82501009D01*
X120049524Y-82501009D02*
X120001905Y-82548628D01*
X120001905Y-82548628D02*
X119954286Y-82643866D01*
X119954286Y-82643866D02*
X119954286Y-82834342D01*
X119954286Y-82834342D02*
X120001905Y-82929580D01*
X120001905Y-82929580D02*
X120049524Y-82977200D01*
X120049524Y-82977200D02*
X120144762Y-83024819D01*
X120144762Y-83024819D02*
X120335238Y-83024819D01*
X120335238Y-83024819D02*
X120430476Y-82977200D01*
X120430476Y-82977200D02*
X120478095Y-82929580D01*
X120478095Y-82929580D02*
X120525714Y-82834342D01*
X120525714Y-82834342D02*
X120525714Y-82643866D01*
X120525714Y-82643866D02*
X120478095Y-82548628D01*
X120478095Y-82548628D02*
X120430476Y-82501009D01*
X120430476Y-82501009D02*
X120335238Y-82453390D01*
D11*
X169010237Y-95094318D02*
X169010237Y-93824318D01*
X170340714Y-94973365D02*
X170280238Y-95033842D01*
X170280238Y-95033842D02*
X170098809Y-95094318D01*
X170098809Y-95094318D02*
X169977857Y-95094318D01*
X169977857Y-95094318D02*
X169796428Y-95033842D01*
X169796428Y-95033842D02*
X169675476Y-94912889D01*
X169675476Y-94912889D02*
X169614999Y-94791937D01*
X169614999Y-94791937D02*
X169554523Y-94550032D01*
X169554523Y-94550032D02*
X169554523Y-94368603D01*
X169554523Y-94368603D02*
X169614999Y-94126699D01*
X169614999Y-94126699D02*
X169675476Y-94005746D01*
X169675476Y-94005746D02*
X169796428Y-93884794D01*
X169796428Y-93884794D02*
X169977857Y-93824318D01*
X169977857Y-93824318D02*
X170098809Y-93824318D01*
X170098809Y-93824318D02*
X170280238Y-93884794D01*
X170280238Y-93884794D02*
X170340714Y-93945270D01*
X170824523Y-93945270D02*
X170884999Y-93884794D01*
X170884999Y-93884794D02*
X171005952Y-93824318D01*
X171005952Y-93824318D02*
X171308333Y-93824318D01*
X171308333Y-93824318D02*
X171429285Y-93884794D01*
X171429285Y-93884794D02*
X171489761Y-93945270D01*
X171489761Y-93945270D02*
X171550238Y-94066222D01*
X171550238Y-94066222D02*
X171550238Y-94187175D01*
X171550238Y-94187175D02*
X171489761Y-94368603D01*
X171489761Y-94368603D02*
X170764047Y-95094318D01*
X170764047Y-95094318D02*
X171550238Y-95094318D01*
D13*
X160528704Y-81454285D02*
X160566800Y-81492381D01*
X160566800Y-81492381D02*
X160604895Y-81606666D01*
X160604895Y-81606666D02*
X160604895Y-81682857D01*
X160604895Y-81682857D02*
X160566800Y-81797143D01*
X160566800Y-81797143D02*
X160490609Y-81873333D01*
X160490609Y-81873333D02*
X160414419Y-81911428D01*
X160414419Y-81911428D02*
X160262038Y-81949524D01*
X160262038Y-81949524D02*
X160147752Y-81949524D01*
X160147752Y-81949524D02*
X159995371Y-81911428D01*
X159995371Y-81911428D02*
X159919180Y-81873333D01*
X159919180Y-81873333D02*
X159842990Y-81797143D01*
X159842990Y-81797143D02*
X159804895Y-81682857D01*
X159804895Y-81682857D02*
X159804895Y-81606666D01*
X159804895Y-81606666D02*
X159842990Y-81492381D01*
X159842990Y-81492381D02*
X159881085Y-81454285D01*
X159881085Y-81149524D02*
X159842990Y-81111428D01*
X159842990Y-81111428D02*
X159804895Y-81035238D01*
X159804895Y-81035238D02*
X159804895Y-80844762D01*
X159804895Y-80844762D02*
X159842990Y-80768571D01*
X159842990Y-80768571D02*
X159881085Y-80730476D01*
X159881085Y-80730476D02*
X159957276Y-80692381D01*
X159957276Y-80692381D02*
X160033466Y-80692381D01*
X160033466Y-80692381D02*
X160147752Y-80730476D01*
X160147752Y-80730476D02*
X160604895Y-81187619D01*
X160604895Y-81187619D02*
X160604895Y-80692381D01*
X159804895Y-80006666D02*
X159804895Y-80159047D01*
X159804895Y-80159047D02*
X159842990Y-80235238D01*
X159842990Y-80235238D02*
X159881085Y-80273333D01*
X159881085Y-80273333D02*
X159995371Y-80349523D01*
X159995371Y-80349523D02*
X160147752Y-80387619D01*
X160147752Y-80387619D02*
X160452514Y-80387619D01*
X160452514Y-80387619D02*
X160528704Y-80349523D01*
X160528704Y-80349523D02*
X160566800Y-80311428D01*
X160566800Y-80311428D02*
X160604895Y-80235238D01*
X160604895Y-80235238D02*
X160604895Y-80082857D01*
X160604895Y-80082857D02*
X160566800Y-80006666D01*
X160566800Y-80006666D02*
X160528704Y-79968571D01*
X160528704Y-79968571D02*
X160452514Y-79930476D01*
X160452514Y-79930476D02*
X160262038Y-79930476D01*
X160262038Y-79930476D02*
X160185847Y-79968571D01*
X160185847Y-79968571D02*
X160147752Y-80006666D01*
X160147752Y-80006666D02*
X160109657Y-80082857D01*
X160109657Y-80082857D02*
X160109657Y-80235238D01*
X160109657Y-80235238D02*
X160147752Y-80311428D01*
X160147752Y-80311428D02*
X160185847Y-80349523D01*
X160185847Y-80349523D02*
X160262038Y-80387619D01*
D12*
X163956666Y-86146819D02*
X163956666Y-86861104D01*
X163956666Y-86861104D02*
X163909047Y-87003961D01*
X163909047Y-87003961D02*
X163813809Y-87099200D01*
X163813809Y-87099200D02*
X163670952Y-87146819D01*
X163670952Y-87146819D02*
X163575714Y-87146819D01*
X164337619Y-86146819D02*
X165004285Y-86146819D01*
X165004285Y-86146819D02*
X164575714Y-87146819D01*
X136817142Y-103594819D02*
X136483809Y-103118628D01*
X136245714Y-103594819D02*
X136245714Y-102594819D01*
X136245714Y-102594819D02*
X136626666Y-102594819D01*
X136626666Y-102594819D02*
X136721904Y-102642438D01*
X136721904Y-102642438D02*
X136769523Y-102690057D01*
X136769523Y-102690057D02*
X136817142Y-102785295D01*
X136817142Y-102785295D02*
X136817142Y-102928152D01*
X136817142Y-102928152D02*
X136769523Y-103023390D01*
X136769523Y-103023390D02*
X136721904Y-103071009D01*
X136721904Y-103071009D02*
X136626666Y-103118628D01*
X136626666Y-103118628D02*
X136245714Y-103118628D01*
X137769523Y-103594819D02*
X137198095Y-103594819D01*
X137483809Y-103594819D02*
X137483809Y-102594819D01*
X137483809Y-102594819D02*
X137388571Y-102737676D01*
X137388571Y-102737676D02*
X137293333Y-102832914D01*
X137293333Y-102832914D02*
X137198095Y-102880533D01*
X138721904Y-103594819D02*
X138150476Y-103594819D01*
X138436190Y-103594819D02*
X138436190Y-102594819D01*
X138436190Y-102594819D02*
X138340952Y-102737676D01*
X138340952Y-102737676D02*
X138245714Y-102832914D01*
X138245714Y-102832914D02*
X138150476Y-102880533D01*
X140629580Y-82185357D02*
X140677200Y-82232976D01*
X140677200Y-82232976D02*
X140724819Y-82375833D01*
X140724819Y-82375833D02*
X140724819Y-82471071D01*
X140724819Y-82471071D02*
X140677200Y-82613928D01*
X140677200Y-82613928D02*
X140581961Y-82709166D01*
X140581961Y-82709166D02*
X140486723Y-82756785D01*
X140486723Y-82756785D02*
X140296247Y-82804404D01*
X140296247Y-82804404D02*
X140153390Y-82804404D01*
X140153390Y-82804404D02*
X139962914Y-82756785D01*
X139962914Y-82756785D02*
X139867676Y-82709166D01*
X139867676Y-82709166D02*
X139772438Y-82613928D01*
X139772438Y-82613928D02*
X139724819Y-82471071D01*
X139724819Y-82471071D02*
X139724819Y-82375833D01*
X139724819Y-82375833D02*
X139772438Y-82232976D01*
X139772438Y-82232976D02*
X139820057Y-82185357D01*
X140724819Y-81232976D02*
X140724819Y-81804404D01*
X140724819Y-81518690D02*
X139724819Y-81518690D01*
X139724819Y-81518690D02*
X139867676Y-81613928D01*
X139867676Y-81613928D02*
X139962914Y-81709166D01*
X139962914Y-81709166D02*
X140010533Y-81804404D01*
X139820057Y-80852023D02*
X139772438Y-80804404D01*
X139772438Y-80804404D02*
X139724819Y-80709166D01*
X139724819Y-80709166D02*
X139724819Y-80471071D01*
X139724819Y-80471071D02*
X139772438Y-80375833D01*
X139772438Y-80375833D02*
X139820057Y-80328214D01*
X139820057Y-80328214D02*
X139915295Y-80280595D01*
X139915295Y-80280595D02*
X140010533Y-80280595D01*
X140010533Y-80280595D02*
X140153390Y-80328214D01*
X140153390Y-80328214D02*
X140724819Y-80899642D01*
X140724819Y-80899642D02*
X140724819Y-80280595D01*
X174516666Y-104909819D02*
X174516666Y-105624104D01*
X174516666Y-105624104D02*
X174469047Y-105766961D01*
X174469047Y-105766961D02*
X174373809Y-105862200D01*
X174373809Y-105862200D02*
X174230952Y-105909819D01*
X174230952Y-105909819D02*
X174135714Y-105909819D01*
X174897619Y-104909819D02*
X175516666Y-104909819D01*
X175516666Y-104909819D02*
X175183333Y-105290771D01*
X175183333Y-105290771D02*
X175326190Y-105290771D01*
X175326190Y-105290771D02*
X175421428Y-105338390D01*
X175421428Y-105338390D02*
X175469047Y-105386009D01*
X175469047Y-105386009D02*
X175516666Y-105481247D01*
X175516666Y-105481247D02*
X175516666Y-105719342D01*
X175516666Y-105719342D02*
X175469047Y-105814580D01*
X175469047Y-105814580D02*
X175421428Y-105862200D01*
X175421428Y-105862200D02*
X175326190Y-105909819D01*
X175326190Y-105909819D02*
X175040476Y-105909819D01*
X175040476Y-105909819D02*
X174945238Y-105862200D01*
X174945238Y-105862200D02*
X174897619Y-105814580D01*
X156537142Y-89741580D02*
X156489523Y-89789200D01*
X156489523Y-89789200D02*
X156346666Y-89836819D01*
X156346666Y-89836819D02*
X156251428Y-89836819D01*
X156251428Y-89836819D02*
X156108571Y-89789200D01*
X156108571Y-89789200D02*
X156013333Y-89693961D01*
X156013333Y-89693961D02*
X155965714Y-89598723D01*
X155965714Y-89598723D02*
X155918095Y-89408247D01*
X155918095Y-89408247D02*
X155918095Y-89265390D01*
X155918095Y-89265390D02*
X155965714Y-89074914D01*
X155965714Y-89074914D02*
X156013333Y-88979676D01*
X156013333Y-88979676D02*
X156108571Y-88884438D01*
X156108571Y-88884438D02*
X156251428Y-88836819D01*
X156251428Y-88836819D02*
X156346666Y-88836819D01*
X156346666Y-88836819D02*
X156489523Y-88884438D01*
X156489523Y-88884438D02*
X156537142Y-88932057D01*
X156918095Y-88932057D02*
X156965714Y-88884438D01*
X156965714Y-88884438D02*
X157060952Y-88836819D01*
X157060952Y-88836819D02*
X157299047Y-88836819D01*
X157299047Y-88836819D02*
X157394285Y-88884438D01*
X157394285Y-88884438D02*
X157441904Y-88932057D01*
X157441904Y-88932057D02*
X157489523Y-89027295D01*
X157489523Y-89027295D02*
X157489523Y-89122533D01*
X157489523Y-89122533D02*
X157441904Y-89265390D01*
X157441904Y-89265390D02*
X156870476Y-89836819D01*
X156870476Y-89836819D02*
X157489523Y-89836819D01*
X158060952Y-89265390D02*
X157965714Y-89217771D01*
X157965714Y-89217771D02*
X157918095Y-89170152D01*
X157918095Y-89170152D02*
X157870476Y-89074914D01*
X157870476Y-89074914D02*
X157870476Y-89027295D01*
X157870476Y-89027295D02*
X157918095Y-88932057D01*
X157918095Y-88932057D02*
X157965714Y-88884438D01*
X157965714Y-88884438D02*
X158060952Y-88836819D01*
X158060952Y-88836819D02*
X158251428Y-88836819D01*
X158251428Y-88836819D02*
X158346666Y-88884438D01*
X158346666Y-88884438D02*
X158394285Y-88932057D01*
X158394285Y-88932057D02*
X158441904Y-89027295D01*
X158441904Y-89027295D02*
X158441904Y-89074914D01*
X158441904Y-89074914D02*
X158394285Y-89170152D01*
X158394285Y-89170152D02*
X158346666Y-89217771D01*
X158346666Y-89217771D02*
X158251428Y-89265390D01*
X158251428Y-89265390D02*
X158060952Y-89265390D01*
X158060952Y-89265390D02*
X157965714Y-89313009D01*
X157965714Y-89313009D02*
X157918095Y-89360628D01*
X157918095Y-89360628D02*
X157870476Y-89455866D01*
X157870476Y-89455866D02*
X157870476Y-89646342D01*
X157870476Y-89646342D02*
X157918095Y-89741580D01*
X157918095Y-89741580D02*
X157965714Y-89789200D01*
X157965714Y-89789200D02*
X158060952Y-89836819D01*
X158060952Y-89836819D02*
X158251428Y-89836819D01*
X158251428Y-89836819D02*
X158346666Y-89789200D01*
X158346666Y-89789200D02*
X158394285Y-89741580D01*
X158394285Y-89741580D02*
X158441904Y-89646342D01*
X158441904Y-89646342D02*
X158441904Y-89455866D01*
X158441904Y-89455866D02*
X158394285Y-89360628D01*
X158394285Y-89360628D02*
X158346666Y-89313009D01*
X158346666Y-89313009D02*
X158251428Y-89265390D01*
X163936667Y-104827200D02*
X164079524Y-104874819D01*
X164079524Y-104874819D02*
X164317619Y-104874819D01*
X164317619Y-104874819D02*
X164412857Y-104827200D01*
X164412857Y-104827200D02*
X164460476Y-104779580D01*
X164460476Y-104779580D02*
X164508095Y-104684342D01*
X164508095Y-104684342D02*
X164508095Y-104589104D01*
X164508095Y-104589104D02*
X164460476Y-104493866D01*
X164460476Y-104493866D02*
X164412857Y-104446247D01*
X164412857Y-104446247D02*
X164317619Y-104398628D01*
X164317619Y-104398628D02*
X164127143Y-104351009D01*
X164127143Y-104351009D02*
X164031905Y-104303390D01*
X164031905Y-104303390D02*
X163984286Y-104255771D01*
X163984286Y-104255771D02*
X163936667Y-104160533D01*
X163936667Y-104160533D02*
X163936667Y-104065295D01*
X163936667Y-104065295D02*
X163984286Y-103970057D01*
X163984286Y-103970057D02*
X164031905Y-103922438D01*
X164031905Y-103922438D02*
X164127143Y-103874819D01*
X164127143Y-103874819D02*
X164365238Y-103874819D01*
X164365238Y-103874819D02*
X164508095Y-103922438D01*
X164841429Y-103874819D02*
X165079524Y-104874819D01*
X165079524Y-104874819D02*
X165270000Y-104160533D01*
X165270000Y-104160533D02*
X165460476Y-104874819D01*
X165460476Y-104874819D02*
X165698572Y-103874819D01*
X165984286Y-103874819D02*
X166603333Y-103874819D01*
X166603333Y-103874819D02*
X166270000Y-104255771D01*
X166270000Y-104255771D02*
X166412857Y-104255771D01*
X166412857Y-104255771D02*
X166508095Y-104303390D01*
X166508095Y-104303390D02*
X166555714Y-104351009D01*
X166555714Y-104351009D02*
X166603333Y-104446247D01*
X166603333Y-104446247D02*
X166603333Y-104684342D01*
X166603333Y-104684342D02*
X166555714Y-104779580D01*
X166555714Y-104779580D02*
X166508095Y-104827200D01*
X166508095Y-104827200D02*
X166412857Y-104874819D01*
X166412857Y-104874819D02*
X166127143Y-104874819D01*
X166127143Y-104874819D02*
X166031905Y-104827200D01*
X166031905Y-104827200D02*
X165984286Y-104779580D01*
X170634819Y-106640357D02*
X170158628Y-106973690D01*
X170634819Y-107211785D02*
X169634819Y-107211785D01*
X169634819Y-107211785D02*
X169634819Y-106830833D01*
X169634819Y-106830833D02*
X169682438Y-106735595D01*
X169682438Y-106735595D02*
X169730057Y-106687976D01*
X169730057Y-106687976D02*
X169825295Y-106640357D01*
X169825295Y-106640357D02*
X169968152Y-106640357D01*
X169968152Y-106640357D02*
X170063390Y-106687976D01*
X170063390Y-106687976D02*
X170111009Y-106735595D01*
X170111009Y-106735595D02*
X170158628Y-106830833D01*
X170158628Y-106830833D02*
X170158628Y-107211785D01*
X169730057Y-106259404D02*
X169682438Y-106211785D01*
X169682438Y-106211785D02*
X169634819Y-106116547D01*
X169634819Y-106116547D02*
X169634819Y-105878452D01*
X169634819Y-105878452D02*
X169682438Y-105783214D01*
X169682438Y-105783214D02*
X169730057Y-105735595D01*
X169730057Y-105735595D02*
X169825295Y-105687976D01*
X169825295Y-105687976D02*
X169920533Y-105687976D01*
X169920533Y-105687976D02*
X170063390Y-105735595D01*
X170063390Y-105735595D02*
X170634819Y-106307023D01*
X170634819Y-106307023D02*
X170634819Y-105687976D01*
X170634819Y-104735595D02*
X170634819Y-105307023D01*
X170634819Y-105021309D02*
X169634819Y-105021309D01*
X169634819Y-105021309D02*
X169777676Y-105116547D01*
X169777676Y-105116547D02*
X169872914Y-105211785D01*
X169872914Y-105211785D02*
X169920533Y-105307023D01*
X176699580Y-104032857D02*
X176747200Y-104080476D01*
X176747200Y-104080476D02*
X176794819Y-104223333D01*
X176794819Y-104223333D02*
X176794819Y-104318571D01*
X176794819Y-104318571D02*
X176747200Y-104461428D01*
X176747200Y-104461428D02*
X176651961Y-104556666D01*
X176651961Y-104556666D02*
X176556723Y-104604285D01*
X176556723Y-104604285D02*
X176366247Y-104651904D01*
X176366247Y-104651904D02*
X176223390Y-104651904D01*
X176223390Y-104651904D02*
X176032914Y-104604285D01*
X176032914Y-104604285D02*
X175937676Y-104556666D01*
X175937676Y-104556666D02*
X175842438Y-104461428D01*
X175842438Y-104461428D02*
X175794819Y-104318571D01*
X175794819Y-104318571D02*
X175794819Y-104223333D01*
X175794819Y-104223333D02*
X175842438Y-104080476D01*
X175842438Y-104080476D02*
X175890057Y-104032857D01*
X176794819Y-103080476D02*
X176794819Y-103651904D01*
X176794819Y-103366190D02*
X175794819Y-103366190D01*
X175794819Y-103366190D02*
X175937676Y-103461428D01*
X175937676Y-103461428D02*
X176032914Y-103556666D01*
X176032914Y-103556666D02*
X176080533Y-103651904D01*
X176794819Y-102604285D02*
X176794819Y-102413809D01*
X176794819Y-102413809D02*
X176747200Y-102318571D01*
X176747200Y-102318571D02*
X176699580Y-102270952D01*
X176699580Y-102270952D02*
X176556723Y-102175714D01*
X176556723Y-102175714D02*
X176366247Y-102128095D01*
X176366247Y-102128095D02*
X175985295Y-102128095D01*
X175985295Y-102128095D02*
X175890057Y-102175714D01*
X175890057Y-102175714D02*
X175842438Y-102223333D01*
X175842438Y-102223333D02*
X175794819Y-102318571D01*
X175794819Y-102318571D02*
X175794819Y-102509047D01*
X175794819Y-102509047D02*
X175842438Y-102604285D01*
X175842438Y-102604285D02*
X175890057Y-102651904D01*
X175890057Y-102651904D02*
X175985295Y-102699523D01*
X175985295Y-102699523D02*
X176223390Y-102699523D01*
X176223390Y-102699523D02*
X176318628Y-102651904D01*
X176318628Y-102651904D02*
X176366247Y-102604285D01*
X176366247Y-102604285D02*
X176413866Y-102509047D01*
X176413866Y-102509047D02*
X176413866Y-102318571D01*
X176413866Y-102318571D02*
X176366247Y-102223333D01*
X176366247Y-102223333D02*
X176318628Y-102175714D01*
X176318628Y-102175714D02*
X176223390Y-102128095D01*
X108997142Y-107324819D02*
X108663809Y-106848628D01*
X108425714Y-107324819D02*
X108425714Y-106324819D01*
X108425714Y-106324819D02*
X108806666Y-106324819D01*
X108806666Y-106324819D02*
X108901904Y-106372438D01*
X108901904Y-106372438D02*
X108949523Y-106420057D01*
X108949523Y-106420057D02*
X108997142Y-106515295D01*
X108997142Y-106515295D02*
X108997142Y-106658152D01*
X108997142Y-106658152D02*
X108949523Y-106753390D01*
X108949523Y-106753390D02*
X108901904Y-106801009D01*
X108901904Y-106801009D02*
X108806666Y-106848628D01*
X108806666Y-106848628D02*
X108425714Y-106848628D01*
X109949523Y-107324819D02*
X109378095Y-107324819D01*
X109663809Y-107324819D02*
X109663809Y-106324819D01*
X109663809Y-106324819D02*
X109568571Y-106467676D01*
X109568571Y-106467676D02*
X109473333Y-106562914D01*
X109473333Y-106562914D02*
X109378095Y-106610533D01*
X110330476Y-106420057D02*
X110378095Y-106372438D01*
X110378095Y-106372438D02*
X110473333Y-106324819D01*
X110473333Y-106324819D02*
X110711428Y-106324819D01*
X110711428Y-106324819D02*
X110806666Y-106372438D01*
X110806666Y-106372438D02*
X110854285Y-106420057D01*
X110854285Y-106420057D02*
X110901904Y-106515295D01*
X110901904Y-106515295D02*
X110901904Y-106610533D01*
X110901904Y-106610533D02*
X110854285Y-106753390D01*
X110854285Y-106753390D02*
X110282857Y-107324819D01*
X110282857Y-107324819D02*
X110901904Y-107324819D01*
X124524819Y-106612857D02*
X124048628Y-106946190D01*
X124524819Y-107184285D02*
X123524819Y-107184285D01*
X123524819Y-107184285D02*
X123524819Y-106803333D01*
X123524819Y-106803333D02*
X123572438Y-106708095D01*
X123572438Y-106708095D02*
X123620057Y-106660476D01*
X123620057Y-106660476D02*
X123715295Y-106612857D01*
X123715295Y-106612857D02*
X123858152Y-106612857D01*
X123858152Y-106612857D02*
X123953390Y-106660476D01*
X123953390Y-106660476D02*
X124001009Y-106708095D01*
X124001009Y-106708095D02*
X124048628Y-106803333D01*
X124048628Y-106803333D02*
X124048628Y-107184285D01*
X124524819Y-105660476D02*
X124524819Y-106231904D01*
X124524819Y-105946190D02*
X123524819Y-105946190D01*
X123524819Y-105946190D02*
X123667676Y-106041428D01*
X123667676Y-106041428D02*
X123762914Y-106136666D01*
X123762914Y-106136666D02*
X123810533Y-106231904D01*
X123524819Y-105327142D02*
X123524819Y-104708095D01*
X123524819Y-104708095D02*
X123905771Y-105041428D01*
X123905771Y-105041428D02*
X123905771Y-104898571D01*
X123905771Y-104898571D02*
X123953390Y-104803333D01*
X123953390Y-104803333D02*
X124001009Y-104755714D01*
X124001009Y-104755714D02*
X124096247Y-104708095D01*
X124096247Y-104708095D02*
X124334342Y-104708095D01*
X124334342Y-104708095D02*
X124429580Y-104755714D01*
X124429580Y-104755714D02*
X124477200Y-104803333D01*
X124477200Y-104803333D02*
X124524819Y-104898571D01*
X124524819Y-104898571D02*
X124524819Y-105184285D01*
X124524819Y-105184285D02*
X124477200Y-105279523D01*
X124477200Y-105279523D02*
X124429580Y-105327142D01*
X157207142Y-74811580D02*
X157159523Y-74859200D01*
X157159523Y-74859200D02*
X157016666Y-74906819D01*
X157016666Y-74906819D02*
X156921428Y-74906819D01*
X156921428Y-74906819D02*
X156778571Y-74859200D01*
X156778571Y-74859200D02*
X156683333Y-74763961D01*
X156683333Y-74763961D02*
X156635714Y-74668723D01*
X156635714Y-74668723D02*
X156588095Y-74478247D01*
X156588095Y-74478247D02*
X156588095Y-74335390D01*
X156588095Y-74335390D02*
X156635714Y-74144914D01*
X156635714Y-74144914D02*
X156683333Y-74049676D01*
X156683333Y-74049676D02*
X156778571Y-73954438D01*
X156778571Y-73954438D02*
X156921428Y-73906819D01*
X156921428Y-73906819D02*
X157016666Y-73906819D01*
X157016666Y-73906819D02*
X157159523Y-73954438D01*
X157159523Y-73954438D02*
X157207142Y-74002057D01*
X157588095Y-74002057D02*
X157635714Y-73954438D01*
X157635714Y-73954438D02*
X157730952Y-73906819D01*
X157730952Y-73906819D02*
X157969047Y-73906819D01*
X157969047Y-73906819D02*
X158064285Y-73954438D01*
X158064285Y-73954438D02*
X158111904Y-74002057D01*
X158111904Y-74002057D02*
X158159523Y-74097295D01*
X158159523Y-74097295D02*
X158159523Y-74192533D01*
X158159523Y-74192533D02*
X158111904Y-74335390D01*
X158111904Y-74335390D02*
X157540476Y-74906819D01*
X157540476Y-74906819D02*
X158159523Y-74906819D01*
X158492857Y-73906819D02*
X159159523Y-73906819D01*
X159159523Y-73906819D02*
X158730952Y-74906819D01*
X112697142Y-85384819D02*
X112363809Y-84908628D01*
X112125714Y-85384819D02*
X112125714Y-84384819D01*
X112125714Y-84384819D02*
X112506666Y-84384819D01*
X112506666Y-84384819D02*
X112601904Y-84432438D01*
X112601904Y-84432438D02*
X112649523Y-84480057D01*
X112649523Y-84480057D02*
X112697142Y-84575295D01*
X112697142Y-84575295D02*
X112697142Y-84718152D01*
X112697142Y-84718152D02*
X112649523Y-84813390D01*
X112649523Y-84813390D02*
X112601904Y-84861009D01*
X112601904Y-84861009D02*
X112506666Y-84908628D01*
X112506666Y-84908628D02*
X112125714Y-84908628D01*
X113649523Y-85384819D02*
X113078095Y-85384819D01*
X113363809Y-85384819D02*
X113363809Y-84384819D01*
X113363809Y-84384819D02*
X113268571Y-84527676D01*
X113268571Y-84527676D02*
X113173333Y-84622914D01*
X113173333Y-84622914D02*
X113078095Y-84670533D01*
X114506666Y-84384819D02*
X114316190Y-84384819D01*
X114316190Y-84384819D02*
X114220952Y-84432438D01*
X114220952Y-84432438D02*
X114173333Y-84480057D01*
X114173333Y-84480057D02*
X114078095Y-84622914D01*
X114078095Y-84622914D02*
X114030476Y-84813390D01*
X114030476Y-84813390D02*
X114030476Y-85194342D01*
X114030476Y-85194342D02*
X114078095Y-85289580D01*
X114078095Y-85289580D02*
X114125714Y-85337200D01*
X114125714Y-85337200D02*
X114220952Y-85384819D01*
X114220952Y-85384819D02*
X114411428Y-85384819D01*
X114411428Y-85384819D02*
X114506666Y-85337200D01*
X114506666Y-85337200D02*
X114554285Y-85289580D01*
X114554285Y-85289580D02*
X114601904Y-85194342D01*
X114601904Y-85194342D02*
X114601904Y-84956247D01*
X114601904Y-84956247D02*
X114554285Y-84861009D01*
X114554285Y-84861009D02*
X114506666Y-84813390D01*
X114506666Y-84813390D02*
X114411428Y-84765771D01*
X114411428Y-84765771D02*
X114220952Y-84765771D01*
X114220952Y-84765771D02*
X114125714Y-84813390D01*
X114125714Y-84813390D02*
X114078095Y-84861009D01*
X114078095Y-84861009D02*
X114030476Y-84956247D01*
X149993333Y-73229580D02*
X149945714Y-73277200D01*
X149945714Y-73277200D02*
X149802857Y-73324819D01*
X149802857Y-73324819D02*
X149707619Y-73324819D01*
X149707619Y-73324819D02*
X149564762Y-73277200D01*
X149564762Y-73277200D02*
X149469524Y-73181961D01*
X149469524Y-73181961D02*
X149421905Y-73086723D01*
X149421905Y-73086723D02*
X149374286Y-72896247D01*
X149374286Y-72896247D02*
X149374286Y-72753390D01*
X149374286Y-72753390D02*
X149421905Y-72562914D01*
X149421905Y-72562914D02*
X149469524Y-72467676D01*
X149469524Y-72467676D02*
X149564762Y-72372438D01*
X149564762Y-72372438D02*
X149707619Y-72324819D01*
X149707619Y-72324819D02*
X149802857Y-72324819D01*
X149802857Y-72324819D02*
X149945714Y-72372438D01*
X149945714Y-72372438D02*
X149993333Y-72420057D01*
X150850476Y-72324819D02*
X150660000Y-72324819D01*
X150660000Y-72324819D02*
X150564762Y-72372438D01*
X150564762Y-72372438D02*
X150517143Y-72420057D01*
X150517143Y-72420057D02*
X150421905Y-72562914D01*
X150421905Y-72562914D02*
X150374286Y-72753390D01*
X150374286Y-72753390D02*
X150374286Y-73134342D01*
X150374286Y-73134342D02*
X150421905Y-73229580D01*
X150421905Y-73229580D02*
X150469524Y-73277200D01*
X150469524Y-73277200D02*
X150564762Y-73324819D01*
X150564762Y-73324819D02*
X150755238Y-73324819D01*
X150755238Y-73324819D02*
X150850476Y-73277200D01*
X150850476Y-73277200D02*
X150898095Y-73229580D01*
X150898095Y-73229580D02*
X150945714Y-73134342D01*
X150945714Y-73134342D02*
X150945714Y-72896247D01*
X150945714Y-72896247D02*
X150898095Y-72801009D01*
X150898095Y-72801009D02*
X150850476Y-72753390D01*
X150850476Y-72753390D02*
X150755238Y-72705771D01*
X150755238Y-72705771D02*
X150564762Y-72705771D01*
X150564762Y-72705771D02*
X150469524Y-72753390D01*
X150469524Y-72753390D02*
X150421905Y-72801009D01*
X150421905Y-72801009D02*
X150374286Y-72896247D01*
X164901666Y-72064819D02*
X164901666Y-72779104D01*
X164901666Y-72779104D02*
X164854047Y-72921961D01*
X164854047Y-72921961D02*
X164758809Y-73017200D01*
X164758809Y-73017200D02*
X164615952Y-73064819D01*
X164615952Y-73064819D02*
X164520714Y-73064819D01*
X165806428Y-72398152D02*
X165806428Y-73064819D01*
X165568333Y-72017200D02*
X165330238Y-72731485D01*
X165330238Y-72731485D02*
X165949285Y-72731485D01*
X142987142Y-92856819D02*
X142653809Y-92380628D01*
X142415714Y-92856819D02*
X142415714Y-91856819D01*
X142415714Y-91856819D02*
X142796666Y-91856819D01*
X142796666Y-91856819D02*
X142891904Y-91904438D01*
X142891904Y-91904438D02*
X142939523Y-91952057D01*
X142939523Y-91952057D02*
X142987142Y-92047295D01*
X142987142Y-92047295D02*
X142987142Y-92190152D01*
X142987142Y-92190152D02*
X142939523Y-92285390D01*
X142939523Y-92285390D02*
X142891904Y-92333009D01*
X142891904Y-92333009D02*
X142796666Y-92380628D01*
X142796666Y-92380628D02*
X142415714Y-92380628D01*
X143939523Y-92856819D02*
X143368095Y-92856819D01*
X143653809Y-92856819D02*
X143653809Y-91856819D01*
X143653809Y-91856819D02*
X143558571Y-91999676D01*
X143558571Y-91999676D02*
X143463333Y-92094914D01*
X143463333Y-92094914D02*
X143368095Y-92142533D01*
X144272857Y-91856819D02*
X144939523Y-91856819D01*
X144939523Y-91856819D02*
X144510952Y-92856819D01*
D11*
X152640237Y-81774318D02*
X152640237Y-80504318D01*
X153970714Y-81653365D02*
X153910238Y-81713842D01*
X153910238Y-81713842D02*
X153728809Y-81774318D01*
X153728809Y-81774318D02*
X153607857Y-81774318D01*
X153607857Y-81774318D02*
X153426428Y-81713842D01*
X153426428Y-81713842D02*
X153305476Y-81592889D01*
X153305476Y-81592889D02*
X153244999Y-81471937D01*
X153244999Y-81471937D02*
X153184523Y-81230032D01*
X153184523Y-81230032D02*
X153184523Y-81048603D01*
X153184523Y-81048603D02*
X153244999Y-80806699D01*
X153244999Y-80806699D02*
X153305476Y-80685746D01*
X153305476Y-80685746D02*
X153426428Y-80564794D01*
X153426428Y-80564794D02*
X153607857Y-80504318D01*
X153607857Y-80504318D02*
X153728809Y-80504318D01*
X153728809Y-80504318D02*
X153910238Y-80564794D01*
X153910238Y-80564794D02*
X153970714Y-80625270D01*
X155180238Y-81774318D02*
X154454523Y-81774318D01*
X154817380Y-81774318D02*
X154817380Y-80504318D01*
X154817380Y-80504318D02*
X154696428Y-80685746D01*
X154696428Y-80685746D02*
X154575476Y-80806699D01*
X154575476Y-80806699D02*
X154454523Y-80867175D01*
D13*
X162365714Y-80676895D02*
X162099047Y-80295942D01*
X161908571Y-80676895D02*
X161908571Y-79876895D01*
X161908571Y-79876895D02*
X162213333Y-79876895D01*
X162213333Y-79876895D02*
X162289523Y-79914990D01*
X162289523Y-79914990D02*
X162327618Y-79953085D01*
X162327618Y-79953085D02*
X162365714Y-80029276D01*
X162365714Y-80029276D02*
X162365714Y-80143561D01*
X162365714Y-80143561D02*
X162327618Y-80219752D01*
X162327618Y-80219752D02*
X162289523Y-80257847D01*
X162289523Y-80257847D02*
X162213333Y-80295942D01*
X162213333Y-80295942D02*
X161908571Y-80295942D01*
X163127618Y-80676895D02*
X162670475Y-80676895D01*
X162899047Y-80676895D02*
X162899047Y-79876895D01*
X162899047Y-79876895D02*
X162822856Y-79991180D01*
X162822856Y-79991180D02*
X162746666Y-80067371D01*
X162746666Y-80067371D02*
X162670475Y-80105466D01*
X163508571Y-80676895D02*
X163660952Y-80676895D01*
X163660952Y-80676895D02*
X163737142Y-80638800D01*
X163737142Y-80638800D02*
X163775238Y-80600704D01*
X163775238Y-80600704D02*
X163851428Y-80486419D01*
X163851428Y-80486419D02*
X163889523Y-80334038D01*
X163889523Y-80334038D02*
X163889523Y-80029276D01*
X163889523Y-80029276D02*
X163851428Y-79953085D01*
X163851428Y-79953085D02*
X163813333Y-79914990D01*
X163813333Y-79914990D02*
X163737142Y-79876895D01*
X163737142Y-79876895D02*
X163584761Y-79876895D01*
X163584761Y-79876895D02*
X163508571Y-79914990D01*
X163508571Y-79914990D02*
X163470476Y-79953085D01*
X163470476Y-79953085D02*
X163432380Y-80029276D01*
X163432380Y-80029276D02*
X163432380Y-80219752D01*
X163432380Y-80219752D02*
X163470476Y-80295942D01*
X163470476Y-80295942D02*
X163508571Y-80334038D01*
X163508571Y-80334038D02*
X163584761Y-80372133D01*
X163584761Y-80372133D02*
X163737142Y-80372133D01*
X163737142Y-80372133D02*
X163813333Y-80334038D01*
X163813333Y-80334038D02*
X163851428Y-80295942D01*
X163851428Y-80295942D02*
X163889523Y-80219752D01*
D12*
X131314819Y-76226189D02*
X130314819Y-76226189D01*
X131219580Y-75178571D02*
X131267200Y-75226190D01*
X131267200Y-75226190D02*
X131314819Y-75369047D01*
X131314819Y-75369047D02*
X131314819Y-75464285D01*
X131314819Y-75464285D02*
X131267200Y-75607142D01*
X131267200Y-75607142D02*
X131171961Y-75702380D01*
X131171961Y-75702380D02*
X131076723Y-75749999D01*
X131076723Y-75749999D02*
X130886247Y-75797618D01*
X130886247Y-75797618D02*
X130743390Y-75797618D01*
X130743390Y-75797618D02*
X130552914Y-75749999D01*
X130552914Y-75749999D02*
X130457676Y-75702380D01*
X130457676Y-75702380D02*
X130362438Y-75607142D01*
X130362438Y-75607142D02*
X130314819Y-75464285D01*
X130314819Y-75464285D02*
X130314819Y-75369047D01*
X130314819Y-75369047D02*
X130362438Y-75226190D01*
X130362438Y-75226190D02*
X130410057Y-75178571D01*
X130314819Y-74273809D02*
X130314819Y-74749999D01*
X130314819Y-74749999D02*
X130791009Y-74797618D01*
X130791009Y-74797618D02*
X130743390Y-74749999D01*
X130743390Y-74749999D02*
X130695771Y-74654761D01*
X130695771Y-74654761D02*
X130695771Y-74416666D01*
X130695771Y-74416666D02*
X130743390Y-74321428D01*
X130743390Y-74321428D02*
X130791009Y-74273809D01*
X130791009Y-74273809D02*
X130886247Y-74226190D01*
X130886247Y-74226190D02*
X131124342Y-74226190D01*
X131124342Y-74226190D02*
X131219580Y-74273809D01*
X131219580Y-74273809D02*
X131267200Y-74321428D01*
X131267200Y-74321428D02*
X131314819Y-74416666D01*
X131314819Y-74416666D02*
X131314819Y-74654761D01*
X131314819Y-74654761D02*
X131267200Y-74749999D01*
X131267200Y-74749999D02*
X131219580Y-74797618D01*
%TO.C,IC3*%
D14*
X165410000Y-97725000D02*
X172810000Y-97725000D01*
X172810000Y-97725000D02*
X172810000Y-103575000D01*
X172810000Y-103575000D02*
X165410000Y-103575000D01*
X165410000Y-103575000D02*
X165410000Y-97725000D01*
X163460000Y-98070000D02*
X165060000Y-98070000D01*
%TO.C,R10*%
D15*
X171065000Y-110567064D02*
X171065000Y-110112936D01*
X172535000Y-110567064D02*
X172535000Y-110112936D01*
%TO.C,R8*%
X146362936Y-73737000D02*
X146817064Y-73737000D01*
X146362936Y-75207000D02*
X146817064Y-75207000D01*
%TO.C,R14*%
X115502936Y-108155000D02*
X115957064Y-108155000D01*
X115502936Y-109625000D02*
X115957064Y-109625000D01*
%TO.C,IC4*%
X110820000Y-73897500D02*
X114580000Y-73897500D01*
X110820000Y-80717500D02*
X114580000Y-80717500D01*
X114580000Y-73897500D02*
X114580000Y-75157500D01*
X114580000Y-80717500D02*
X114580000Y-79457500D01*
X109540000Y-73997500D02*
X109300000Y-73667500D01*
X109780000Y-73667500D01*
X109540000Y-73997500D01*
G36*
X109540000Y-73997500D02*
G01*
X109300000Y-73667500D01*
X109780000Y-73667500D01*
X109540000Y-73997500D01*
G37*
%TO.C,R20*%
X123012936Y-84005000D02*
X123467064Y-84005000D01*
X123012936Y-85475000D02*
X123467064Y-85475000D01*
%TO.C,Q2*%
X115097500Y-100810000D02*
X116617500Y-100810000D01*
X115097500Y-100860000D02*
X115097500Y-100810000D01*
X115097500Y-102760000D02*
X115097500Y-101980000D01*
X115097500Y-103930000D02*
X115097500Y-103880000D01*
X116617500Y-100810000D02*
X116617500Y-101810000D01*
X116617500Y-102930000D02*
X116617500Y-103930000D01*
X116617500Y-103930000D02*
X115097500Y-103930000D01*
X114797500Y-102320000D02*
X114317500Y-102320000D01*
X114557500Y-101990000D01*
X114797500Y-102320000D01*
G36*
X114797500Y-102320000D02*
G01*
X114317500Y-102320000D01*
X114557500Y-101990000D01*
X114797500Y-102320000D01*
G37*
%TO.C,C16*%
X174605000Y-94051252D02*
X174605000Y-93528748D01*
X176075000Y-94051252D02*
X176075000Y-93528748D01*
%TO.C,R7*%
X161142936Y-102855000D02*
X161597064Y-102855000D01*
X161142936Y-104325000D02*
X161597064Y-104325000D01*
%TO.C,Q3*%
X115047500Y-104470000D02*
X116567500Y-104470000D01*
X115047500Y-104520000D02*
X115047500Y-104470000D01*
X115047500Y-106420000D02*
X115047500Y-105640000D01*
X115047500Y-107590000D02*
X115047500Y-107540000D01*
X116567500Y-104470000D02*
X116567500Y-105470000D01*
X116567500Y-106590000D02*
X116567500Y-107590000D01*
X116567500Y-107590000D02*
X115047500Y-107590000D01*
X114747500Y-105980000D02*
X114267500Y-105980000D01*
X114507500Y-105650000D01*
X114747500Y-105980000D01*
G36*
X114747500Y-105980000D02*
G01*
X114267500Y-105980000D01*
X114507500Y-105650000D01*
X114747500Y-105980000D01*
G37*
%TO.C,D6*%
X166920000Y-86820000D02*
X168440000Y-86820000D01*
X166920000Y-87820000D02*
X166920000Y-86820000D01*
X166920000Y-89940000D02*
X166920000Y-88940000D01*
X168440000Y-86820000D02*
X168440000Y-86870000D01*
X168440000Y-87990000D02*
X168440000Y-88770000D01*
X168440000Y-89890000D02*
X168440000Y-89940000D01*
X168440000Y-89940000D02*
X166920000Y-89940000D01*
X168980000Y-88760000D02*
X168740000Y-88430000D01*
X169220000Y-88430000D01*
X168980000Y-88760000D01*
G36*
X168980000Y-88760000D02*
G01*
X168740000Y-88430000D01*
X169220000Y-88430000D01*
X168980000Y-88760000D01*
G37*
%TO.C,C18*%
X115448748Y-110385000D02*
X115971252Y-110385000D01*
X115448748Y-111855000D02*
X115971252Y-111855000D01*
%TO.C,D2*%
X155522500Y-102630000D02*
X155522500Y-104550000D01*
X155522500Y-104550000D02*
X158207500Y-104550000D01*
X158207500Y-102630000D02*
X155522500Y-102630000D01*
%TO.C,SW4*%
X139190000Y-109670000D02*
X139190000Y-107070000D01*
X139290000Y-105120000D02*
X145290000Y-105120000D01*
X139390000Y-111620000D02*
X145190000Y-111620000D01*
X145390000Y-109670000D02*
X145390000Y-107070000D01*
X147390000Y-110670000D02*
X147390000Y-111670000D01*
X147390000Y-111670000D02*
X146390000Y-111670000D01*
%TO.C,SW2*%
X148160000Y-105170000D02*
X149160000Y-105170000D01*
X148160000Y-106170000D02*
X148160000Y-105170000D01*
X150160000Y-107170000D02*
X150160000Y-109770000D01*
X156160000Y-105220000D02*
X150360000Y-105220000D01*
X156260000Y-111720000D02*
X150260000Y-111720000D01*
X156360000Y-107170000D02*
X156360000Y-109770000D01*
%TO.C,C7*%
X116618748Y-84025000D02*
X117141252Y-84025000D01*
X116618748Y-85495000D02*
X117141252Y-85495000D01*
%TO.C,C11*%
X145458748Y-76865000D02*
X145981252Y-76865000D01*
X145458748Y-78335000D02*
X145981252Y-78335000D01*
%TO.C,R18*%
X147667064Y-89887000D02*
X147212936Y-89887000D01*
X147667064Y-91357000D02*
X147212936Y-91357000D01*
%TO.C,R9*%
X150015000Y-102842936D02*
X150015000Y-103297064D01*
X151485000Y-102842936D02*
X151485000Y-103297064D01*
%TO.C,Y1*%
X143280000Y-78802000D02*
X143280000Y-84322000D01*
X147900000Y-78802000D02*
X143280000Y-78802000D01*
%TO.C,IC6*%
X114755000Y-90180000D02*
X114830000Y-90180000D01*
X114755000Y-91690305D02*
X114755000Y-90180000D01*
X116600000Y-90180000D02*
X116675000Y-90180000D01*
X116675000Y-90180000D02*
X116675000Y-91900000D01*
X116675000Y-91900000D02*
X116600000Y-91900000D01*
X114825000Y-92040000D02*
X114635000Y-92180000D01*
X114635000Y-91900000D01*
X114825000Y-92040000D01*
G36*
X114825000Y-92040000D02*
G01*
X114635000Y-92180000D01*
X114635000Y-91900000D01*
X114825000Y-92040000D01*
G37*
%TO.C,R15*%
X109670436Y-81735000D02*
X110124564Y-81735000D01*
X109670436Y-83205000D02*
X110124564Y-83205000D01*
%TO.C,C17*%
X111545000Y-102478748D02*
X111545000Y-103001252D01*
X113015000Y-102478748D02*
X113015000Y-103001252D01*
%TO.C,J5*%
D16*
X109403199Y-89025141D02*
X109403199Y-89554861D01*
X109403199Y-93025141D02*
X109403199Y-93554861D01*
X110483971Y-95887401D02*
X110817593Y-95887401D01*
X110664918Y-86692601D02*
X110483971Y-86692601D01*
X111392405Y-95887401D02*
X111726027Y-95887401D01*
X111726027Y-86692601D02*
X111545080Y-86692601D01*
X112806799Y-89554861D02*
X112806799Y-89025141D01*
X112806799Y-93554861D02*
X112806799Y-93025141D01*
D17*
X110000999Y-97665401D02*
G75*
G02*
X109238999Y-97665401I-381000J0D01*
G01*
X109238999Y-97665401D02*
G75*
G02*
X110000999Y-97665401I381000J0D01*
G01*
%TO.C,Y4*%
D15*
X142620000Y-85702000D02*
X145620000Y-85702000D01*
X145620000Y-88922000D02*
X142620000Y-88922000D01*
X141440000Y-86217000D02*
G75*
G02*
X142620000Y-85701999I1177940J-1089620D01*
G01*
X142620000Y-88922000D02*
G75*
G02*
X141440001Y-88406999I-2060J1604620D01*
G01*
X145620000Y-85702000D02*
G75*
G02*
X146799999Y-86217001I2060J-1604620D01*
G01*
X146800000Y-88407000D02*
G75*
G02*
X145620000Y-88922001I-1177940J1089620D01*
G01*
%TO.C,J8*%
X170357500Y-87770000D02*
X170957500Y-88070000D01*
X170357500Y-88370000D02*
X170357500Y-87770000D01*
X170957500Y-88070000D02*
X170357500Y-88370000D01*
X171647500Y-73930000D02*
X171647500Y-75590000D01*
X171647500Y-79400000D02*
X171647500Y-77690000D01*
X171647500Y-83210000D02*
X171647500Y-81500000D01*
X171647500Y-87020000D02*
X171647500Y-85310000D01*
X171647500Y-90780000D02*
X171647500Y-89120000D01*
X171647500Y-90780000D02*
X181067500Y-90780000D01*
X177757500Y-90780000D02*
X177757500Y-73930000D01*
X181067500Y-73930000D02*
X171647500Y-73930000D01*
X181067500Y-90780000D02*
X181067500Y-73930000D01*
%TO.C,D1*%
X143417500Y-104480000D02*
X146102500Y-104480000D01*
X146102500Y-102560000D02*
X143417500Y-102560000D01*
X146102500Y-104480000D02*
X146102500Y-102560000D01*
%TO.C,C8*%
X116618748Y-81755000D02*
X117141252Y-81755000D01*
X116618748Y-83225000D02*
X117141252Y-83225000D01*
%TO.C,IC2*%
D14*
X166775000Y-91940000D02*
X168302000Y-91940000D01*
X168652000Y-92068000D02*
X171848000Y-92068000D01*
X168652000Y-96972000D02*
X168652000Y-92068000D01*
X171848000Y-92068000D02*
X171848000Y-96972000D01*
X171848000Y-96972000D02*
X168652000Y-96972000D01*
%TO.C,C26*%
D15*
X159765000Y-78125752D02*
X159765000Y-77603248D01*
X161235000Y-78125752D02*
X161235000Y-77603248D01*
%TO.C,J7*%
X161250000Y-85402000D02*
X161250000Y-84222000D01*
X161315000Y-81772000D02*
X167885000Y-81772000D01*
X161315000Y-82634077D02*
X161315000Y-81772000D01*
X162060000Y-85402000D02*
X161250000Y-85402000D01*
X162870000Y-85402000D02*
X162870000Y-84888708D01*
X162870000Y-85402000D02*
X167885000Y-85402000D01*
X167885000Y-82634077D02*
X167885000Y-81772000D01*
X167885000Y-83904077D02*
X167885000Y-83269923D01*
X167885000Y-85402000D02*
X167885000Y-84539923D01*
%TO.C,R11*%
X140480436Y-102805000D02*
X140934564Y-102805000D01*
X140480436Y-104275000D02*
X140934564Y-104275000D01*
%TO.C,C12*%
X141335000Y-81951252D02*
X141335000Y-81428748D01*
X142805000Y-81951252D02*
X142805000Y-81428748D01*
%TO.C,J3*%
X173470000Y-106455000D02*
X174850000Y-106455000D01*
X173470000Y-107835000D02*
X173470000Y-106455000D01*
X173470000Y-109105000D02*
X173470000Y-111755000D01*
X173470000Y-109105000D02*
X176230000Y-109105000D01*
X173470000Y-111755000D02*
X176230000Y-111755000D01*
X176230000Y-109105000D02*
X176230000Y-111755000D01*
%TO.C,C28*%
X157441252Y-86967000D02*
X156918748Y-86967000D01*
X157441252Y-88437000D02*
X156918748Y-88437000D01*
%TO.C,SW3*%
X159280000Y-105170000D02*
X160280000Y-105170000D01*
X159280000Y-106170000D02*
X159280000Y-105170000D01*
X161280000Y-107170000D02*
X161280000Y-109770000D01*
X167280000Y-105220000D02*
X161480000Y-105220000D01*
X167380000Y-111720000D02*
X161380000Y-111720000D01*
X167480000Y-107170000D02*
X167480000Y-109770000D01*
%TO.C,R21*%
X171095000Y-106224564D02*
X171095000Y-105770436D01*
X172565000Y-106224564D02*
X172565000Y-105770436D01*
%TO.C,C19*%
X175495000Y-99788748D02*
X175495000Y-100311252D01*
X176965000Y-99788748D02*
X176965000Y-100311252D01*
%TO.C,R12*%
X111545000Y-106572936D02*
X111545000Y-107027064D01*
X113015000Y-106572936D02*
X113015000Y-107027064D01*
%TO.C,R13*%
X121415000Y-106197064D02*
X121415000Y-105742936D01*
X122885000Y-106197064D02*
X122885000Y-105742936D01*
%TO.C,C27*%
X154661252Y-73807000D02*
X154138748Y-73807000D01*
X154661252Y-75277000D02*
X154138748Y-75277000D01*
%TO.C,R16*%
X109692936Y-83915000D02*
X110147064Y-83915000D01*
X109692936Y-85385000D02*
X110147064Y-85385000D01*
%TO.C,C6*%
X150118748Y-73807000D02*
X150641252Y-73807000D01*
X150118748Y-75277000D02*
X150641252Y-75277000D01*
%TO.C,J4*%
X164625000Y-73940000D02*
X164625000Y-76700000D01*
X167275000Y-73940000D02*
X164625000Y-73940000D01*
X167275000Y-73940000D02*
X167275000Y-76700000D01*
X167275000Y-76700000D02*
X164625000Y-76700000D01*
X168545000Y-73940000D02*
X169925000Y-73940000D01*
X169925000Y-73940000D02*
X169925000Y-75320000D01*
%TO.C,R17*%
X143302936Y-89857000D02*
X143757064Y-89857000D01*
X143302936Y-91327000D02*
X143757064Y-91327000D01*
%TO.C,IC1*%
D14*
X150730000Y-78050000D02*
X157030000Y-78050000D01*
X150730000Y-84350000D02*
X150730000Y-78050000D01*
X157030000Y-78050000D02*
X157030000Y-84350000D01*
X157030000Y-84350000D02*
X150730000Y-84350000D01*
D18*
X149280000Y-77700000D02*
G75*
G02*
X149030000Y-77700000I-125000J0D01*
G01*
X149030000Y-77700000D02*
G75*
G02*
X149280000Y-77700000I125000J0D01*
G01*
%TO.C,R19*%
D15*
X162105000Y-78089064D02*
X162105000Y-77634936D01*
X163575000Y-78089064D02*
X163575000Y-77634936D01*
%TO.C,IC5*%
X117910000Y-73835000D02*
X129630000Y-73835000D01*
X117910000Y-80155000D02*
X117910000Y-73835000D01*
X119624000Y-80155000D02*
X117910000Y-80155000D01*
X129630000Y-73835000D02*
X129630000Y-80155000D01*
X129630000Y-80155000D02*
X120216000Y-80155000D01*
X120260000Y-80625000D02*
X119580000Y-80625000D01*
X119920000Y-80155000D01*
X120260000Y-80625000D01*
G36*
X120260000Y-80625000D02*
G01*
X119580000Y-80625000D01*
X119920000Y-80155000D01*
X120260000Y-80625000D01*
G37*
%TD*%
D12*
X188588152Y-96932856D02*
X189254819Y-96932856D01*
X188207200Y-97170951D02*
X188921485Y-97409046D01*
X188921485Y-97409046D02*
X188921485Y-96789999D01*
X189254819Y-95885237D02*
X189254819Y-96456665D01*
X189254819Y-96170951D02*
X188254819Y-96170951D01*
X188254819Y-96170951D02*
X188397676Y-96266189D01*
X188397676Y-96266189D02*
X188492914Y-96361427D01*
X188492914Y-96361427D02*
X188540533Y-96456665D01*
X189159580Y-95456665D02*
X189207200Y-95409046D01*
X189207200Y-95409046D02*
X189254819Y-95456665D01*
X189254819Y-95456665D02*
X189207200Y-95504284D01*
X189207200Y-95504284D02*
X189159580Y-95456665D01*
X189159580Y-95456665D02*
X189254819Y-95456665D01*
X189254819Y-94932856D02*
X189254819Y-94742380D01*
X189254819Y-94742380D02*
X189207200Y-94647142D01*
X189207200Y-94647142D02*
X189159580Y-94599523D01*
X189159580Y-94599523D02*
X189016723Y-94504285D01*
X189016723Y-94504285D02*
X188826247Y-94456666D01*
X188826247Y-94456666D02*
X188445295Y-94456666D01*
X188445295Y-94456666D02*
X188350057Y-94504285D01*
X188350057Y-94504285D02*
X188302438Y-94551904D01*
X188302438Y-94551904D02*
X188254819Y-94647142D01*
X188254819Y-94647142D02*
X188254819Y-94837618D01*
X188254819Y-94837618D02*
X188302438Y-94932856D01*
X188302438Y-94932856D02*
X188350057Y-94980475D01*
X188350057Y-94980475D02*
X188445295Y-95028094D01*
X188445295Y-95028094D02*
X188683390Y-95028094D01*
X188683390Y-95028094D02*
X188778628Y-94980475D01*
X188778628Y-94980475D02*
X188826247Y-94932856D01*
X188826247Y-94932856D02*
X188873866Y-94837618D01*
X188873866Y-94837618D02*
X188873866Y-94647142D01*
X188873866Y-94647142D02*
X188826247Y-94551904D01*
X188826247Y-94551904D02*
X188778628Y-94504285D01*
X188778628Y-94504285D02*
X188683390Y-94456666D01*
X188254819Y-93599523D02*
X188254819Y-93789999D01*
X188254819Y-93789999D02*
X188302438Y-93885237D01*
X188302438Y-93885237D02*
X188350057Y-93932856D01*
X188350057Y-93932856D02*
X188492914Y-94028094D01*
X188492914Y-94028094D02*
X188683390Y-94075713D01*
X188683390Y-94075713D02*
X189064342Y-94075713D01*
X189064342Y-94075713D02*
X189159580Y-94028094D01*
X189159580Y-94028094D02*
X189207200Y-93980475D01*
X189207200Y-93980475D02*
X189254819Y-93885237D01*
X189254819Y-93885237D02*
X189254819Y-93694761D01*
X189254819Y-93694761D02*
X189207200Y-93599523D01*
X189207200Y-93599523D02*
X189159580Y-93551904D01*
X189159580Y-93551904D02*
X189064342Y-93504285D01*
X189064342Y-93504285D02*
X188826247Y-93504285D01*
X188826247Y-93504285D02*
X188731009Y-93551904D01*
X188731009Y-93551904D02*
X188683390Y-93599523D01*
X188683390Y-93599523D02*
X188635771Y-93694761D01*
X188635771Y-93694761D02*
X188635771Y-93885237D01*
X188635771Y-93885237D02*
X188683390Y-93980475D01*
X188683390Y-93980475D02*
X188731009Y-94028094D01*
X188731009Y-94028094D02*
X188826247Y-94075713D01*
X188254819Y-92885237D02*
X188254819Y-92789999D01*
X188254819Y-92789999D02*
X188302438Y-92694761D01*
X188302438Y-92694761D02*
X188350057Y-92647142D01*
X188350057Y-92647142D02*
X188445295Y-92599523D01*
X188445295Y-92599523D02*
X188635771Y-92551904D01*
X188635771Y-92551904D02*
X188873866Y-92551904D01*
X188873866Y-92551904D02*
X189064342Y-92599523D01*
X189064342Y-92599523D02*
X189159580Y-92647142D01*
X189159580Y-92647142D02*
X189207200Y-92694761D01*
X189207200Y-92694761D02*
X189254819Y-92789999D01*
X189254819Y-92789999D02*
X189254819Y-92885237D01*
X189254819Y-92885237D02*
X189207200Y-92980475D01*
X189207200Y-92980475D02*
X189159580Y-93028094D01*
X189159580Y-93028094D02*
X189064342Y-93075713D01*
X189064342Y-93075713D02*
X188873866Y-93123332D01*
X188873866Y-93123332D02*
X188635771Y-93123332D01*
X188635771Y-93123332D02*
X188445295Y-93075713D01*
X188445295Y-93075713D02*
X188350057Y-93028094D01*
X188350057Y-93028094D02*
X188302438Y-92980475D01*
X188302438Y-92980475D02*
X188254819Y-92885237D01*
X188254819Y-91932856D02*
X188254819Y-91837618D01*
X188254819Y-91837618D02*
X188302438Y-91742380D01*
X188302438Y-91742380D02*
X188350057Y-91694761D01*
X188350057Y-91694761D02*
X188445295Y-91647142D01*
X188445295Y-91647142D02*
X188635771Y-91599523D01*
X188635771Y-91599523D02*
X188873866Y-91599523D01*
X188873866Y-91599523D02*
X189064342Y-91647142D01*
X189064342Y-91647142D02*
X189159580Y-91694761D01*
X189159580Y-91694761D02*
X189207200Y-91742380D01*
X189207200Y-91742380D02*
X189254819Y-91837618D01*
X189254819Y-91837618D02*
X189254819Y-91932856D01*
X189254819Y-91932856D02*
X189207200Y-92028094D01*
X189207200Y-92028094D02*
X189159580Y-92075713D01*
X189159580Y-92075713D02*
X189064342Y-92123332D01*
X189064342Y-92123332D02*
X188873866Y-92170951D01*
X188873866Y-92170951D02*
X188635771Y-92170951D01*
X188635771Y-92170951D02*
X188445295Y-92123332D01*
X188445295Y-92123332D02*
X188350057Y-92075713D01*
X188350057Y-92075713D02*
X188302438Y-92028094D01*
X188302438Y-92028094D02*
X188254819Y-91932856D01*
X189254819Y-90409046D02*
X188588152Y-90409046D01*
X188683390Y-90409046D02*
X188635771Y-90361427D01*
X188635771Y-90361427D02*
X188588152Y-90266189D01*
X188588152Y-90266189D02*
X188588152Y-90123332D01*
X188588152Y-90123332D02*
X188635771Y-90028094D01*
X188635771Y-90028094D02*
X188731009Y-89980475D01*
X188731009Y-89980475D02*
X189254819Y-89980475D01*
X188731009Y-89980475D02*
X188635771Y-89932856D01*
X188635771Y-89932856D02*
X188588152Y-89837618D01*
X188588152Y-89837618D02*
X188588152Y-89694761D01*
X188588152Y-89694761D02*
X188635771Y-89599522D01*
X188635771Y-89599522D02*
X188731009Y-89551903D01*
X188731009Y-89551903D02*
X189254819Y-89551903D01*
X189254819Y-89075713D02*
X188588152Y-89075713D01*
X188683390Y-89075713D02*
X188635771Y-89028094D01*
X188635771Y-89028094D02*
X188588152Y-88932856D01*
X188588152Y-88932856D02*
X188588152Y-88789999D01*
X188588152Y-88789999D02*
X188635771Y-88694761D01*
X188635771Y-88694761D02*
X188731009Y-88647142D01*
X188731009Y-88647142D02*
X189254819Y-88647142D01*
X188731009Y-88647142D02*
X188635771Y-88599523D01*
X188635771Y-88599523D02*
X188588152Y-88504285D01*
X188588152Y-88504285D02*
X188588152Y-88361428D01*
X188588152Y-88361428D02*
X188635771Y-88266189D01*
X188635771Y-88266189D02*
X188731009Y-88218570D01*
X188731009Y-88218570D02*
X189254819Y-88218570D01*
D19*
X178310000Y-113770000D02*
X190536420Y-113770000D01*
X190536420Y-71810000D02*
X178310000Y-71810000D01*
X189950000Y-113770000D02*
X189950000Y-71810000D01*
X189950000Y-113770000D02*
X189363579Y-112643496D01*
X189950000Y-113770000D02*
X190536421Y-112643496D01*
X189950000Y-71810000D02*
X190536421Y-72936504D01*
X189950000Y-71810000D02*
X189363579Y-72936504D01*
D12*
X137103334Y-125964819D02*
X137770000Y-125964819D01*
X137770000Y-125964819D02*
X137341429Y-126964819D01*
X138103334Y-126060057D02*
X138150953Y-126012438D01*
X138150953Y-126012438D02*
X138246191Y-125964819D01*
X138246191Y-125964819D02*
X138484286Y-125964819D01*
X138484286Y-125964819D02*
X138579524Y-126012438D01*
X138579524Y-126012438D02*
X138627143Y-126060057D01*
X138627143Y-126060057D02*
X138674762Y-126155295D01*
X138674762Y-126155295D02*
X138674762Y-126250533D01*
X138674762Y-126250533D02*
X138627143Y-126393390D01*
X138627143Y-126393390D02*
X138055715Y-126964819D01*
X138055715Y-126964819D02*
X138674762Y-126964819D01*
X139103334Y-126869580D02*
X139150953Y-126917200D01*
X139150953Y-126917200D02*
X139103334Y-126964819D01*
X139103334Y-126964819D02*
X139055715Y-126917200D01*
X139055715Y-126917200D02*
X139103334Y-126869580D01*
X139103334Y-126869580D02*
X139103334Y-126964819D01*
X139770000Y-125964819D02*
X139865238Y-125964819D01*
X139865238Y-125964819D02*
X139960476Y-126012438D01*
X139960476Y-126012438D02*
X140008095Y-126060057D01*
X140008095Y-126060057D02*
X140055714Y-126155295D01*
X140055714Y-126155295D02*
X140103333Y-126345771D01*
X140103333Y-126345771D02*
X140103333Y-126583866D01*
X140103333Y-126583866D02*
X140055714Y-126774342D01*
X140055714Y-126774342D02*
X140008095Y-126869580D01*
X140008095Y-126869580D02*
X139960476Y-126917200D01*
X139960476Y-126917200D02*
X139865238Y-126964819D01*
X139865238Y-126964819D02*
X139770000Y-126964819D01*
X139770000Y-126964819D02*
X139674762Y-126917200D01*
X139674762Y-126917200D02*
X139627143Y-126869580D01*
X139627143Y-126869580D02*
X139579524Y-126774342D01*
X139579524Y-126774342D02*
X139531905Y-126583866D01*
X139531905Y-126583866D02*
X139531905Y-126345771D01*
X139531905Y-126345771D02*
X139579524Y-126155295D01*
X139579524Y-126155295D02*
X139627143Y-126060057D01*
X139627143Y-126060057D02*
X139674762Y-126012438D01*
X139674762Y-126012438D02*
X139770000Y-125964819D01*
X140674762Y-126393390D02*
X140579524Y-126345771D01*
X140579524Y-126345771D02*
X140531905Y-126298152D01*
X140531905Y-126298152D02*
X140484286Y-126202914D01*
X140484286Y-126202914D02*
X140484286Y-126155295D01*
X140484286Y-126155295D02*
X140531905Y-126060057D01*
X140531905Y-126060057D02*
X140579524Y-126012438D01*
X140579524Y-126012438D02*
X140674762Y-125964819D01*
X140674762Y-125964819D02*
X140865238Y-125964819D01*
X140865238Y-125964819D02*
X140960476Y-126012438D01*
X140960476Y-126012438D02*
X141008095Y-126060057D01*
X141008095Y-126060057D02*
X141055714Y-126155295D01*
X141055714Y-126155295D02*
X141055714Y-126202914D01*
X141055714Y-126202914D02*
X141008095Y-126298152D01*
X141008095Y-126298152D02*
X140960476Y-126345771D01*
X140960476Y-126345771D02*
X140865238Y-126393390D01*
X140865238Y-126393390D02*
X140674762Y-126393390D01*
X140674762Y-126393390D02*
X140579524Y-126441009D01*
X140579524Y-126441009D02*
X140531905Y-126488628D01*
X140531905Y-126488628D02*
X140484286Y-126583866D01*
X140484286Y-126583866D02*
X140484286Y-126774342D01*
X140484286Y-126774342D02*
X140531905Y-126869580D01*
X140531905Y-126869580D02*
X140579524Y-126917200D01*
X140579524Y-126917200D02*
X140674762Y-126964819D01*
X140674762Y-126964819D02*
X140865238Y-126964819D01*
X140865238Y-126964819D02*
X140960476Y-126917200D01*
X140960476Y-126917200D02*
X141008095Y-126869580D01*
X141008095Y-126869580D02*
X141055714Y-126774342D01*
X141055714Y-126774342D02*
X141055714Y-126583866D01*
X141055714Y-126583866D02*
X141008095Y-126488628D01*
X141008095Y-126488628D02*
X140960476Y-126441009D01*
X140960476Y-126441009D02*
X140865238Y-126393390D01*
X141674762Y-125964819D02*
X141770000Y-125964819D01*
X141770000Y-125964819D02*
X141865238Y-126012438D01*
X141865238Y-126012438D02*
X141912857Y-126060057D01*
X141912857Y-126060057D02*
X141960476Y-126155295D01*
X141960476Y-126155295D02*
X142008095Y-126345771D01*
X142008095Y-126345771D02*
X142008095Y-126583866D01*
X142008095Y-126583866D02*
X141960476Y-126774342D01*
X141960476Y-126774342D02*
X141912857Y-126869580D01*
X141912857Y-126869580D02*
X141865238Y-126917200D01*
X141865238Y-126917200D02*
X141770000Y-126964819D01*
X141770000Y-126964819D02*
X141674762Y-126964819D01*
X141674762Y-126964819D02*
X141579524Y-126917200D01*
X141579524Y-126917200D02*
X141531905Y-126869580D01*
X141531905Y-126869580D02*
X141484286Y-126774342D01*
X141484286Y-126774342D02*
X141436667Y-126583866D01*
X141436667Y-126583866D02*
X141436667Y-126345771D01*
X141436667Y-126345771D02*
X141484286Y-126155295D01*
X141484286Y-126155295D02*
X141531905Y-126060057D01*
X141531905Y-126060057D02*
X141579524Y-126012438D01*
X141579524Y-126012438D02*
X141674762Y-125964819D01*
X142627143Y-125964819D02*
X142722381Y-125964819D01*
X142722381Y-125964819D02*
X142817619Y-126012438D01*
X142817619Y-126012438D02*
X142865238Y-126060057D01*
X142865238Y-126060057D02*
X142912857Y-126155295D01*
X142912857Y-126155295D02*
X142960476Y-126345771D01*
X142960476Y-126345771D02*
X142960476Y-126583866D01*
X142960476Y-126583866D02*
X142912857Y-126774342D01*
X142912857Y-126774342D02*
X142865238Y-126869580D01*
X142865238Y-126869580D02*
X142817619Y-126917200D01*
X142817619Y-126917200D02*
X142722381Y-126964819D01*
X142722381Y-126964819D02*
X142627143Y-126964819D01*
X142627143Y-126964819D02*
X142531905Y-126917200D01*
X142531905Y-126917200D02*
X142484286Y-126869580D01*
X142484286Y-126869580D02*
X142436667Y-126774342D01*
X142436667Y-126774342D02*
X142389048Y-126583866D01*
X142389048Y-126583866D02*
X142389048Y-126345771D01*
X142389048Y-126345771D02*
X142436667Y-126155295D01*
X142436667Y-126155295D02*
X142484286Y-126060057D01*
X142484286Y-126060057D02*
X142531905Y-126012438D01*
X142531905Y-126012438D02*
X142627143Y-125964819D01*
X144150953Y-126964819D02*
X144150953Y-126298152D01*
X144150953Y-126393390D02*
X144198572Y-126345771D01*
X144198572Y-126345771D02*
X144293810Y-126298152D01*
X144293810Y-126298152D02*
X144436667Y-126298152D01*
X144436667Y-126298152D02*
X144531905Y-126345771D01*
X144531905Y-126345771D02*
X144579524Y-126441009D01*
X144579524Y-126441009D02*
X144579524Y-126964819D01*
X144579524Y-126441009D02*
X144627143Y-126345771D01*
X144627143Y-126345771D02*
X144722381Y-126298152D01*
X144722381Y-126298152D02*
X144865238Y-126298152D01*
X144865238Y-126298152D02*
X144960477Y-126345771D01*
X144960477Y-126345771D02*
X145008096Y-126441009D01*
X145008096Y-126441009D02*
X145008096Y-126964819D01*
X145484286Y-126964819D02*
X145484286Y-126298152D01*
X145484286Y-126393390D02*
X145531905Y-126345771D01*
X145531905Y-126345771D02*
X145627143Y-126298152D01*
X145627143Y-126298152D02*
X145770000Y-126298152D01*
X145770000Y-126298152D02*
X145865238Y-126345771D01*
X145865238Y-126345771D02*
X145912857Y-126441009D01*
X145912857Y-126441009D02*
X145912857Y-126964819D01*
X145912857Y-126441009D02*
X145960476Y-126345771D01*
X145960476Y-126345771D02*
X146055714Y-126298152D01*
X146055714Y-126298152D02*
X146198571Y-126298152D01*
X146198571Y-126298152D02*
X146293810Y-126345771D01*
X146293810Y-126345771D02*
X146341429Y-126441009D01*
X146341429Y-126441009D02*
X146341429Y-126964819D01*
D19*
X105730000Y-113560000D02*
X105730000Y-128246420D01*
X177810000Y-128246420D02*
X177810000Y-113560000D01*
X105730000Y-127660000D02*
X177810000Y-127660000D01*
X105730000Y-127660000D02*
X106856504Y-127073579D01*
X105730000Y-127660000D02*
X106856504Y-128246421D01*
X177810000Y-127660000D02*
X176683496Y-128246421D01*
X177810000Y-127660000D02*
X176683496Y-127073579D01*
M02*
